<svg id="Capa_1" enable-background="new 0 0 512 512" height="512" viewBox="0 0 512 512" width="512" xmlns="http://www.w3.org/2000/svg"><g><g><g><g><g><g id="XMLID_802_"><g id="XMLID_803_"><g id="XMLID_804_"><g id="XMLID_805_"><g id="XMLID_806_"><g id="XMLID_807_"><g id="XMLID_808_"><g id="XMLID_809_"><g id="XMLID_810_"><g id="XMLID_811_"><g id="XMLID_812_"><g id="XMLID_813_"><g id="XMLID_814_"><g id="XMLID_815_"><g id="XMLID_816_"><circle cx="256" cy="256" fill="#ffa31d" r="256"/></g></g></g></g></g></g></g></g></g></g></g></g></g></g></g></g></g></g></g><path d="m512 256c0-45.213-11.721-87.689-32.291-124.554l-39.04-39.04-303.352 34.959 111.194 111.195-153.361-4.609-48.373 97.856 64.036 64.036-6.746 43.73 52.326 52.326c30.616 12.943 64.276 20.101 99.607 20.101 141.385 0 256-114.615 256-256z" fill="#f47e14"/><path d="m264.598 296.987h48.791v143.686h-48.791z" fill="#2a4272"/><path d="m288.993 296.987h24.395v143.686h-24.395z" fill="#14283f"/><g><path d="m151.967 104.633h274.054v231.675h-274.054z" fill="#fff"/><g><g><g><path d="m288.993 104.633h137.027v231.674h-137.027z" fill="#e5e5e5"/></g></g></g><path d="m137.317 92.406h303.352v34.959h-303.352z" fill="#2a4272"/><g><g><g><g><path d="m288.993 92.406h151.676v34.959h-151.676z" fill="#14283f"/></g></g></g></g></g><g><g><g><path d="m48.233 298.718-5.826 12.994c-3.98 8.878.13 19.291 9.1 23.058 8.672 3.641 18.665-.303 22.512-8.885l6.165-13.751c.001-.001-29.14-19.679-31.951-13.416z" fill="#ffdaae"/><g><path d="m151.967 208.388h-38.205-3.802c-12.89 0-24.579 7.566-29.857 19.326l-31.87 71.004 31.952 13.416 22.781-52.037v56.713l49 4.585 13.884-72.479z" fill="#94dbff"/><path d="m257.058 206.57-24.854 26.718-23.405-18.656c-5.071-4.042-11.363-6.243-17.848-6.243h-38.984v113.006l48.997-4.585v-65.492l21.808 17.26c7.747 6.132 18.904 5.288 25.642-1.938l33.434-35.856z" fill="#6cb7ef"/><g><path d="m257.058 206.57 9.704-10.422c6.63-7.121 17.822-7.386 24.782-.588 6.728 6.572 6.983 17.312.574 24.195l-10.269 11.029c-.001.001-18.453-2.187-24.791-24.214z" fill="#ffb985"/><path d="m113.968 185.792c0-20.986 17.013-37.999 37.999-37.999s27.6 17.013 27.6 37.999-6.614 37.999-27.6 37.999-37.999-17.013-37.999-37.999z" fill="#ffdaae"/><g><path d="m151.967 147.793v75.997c20.986 0 37.999-17.013 37.999-37.999-.001-20.985-17.013-37.998-37.999-37.998z" fill="#ffb985"/></g></g></g></g></g><path d="m200.967 316.806-49 35.86h-.58c-8.124 0-14.71 6.586-14.71 14.71v73.297h-33.71v-123.867z" fill="#515151"/><path d="m200.967 316.806v123.857h-34.29v-73.287c0-8.124-6.586-14.71-14.71-14.71v-35.86z" fill="#383838"/></g></g></svg>