<svg id="Layer_3" height="512" viewBox="0 0 64 64" width="512" xmlns="http://www.w3.org/2000/svg" data-name="Layer 3"><rect fill="#4d8c28" height="26" rx="4" width="60" x="2" y="36"/><path d="m6 36a4 4 0 0 0 -4 4v18a3.974 3.974 0 0 0 .108.892 3.974 3.974 0 0 0 .892.108h52a4 4 0 0 0 4-4v-18a3.974 3.974 0 0 0 -.108-.892 3.974 3.974 0 0 0 -.892-.108z" fill="#559b2d"/><path d="m51 21a7.95 7.95 0 0 0 -1.961-5.237 5.93 5.93 0 0 1 -1.308-3.35 7.973 7.973 0 0 0 -7.144-7.144 5.93 5.93 0 0 1 -3.35-1.308 7.973 7.973 0 0 0 -10.474 0 5.93 5.93 0 0 1 -3.35 1.308 7.973 7.973 0 0 0 -7.144 7.144 5.93 5.93 0 0 1 -1.308 3.35 7.973 7.973 0 0 0 0 10.474 5.93 5.93 0 0 1 1.308 3.35 7.973 7.973 0 0 0 7.144 7.144 5.93 5.93 0 0 1 3.35 1.308 7.973 7.973 0 0 0 10.474 0 5.93 5.93 0 0 1 3.35-1.308 7.973 7.973 0 0 0 7.144-7.144 5.93 5.93 0 0 1 1.308-3.35 7.95 7.95 0 0 0 1.961-5.237z" fill="#6bc13b"/><circle cx="32" cy="21" fill="#f2f2f2" r="13"/><path d="m23 23 6 6 12-12-3-3-9 9-3-3z" fill="#7bdf45"/><g fill="#f2f2f2"><path d="m9.98 44.8a1 1 0 0 0 -.98-.8h-2a1 1 0 0 0 -.98.8l-1 5a1 1 0 0 0 -.02.2v4h2v-3h2v3h2v-4a1 1 0 0 0 -.02-.2zm-1.799 1.2.6 3h-1.561l.6-3z"/><path d="m15 44h-2a1 1 0 0 0 -1 1v9h2v-4h1a3 3 0 0 0 0-6zm0 4h-1v-2h1a1 1 0 0 1 0 2z"/><path d="m22 44h-2a1 1 0 0 0 -1 1v9h2v-4h1a3 3 0 0 0 0-6zm0 4h-1v-2h1a1 1 0 0 1 0 2z"/><path d="m32 47a3 3 0 0 0 -3-3h-2a1 1 0 0 0 -1 1v9h2v-4h.558a5.867 5.867 0 0 1 1.442 3.828v.172h2v-.172a7.879 7.879 0 0 0 -1.32-4.344 3 3 0 0 0 1.32-2.484zm-4-1h1a1 1 0 0 1 0 2h-1z"/><path d="m44 48.877-.781 3.123h-.438l-.781-3.123v-4.877h-2v5a.984.984 0 0 0 .03.242l1 4a1 1 0 0 0 .97.758h2a1 1 0 0 0 .97-.758l1-4a.984.984 0 0 0 .03-.242v-5h-2z"/><path d="m47 45v8a1 1 0 0 0 1 1h4v-2h-3v-2h3v-2h-3v-2h3v-2h-4a1 1 0 0 0 -1 1z"/><path d="m36 44a3 3 0 0 0 -3 3v4a3 3 0 0 0 6 0v-4a3 3 0 0 0 -3-3zm1 7a1 1 0 0 1 -2 0v-4a1 1 0 0 1 2 0z"/><path d="m56 44h-2a1 1 0 0 0 -1 1v8a1 1 0 0 0 1 1h2a3 3 0 0 0 3-3v-4a3 3 0 0 0 -3-3zm1 7a1 1 0 0 1 -1 1h-1v-6h1a1 1 0 0 1 1 1z"/></g></svg>