<svg id="Capa_1" enable-background="new 0 0 512 512" height="512" viewBox="0 0 512 512" width="512" xmlns="http://www.w3.org/2000/svg"><g><path d="m483.155 439.698v-64.888h-15.661v6.357h-35.217v-6.357h-313.675v6.357h-46.355v-6.357h-59.885c-6.827 0-12.362 5.535-12.362 12.363v64.888h470.793c6.827 0 12.362-5.535 12.362-12.363z" fill="#ae6c6c"/><path d="m499.638 374.81h-16.483v64.888c0 6.827-5.535 12.362-12.362 12.362h-470.793v6.181c0 6.827 5.535 12.362 12.362 12.362h59.884v-4.447h46.356v4.447h313.674v-4.447h35.217v4.447h32.144c6.827 0 12.362-5.535 12.362-12.362v-71.069c.001-6.827-5.534-12.362-12.361-12.362z" fill="#9b5e5e"/><path d="m127.38 221.084c.07.359.149.714.243 1.065-.093-.351-.174-.706-.243-1.065z" fill="#7bacdf"/><path d="m466.403 142.162c.009.01.018.021.027.031.251.091.506.175.756.27-.262-.1-.52-.205-.783-.301z" fill="#7bacdf"/><g fill="#f2fbff"><path d="m396.442 81.573c-278.835 0-259.973-.039-261.724.059-1.217 2.669-1.913 5.624-1.913 8.744 0 11.671 9.494 21.165 21.165 21.165h248.653v-23.787c0-3.413-2.768-6.181-6.181-6.181z"/><path d="m437.618 285.873h-341.983v59.062h351.255v-49.79c0-5.121-4.151-9.272-9.272-9.272z"/><path d="m72.247 374.81h46.356v95.794h-46.356z"/></g><path d="m72.247 452.061h46.356v18.543h-46.356z" fill="#dff6fd"/><path d="m432.277 374.81h35.217v95.794h-35.217z" fill="#fff0ad" transform="matrix(-1 0 0 -1 899.77 845.414)"/><path d="m432.277 452.061h35.217v18.543h-35.217z" fill="#ffe177"/><path d="m153.969 69.211c-8.551 0-15.916 5.107-19.252 12.421.409-.023.815-.059 1.228-.059h254.315c3.414 0 6.181 2.767 6.181 6.181v23.787h18.543v-42.33z" fill="#dff6fd"/><path d="m428.892 41.396h-274.923c-27.051 0-48.98 21.929-48.98 48.98 0 12.044 4.355 23.065 11.565 31.595 1.826 1.567 8.465 6.377 16.01 6.947 0 0 14.955.368 14.962.369h274.644v-17.747c-17.813 0-258.267 0-267.681 0-11.462 0-21.236-8.895-21.669-20.349-.455-12.041 9.208-21.981 21.15-21.981h274.923c7.681 0 13.907-6.227 13.907-13.907s-6.227-13.907-13.908-13.907z" fill="#fdb97e"/><g><path d="m428.893 111.541h-6.722c-.273 7.44-6.374 13.392-13.881 13.392-299.352 0-280.319 1.209-291.734-2.962 8.985 10.628 22.407 17.384 37.414 17.384h274.924c7.681 0 13.907-6.227 13.907-13.907-.001-7.681-6.228-13.907-13.908-13.907z" fill="#fea95c"/></g><path d="m431.837 177.74h-274.596v25.452h290.818c.623-2.249.756-4.48.489-6.606 1.23-9.92-6.574-18.846-16.711-18.846z" fill="#f2fbff"/><path d="m450.38 169.498h-293.139v12.362h274.596c10.978 0 19.23 10.469 16.222 21.331h2.321c9.289 0 16.846-7.557 16.846-16.847.001-9.289-7.557-16.846-16.846-16.846z" fill="#dff6fd"/><path d="m482.431 233.334h-396.007c-38.877 0-71.282 30.925-71.787 69.799-.233 17.957 6.241 34.388 17.056 46.983 7.776 4.122 8.123 3.758 40.553 13.022h404.439v-18.204c-17.779 0-370.442 0-390.549 0-22.314 0-41.09-17.57-41.618-39.879-.543-22.98 17.992-41.847 40.851-41.847h397.062c8.25 0 14.938-6.688 14.938-14.938s-6.688-14.936-14.938-14.936z" fill="#f07281"/><g><path d="m482.431 344.935h-5.746c-.773 7.524-7.13 13.392-14.858 13.392h-397.061c-11.951 0-23.201-2.978-33.072-8.211 12.973 15.109 32.199 24.694 53.676 24.694h397.062c8.25 0 14.938-6.688 14.938-14.938s-6.689-14.937-14.939-14.937z" fill="#eb5569"/></g><path d="m475.772 149.72-9.369-7.558.003.022c-5.004-1.818-10.394-2.829-16.026-2.829h-308.21c-8.324 0-15.071 6.748-15.071 15.071 0 8.324 6.748 15.071 15.071 15.071h307.764c9.141 0 16.953 7.093 17.282 16.229.344 9.57-7.341 17.465-16.835 17.465-14.085 0-305.226 0-308.21 0-9.419 0-16.541 8.565-14.809 17.78h-.006c.025.135.037.164.007.003l11.925 5.665h290.408c32.705 0 56.8-29.689 51.616-52.521z" fill="#7bacdf"/><g><path d="m466.403 142.162c7.71 8.371 12.423 19.543 12.423 31.821 0 25.951-21.038 46.989-46.989 46.989h-304.482c1.278 7.029 7.418 12.362 14.815 12.362h308.21c25.951 0 46.989-21.038 46.989-46.989 0-20.324-12.905-37.631-30.966-44.183z" fill="#5f99d7"/></g><path d="m101.816 263.209-3.434 2.921v15.624l3.776 3.776-.32.342h335.78c5.121 0 9.272 4.151 9.272 9.272v49.79h20.604v-81.726h-365.678z" fill="#dff6fd"/><path d="m99.412 283.128h-46.358l-6.127 7.094c-1.539 4.418-2.421 8.769-2.421 13.851 0 22.532 18.331 40.863 40.863 40.863h16.447v-59.062z" fill="#8d9ca8"/><path d="m59.269 272.658c-5.728 4.768-9.962 10.98-12.341 17.563 5.63-2.779 11.958-4.348 18.605-4.348h36.283v-22.664h-16.447c-9.814 0-18.989 3.533-26.1 9.449z" fill="#7a8c98"/><g><path d="m139.286 301.139v89.324l12.504 10.086c1.516 1.223 3.979.292 3.979-1.506 0-19.842 0-82.631 0-97.903h-16.483z" fill="#ffd15b"/></g><path d="m139.286 390.463c0-25.298 0-75.837 0-89.324h-37.47v97.898c0 1.798 2.463 2.734 3.979 1.511l21.387-17.25c.908-.733 2.312-.733 3.221 0z" fill="#ffe177"/></g></svg>