<?xml version="1.0" encoding="utf-8"?>
<!-- Generator: Adobe Illustrator 24.0.0, SVG Export Plug-In . SVG Version: 6.00 Build 0)  -->
<svg version="1.1" id="Layer_1" xmlns="http://www.w3.org/2000/svg" xmlns:xlink="http://www.w3.org/1999/xlink" x="0px" y="0px"
	 viewBox="0 0 1206.9 570.9" style="enable-background:new 0 0 1206.9 570.9;" xml:space="preserve">
<style type="text/css">
	.st0{fill:#0075C9;}
	.st1{fill:#FFFFFF;}
	.st2{fill:#821966;}
	.st3{fill:#EF5BA1;}
	.st4{enable-background:new    ;}
	.st5{fill:none;stroke:#000000;stroke-miterlimit:10;}
</style>
<title>cautruc2</title>
<g>
	<g id="Layer_2_1_">
		<g id="Layer_1-2">
			<g>
				
					<image style="overflow:visible;enable-background:new    ;" width="117" height="117" xlink:href="1CEB4B55.png"  transform="matrix(1 0 0 1 363.62 19.1)">
				</image>
			</g>
			<g>
				
					<image style="overflow:visible;enable-background:new    ;" width="117" height="117" xlink:href="1CEB4B57.png"  transform="matrix(1 0 0 1 530.62 19.1)">
				</image>
			</g>
			<g>
				
					<image style="overflow:visible;enable-background:new    ;" width="117" height="117" xlink:href="1CEB4B52.png"  transform="matrix(1 0 0 1 196.62 19.1)">
				</image>
			</g>
			<g>
				
					<image style="overflow:visible;enable-background:new    ;" width="264" height="81" xlink:href="1CEB4B53.png"  transform="matrix(1 0 0 1 286.62 163.1)">
				</image>
			</g>
			<path class="st0" d="M320,167.6h201.9c15.5,0,28,14.3,28,31.9l0,0c0,17.6-12.5,31.9-28,31.9H320c-15.5,0-28-14.3-28-31.9l0,0
				C292,181.9,304.5,167.6,320,167.6z"/>
			<path class="st1" d="M521.9,233H320c-16.1,0-29.3-15-29.3-33.4s13.1-33.4,29.3-33.4h201.9c16.2,0,29.3,15,29.3,33.4
				S538.1,233,521.9,233z M320,169.1c-14.7,0-26.7,13.7-26.7,30.5s12,30.4,26.7,30.4h201.9c14.7,0,26.7-13.7,26.7-30.5
				s-12-30.5-26.7-30.5L320,169.1z"/>
			<path class="st2" d="M454.7,121.6h-64.1c-8.2,0-14.8-6.6-14.8-14.8V42.7c0-8.2,6.6-14.8,14.8-14.8h64.1c8.2,0,14.8,6.6,14.8,14.8
				v64.1C469.6,115,462.9,121.6,454.7,121.6z"/>
			<path class="st1" d="M453,122.7h-60.6c-9.8,0-17.7-7.9-17.7-17.7V44.4c0-9.8,7.9-17.7,17.7-17.7H453c9.8,0,17.7,7.9,17.7,17.7
				V105C470.7,114.8,462.8,122.7,453,122.7z M392.4,29c-8.5,0-15.4,6.9-15.5,15.4V105c0,8.5,6.9,15.4,15.5,15.5H453
				c8.5,0,15.4-6.9,15.4-15.5V44.4c0-8.5-6.9-15.4-15.4-15.4C453,29,392.4,29,392.4,29z"/>
			<path class="st3" d="M622,121.6h-64.1c-8.2,0-14.8-6.6-14.8-14.8V42.7c0-8.2,6.6-14.8,14.8-14.8H622c8.2,0,14.8,6.6,14.8,14.8
				v64.1C636.8,115,630.2,121.6,622,121.6z"/>
			<path class="st1" d="M620.2,122.7h-60.6c-9.8,0-17.7-7.9-17.7-17.7V44.4c0-9.8,7.9-17.7,17.7-17.7h60.6c9.8,0,17.7,7.9,17.7,17.7
				V105C637.9,114.8,630,122.7,620.2,122.7z M559.6,29c-8.5,0-15.4,6.9-15.5,15.5V105c0,8.5,6.9,15.4,15.5,15.5h60.6
				c8.5,0,15.4-6.9,15.5-15.5V44.4c0-8.5-6.9-15.4-15.5-15.4C620.2,29,559.6,29,559.6,29z"/>
			<path d="M432.4,166.4c-0.3,0-0.6-0.3-0.6-0.6v-13c0-6.4,5.2-11.5,11.5-11.5H579c5.8,0,10.4-4.7,10.4-10.4v-7.3
				c0-0.3,0.2-0.6,0.6-0.6s0.6,0.2,0.6,0.6l0,0v7.3c0,6.4-5.2,11.5-11.5,11.5H443.4c-5.7,0-10.4,4.7-10.4,10.4v13
				C433,166.1,432.7,166.4,432.4,166.4L432.4,166.4z"/>
			<circle cx="589.9" cy="123.7" r="2.1"/>
			<circle cx="432.4" cy="165.8" r="2.1"/>
			<path class="st3" d="M223.5,27.9h64.1c8.2,0,14.8,6.6,14.8,14.8v64.1c0,8.2-6.6,14.8-14.8,14.8h-64.1c-8.2,0-14.8-6.6-14.8-14.8
				V42.7C208.6,34.5,215.3,27.9,223.5,27.9z"/>
			<path class="st1" d="M285.8,122.7h-60.6c-9.8,0-17.7-7.9-17.7-17.7V44.4c0-9.8,7.9-17.7,17.7-17.7h60.6c9.8,0,17.7,7.9,17.7,17.7
				V105C303.5,114.8,295.6,122.7,285.8,122.7L285.8,122.7z M225.2,29c-8.5,0-15.4,6.9-15.5,15.5V105c0,8.5,6.9,15.4,15.5,15.5h60.6
				c8.5,0,15.4-6.9,15.5-15.5V44.4c0-8.5-6.9-15.4-15.5-15.4C285.8,29,225.2,29,225.2,29z"/>
			<path d="M413.1,166.4c-0.3,0-0.6-0.3-0.6-0.6v-13c0-5.7-4.7-10.4-10.4-10.4H266.5c-6.4,0-11.5-5.2-11.5-11.6v-7.3
				c0-0.3,0.3-0.6,0.6-0.6s0.6,0.3,0.6,0.6v7.3c0,5.7,4.7,10.4,10.4,10.4h135.6c6.4,0,11.5,5.2,11.5,11.5v13
				C413.6,166.1,413.4,166.4,413.1,166.4L413.1,166.4z"/>
			<path d="M253.4,123.7c0-1.2,0.9-2.1,2.1-2.1s2.1,0.9,2.1,2.1s-0.9,2.1-2.1,2.1C254.4,125.8,253.4,124.9,253.4,123.7L253.4,123.7z
				"/>
			<circle cx="413.1" cy="165.8" r="2.1"/>
			<path d="M422.7,166.4c-0.3,0-0.6-0.3-0.6-0.6v-42.3c0-0.3,0.3-0.6,0.6-0.6c0.3,0,0.6,0.3,0.6,0.6v42.3
				C423.2,166.2,423,166.4,422.7,166.4z"/>
			<path d="M420.6,123.7c0-1.2,0.9-2.1,2.1-2.1s2.1,0.9,2.1,2.1s-0.9,2.1-2.1,2.1S420.6,124.9,420.6,123.7L420.6,123.7z"/>
			<path d="M420.6,165.8c0,1.2,1,2.1,2.1,2.1s2.1-1,2.1-2.1c0-1.2-0.9-2.1-2.1-2.1S420.6,164.6,420.6,165.8L420.6,165.8z"/>
			<g>
				
					<image style="overflow:visible;enable-background:new    ;" width="117" height="117" xlink:href="1CEB4B5D.png"  transform="matrix(1 0 0 1 905.62 19.1)">
				</image>
			</g>
			<g>
				
					<image style="overflow:visible;enable-background:new    ;" width="117" height="117" xlink:href="1CEB4B5F.png"  transform="matrix(1 0 0 1 1072.62 19.1)">
				</image>
			</g>
			<g>
				
					<image style="overflow:visible;enable-background:new    ;" width="117" height="117" xlink:href="1CEB4B50.png"  transform="matrix(1 0 0 1 738.62 19.1)">
				</image>
			</g>
			<g>
				
					<image style="overflow:visible;enable-background:new    ;" width="264" height="81" xlink:href="1CEB4B51.png"  transform="matrix(1 0 0 1 828.62 163.1)">
				</image>
			</g>
			<path class="st0" d="M862,167.6h201.9c15.5,0,28,14.3,28,31.9l0,0c0,17.6-12.5,31.9-28,31.9H862c-15.5,0-28-14.3-28-31.9l0,0
				C833.9,181.9,846.5,167.6,862,167.6z"/>
			<path class="st1" d="M1063.9,233H862c-16.2,0-29.3-15-29.3-33.4s13.1-33.4,29.3-33.4h201.9c16.2,0,29.3,15,29.3,33.4
				S1080,233,1063.9,233z M862,169.1c-14.7,0-26.7,13.7-26.7,30.5S847.2,230,862,230h201.9c14.7,0,26.7-13.7,26.7-30.5
				s-12-30.5-26.7-30.5L862,169.1z"/>
			<path class="st2" d="M996.7,121.6h-64.1c-8.2,0-14.8-6.6-14.8-14.8V42.7c0-8.2,6.6-14.8,14.8-14.8h64.1c8.2,0,14.8,6.6,14.8,14.8
				v64.1C1011.5,115,1004.9,121.6,996.7,121.6z"/>
			<path class="st1" d="M994.9,122.7h-60.6c-9.8,0-17.7-7.9-17.7-17.7l0,0V44.4c0-9.8,7.9-17.7,17.7-17.7h60.6
				c9.8,0,17.7,7.9,17.7,17.7V105C1012.6,114.8,1004.7,122.7,994.9,122.7z M934.3,29c-8.5,0-15.4,6.9-15.5,15.5V105
				c0,8.5,6.9,15.4,15.5,15.5h60.6c8.5,0,15.4-6.9,15.5-15.5V44.4c0-8.5-6.9-15.4-15.5-15.4C994.9,29,934.3,29,934.3,29z"/>
			<path class="st3" d="M1163.9,121.6h-64.1c-8.2,0-14.8-6.6-14.8-14.8V42.7c0-8.2,6.6-14.8,14.8-14.8h64.1
				c8.2,0,14.8,6.6,14.8,14.8v64.1C1178.7,115,1172.1,121.6,1163.9,121.6z"/>
			<path class="st1" d="M1162.2,122.7h-60.6c-9.8,0-17.7-7.9-17.7-17.7V44.4c0-9.8,7.9-17.7,17.7-17.7h60.6
				c9.8,0,17.7,7.9,17.7,17.7V105C1179.9,114.8,1172,122.7,1162.2,122.7z M1101.6,29c-8.5,0-15.5,6.9-15.5,15.5V105
				c0,8.5,6.9,15.4,15.5,15.5h60.6c8.5,0,15.4-6.9,15.5-15.5V44.4c0-8.5-6.9-15.4-15.5-15.4C1162.2,29,1101.6,29,1101.6,29z"/>
			<path d="M974.3,166.4c-0.3,0-0.6-0.3-0.6-0.6v-13c0-6.4,5.2-11.5,11.5-11.5h135.6c5.7,0,10.4-4.7,10.4-10.4v-7.3
				c0-0.3,0.3-0.6,0.6-0.6c0.3,0,0.6,0.3,0.6,0.6v7.3c0,6.4-5.2,11.5-11.5,11.5H985.3c-5.8,0-10.4,4.7-10.4,10.4v13
				C974.9,166.2,974.6,166.4,974.3,166.4z"/>
			<circle cx="1131.9" cy="123.7" r="2.1"/>
			<circle cx="974.3" cy="165.8" r="2.1"/>
			<path class="st3" d="M765.4,27.9h64.1c8.2,0,14.8,6.6,14.8,14.8v64.1c0,8.2-6.6,14.8-14.8,14.8h-64.1c-8.2,0-14.8-6.6-14.8-14.8
				V42.7C750.6,34.5,757.2,27.9,765.4,27.9z"/>
			<path class="st1" d="M827.8,122.7h-60.6c-9.8,0-17.7-7.9-17.7-17.7l0,0V44.4c0-9.8,7.9-17.7,17.7-17.7h60.6
				c9.8,0,17.7,7.9,17.7,17.7V105C845.5,114.8,837.5,122.7,827.8,122.7z M767.1,29c-8.5,0-15.4,6.9-15.5,15.5V105
				c0,8.5,6.9,15.4,15.5,15.5h60.6c8.5,0,15.4-6.9,15.5-15.5V44.4c0-8.5-6.9-15.4-15.5-15.4C827.7,29,767.1,29,767.1,29z"/>
			<path d="M955,166.4c-0.3,0-0.6-0.3-0.6-0.6v-13c0-5.8-4.6-10.4-10.4-10.4l0,0H808.4c-6.4,0-11.5-5.2-11.5-11.5v-7.3
				c0-0.3,0.3-0.6,0.6-0.6s0.6,0.3,0.6,0.6v7.3c0,5.7,4.7,10.4,10.4,10.4H944c6.4,0,11.5,5.2,11.5,11.5v13
				C955.6,166.1,955.3,166.4,955,166.4L955,166.4z"/>
			<path d="M795.3,123.7c0-1.2,0.9-2.1,2.1-2.1c1.2,0,2.1,0.9,2.1,2.1s-0.9,2.1-2.1,2.1l0,0C796.3,125.8,795.3,124.9,795.3,123.7z"
				/>
			<circle cx="955" cy="165.8" r="2.1"/>
			<path d="M964.6,166.4c-0.3,0-0.6-0.3-0.6-0.6v-42.3c0-0.3,0.2-0.6,0.6-0.6s0.6,0.2,0.6,0.6l0,0v42.3
				C965.2,166.2,964.9,166.4,964.6,166.4z"/>
			<path d="M962.5,123.7c0-1.2,0.9-2.1,2.1-2.1c1.2,0,2.1,0.9,2.1,2.1s-0.9,2.1-2.1,2.1l0,0C963.4,125.8,962.5,124.9,962.5,123.7z"
				/>
			<path d="M962.5,165.8c0,1.2,1,2.1,2.1,2.1s2.1-1,2.1-2.1c0-1.2-0.9-2.1-2.1-2.1S962.5,164.6,962.5,165.8L962.5,165.8z"/>
			<g class="st4">
				<path class="st1" d="M224.2,77.4v-16h5.1v16c0,0.8,0.1,1.3,0.2,1.7c0.1,0.4,0.6,0.6,1.2,0.6c0.5,0,0.8-0.1,1.1-0.4
					c0.2-0.3,0.3-0.9,0.3-1.8v-16h5.1v16c0,1.9-0.6,3.5-1.8,4.6c-1.2,1.2-2.8,1.7-4.8,1.7c-2,0-3.6-0.6-4.7-1.7
					C224.8,80.9,224.2,79.4,224.2,77.4z"/>
				<path class="st1" d="M239.4,83.4V65.8h4.6v1.9c0.4-0.7,0.9-1.2,1.5-1.7c0.6-0.4,1.4-0.6,2.2-0.6c1.1,0,1.9,0.3,2.5,1
					c0.6,0.7,0.8,1.6,0.8,2.7v14.2h-4.7v-12c0-0.6,0-0.9-0.1-1.1c-0.2-0.4-0.5-0.6-1-0.6c-0.4,0-0.7,0.2-0.9,0.7
					c-0.1,0.3-0.1,0.6-0.1,1v12H239.4z"/>
				<path class="st1" d="M253.6,64.7v-3.3h4.7v3.3H253.6z M253.6,83.4V65.8h4.7v17.6H253.6z"/>
				<path class="st1" d="M261.2,80.6V69.4H260V66h1.2v-3.8h4.7V66h1.2v3.4h-1.2v9.4l0.1,1c0.1,0.2,0.2,0.3,0.6,0.3h0.6v3.6h-2.3
					c-1.2,0-2.1-0.2-2.6-0.6C261.5,82.8,261.2,81.9,261.2,80.6z"/>
				<path class="st1" d="M275.6,67.2v-3.1c0.9,0,1.7-0.2,2.5-0.6c0.8-0.4,1.3-1,1.6-1.8h4.1v21.6h-4.7V67.2H275.6z"/>
			</g>
			<g>
				
					<image style="overflow:visible;enable-background:new    ;" width="117" height="117" xlink:href="1CEB4B56.png"  transform="matrix(1 0 0 1 -0.38 19.1)">
				</image>
			</g>
			<path class="st0" d="M26.6,27.9h64.1c8.2,0,14.8,6.6,14.8,14.8v64.1c0,8.2-6.6,14.8-14.8,14.8H26.6c-8.2,0-14.8-6.6-14.8-14.8
				V42.7C11.8,34.5,18.4,27.9,26.6,27.9z"/>
			<path class="st1" d="M88.9,122.7H28.3c-9.8,0-17.7-7.9-17.7-17.7l0,0V44.4c0-9.8,7.9-17.7,17.7-17.7h60.6
				c9.8,0,17.7,7.9,17.7,17.7V105C106.6,114.8,98.7,122.7,88.9,122.7z M28.3,29c-8.5,0-15.4,6.9-15.5,15.4V105
				c0,8.5,6.9,15.5,15.5,15.5l0,0h60.6c8.5,0,15.5-7,15.5-15.5l0,0V44.4c0-8.5-6.9-15.4-15.5-15.4C88.9,29,28.3,29,28.3,29z"/>
			<g class="st4">
				<path class="st1" d="M37.6,60.9v-16h5.1v16c0,0.8,0.1,1.3,0.2,1.7c0.1,0.4,0.6,0.6,1.2,0.6c0.5,0,0.8-0.1,1.1-0.4
					c0.2-0.3,0.3-0.9,0.3-1.8v-16h5.1v16c0,1.9-0.6,3.5-1.8,4.6c-1.2,1.2-2.8,1.7-4.8,1.7c-2,0-3.6-0.6-4.7-1.7
					C38.2,64.4,37.6,62.9,37.6,60.9z"/>
				<path class="st1" d="M52.8,66.9V49.3h4.6v1.9c0.4-0.7,0.9-1.2,1.5-1.7c0.6-0.4,1.4-0.6,2.2-0.6c1.1,0,1.9,0.3,2.5,1
					c0.6,0.7,0.8,1.6,0.8,2.7v14.2h-4.7v-12c0-0.6,0-0.9-0.1-1.1c-0.2-0.4-0.5-0.6-1-0.6c-0.4,0-0.7,0.2-0.9,0.7
					c-0.1,0.3-0.1,0.6-0.1,1v12H52.8z"/>
				<path class="st1" d="M67,48.2v-3.3h4.7v3.3H67z M67,66.9V49.3h4.7v17.6H67z"/>
				<path class="st1" d="M74.6,64.1V52.9h-1.2v-3.4h1.2v-3.8h4.7v3.8h1.2v3.4h-1.2v9.4l0.1,1c0.1,0.2,0.2,0.3,0.6,0.3h0.6v3.6h-2.3
					c-1.2,0-2.1-0.2-2.6-0.6C75,66.2,74.6,65.4,74.6,64.1z"/>
			</g>
			<g class="st4">
				<path class="st1" d="M21.4,92.5h4.9v1.6c0,0.7,0.1,1.3,0.3,1.6c0.3,0.5,0.8,0.7,1.4,0.7c0.5,0,1-0.2,1.3-0.5
					c0.3-0.3,0.5-0.7,0.5-1.2c0-1-0.6-2-1.8-3.1L25.7,90c-1.6-1.3-2.5-2.1-2.8-2.5c-0.4-0.5-0.7-1-1-1.7c-0.2-0.6-0.3-1.3-0.3-2.1
					c0-2.1,0.6-3.6,1.7-4.6c1.1-1,2.7-1.5,4.8-1.5c2.1,0,3.7,0.5,4.8,1.5c1,1,1.6,2.3,1.6,4.1v2h-4.7v-1.2c0-0.7-0.1-1.2-0.3-1.6
					c-0.3-0.5-0.7-0.8-1.3-0.8c-0.5,0-0.9,0.1-1.3,0.4c-0.3,0.3-0.5,0.7-0.5,1.2c0,0.7,0.7,1.6,2,2.6l2.2,1.7c2,1.8,3.1,2.9,3.4,3.4
					c0.6,1,0.8,2.3,0.8,3.8c0,1.4-0.5,2.6-1.5,3.6c-1.2,1.3-3.1,2-5.4,2c-2.3,0-4-0.6-5.1-1.9c-0.9-1-1.4-2.2-1.4-3.6V92.5z"/>
				<path class="st1" d="M37.1,97.1V86H36v-3.4h1.2v-3.8h4.7v3.8h1.2V86h-1.2v9.4l0.1,1c0.1,0.2,0.2,0.3,0.6,0.3h0.6v3.6h-2.3
					c-1.2,0-2.1-0.2-2.6-0.6C37.5,99.3,37.1,98.4,37.1,97.1z"/>
				<path class="st1" d="M56.1,87.5v12.4h-4.3v-1.4c-0.8,1.1-2,1.7-3.4,1.7c-1.6,0-2.6-0.5-3.2-1.6c-0.4-0.8-0.6-2-0.6-3.7
					c0-1.5,0.4-2.7,1.1-3.5c0.5-0.6,1.3-1.2,2.4-1.7c1.4-0.5,2.2-0.9,2.4-1.1c0.7-0.5,1.1-1.1,1.1-1.9c0-0.5-0.1-0.8-0.2-1.1
					c-0.2-0.3-0.5-0.4-0.9-0.4c-0.8,0-1.2,0.4-1.2,1.2v1.4h-4.4v-1.6c0-1.3,0.5-2.3,1.6-3.1c1-0.8,2.4-1.2,4-1.2
					c2.1,0,3.6,0.4,4.4,1.3C55.6,84.2,56.1,85.6,56.1,87.5z M51.5,95.8v-4.7l-1.3,1c-0.5,0.4-0.8,0.9-0.8,1.6V96
					c0,0.9,0.3,1.4,1,1.4c0.3,0,0.6-0.1,0.8-0.4C51.4,96.6,51.5,96.3,51.5,95.8z"/>
				<path class="st1" d="M58.2,99.9V82.4h4.5v3.1c0.5-1.2,0.9-2,1.2-2.4c0.5-0.8,1.3-1.1,2.3-1.1v5.7H65c-0.7,0-1.2,0.2-1.6,0.6
					c-0.3,0.4-0.5,1-0.5,1.6v10H58.2z"/>
				<path class="st1" d="M67.7,97.1V86h-1.2v-3.4h1.2v-3.8h4.7v3.8h1.2V86h-1.2v9.4l0.1,1c0.1,0.2,0.2,0.3,0.6,0.3h0.6v3.6h-2.3
					c-1.2,0-2.1-0.2-2.6-0.6C68.1,99.3,67.7,98.4,67.7,97.1z"/>
				<path class="st1" d="M75,95.3V87c0-1.3,0.4-2.4,1.1-3.3c1-1.2,2.6-1.7,4.7-1.7c2,0,3.6,0.6,4.7,1.7c0.8,0.9,1.1,2,1.1,3.3v4.9
					h-6.9v3.8c0,0.5,0,0.8,0.1,0.9c0.1,0.3,0.5,0.5,1,0.5c0.4,0,0.8-0.2,0.9-0.5c0.1-0.2,0.1-0.6,0.1-1v-2.2h4.7v1.9
					c0,1.3-0.4,2.4-1.1,3.3c-1,1.2-2.5,1.7-4.7,1.7c-2,0-3.6-0.6-4.7-1.7C75.4,97.7,75,96.6,75,95.3z M79.7,86.7v1.9h2.1v-1.9
					c0-0.5,0-0.8-0.1-0.9c-0.1-0.3-0.5-0.5-1-0.5c-0.5,0-0.8,0.1-0.9,0.4C79.8,85.9,79.7,86.2,79.7,86.7z"/>
				<path class="st1" d="M88.8,99.9V82.4h4.5v3.1c0.5-1.2,0.9-2,1.2-2.4c0.5-0.8,1.3-1.1,2.3-1.1v5.7h-1.1c-0.7,0-1.2,0.2-1.6,0.6
					c-0.3,0.4-0.5,1-0.5,1.6v10H88.8z"/>
			</g>
			<g class="st4">
				<path class="st1" d="M391.3,77.4v-16h5.1v16c0,0.8,0.1,1.3,0.2,1.7c0.1,0.4,0.6,0.6,1.2,0.6c0.5,0,0.8-0.1,1.1-0.4
					c0.2-0.3,0.3-0.9,0.3-1.8v-16h5.1v16c0,1.9-0.6,3.5-1.8,4.6c-1.2,1.2-2.8,1.7-4.8,1.7c-2,0-3.6-0.6-4.7-1.7
					C391.9,80.9,391.3,79.4,391.3,77.4z"/>
				<path class="st1" d="M406.6,83.4V65.8h4.6v1.9c0.4-0.7,0.9-1.2,1.5-1.7c0.6-0.4,1.4-0.6,2.2-0.6c1.1,0,1.9,0.3,2.5,1
					c0.6,0.7,0.8,1.6,0.8,2.7v14.2h-4.7v-12c0-0.6,0-0.9-0.1-1.1c-0.2-0.4-0.5-0.6-1-0.6c-0.4,0-0.7,0.2-0.9,0.7
					c-0.1,0.3-0.1,0.6-0.1,1v12H406.6z"/>
				<path class="st1" d="M420.7,64.7v-3.3h4.7v3.3H420.7z M420.7,83.4V65.8h4.7v17.6H420.7z"/>
				<path class="st1" d="M428.3,80.6V69.4h-1.2V66h1.2v-3.8h4.7V66h1.2v3.4h-1.2v9.4l0.1,1c0.1,0.2,0.2,0.3,0.6,0.3h0.6v3.6H432
					c-1.2,0-2.1-0.2-2.6-0.6C428.7,82.8,428.3,81.9,428.3,80.6z"/>
				<path class="st1" d="M442.4,69.4v-1.7c0-2.1,0.5-3.7,1.5-4.7c1-1,2.6-1.5,4.7-1.5c1.9,0,3.4,0.5,4.4,1.4c1,0.9,1.5,2.4,1.5,4.3
					c0,1.7-0.4,3.2-1.3,4.5c-0.2,0.3-0.6,0.7-1,1.2c-0.5,0.5-1.1,1.1-1.8,1.8c-1.4,1.3-2.3,2.4-2.9,3.4l-0.3,0.6l-0.2,0.6h7.4v4.1
					h-12.4v-1.4c0-2.6,0.7-4.9,2-6.8c0-0.1,1.3-1.4,3.7-3.9c1.3-1.4,2-2.8,2-4.2c0-0.8-0.1-1.4-0.3-1.6c-0.2-0.3-0.6-0.4-1-0.4
					c-0.5,0-0.9,0.2-1.1,0.5c-0.2,0.3-0.3,0.9-0.3,1.5v2.2H442.4z"/>
			</g>
			<g class="st4">
				<path class="st1" d="M558.6,77.4v-16h5.1v16c0,0.8,0.1,1.3,0.2,1.7c0.1,0.4,0.6,0.6,1.2,0.6c0.5,0,0.8-0.1,1.1-0.4
					c0.2-0.3,0.3-0.9,0.3-1.8v-16h5.1v16c0,1.9-0.6,3.5-1.8,4.6c-1.2,1.2-2.8,1.7-4.8,1.7c-2,0-3.6-0.6-4.7-1.7
					C559.2,80.9,558.6,79.4,558.6,77.4z"/>
				<path class="st1" d="M573.8,83.4V65.8h4.6v1.9c0.4-0.7,0.9-1.2,1.5-1.7c0.6-0.4,1.4-0.6,2.2-0.6c1.1,0,1.9,0.3,2.5,1
					c0.6,0.7,0.8,1.6,0.8,2.7v14.2h-4.7v-12c0-0.6,0-0.9-0.1-1.1c-0.2-0.4-0.5-0.6-1-0.6c-0.4,0-0.7,0.2-0.9,0.7
					c-0.1,0.3-0.1,0.6-0.1,1v12H573.8z"/>
				<path class="st1" d="M588,64.7v-3.3h4.7v3.3H588z M588,83.4V65.8h4.7v17.6H588z"/>
				<path class="st1" d="M595.6,80.6V69.4h-1.2V66h1.2v-3.8h4.7V66h1.2v3.4h-1.2v9.4l0.1,1c0.1,0.2,0.2,0.3,0.6,0.3h0.6v3.6h-2.3
					c-1.2,0-2.1-0.2-2.6-0.6C596,82.8,595.6,81.9,595.6,80.6z"/>
				<path class="st1" d="M609.3,78.2v-2.1h4.7v2.3c0,0.5,0.1,0.9,0.3,1.2c0.2,0.3,0.5,0.5,1,0.5c0.4,0,0.8-0.2,1-0.5
					c0.2-0.3,0.3-0.7,0.3-1.2v-1.5c0-1.2-0.2-2.1-0.6-2.5c-0.1-0.2-0.4-0.3-0.9-0.4c-0.5-0.1-1-0.2-1.7-0.2v-3.6h0.8
					c0.5,0,1-0.1,1.5-0.4c0.4-0.3,0.6-0.7,0.6-1.3v-1.8c0-0.3,0-0.5,0-0.6s-0.1-0.3-0.2-0.5c-0.1-0.2-0.4-0.3-0.9-0.3
					c-0.8,0-1.2,0.5-1.2,1.6v1.4h-4.7c0-2.3,0.4-3.9,1.2-4.9c0.9-1.2,2.5-1.8,4.8-1.8c1.9,0,3.4,0.4,4.3,1.2
					c1.1,0.9,1.7,2.3,1.7,4.3c0,1.2-0.1,2.1-0.4,2.8c-0.4,0.9-1,1.5-2,2c1,0.3,1.7,1,2.1,2c0.3,0.8,0.5,1.8,0.5,3.1
					c0,2.4-0.4,4.1-1.2,5.2c-0.9,1.2-2.6,1.8-4.9,1.8c-1.9,0-3.4-0.5-4.5-1.4C609.8,81.5,609.3,80.1,609.3,78.2z"/>
			</g>
			<g class="st4">
				<path class="st1" d="M766.1,77.4v-16h5.1v16c0,0.8,0.1,1.3,0.2,1.7c0.1,0.4,0.6,0.6,1.3,0.6c0.5,0,0.8-0.1,1.1-0.4
					c0.2-0.3,0.3-0.9,0.3-1.8v-16h5.1v16c0,1.9-0.6,3.5-1.8,4.6c-1.2,1.2-2.8,1.7-4.8,1.7c-2,0-3.6-0.6-4.7-1.7
					C766.7,80.9,766.1,79.4,766.1,77.4z"/>
				<path class="st1" d="M781.4,83.4V65.8h4.6v1.9c0.4-0.7,0.9-1.2,1.5-1.7c0.6-0.4,1.4-0.6,2.2-0.6c1.1,0,1.9,0.3,2.5,1
					c0.6,0.7,0.8,1.6,0.8,2.7v14.2h-4.7v-12c0-0.6,0-0.9-0.1-1.1c-0.2-0.4-0.5-0.6-1-0.6c-0.4,0-0.7,0.2-0.9,0.7
					c-0.1,0.3-0.1,0.6-0.1,1v12H781.4z"/>
				<path class="st1" d="M795.5,64.7v-3.3h4.7v3.3H795.5z M795.5,83.4V65.8h4.7v17.6H795.5z"/>
				<path class="st1" d="M803.1,80.6V69.4h-1.2V66h1.2v-3.8h4.7V66h1.2v3.4h-1.2v9.4l0.1,1c0.1,0.2,0.2,0.3,0.6,0.3h0.6v3.6h-2.3
					c-1.2,0-2.1-0.2-2.6-0.6C803.5,82.8,803.1,81.9,803.1,80.6z"/>
				<path class="st1" d="M816.7,79.3v-4.5c0.9-1.9,1.6-4,2.2-6.5c0.3-1.1,0.5-2.2,0.7-3.3c0.2-1.2,0.3-2.2,0.3-3.2h5.1
					c0,1-0.2,2.1-0.5,3.3c-0.3,1.1-0.8,2.4-1.4,3.9c-0.9,2.2-2.1,4.3-3.6,6.5h3.5v-3c0.3-0.5,0.6-0.9,0.9-1.4c0.3-0.5,0.6-1,0.8-1.6
					c0.5-1.1,0.9-2.2,1.2-3.3h1.8v9.3h1.7v3.9h-1.7v4.1H823v-4.1H816.7z"/>
			</g>
			<g class="st4">
				<path class="st1" d="M933.3,77.4v-16h5.1v16c0,0.8,0.1,1.3,0.2,1.7c0.1,0.4,0.6,0.6,1.2,0.6c0.5,0,0.8-0.1,1.1-0.4
					c0.2-0.3,0.3-0.9,0.3-1.8v-16h5.1v16c0,1.9-0.6,3.5-1.8,4.6c-1.2,1.2-2.8,1.7-4.8,1.7c-2,0-3.6-0.6-4.7-1.7
					C933.9,80.9,933.3,79.4,933.3,77.4z"/>
				<path class="st1" d="M948.5,83.4V65.8h4.6v1.9c0.4-0.7,0.9-1.2,1.5-1.7c0.6-0.4,1.4-0.6,2.2-0.6c1.1,0,1.9,0.3,2.5,1
					c0.6,0.7,0.8,1.6,0.8,2.7v14.2h-4.7v-12c0-0.6,0-0.9-0.1-1.1c-0.2-0.4-0.5-0.6-1-0.6c-0.4,0-0.7,0.2-0.9,0.7
					c-0.1,0.3-0.1,0.6-0.1,1v12H948.5z"/>
				<path class="st1" d="M962.6,64.7v-3.3h4.7v3.3H962.6z M962.6,83.4V65.8h4.7v17.6H962.6z"/>
				<path class="st1" d="M970.3,80.6V69.4h-1.2V66h1.2v-3.8h4.7V66h1.2v3.4H975v9.4l0.1,1c0.1,0.2,0.2,0.3,0.6,0.3h0.6v3.6H974
					c-1.2,0-2.1-0.2-2.6-0.6C970.6,82.8,970.3,81.9,970.3,80.6z"/>
				<path class="st1" d="M984.5,73.7V61.8h11.1v4.1h-7v3.3c0.3-0.2,0.8-0.4,1.3-0.6c0.6-0.2,1-0.2,1.3-0.2c1.7,0,3,0.5,3.9,1.5
					c0.8,0.9,1.2,2.2,1.2,3.8v3.1c0,2.4-0.4,4.1-1.3,5.3c-1,1.3-2.6,1.9-4.9,1.9c-1.9,0-3.4-0.5-4.5-1.4c-1.1-0.9-1.6-2.3-1.6-4.2
					v-1.9h4.7v2.1c0,0.5,0.1,0.9,0.3,1.2c0.2,0.3,0.5,0.5,1,0.5c0.4,0,0.8-0.2,1-0.5c0.2-0.3,0.3-0.7,0.3-1.2v-4.7
					c0-0.3,0-0.5-0.1-0.6c0-0.2-0.1-0.4-0.3-0.7c-0.2-0.3-0.5-0.4-1-0.4s-0.8,0.1-1,0.4c-0.2,0.3-0.3,0.7-0.3,1.2H984.5z"/>
			</g>
			<g class="st4">
				<path class="st1" d="M1100.5,77.4v-16h5.1v16c0,0.8,0.1,1.3,0.2,1.7c0.1,0.4,0.6,0.6,1.3,0.6c0.5,0,0.8-0.1,1.1-0.4
					c0.2-0.3,0.3-0.9,0.3-1.8v-16h5.1v16c0,1.9-0.6,3.5-1.8,4.6c-1.2,1.2-2.8,1.7-4.8,1.7c-2,0-3.6-0.6-4.7-1.7
					C1101.1,80.9,1100.5,79.4,1100.5,77.4z"/>
				<path class="st1" d="M1115.8,83.4V65.8h4.6v1.9c0.4-0.7,0.9-1.2,1.5-1.7c0.6-0.4,1.4-0.6,2.2-0.6c1.1,0,1.9,0.3,2.5,1
					c0.6,0.7,0.8,1.6,0.8,2.7v14.2h-4.7v-12c0-0.6,0-0.9-0.1-1.1c-0.2-0.4-0.5-0.6-1-0.6c-0.4,0-0.7,0.2-0.9,0.7
					c-0.1,0.3-0.1,0.6-0.1,1v12H1115.8z"/>
				<path class="st1" d="M1129.9,64.7v-3.3h4.7v3.3H1129.9z M1129.9,83.4V65.8h4.7v17.6H1129.9z"/>
				<path class="st1" d="M1137.5,80.6V69.4h-1.2V66h1.2v-3.8h4.7V66h1.2v3.4h-1.2v9.4l0.1,1c0.1,0.2,0.2,0.3,0.6,0.3h0.6v3.6h-2.3
					c-1.2,0-2.1-0.2-2.6-0.6C1137.9,82.8,1137.5,81.9,1137.5,80.6z"/>
				<path class="st1" d="M1151.4,78.3V66.9c0-1.7,0.5-3,1.6-4s2.5-1.5,4.5-1.5c1.8,0,3.2,0.4,4.2,1.3c1,0.9,1.5,2.3,1.5,4.2h-4.4
					c0-0.6-0.1-1.1-0.3-1.4c-0.2-0.3-0.5-0.4-1-0.4s-0.8,0.2-1,0.5s-0.3,0.8-0.3,1.3v2.4l0.1,0.1c0.4-0.5,0.8-0.8,1.2-1
					c0.4-0.2,0.9-0.3,1.6-0.3c1.7,0,2.9,0.6,3.6,1.7c0.6,1,0.9,2.4,0.9,4.1v4.3c0,1.7-0.5,3-1.6,4c-1.1,1-2.6,1.5-4.5,1.5
					c-1.9,0-3.4-0.5-4.5-1.5C1151.9,81.3,1151.4,80,1151.4,78.3z M1156.3,73.4v5.2c0,0.5,0.1,0.9,0.3,1.1c0.2,0.2,0.5,0.3,0.9,0.3
					c0.3,0,0.6-0.1,0.8-0.3c0.2-0.2,0.4-0.6,0.4-1.2v-5.2c0-0.5-0.1-0.9-0.3-1.1c-0.2-0.2-0.5-0.3-0.9-0.3c-0.4,0-0.7,0.1-0.9,0.3
					C1156.4,72.5,1156.3,72.9,1156.3,73.4z"/>
			</g>
			<g class="st4">
				<path class="st1" d="M335.9,200.9v-22h10.6v4.2H341v4.4h4.9v4.2H341v9.1H335.9z"/>
				<path class="st1" d="M348.5,200.9v-22h4.7v22H348.5z"/>
				<path class="st1" d="M367.4,183.3v17.6h-4.6v-2c-0.5,0.8-1,1.4-1.5,1.8c-0.6,0.4-1.3,0.6-2.1,0.6c-1.1,0-1.9-0.4-2.5-1.1
					c-0.6-0.7-0.9-1.6-0.9-2.7v-14.2h4.7v12c0,0.6,0,0.9,0.1,1.1c0.2,0.4,0.5,0.6,1,0.6c0.4,0,0.8-0.2,0.9-0.7
					c0.1-0.3,0.1-0.6,0.1-1v-12H367.4z"/>
				<path class="st1" d="M369.5,196.3V188c0-1.3,0.4-2.4,1.1-3.3c1-1.2,2.6-1.7,4.7-1.7c2,0,3.6,0.6,4.7,1.7c0.8,0.9,1.1,2,1.1,3.3
					v4.9h-6.9v3.8c0,0.5,0,0.8,0.1,0.9c0.1,0.3,0.5,0.5,1,0.5c0.4,0,0.8-0.2,0.9-0.5c0.1-0.2,0.1-0.6,0.1-1v-2.2h4.7v1.9
					c0,1.3-0.4,2.4-1.1,3.3c-1,1.2-2.5,1.7-4.7,1.7c-2,0-3.6-0.6-4.7-1.7C369.9,198.7,369.5,197.6,369.5,196.3z M374.2,187.6v1.9
					h2.1v-1.9c0-0.5,0-0.8-0.1-0.9c-0.1-0.3-0.5-0.5-1-0.5c-0.5,0-0.8,0.1-0.9,0.4C374.3,186.9,374.2,187.2,374.2,187.6z"/>
				<path class="st1" d="M383.3,200.9v-17.6h4.6v1.9c0.4-0.7,0.9-1.2,1.5-1.7c0.6-0.4,1.4-0.6,2.2-0.6c1.1,0,1.9,0.3,2.5,1
					c0.6,0.7,0.8,1.6,0.8,2.7v14.2h-4.7v-12c0-0.6,0-0.9-0.1-1.1c-0.2-0.4-0.5-0.6-1-0.6c-0.4,0-0.7,0.2-0.9,0.7
					c-0.1,0.3-0.1,0.6-0.1,1v12H383.3z"/>
				<path class="st1" d="M397,196.3V188c0-1.3,0.4-2.4,1.1-3.3c1-1.2,2.6-1.7,4.7-1.7c2,0,3.6,0.6,4.7,1.7c0.8,0.9,1.1,2,1.1,3.3
					v1.9h-4.7v-2.2c0-0.5,0-0.8-0.1-0.9c-0.1-0.3-0.5-0.5-1-0.5c-0.5,0-0.8,0.1-0.9,0.4c-0.1,0.3-0.2,0.6-0.2,1v8.9
					c0,0.5,0,0.8,0.1,0.9c0.1,0.3,0.5,0.5,1,0.5c0.4,0,0.8-0.2,0.9-0.5c0.1-0.2,0.1-0.6,0.1-1v-3.2h4.7v2.8c0,1.3-0.4,2.4-1.1,3.3
					c-1,1.2-2.5,1.7-4.7,1.7c-2,0-3.6-0.6-4.7-1.7C397.4,198.7,397,197.6,397,196.3z"/>
				<path class="st1" d="M411.2,204.1v-3.4h1.1c0.3,0,0.5,0,0.6-0.1c0.1-0.1,0.2-0.2,0.2-0.5l-0.1-0.7c0-0.3,0-0.5-0.1-0.6l-0.2-0.7
					l-2.9-14.8h4.9l1.2,12.4l1.3-12.4h4.6l-3.1,16.1l-0.2,0.9c-0.1,0.3-0.1,0.6-0.2,0.8c-0.2,0.8-0.6,1.4-1.1,1.9
					c-0.4,0.4-0.9,0.7-1.5,0.8c-0.3,0.1-0.6,0.1-1,0.2c-0.4,0.1-0.9,0.1-1.3,0.1H411.2z"/>
			</g>
			<g class="st4">
				<path class="st1" d="M429,183.2v-4.2h11.6v4.2h-3.3v17.8h-5.1v-17.8H429z"/>
			</g>
			<g class="st4">
				<path class="st1" d="M441.4,182.2v-3.3h4.7v3.3H441.4z M441.4,200.9v-17.6h4.7v17.6H441.4z"/>
				<path class="st1" d="M448.9,200.9v-17.6h4.6v2.2c0.5-0.8,1-1.4,1.5-1.9c0.6-0.4,1.3-0.7,2.3-0.7c0.8,0,1.5,0.2,2.1,0.6
					c0.6,0.4,1,1.1,1.2,2c0.5-0.8,0.9-1.5,1.4-1.9c0.5-0.4,1.3-0.7,2.4-0.7c1.1,0,2,0.3,2.6,1c0.6,0.7,0.9,1.6,0.9,2.7v14.2H463
					v-11.8c0-0.6,0-1-0.1-1.2c-0.2-0.5-0.5-0.7-1-0.7c-0.5,0-0.8,0.3-1,0.8c-0.1,0.2-0.1,0.3-0.1,0.4c0,0.1,0,0.4,0,0.7v11.8h-4.7
					v-11.8c0-0.6,0-1-0.1-1.2c-0.2-0.5-0.5-0.7-1-0.7c-0.5,0-0.8,0.3-1,0.8c-0.1,0.2-0.1,0.3-0.1,0.4c0,0.1,0,0.4,0,0.7v11.8H448.9z
					"/>
				<path class="st1" d="M470.1,196.3V188c0-1.3,0.4-2.4,1.1-3.3c1-1.2,2.6-1.7,4.7-1.7c2,0,3.6,0.6,4.7,1.7c0.8,0.9,1.1,2,1.1,3.3
					v4.9h-6.9v3.8c0,0.5,0,0.8,0.1,0.9c0.1,0.3,0.5,0.5,1,0.5c0.4,0,0.8-0.2,0.9-0.5c0.1-0.2,0.1-0.6,0.1-1v-2.2h4.7v1.9
					c0,1.3-0.4,2.4-1.1,3.3c-1,1.2-2.5,1.7-4.7,1.7c-2,0-3.6-0.6-4.7-1.7C470.5,198.7,470.1,197.6,470.1,196.3z M474.8,187.6v1.9
					h2.1v-1.9c0-0.5,0-0.8-0.1-0.9c-0.1-0.3-0.5-0.5-1-0.5c-0.5,0-0.8,0.1-0.9,0.4C474.9,186.9,474.8,187.2,474.8,187.6z"/>
				<path class="st1" d="M491,184.7v-3.1c0.9,0,1.7-0.2,2.5-0.6c0.8-0.4,1.3-1,1.6-1.8h4.1v21.6h-4.7v-16.2H491z"/>
			</g>
			<g class="st4">
				<path class="st1" d="M877.9,200.9v-22h10.6v4.2h-5.5v4.4h4.9v4.2h-4.9v9.1H877.9z"/>
				<path class="st1" d="M890.4,200.9v-22h4.7v22H890.4z"/>
				<path class="st1" d="M909.3,183.3v17.6h-4.6v-2c-0.5,0.8-1,1.4-1.5,1.8c-0.6,0.4-1.3,0.6-2.1,0.6c-1.1,0-1.9-0.4-2.5-1.1
					c-0.6-0.7-0.9-1.6-0.9-2.7v-14.2h4.7v12c0,0.6,0,0.9,0.1,1.1c0.2,0.4,0.5,0.6,1,0.6c0.4,0,0.8-0.2,0.9-0.7
					c0.1-0.3,0.1-0.6,0.1-1v-12H909.3z"/>
				<path class="st1" d="M911.4,196.3V188c0-1.3,0.4-2.4,1.1-3.3c1-1.2,2.6-1.7,4.7-1.7c2,0,3.6,0.6,4.7,1.7c0.8,0.9,1.1,2,1.1,3.3
					v4.9h-6.9v3.8c0,0.5,0,0.8,0.1,0.9c0.1,0.3,0.5,0.5,1,0.5c0.4,0,0.8-0.2,0.9-0.5c0.1-0.2,0.1-0.6,0.1-1v-2.2h4.7v1.9
					c0,1.3-0.4,2.4-1.1,3.3c-1,1.2-2.5,1.7-4.7,1.7c-2,0-3.6-0.6-4.7-1.7C911.8,198.7,911.4,197.6,911.4,196.3z M916.2,187.6v1.9
					h2.1v-1.9c0-0.5,0-0.8-0.1-0.9c-0.1-0.3-0.5-0.5-1-0.5c-0.5,0-0.8,0.1-0.9,0.4C916.2,186.9,916.2,187.2,916.2,187.6z"/>
				<path class="st1" d="M925.2,200.9v-17.6h4.6v1.9c0.4-0.7,0.9-1.2,1.5-1.7c0.6-0.4,1.4-0.6,2.2-0.6c1.1,0,1.9,0.3,2.5,1
					c0.6,0.7,0.8,1.6,0.8,2.7v14.2h-4.7v-12c0-0.6,0-0.9-0.1-1.1c-0.2-0.4-0.5-0.6-1-0.6c-0.4,0-0.7,0.2-0.9,0.7
					c-0.1,0.3-0.1,0.6-0.1,1v12H925.2z"/>
				<path class="st1" d="M939,196.3V188c0-1.3,0.4-2.4,1.1-3.3c1-1.2,2.6-1.7,4.7-1.7c2,0,3.6,0.6,4.7,1.7c0.8,0.9,1.1,2,1.1,3.3
					v1.9h-4.7v-2.2c0-0.5,0-0.8-0.1-0.9c-0.1-0.3-0.5-0.5-1-0.5c-0.5,0-0.8,0.1-0.9,0.4c-0.1,0.3-0.2,0.6-0.2,1v8.9
					c0,0.5,0,0.8,0.1,0.9c0.1,0.3,0.5,0.5,1,0.5c0.4,0,0.8-0.2,0.9-0.5c0.1-0.2,0.1-0.6,0.1-1v-3.2h4.7v2.8c0,1.3-0.4,2.4-1.1,3.3
					c-1,1.2-2.5,1.7-4.7,1.7c-2,0-3.6-0.6-4.7-1.7C939.3,198.7,939,197.6,939,196.3z"/>
				<path class="st1" d="M953.1,204.1v-3.4h1.1c0.3,0,0.5,0,0.6-0.1c0.1-0.1,0.2-0.2,0.2-0.5l-0.1-0.7c0-0.3,0-0.5-0.1-0.6l-0.2-0.7
					l-2.9-14.8h4.9l1.2,12.4l1.3-12.4h4.6l-3.1,16.1l-0.2,0.9c-0.1,0.3-0.1,0.6-0.2,0.8c-0.2,0.8-0.6,1.4-1.1,1.9
					c-0.4,0.4-0.9,0.7-1.5,0.8c-0.3,0.1-0.6,0.1-1,0.2c-0.4,0.1-0.9,0.1-1.3,0.1H953.1z"/>
			</g>
			<g class="st4">
				<path class="st1" d="M971,183.2v-4.2h11.6v4.2h-3.3v17.8h-5.1v-17.8H971z"/>
			</g>
			<g class="st4">
				<path class="st1" d="M983.4,182.2v-3.3h4.7v3.3H983.4z M983.4,200.9v-17.6h4.7v17.6H983.4z"/>
				<path class="st1" d="M990.8,200.9v-17.6h4.6v2.2c0.5-0.8,1-1.4,1.5-1.9c0.6-0.4,1.3-0.7,2.3-0.7c0.8,0,1.5,0.2,2.1,0.6
					c0.6,0.4,1,1.1,1.2,2c0.5-0.8,0.9-1.5,1.4-1.9c0.5-0.4,1.3-0.7,2.4-0.7c1.1,0,2,0.3,2.6,1c0.6,0.7,0.9,1.6,0.9,2.7v14.2h-4.7
					v-11.8c0-0.6,0-1-0.1-1.2c-0.2-0.5-0.5-0.7-1-0.7c-0.5,0-0.8,0.3-1,0.8c-0.1,0.2-0.1,0.3-0.1,0.4c0,0.1,0,0.4,0,0.7v11.8h-4.7
					v-11.8c0-0.6,0-1-0.1-1.2c-0.2-0.5-0.5-0.7-1-0.7c-0.5,0-0.8,0.3-1,0.8c-0.1,0.2-0.1,0.3-0.1,0.4c0,0.1,0,0.4,0,0.7v11.8H990.8z
					"/>
				<path class="st1" d="M1012,196.3V188c0-1.3,0.4-2.4,1.1-3.3c1-1.2,2.6-1.7,4.7-1.7c2,0,3.6,0.6,4.7,1.7c0.8,0.9,1.1,2,1.1,3.3
					v4.9h-6.9v3.8c0,0.5,0,0.8,0.1,0.9c0.1,0.3,0.5,0.5,1,0.5c0.4,0,0.8-0.2,0.9-0.5c0.1-0.2,0.1-0.6,0.1-1v-2.2h4.7v1.9
					c0,1.3-0.4,2.4-1.1,3.3c-1,1.2-2.5,1.7-4.7,1.7c-2,0-3.6-0.6-4.7-1.7C1012.4,198.7,1012,197.6,1012,196.3z M1016.8,187.6v1.9
					h2.2v-1.9c0-0.5,0-0.8-0.1-0.9c-0.1-0.3-0.5-0.5-1-0.5c-0.5,0-0.8,0.1-0.9,0.4C1016.8,186.9,1016.8,187.2,1016.8,187.6z"/>
				<path class="st1" d="M1032.6,186.9v-1.7c0-2.1,0.5-3.7,1.5-4.7c1-1,2.6-1.5,4.7-1.5c1.9,0,3.4,0.5,4.4,1.4
					c1,0.9,1.5,2.4,1.5,4.3c0,1.7-0.4,3.2-1.3,4.5c-0.2,0.3-0.6,0.7-1,1.2c-0.5,0.5-1.1,1.1-1.8,1.8c-1.4,1.3-2.3,2.4-2.9,3.4
					l-0.3,0.6l-0.2,0.6h7.4v4.1h-12.4v-1.4c0-2.6,0.7-4.9,2-6.8c0-0.1,1.3-1.4,3.7-3.9c1.3-1.4,2-2.8,2-4.2c0-0.8-0.1-1.4-0.3-1.6
					c-0.2-0.3-0.6-0.4-1-0.4c-0.5,0-0.9,0.2-1.1,0.5c-0.2,0.3-0.3,0.9-0.3,1.5v2.2H1032.6z"/>
			</g>
			<g class="st4">
				<path class="st1" d="M390.6,224.2v-11.6h-4.3v-1.5h10.4v1.5h-4.3v11.6H390.6z"/>
			</g>
			<g class="st4">
				<path class="st1" d="M403.8,224.2v-1.4c-0.7,1.1-1.7,1.6-3,1.6c-0.6,0-1.1-0.1-1.6-0.3c-0.5-0.2-0.8-0.5-1.1-0.8
					c-0.2-0.3-0.4-0.7-0.5-1.2c-0.1-0.3-0.1-0.8-0.1-1.5v-5.9h1.6v5.3c0,0.8,0,1.4,0.1,1.7c0.1,0.4,0.3,0.8,0.6,1s0.7,0.4,1.2,0.4
					c0.5,0,0.9-0.1,1.4-0.4c0.4-0.2,0.7-0.6,0.9-1c0.2-0.4,0.3-1,0.3-1.9v-5.1h1.6v9.5H403.8z"/>
				<path class="st1" d="M413.9,223.1c-0.6,0.5-1.2,0.9-1.7,1.1c-0.6,0.2-1.1,0.3-1.8,0.3c-1,0-1.8-0.3-2.4-0.8s-0.8-1.2-0.8-2
					c0-0.5,0.1-0.9,0.3-1.3s0.5-0.7,0.8-0.9s0.7-0.4,1.2-0.5c0.3-0.1,0.8-0.2,1.4-0.2c1.3-0.2,2.3-0.3,2.9-0.6c0-0.2,0-0.4,0-0.4
					c0-0.7-0.2-1.1-0.5-1.4c-0.4-0.4-1-0.5-1.8-0.5c-0.8,0-1.3,0.1-1.7,0.4c-0.4,0.3-0.6,0.7-0.8,1.4l-1.6-0.2
					c0.1-0.7,0.4-1.2,0.7-1.6c0.3-0.4,0.8-0.7,1.4-1c0.6-0.2,1.3-0.3,2.2-0.3c0.8,0,1.5,0.1,2,0.3c0.5,0.2,0.9,0.4,1.1,0.7
					s0.4,0.7,0.5,1.1c0.1,0.3,0.1,0.8,0.1,1.5v2.1c0,1.5,0,2.4,0.1,2.8s0.2,0.8,0.4,1.1h-1.7C414.1,223.9,414,223.5,413.9,223.1z
					 M411.6,212l-1,1.5h-1.8l1.9-2.5h1.7l2,2.5h-1.8L411.6,212z M413.8,219.5c-0.6,0.2-1.5,0.4-2.6,0.6c-0.7,0.1-1.1,0.2-1.4,0.3
					c-0.3,0.1-0.5,0.3-0.6,0.5s-0.2,0.5-0.2,0.8c0,0.4,0.2,0.8,0.5,1.1c0.3,0.3,0.8,0.4,1.4,0.4c0.6,0,1.2-0.1,1.7-0.4
					c0.5-0.3,0.8-0.6,1.1-1.1c0.2-0.4,0.3-0.9,0.3-1.6V219.5z M412.4,210.4h-1.3l-2.1-2.5h2.2L412.4,210.4z"/>
				<path class="st1" d="M417.9,224.2v-9.5h1.4v1.4c0.7-1,1.7-1.6,3-1.6c0.6,0,1.1,0.1,1.6,0.3c0.5,0.2,0.8,0.5,1.1,0.8
					s0.4,0.7,0.5,1.2c0.1,0.3,0.1,0.8,0.1,1.6v5.8H424v-5.8c0-0.7-0.1-1.1-0.2-1.5s-0.3-0.6-0.7-0.8c-0.3-0.2-0.7-0.3-1.1-0.3
					c-0.7,0-1.3,0.2-1.8,0.7c-0.5,0.4-0.7,1.3-0.7,2.5v5.2H417.9z"/>
				<path class="st1" d="M438.8,224.2h-1.6V214c-0.4,0.4-0.9,0.7-1.5,1.1c-0.6,0.4-1.2,0.6-1.7,0.8v-1.6c0.9-0.4,1.7-0.9,2.4-1.5
					c0.7-0.6,1.2-1.2,1.4-1.8h1V224.2z"/>
				<path class="st1" d="M443,212.8v-1.5h8.5v1.3c-0.8,0.9-1.7,2.1-2.5,3.5c-0.8,1.5-1.5,3-1.9,4.5c-0.3,1.1-0.5,2.3-0.6,3.6h-1.7
					c0-1,0.2-2.3,0.6-3.7c0.4-1.5,0.9-2.9,1.7-4.2c0.7-1.4,1.5-2.5,2.3-3.4H443z"/>
			</g>
			<g class="st4">
				<path class="st1" d="M932.5,224.2v-11.6h-4.3v-1.5h10.4v1.5h-4.3v11.6H932.5z"/>
			</g>
			<g class="st4">
				<path class="st1" d="M945.7,224.2v-1.4c-0.7,1.1-1.7,1.6-3,1.6c-0.6,0-1.1-0.1-1.6-0.3c-0.5-0.2-0.8-0.5-1.1-0.8
					c-0.2-0.3-0.4-0.7-0.5-1.2c-0.1-0.3-0.1-0.8-0.1-1.5v-5.9h1.6v5.3c0,0.8,0,1.4,0.1,1.7c0.1,0.4,0.3,0.8,0.6,1
					c0.3,0.2,0.7,0.4,1.2,0.4c0.5,0,0.9-0.1,1.4-0.4c0.4-0.2,0.7-0.6,0.9-1c0.2-0.4,0.3-1,0.3-1.9v-5.1h1.6v9.5H945.7z"/>
				<path class="st1" d="M955.9,223.1c-0.6,0.5-1.2,0.9-1.7,1.1c-0.6,0.2-1.1,0.3-1.8,0.3c-1,0-1.8-0.3-2.4-0.8s-0.8-1.2-0.8-2
					c0-0.5,0.1-0.9,0.3-1.3c0.2-0.4,0.5-0.7,0.8-0.9s0.7-0.4,1.2-0.5c0.3-0.1,0.8-0.2,1.4-0.2c1.3-0.2,2.3-0.3,2.9-0.6
					c0-0.2,0-0.4,0-0.4c0-0.7-0.2-1.1-0.5-1.4c-0.4-0.4-1-0.5-1.8-0.5c-0.8,0-1.3,0.1-1.7,0.4c-0.4,0.3-0.6,0.7-0.8,1.4l-1.6-0.2
					c0.1-0.7,0.4-1.2,0.7-1.6c0.3-0.4,0.8-0.7,1.4-1c0.6-0.2,1.3-0.3,2.2-0.3c0.8,0,1.5,0.1,2,0.3c0.5,0.2,0.9,0.4,1.1,0.7
					s0.4,0.7,0.5,1.1c0.1,0.3,0.1,0.8,0.1,1.5v2.1c0,1.5,0,2.4,0.1,2.8s0.2,0.8,0.4,1.1h-1.7C956,223.9,955.9,223.5,955.9,223.1z
					 M953.5,212l-1,1.5h-1.8l1.9-2.5h1.7l2,2.5h-1.8L953.5,212z M955.7,219.5c-0.6,0.2-1.5,0.4-2.6,0.6c-0.7,0.1-1.1,0.2-1.4,0.3
					c-0.3,0.1-0.5,0.3-0.6,0.5s-0.2,0.5-0.2,0.8c0,0.4,0.2,0.8,0.5,1.1c0.3,0.3,0.8,0.4,1.4,0.4c0.6,0,1.2-0.1,1.7-0.4
					c0.5-0.3,0.8-0.6,1.1-1.1c0.2-0.4,0.3-0.9,0.3-1.6V219.5z M954.3,210.4H953l-2.1-2.5h2.2L954.3,210.4z"/>
				<path class="st1" d="M959.8,224.2v-9.5h1.4v1.4c0.7-1,1.7-1.6,3-1.6c0.6,0,1.1,0.1,1.6,0.3c0.5,0.2,0.8,0.5,1.1,0.8
					s0.4,0.7,0.5,1.2c0.1,0.3,0.1,0.8,0.1,1.6v5.8h-1.6v-5.8c0-0.7-0.1-1.1-0.2-1.5s-0.3-0.6-0.7-0.8c-0.3-0.2-0.7-0.3-1.1-0.3
					c-0.7,0-1.3,0.2-1.8,0.7c-0.5,0.4-0.7,1.3-0.7,2.5v5.2H959.8z"/>
				<path class="st1" d="M974.7,220.8l1.6-0.2c0.2,0.9,0.5,1.6,0.9,2c0.4,0.4,1,0.6,1.6,0.6c0.8,0,1.4-0.3,1.9-0.8s0.8-1.2,0.8-1.9
					c0-0.7-0.2-1.3-0.7-1.8c-0.5-0.5-1.1-0.7-1.8-0.7c-0.3,0-0.7,0.1-1.1,0.2l0.2-1.4c0.1,0,0.2,0,0.3,0c0.7,0,1.3-0.2,1.9-0.5
					c0.5-0.4,0.8-0.9,0.8-1.7c0-0.6-0.2-1.1-0.6-1.5c-0.4-0.4-0.9-0.6-1.5-0.6c-0.6,0-1.1,0.2-1.6,0.6c-0.4,0.4-0.7,1-0.8,1.8
					l-1.6-0.3c0.2-1.1,0.6-1.9,1.3-2.5s1.6-0.9,2.6-0.9c0.7,0,1.4,0.2,2,0.5c0.6,0.3,1.1,0.7,1.4,1.3c0.3,0.5,0.5,1.1,0.5,1.7
					c0,0.6-0.2,1.1-0.5,1.5c-0.3,0.5-0.8,0.8-1.3,1.1c0.8,0.2,1.4,0.5,1.8,1.1c0.4,0.6,0.6,1.3,0.6,2.1c0,1.1-0.4,2.1-1.3,2.9
					s-1.9,1.2-3.2,1.2c-1.2,0-2.1-0.3-2.9-1S974.8,221.9,974.7,220.8z"/>
				<path class="st1" d="M990.9,224.2h-1.6V214c-0.4,0.4-0.9,0.7-1.5,1.1c-0.6,0.4-1.2,0.6-1.7,0.8v-1.6c0.9-0.4,1.7-0.9,2.4-1.5
					c0.7-0.6,1.2-1.2,1.4-1.8h1V224.2z"/>
			</g>
			<path class="st5" d="M251.8,25.6V16c0-8.6,7-15.5,15.5-15.5h851.1c8.6,0,15.5,6.9,15.6,15.5l0,0v9.5"/>
			<path d="M249.7,25.9c0-1.2,0.9-2.1,2.1-2.1c1.2,0,2.1,0.9,2.1,2.1S253,28,251.8,28l0,0C250.7,28,249.7,27,249.7,25.9L249.7,25.9z
				"/>
			<path d="M1131.9,25.9c0-1.2,1-2.1,2.1-2.1s2.1,1,2.1,2.1s-0.9,2-2.1,2.1C1132.8,28,1131.9,27.1,1131.9,25.9L1131.9,25.9z"/>
			<path d="M206,74.7c0,0.3-0.6,0.6-1.3,0.6h-95c-0.7,0-1.3-0.3-1.3-0.6s0.6-0.6,1.3-0.6h94.9C205.4,74.2,206,74.4,206,74.7z"/>
			<path d="M107.6,76.8c-1.2,0-2.1-0.9-2.1-2.1s0.9-2.1,2.1-2.1s2.1,0.9,2.1,2.1l0,0C109.7,75.9,108.8,76.8,107.6,76.8z"/>
			<path d="M206.5,76.8c1.2,0,2.1-0.9,2.1-2.1s-0.9-2.1-2.1-2.1c-1.2,0-2.1,0.9-2.1,2.1S205.4,76.8,206.5,76.8L206.5,76.8z"/>
			
				<image style="overflow:visible;enable-background:new    ;" width="1279" height="1658" xlink:href="2E01E35E.jpeg"  transform="matrix(0.1892 0 0 0.1892 173.3493 252.6402)">
			</image>
			
				<image style="overflow:visible;enable-background:new    ;" width="1279" height="1658" xlink:href="2E01E35E.jpeg"  transform="matrix(0.1892 0 0 0.1892 419.2093 252.6402)">
			</image>
			
				<image style="overflow:visible;enable-background:new    ;" width="1279" height="1658" xlink:href="2E01E35A.jpeg"  transform="matrix(0.1892 0 0 0.1892 715.2793 252.6402)">
			</image>
			
				<image style="overflow:visible;enable-background:new    ;" width="1279" height="1658" xlink:href="2E01E35A.jpeg"  transform="matrix(0.1892 0 0 0.1892 961.1493 252.6402)">
			</image>
		</g>
	</g>
</g>
</svg>
