<?xml version="1.0" encoding="utf-8"?>
<!-- Generator: Adobe Illustrator 24.0.0, SVG Export Plug-In . SVG Version: 6.00 Build 0)  -->
<svg version="1.1" id="Layer_1" xmlns="http://www.w3.org/2000/svg" xmlns:xlink="http://www.w3.org/1999/xlink" x="0px" y="0px"
	 viewBox="0 0 1200.3 199.6" style="enable-background:new 0 0 1200.3 199.6;" xml:space="preserve">
<style type="text/css">
	.st0{fill:#EF5BA1;}
	.st1{fill:#FFFFFF;}
	.st2{fill:#821966;}
	.st3{enable-background:new    ;}
	.st4{fill:none;stroke:#FFFFFF;stroke-miterlimit:10;}
	.st5{fill:none;stroke:#0075C9;stroke-width:2;stroke-linecap:round;stroke-linejoin:round;stroke-dasharray:11.85,19.76;}
	.st6{fill:#0075C9;}
</style>
<title>Asset 98</title>
<g>
	<g id="Layer_2_1_">
		<g id="Layer_1-2">
			<g>
				
					<image style="overflow:visible;enable-background:new    ;" width="187" height="187" xlink:href="62DCF70A.png"  transform="matrix(1 0 0 1 -0.67 13.31)">
				</image>
			</g>
			<path class="st0" d="M21.7,16.4h156.6c2.7,0,4.9,2.2,4.9,4.9v156.6c0,2.7-2.2,4.9-4.9,4.9H21.7c-2.7,0-4.9-2.2-4.9-4.9V21.3
				C16.8,18.6,19,16.4,21.7,16.4z"/>
			<path class="st1" d="M175.8,184.4H24.1c-4.9,0-8.9-4.1-8.9-9V23.7c0-4.9,4-9,8.9-9h151.7c4.9,0,8.9,4.1,8.9,9v151.7
				C184.7,180.3,180.7,184.3,175.8,184.4z M24.1,18c-3.1,0-5.7,2.6-5.7,5.7v151.7c0,3.1,2.5,5.7,5.7,5.7h151.7
				c3.1,0,5.7-2.6,5.7-5.7V23.7c0-3.1-2.5-5.7-5.6-5.7c0,0,0,0,0,0H24.1z"/>
			<path class="st0" d="M197.9,99.6c-0.9,0-1.6-0.7-1.6-1.6l0,0v-3.3c0-0.9,0.7-1.6,1.6-1.6c0.9,0,1.6,0.7,1.6,1.6v3.3
				C199.5,98.8,198.8,99.6,197.9,99.6z"/>
			<path class="st0" d="M181,199.1h-6.5c-0.9,0-1.6-0.7-1.6-1.6c0-0.9,0.7-1.6,1.6-1.6h6.5c0.9,0,1.6,0.7,1.6,1.6
				C182.6,198.4,181.9,199.1,181,199.1z M161.6,199.1h-6.4c-0.9,0-1.6-0.7-1.6-1.6c0-0.9,0.7-1.6,1.6-1.6h6.5c0.9,0,1.6,0.7,1.6,1.6
				S162.5,199.1,161.6,199.1C161.6,199.1,161.6,199.1,161.6,199.1L161.6,199.1z M142.1,199.1h-6.5c-0.9,0-1.6-0.7-1.6-1.6
				s0.7-1.6,1.6-1.6c0,0,0,0,0,0h6.5c0.9,0,1.6,0.7,1.6,1.6C143.7,198.4,143,199.1,142.1,199.1z M122.7,199.1h-6.5
				c-0.9,0-1.6-0.7-1.6-1.6c0-0.9,0.7-1.6,1.6-1.6h6.5c0.9,0,1.6,0.7,1.6,1.6C124.3,198.4,123.6,199.1,122.7,199.1L122.7,199.1z
				 M103.2,199.1h-6.5c-0.9,0-1.6-0.7-1.6-1.6c0-0.9,0.7-1.6,1.6-1.6h6.5c0.9,0,1.6,0.7,1.6,1.6
				C104.9,198.4,104.1,199.1,103.2,199.1C103.2,199.1,103.2,199.1,103.2,199.1L103.2,199.1z M83.8,199.1h-6.5
				c-0.9,0-1.6-0.7-1.6-1.6c0-0.9,0.7-1.6,1.6-1.6h6.5c0.9,0,1.6,0.7,1.6,1.6C85.4,198.4,84.7,199.1,83.8,199.1L83.8,199.1z
				 M64.3,199.1h-6.5c-0.9,0-1.6-0.7-1.6-1.6c0-0.9,0.7-1.6,1.6-1.6h6.5c0.9,0,1.6,0.7,1.6,1.6C66,198.4,65.2,199.1,64.3,199.1
				L64.3,199.1z M44.9,199.1h-6.5c-0.9,0-1.6-0.7-1.6-1.6c0-0.9,0.7-1.6,1.6-1.6h6.5c0.9,0,1.6,0.7,1.6,1.6
				C46.5,198.4,45.8,199.1,44.9,199.1L44.9,199.1z M25.4,199.1H19c-0.9,0-1.6-0.7-1.6-1.6c0-0.9,0.7-1.6,1.6-1.6h6.5
				c0.9,0,1.6,0.7,1.6,1.6S26.4,199.1,25.4,199.1C25.5,199.1,25.5,199.1,25.4,199.1L25.4,199.1z M6.9,195.4c-0.4,0-0.8-0.2-1.1-0.4
				c-0.2-0.2-0.4-0.4-0.7-0.6c-1.5-1.5-2.7-3.2-3.5-5.2c-0.4-0.8-0.1-1.8,0.7-2.2s1.8-0.1,2.2,0.7c0,0.1,0.1,0.1,0.1,0.2
				c0.6,1.5,1.6,3,2.8,4.1c0.2,0.2,0.3,0.3,0.5,0.5c0.7,0.6,0.7,1.6,0.1,2.3C7.8,195.2,7.3,195.4,6.9,195.4L6.9,195.4z M193.1,195.4
				c-0.9,0-1.6-0.8-1.6-1.7c0-0.5,0.2-0.9,0.5-1.2l0.5-0.5c1.2-1.2,2.1-2.6,2.8-4.2c0.4-0.8,1.3-1.2,2.1-0.9
				c0.8,0.3,1.2,1.3,0.9,2.1c0,0,0,0,0,0c-0.8,2-2,3.7-3.5,5.2c-0.2,0.2-0.4,0.4-0.6,0.6C193.9,195.3,193.5,195.4,193.1,195.4
				L193.1,195.4z M2.1,177.4c-0.9,0-1.6-0.7-1.6-1.6c0,0,0,0,0,0v-6.5c0-0.9,0.7-1.6,1.6-1.6s1.6,0.7,1.6,1.6v6.5
				C3.7,176.7,2.9,177.4,2.1,177.4C2,177.4,2,177.4,2.1,177.4L2.1,177.4z M197.9,177.4c-0.9,0-1.6-0.7-1.6-1.6c0,0,0,0,0,0v-6.5
				c0-0.9,0.7-1.6,1.6-1.6c0.9,0,1.6,0.7,1.6,1.6v6.5C199.5,176.7,198.8,177.4,197.9,177.4L197.9,177.4z M2,157.9
				c-0.9,0-1.6-0.7-1.6-1.6c0,0,0,0,0,0v-6.5c0-0.9,0.7-1.6,1.6-1.6s1.6,0.7,1.6,1.6v6.5C3.6,157.2,2.9,157.9,2,157.9
				C2,157.9,2,157.9,2,157.9z M197.9,157.9c-0.9,0-1.6-0.7-1.6-1.6c0,0,0,0,0,0v-6.5c0-0.9,0.7-1.6,1.6-1.6c0.9,0,1.6,0.7,1.6,1.6
				v6.5C199.5,157.2,198.8,157.9,197.9,157.9L197.9,157.9z M2,138.5c-0.9,0-1.6-0.7-1.6-1.6c0,0,0,0,0,0v-6.5c0-0.9,0.7-1.6,1.6-1.6
				s1.6,0.7,1.6,1.6v6.5C3.6,137.8,2.9,138.5,2,138.5C2,138.5,2,138.5,2,138.5z M197.9,138.5c-0.9,0-1.6-0.7-1.6-1.6c0,0,0,0,0,0
				v-6.5c0-0.9,0.7-1.6,1.6-1.6c0.9,0,1.6,0.7,1.6,1.6v6.5C199.5,137.7,198.8,138.4,197.9,138.5L197.9,138.5z M2,119
				c-0.9,0-1.6-0.7-1.6-1.6v-6.5c0-0.9,0.7-1.6,1.6-1.6s1.6,0.7,1.6,1.6v6.5C3.6,118.3,2.9,119,2,119z M197.9,119
				c-0.9,0-1.6-0.7-1.6-1.6l0,0v-6.5c0-0.9,0.7-1.6,1.6-1.6c0.9,0,1.6,0.7,1.6,1.6v6.5C199.5,118.3,198.8,119,197.9,119L197.9,119z"
				/>
			<path class="st0" d="M2,99.6c-0.9,0-1.6-0.7-1.6-1.6v-3.3c0-0.9,0.7-1.6,1.6-1.6s1.6,0.7,1.6,1.6v3.3C3.7,98.8,2.9,99.6,2,99.6
				C2,99.6,2,99.6,2,99.6z"/>
			<path class="st0" d="M222.3,101.2h-26v-85c0-7.1-5.8-12.9-12.9-12.9c0,0,0,0,0,0H16.6C9.5,3.3,3.7,9,3.7,16.2c0,0,0,0,0,0v83.4
				H0.4V16.2C0.4,7.2,7.7,0,16.6,0h166.8c8.9,0,16.2,7.2,16.2,16.2c0,0,0,0,0,0v81.8h22.7L222.3,101.2z"/>
			<polygon class="st0" points="219.9,107.7 233.9,99.6 219.9,91.4 			"/>
			<g>
				
					<image style="overflow:visible;enable-background:new    ;" width="187" height="187" xlink:href="62DCF70E.png"  transform="matrix(1 0 0 1 463.33 13.31)">
				</image>
			</g>
			<path class="st0" d="M485.1,16.4h156.6c2.7,0,4.9,2.2,4.9,4.9v156.6c0,2.7-2.2,4.9-4.9,4.9H485.1c-2.7,0-4.9-2.2-4.9-4.9V21.3
				C480.2,18.6,482.4,16.4,485.1,16.4z"/>
			<path class="st1" d="M639.2,184.4H487.5c-5,0-9-4-9-9V23.7c0-5,4-9,9-9h151.7c4.9,0,8.9,4.1,8.9,9v151.7
				C648.1,180.3,644.1,184.3,639.2,184.4z M487.5,18c-3.1,0-5.7,2.5-5.7,5.7v0v151.7c0,3.1,2.5,5.7,5.7,5.7l0,0h151.7
				c3.1,0,5.7-2.6,5.7-5.7V23.7c0-3.1-2.5-5.7-5.6-5.7c0,0,0,0,0,0H487.5z"/>
			<path class="st0" d="M661.3,99.6c-0.9,0-1.6-0.7-1.6-1.6l0,0v-3.3c0-0.9,0.7-1.6,1.6-1.6s1.6,0.7,1.6,1.6v3.3
				C662.9,98.8,662.2,99.6,661.3,99.6L661.3,99.6z"/>
			<path class="st0" d="M644.4,199.1h-6.5c-0.9,0-1.6-0.7-1.6-1.6s0.7-1.6,1.6-1.6c0,0,0,0,0,0h6.5c0.9,0,1.6,0.7,1.6,1.6
				C646,198.4,645.3,199.1,644.4,199.1z M625,199.1h-6.5c-0.9,0-1.6-0.7-1.6-1.6c0-0.9,0.7-1.6,1.6-1.6h6.5c0.9,0,1.6,0.7,1.6,1.6
				C626.6,198.4,625.9,199.1,625,199.1L625,199.1z M605.5,199.1H599c-0.9,0-1.6-0.7-1.6-1.6c0-0.9,0.7-1.6,1.6-1.6h6.5
				c0.9,0,1.6,0.7,1.6,1.6C607.1,198.4,606.4,199.1,605.5,199.1L605.5,199.1z M586.1,199.1h-6.5c-0.9,0-1.6-0.7-1.6-1.6
				c0-0.9,0.7-1.6,1.6-1.6h6.5c0.9,0,1.6,0.7,1.6,1.6C587.7,198.4,587,199.1,586.1,199.1z M566.6,199.1h-6.5c-0.9,0-1.6-0.7-1.6-1.6
				c0-0.9,0.7-1.6,1.6-1.6h6.5c0.9,0,1.6,0.7,1.6,1.6C568.2,198.4,567.5,199.1,566.6,199.1z M547.2,199.1h-6.5
				c-0.9,0-1.6-0.7-1.6-1.6s0.7-1.6,1.6-1.6c0,0,0,0,0,0h6.5c0.9,0,1.6,0.7,1.6,1.6C548.8,198.4,548.1,199.1,547.2,199.1z
				 M527.7,199.1h-6.5c-0.9,0-1.6-0.7-1.6-1.6c0-0.9,0.7-1.6,1.6-1.6h6.5c0.9,0,1.6,0.7,1.6,1.6
				C529.3,198.4,528.6,199.1,527.7,199.1z M508.3,199.1h-6.5c-0.9,0-1.6-0.7-1.6-1.6s0.7-1.6,1.6-1.6c0,0,0,0,0,0h6.5
				c0.9,0,1.6,0.7,1.6,1.6C509.9,198.4,509.2,199.1,508.3,199.1z M488.8,199.1h-6.5c-0.9,0-1.6-0.7-1.6-1.6s0.7-1.6,1.6-1.6
				c0,0,0,0,0,0h6.5c0.9,0,1.6,0.7,1.6,1.6C490.4,198.4,489.7,199.1,488.8,199.1z M470.3,195.4c-0.4,0-0.8-0.1-1.1-0.4
				c-0.2-0.2-0.5-0.4-0.7-0.6c-1.5-1.5-2.7-3.2-3.5-5.2c-0.4-0.8-0.1-1.8,0.7-2.2s1.8-0.1,2.2,0.7c0,0.1,0.1,0.1,0.1,0.2
				c0.6,1.5,1.6,3,2.8,4.1c0.2,0.2,0.4,0.3,0.5,0.5c0.7,0.6,0.7,1.6,0.1,2.3C471.2,195.2,470.7,195.4,470.3,195.4L470.3,195.4z
				 M656.5,195.4c-0.9,0-1.6-0.7-1.6-1.6c0-0.5,0.2-0.9,0.5-1.2c0.2-0.2,0.3-0.3,0.5-0.5c1.2-1.2,2.1-2.6,2.8-4.2
				c0.3-0.9,1.2-1.3,2.1-1c0.9,0.3,1.3,1.2,1,2.1c0,0.1-0.1,0.2-0.1,0.2c-0.8,2-2,3.7-3.5,5.2c-0.2,0.2-0.4,0.4-0.7,0.6
				C657.2,195.3,656.9,195.4,656.5,195.4L656.5,195.4z M465.5,177.4c-0.9,0-1.6-0.7-1.6-1.6c0,0,0,0,0,0v-6.5c0-0.9,0.7-1.6,1.6-1.6
				s1.6,0.7,1.6,1.6v6.5C467.1,176.7,466.3,177.4,465.5,177.4L465.5,177.4z M661.3,177.4c-0.9,0-1.6-0.7-1.6-1.6c0,0,0,0,0,0v-6.5
				c0-0.9,0.7-1.6,1.6-1.6s1.6,0.7,1.6,1.6v6.5C662.9,176.7,662.2,177.4,661.3,177.4L661.3,177.4z M465.4,157.9
				c-0.9,0-1.6-0.7-1.6-1.6c0,0,0,0,0,0v-6.5c0-0.9,0.7-1.6,1.6-1.6s1.6,0.7,1.6,1.6v6.5C467.1,157.2,466.3,157.9,465.4,157.9
				L465.4,157.9z M661.3,157.9c-0.9,0-1.6-0.7-1.6-1.6c0,0,0,0,0,0v-6.5c0-0.9,0.7-1.6,1.6-1.6s1.6,0.7,1.6,1.6v6.5
				C662.9,157.2,662.2,157.9,661.3,157.9L661.3,157.9z M465.4,138.5c-0.9,0-1.6-0.7-1.6-1.6c0,0,0,0,0,0v-6.5c0-0.9,0.7-1.6,1.6-1.6
				s1.6,0.7,1.6,1.6v6.5C467.1,137.8,466.3,138.5,465.4,138.5L465.4,138.5z M661.3,138.5c-0.9,0-1.6-0.7-1.6-1.6c0,0,0,0,0,0v-6.5
				c0-0.9,0.7-1.6,1.6-1.6s1.6,0.7,1.6,1.6v6.5C662.9,137.8,662.2,138.5,661.3,138.5L661.3,138.5z M465.4,119
				c-0.9,0-1.6-0.7-1.6-1.6l0,0v-6.5c0-0.9,0.7-1.6,1.6-1.6s1.6,0.7,1.6,1.6v6.5C467.1,118.3,466.3,119,465.4,119L465.4,119z
				 M661.3,119c-0.9,0-1.6-0.7-1.6-1.6l0,0v-6.5c0-0.9,0.7-1.6,1.6-1.6s1.6,0.7,1.6,1.6v6.5C662.9,118.3,662.2,119,661.3,119
				L661.3,119z"/>
			<path class="st0" d="M465.4,99.6c-0.9,0-1.6-0.7-1.6-1.6l0,0v-3.3c0-0.9,0.7-1.6,1.6-1.6s1.6,0.7,1.6,1.6v3.3
				C467.1,98.8,466.3,99.6,465.4,99.6L465.4,99.6z"/>
			<path class="st0" d="M685.7,101.2h-26v-85c0-7.1-5.8-12.9-12.9-12.9c0,0,0,0,0,0H480c-7.1,0-12.9,5.8-12.9,12.9c0,0,0,0,0,0v83.4
				h-3.3V16.2C463.8,7.2,471,0,480,0c0,0,0,0,0,0h166.8c8.9,0,16.2,7.2,16.2,16.2c0,0,0,0,0,0v81.8h22.7V101.2z"/>
			<polygon class="st0" points="683.3,107.7 697.3,99.6 683.3,91.4 			"/>
			<g>
				
					<image style="overflow:visible;enable-background:new    ;" width="187" height="187" xlink:href="62DCF709.png"  transform="matrix(1 0 0 1 229.33 13.31)">
				</image>
			</g>
			<path class="st2" d="M251.7,16.4h156.6c2.7,0,4.9,2.2,4.9,4.9v156.6c0,2.7-2.2,4.9-4.9,4.9H251.7c-2.7,0-4.9-2.2-4.9-4.9V21.3
				C246.8,18.6,249,16.4,251.7,16.4z"/>
			<path class="st1" d="M405.8,184.4H254.1c-4.9,0-8.9-4.1-8.9-9V23.7c0-4.9,4-9,8.9-9h151.7c5,0,9,4,9,9v151.7
				C414.7,180.3,410.7,184.3,405.8,184.4z M254.1,18c-3.1,0-5.7,2.6-5.7,5.7v151.7c0,3.1,2.5,5.7,5.7,5.7h151.7
				c3.1,0,5.7-2.5,5.7-5.7l0,0V23.7c0-3.1-2.5-5.7-5.6-5.7c0,0,0,0,0,0H254.1z"/>
			<path class="st2" d="M427.9,106.1c-0.9,0-1.6-0.7-1.6-1.6l0,0v-3.3c0-0.9,0.7-1.6,1.6-1.6s1.6,0.7,1.6,1.6v3.3
				C429.5,105.4,428.8,106.1,427.9,106.1L427.9,106.1z"/>
			<path class="st2" d="M427.9,89.9c-0.9,0-1.6-0.7-1.6-1.6l0,0v-6.5c0-0.9,0.7-1.6,1.6-1.6s1.6,0.7,1.6,1.6v6.5
				C429.5,89.1,428.8,89.9,427.9,89.9L427.9,89.9z M232,89.8c-0.9,0-1.6-0.7-1.6-1.6l0,0v-6.5c0-0.9,0.7-1.6,1.6-1.6
				c0.9,0,1.6,0.7,1.6,1.6c0,0,0,0,0,0v6.5C233.6,89.1,232.9,89.8,232,89.8z M427.9,70.4c-0.9,0-1.6-0.7-1.6-1.6l0,0v-6.5
				c0-0.9,0.7-1.6,1.6-1.6s1.6,0.7,1.6,1.6v6.5C429.5,69.7,428.8,70.4,427.9,70.4L427.9,70.4z M232,70.4c-0.9,0-1.6-0.7-1.6-1.6l0,0
				v-6.5c0-0.9,0.7-1.6,1.6-1.6c0.9,0,1.6,0.7,1.6,1.6v6.5C233.6,69.7,232.9,70.4,232,70.4z M427.9,51c-0.9,0-1.6-0.7-1.6-1.6
				c0,0,0,0,0,0v-6.5c0-0.9,0.7-1.6,1.6-1.6s1.6,0.7,1.6,1.6v6.5C429.5,50.2,428.8,51,427.9,51C427.9,51,427.9,51,427.9,51z
				 M232,50.9c-0.9,0-1.6-0.7-1.6-1.6c0,0,0,0,0,0v-6.5c0-0.9,0.7-1.6,1.6-1.6c0.9,0,1.6,0.7,1.6,1.6c0,0,0,0,0,0v6.5
				C233.6,50.2,232.9,50.9,232,50.9z M427.9,31.5c-0.9,0-1.6-0.7-1.6-1.6c0,0,0,0,0,0v-6.5c0-0.9,0.7-1.6,1.6-1.6s1.6,0.7,1.6,1.6
				v6.5C429.5,30.8,428.8,31.5,427.9,31.5L427.9,31.5z M232,31.5c-0.9,0-1.6-0.7-1.6-1.6c0,0,0,0,0,0v-6.5c0-0.9,0.7-1.6,1.6-1.6
				s1.6,0.7,1.6,1.6c0,0,0,0,0,0v6.5C233.6,30.8,232.9,31.5,232,31.5z M426.8,12.2c-0.7,0-1.3-0.4-1.5-1c-0.6-1.6-1.6-3-2.8-4.2
				L422,6.6c-0.7-0.6-0.7-1.6-0.1-2.3s1.6-0.7,2.3-0.1l0,0l0.6,0.6c1.5,1.5,2.7,3.3,3.5,5.2c0.3,0.8,0,1.8-0.9,2.1
				C427.2,12.2,427,12.2,426.8,12.2z M233.1,12.2c-0.2,0-0.4,0-0.6-0.1c-0.8-0.4-1.2-1.3-0.9-2.1c0.8-1.9,2-3.7,3.5-5.2
				c0.2-0.2,0.4-0.4,0.7-0.6c0.7-0.6,1.7-0.6,2.3,0.1c0.6,0.7,0.6,1.7-0.1,2.3L237.5,7c-1.2,1.2-2.1,2.6-2.8,4.2
				C234.4,11.8,233.8,12.2,233.1,12.2L233.1,12.2z M411,3.3h-6.5c-0.9,0-1.6-0.7-1.6-1.6s0.7-1.6,1.6-1.6h6.5c0.9,0,1.6,0.7,1.6,1.6
				S411.9,3.3,411,3.3L411,3.3z M391.5,3.3h-6.5c-0.9,0-1.6-0.7-1.6-1.6s0.7-1.6,1.6-1.6h6.5c0.9,0,1.6,0.7,1.6,1.6
				S392.5,3.3,391.5,3.3L391.5,3.3z M372.1,3.3h-6.5c-0.9,0-1.6-0.7-1.6-1.6s0.7-1.6,1.6-1.6h6.5c0.9,0,1.6,0.7,1.6,1.6
				S373,3.3,372.1,3.3z M352.7,3.3h-6.5c-0.9,0-1.6-0.7-1.6-1.6s0.7-1.6,1.6-1.6h6.5c0.9,0,1.6,0.7,1.6,1.6c0,0,0,0,0,0
				C354.3,2.5,353.6,3.3,352.7,3.3C352.7,3.3,352.7,3.3,352.7,3.3L352.7,3.3z M333.2,3.3h-6.5c-0.9,0-1.6-0.7-1.6-1.6
				s0.7-1.6,1.6-1.6h6.5c0.9,0,1.6,0.7,1.6,1.6c0,0,0,0,0,0C334.8,2.5,334.1,3.3,333.2,3.3C333.2,3.3,333.2,3.3,333.2,3.3L333.2,3.3
				z M313.8,3.3h-6.5c-0.9,0-1.6-0.7-1.6-1.6s0.7-1.6,1.6-1.6h6.5c0.9,0,1.6,0.7,1.6,1.6S314.7,3.3,313.8,3.3z M294.3,3.3h-6.5
				c-0.9,0-1.6-0.7-1.6-1.6s0.7-1.6,1.6-1.6h6.5c0.9,0,1.6,0.7,1.6,1.6S295.2,3.3,294.3,3.3z M274.9,3.3h-6.5
				c-0.9,0-1.6-0.7-1.6-1.6s0.7-1.6,1.6-1.6h6.5c0.9,0,1.6,0.7,1.6,1.6S275.8,3.3,274.9,3.3z M255.4,3.3h-6.5
				c-0.9,0-1.6-0.7-1.6-1.6S248,0,248.9,0h6.5c0.9,0,1.6,0.7,1.6,1.6S256.3,3.3,255.4,3.3L255.4,3.3z"/>
			<path class="st2" d="M232,106.1c-0.9,0-1.6-0.7-1.6-1.6l0,0v-3.3c0-0.9,0.7-1.6,1.6-1.6c0.9,0,1.6,0.7,1.6,1.6c0,0,0,0,0,0v3.3
				C233.6,105.4,232.9,106.1,232,106.1z"/>
			<path class="st2" d="M413.3,199.1H246.6c-8.9,0-16.2-7.2-16.2-16.1V99.6h3.3V183c0,7.1,5.8,12.9,12.9,12.9h166.8
				c7.1,0,12.9-5.8,12.9-12.9c0,0,0,0,0,0V98h26v3.3h-22.7V183C429.5,191.9,422.3,199.2,413.3,199.1L413.3,199.1z"/>
			<polygon class="st2" points="449.9,107.7 463.9,99.6 449.9,91.4 			"/>
			<g class="st3">
				<path class="st1" d="M67,72.1v-2c0-2.5,0.6-4.4,1.8-5.6c1.2-1.2,3.1-1.8,5.7-1.8c2.3,0,4,0.6,5.3,1.7c1.2,1.1,1.8,2.9,1.8,5.2
					c0,2.1-0.5,3.8-1.5,5.3c-0.3,0.4-0.7,0.9-1.2,1.5c-0.6,0.6-1.3,1.3-2.2,2.2c-1.6,1.5-2.8,2.9-3.5,4.1l-0.3,0.7l-0.3,0.7h8.9v4.9
					H66.4v-1.6c0-3.2,0.8-5.9,2.4-8.1c0-0.1,1.5-1.6,4.4-4.6c1.6-1.7,2.4-3.4,2.4-5.1c0-1-0.1-1.6-0.4-2c-0.3-0.3-0.7-0.5-1.2-0.5
					c-0.7,0-1.1,0.2-1.3,0.6c-0.2,0.4-0.3,1-0.3,1.8v2.6H67z"/>
				<path class="st1" d="M92,85.6V72.2h-1.4v-4.1H92v-4.6h5.7v4.6h1.4v4.1h-1.4v11.3l0.1,1.2c0.1,0.3,0.3,0.4,0.7,0.4h0.7v4.3h-2.7
					c-1.4,0-2.5-0.2-3.1-0.7C92.5,88.1,92,87.1,92,85.6z"/>
				<path class="st1" d="M101.2,66.5v-3.9h5.7v3.9H101.2z M101.2,88.9v-21h5.7v21H101.2z"/>
				<path class="st1" d="M109.9,73.5c0-1.6,0.4-2.9,1.3-4c1.2-1.4,3.1-2.1,5.6-2.1c2.4,0,4.3,0.7,5.6,2.1c0.9,1,1.3,2.4,1.3,4v5.8
					h-8.2v4.5c0,0.5,0,0.9,0.1,1.1c0.2,0.4,0.6,0.6,1.1,0.6c0.5,0,0.9-0.2,1.1-0.6c0.1-0.3,0.2-0.7,0.2-1.2v-2.6h5.7v2.2
					c0,1.6-0.5,2.9-1.3,3.9c-1.2,1.4-3,2.1-5.6,2.1c-2.4,0-4.3-0.7-5.6-2.1c-0.9-1-1.3-2.3-1.3-3.9V73.5z M112,66.3l2.7-4.5h4.6
					l2.4,4.5h-3.4l-1.4-2.5l-1.6,2.5H112z M115.6,75.4h2.6v-2.3c0-0.6,0-0.9-0.1-1.1c-0.2-0.4-0.6-0.6-1.2-0.6c-0.5,0-0.9,0.2-1,0.5
					c-0.2,0.4-0.2,0.8-0.2,1.3V75.4z M127.9,57.2l-4.1,5.6h-3.1l1.8-5.6H127.9z"/>
				<path class="st1" d="M126.8,85.6V72.2h-1.4v-4.1h1.4v-4.6h5.7v4.6h1.4v4.1h-1.4v11.3l0.1,1.2c0.1,0.3,0.3,0.4,0.7,0.4h0.7v4.3
					h-2.7c-1.4,0-2.5-0.2-3.1-0.7C127.2,88.1,126.8,87.1,126.8,85.6z"/>
			</g>
			<g class="st3">
				<path class="st1" d="M72.4,129.8v-13.4H71v-4.1h1.4v-4.6h5.7v4.6h1.4v4.1h-1.4v11.3l0.1,1.2c0.1,0.3,0.3,0.4,0.7,0.4h0.7v4.3
					h-2.7c-1.4,0-2.5-0.2-3.1-0.7C72.9,132.3,72.4,131.3,72.4,129.8z"/>
				<path class="st1" d="M95,112.1v21h-5.5v-2.3c-0.6,0.9-1.2,1.6-1.8,2.1c-0.7,0.4-1.5,0.7-2.5,0.7c-1.3,0-2.3-0.4-3-1.3
					c-0.7-0.9-1.1-1.9-1.1-3.2v-16.9h5.7v14.4c0,0.7,0,1.1,0.1,1.3c0.2,0.5,0.6,0.7,1.1,0.7c0.5,0,0.9-0.3,1.1-0.8
					c0.1-0.4,0.2-0.8,0.2-1.2v-14.4H95z"/>
				<path class="st1" d="M111.5,133.1h-5.2v-1.6c-1,1.4-2.3,2-4.1,2c-1.9,0-3.1-0.6-3.9-1.9c-0.5-1-0.8-2.4-0.8-4.5
					c0-1.8,0.4-3.2,1.3-4.2c0.6-0.7,1.6-1.4,2.9-2c1.7-0.7,2.6-1.1,2.9-1.3c0.8-0.6,1.3-1.3,1.3-2.3c0-0.6-0.1-1-0.3-1.3
					c-0.2-0.3-0.5-0.5-1.1-0.5c-1,0-1.4,0.5-1.4,1.5v1.7H98v-1.9c0-1.6,0.6-2.8,1.9-3.8c1.3-0.9,2.8-1.4,4.8-1.4
					c2.5,0,4.3,0.5,5.3,1.6c1,1,1.5,2.7,1.5,5.1V133.1z M99.7,110.5l2.7-4.5h4.6l2.4,4.5H106l-1.4-2.5l-1.6,2.5H99.7z M106,122.5
					l-1.6,1.2c-0.7,0.5-1,1.1-1,1.9v2.8c0,1.1,0.4,1.7,1.2,1.7c0.4,0,0.7-0.2,1-0.5c0.2-0.4,0.3-0.8,0.3-1.3V122.5z M109.3,101.6
					l2.6,5.4h-3.1l-4.7-5.4H109.3z"/>
				<path class="st1" d="M114.1,133.1v-21h5.5v2.3c0.5-0.8,1.1-1.5,1.8-2c0.8-0.5,1.6-0.7,2.6-0.7c1.3,0,2.3,0.4,3,1.3
					c0.7,0.8,1,1.9,1,3.3v16.9h-5.7v-14.4c0-0.7,0-1.1-0.1-1.3c-0.2-0.5-0.6-0.7-1.2-0.7c-0.5,0-0.9,0.3-1.1,0.8
					c-0.1,0.4-0.2,0.8-0.2,1.2v14.4H114.1z"/>
			</g>
			<line class="st4" x1="60.1" y1="95.5" x2="139.9" y2="95.5"/>
			<g class="st3">
				<path class="st1" d="M276.9,82.7v-2.5h5.7v2.7c0,0.6,0.1,1.1,0.4,1.4c0.2,0.4,0.7,0.6,1.2,0.6c0.5,0,0.9-0.2,1.2-0.6
					c0.3-0.4,0.4-0.8,0.4-1.4v-1.8c0-1.4-0.2-2.5-0.7-3c-0.2-0.2-0.5-0.4-1-0.5c-0.5-0.1-1.2-0.2-2-0.2V73h1c0.6,0,1.2-0.2,1.8-0.5
					c0.5-0.3,0.8-0.8,0.8-1.5v-2.1c0-0.4,0-0.6,0-0.8c0-0.2-0.1-0.4-0.3-0.6c-0.2-0.3-0.5-0.4-1.1-0.4c-1,0-1.5,0.6-1.5,1.9v1.6H277
					c0-2.7,0.5-4.7,1.4-5.9c1.1-1.4,3-2.2,5.8-2.2c2.3,0,4,0.5,5.2,1.4c1.3,1.1,2,2.8,2,5.1c0,1.4-0.2,2.6-0.5,3.4
					c-0.4,1-1.2,1.8-2.4,2.4c1.1,0.4,2,1.2,2.5,2.3c0.4,0.9,0.6,2.2,0.6,3.7c0,2.8-0.5,4.9-1.5,6.2c-1.1,1.4-3.1,2.2-5.9,2.2
					c-2.3,0-4.1-0.5-5.4-1.6C277.5,86.6,276.9,84.9,276.9,82.7z"/>
				<path class="st1" d="M293.9,77.3V63.1h13.3v4.9h-8.4v3.9c0.4-0.3,0.9-0.5,1.6-0.7c0.7-0.2,1.2-0.3,1.6-0.3
					c2.1,0,3.6,0.6,4.6,1.8c0.9,1.1,1.4,2.6,1.4,4.6v3.6c0,2.8-0.5,5-1.5,6.3c-1.2,1.5-3.1,2.3-5.8,2.3c-2.3,0-4.1-0.5-5.4-1.6
					c-1.3-1.1-1.9-2.8-1.9-5v-2.3h5.7v2.5c0,0.6,0.1,1.1,0.4,1.4c0.2,0.4,0.7,0.6,1.2,0.6c0.5,0,0.9-0.2,1.2-0.6
					c0.3-0.4,0.4-0.8,0.4-1.4v-5.7c0-0.3,0-0.5-0.1-0.7c0-0.2-0.1-0.5-0.3-0.8c-0.2-0.3-0.6-0.5-1.2-0.5c-0.6,0-1,0.2-1.2,0.5
					c-0.2,0.4-0.4,0.8-0.4,1.4H293.9z"/>
				<path class="st1" d="M318.9,85.6V72.2h-1.4v-4.1h1.4v-4.6h5.7v4.6h1.4v4.1h-1.4v11.3l0.1,1.2c0.1,0.3,0.3,0.4,0.7,0.4h0.7v4.3
					h-2.7c-1.4,0-2.5-0.2-3.1-0.7C319.3,88.1,318.9,87.1,318.9,85.6z"/>
				<path class="st1" d="M341.5,67.9v21H336v-2.3c-0.6,0.9-1.2,1.6-1.8,2.1c-0.7,0.4-1.5,0.7-2.5,0.7c-1.3,0-2.3-0.4-3-1.3
					c-0.7-0.9-1.1-1.9-1.1-3.2V67.9h5.7v14.4c0,0.7,0,1.1,0.1,1.3c0.2,0.5,0.6,0.7,1.1,0.7c0.5,0,0.9-0.3,1.1-0.8
					c0.1-0.4,0.2-0.8,0.2-1.2V67.9H341.5z"/>
				<path class="st1" d="M357.9,88.9h-5.2v-1.6c-1,1.4-2.3,2-4.1,2c-1.9,0-3.1-0.6-3.9-1.9c-0.5-1-0.8-2.4-0.8-4.5
					c0-1.8,0.4-3.2,1.3-4.2c0.6-0.7,1.6-1.4,2.9-2c1.7-0.7,2.6-1.1,2.9-1.3c0.8-0.6,1.3-1.3,1.3-2.3c0-0.6-0.1-1-0.3-1.3
					c-0.2-0.3-0.5-0.5-1.1-0.5c-1,0-1.4,0.5-1.4,1.5v1.7h-5.3v-1.9c0-1.6,0.6-2.8,1.9-3.8c1.3-0.9,2.8-1.4,4.8-1.4
					c2.5,0,4.3,0.5,5.3,1.6c1,1,1.5,2.7,1.5,5.1V88.9z M346.1,66.3l2.7-4.5h4.6l2.4,4.5h-3.4l-1.4-2.5l-1.6,2.5H346.1z M352.4,78.4
					l-1.6,1.2c-0.7,0.5-1,1.1-1,1.9v2.8c0,1.1,0.4,1.7,1.2,1.7c0.4,0,0.7-0.2,1-0.5c0.2-0.4,0.3-0.8,0.3-1.3V78.4z M355.7,57.4
					l2.6,5.4h-3.1l-4.7-5.4H355.7z"/>
				<path class="st1" d="M360.5,88.9v-21h5.5v2.3c0.5-0.8,1.1-1.5,1.8-2c0.8-0.5,1.6-0.7,2.6-0.7c1.3,0,2.3,0.4,3,1.3
					c0.7,0.8,1,1.9,1,3.3v16.9h-5.7V74.6c0-0.7,0-1.1-0.1-1.3c-0.2-0.5-0.6-0.7-1.2-0.7c-0.5,0-0.9,0.3-1.1,0.8
					c-0.1,0.4-0.2,0.8-0.2,1.2v14.4H360.5z"/>
			</g>
			<g class="st3">
				<path class="st1" d="M297.9,133.1v-21h5.5v2.3c0.5-0.8,1.1-1.5,1.8-2c0.8-0.5,1.6-0.7,2.6-0.7c1.3,0,2.3,0.4,3,1.3
					c0.7,0.8,1,1.9,1,3.3v16.9h-5.7v-14.4c0-0.7,0-1.1-0.1-1.3c-0.2-0.5-0.6-0.7-1.2-0.7c-0.5,0-0.9,0.3-1.1,0.8
					c-0.1,0.4-0.2,0.8-0.2,1.2v14.4H297.9z"/>
				<path class="st1" d="M328.2,133.1H323v-1.6c-1,1.4-2.3,2-4.1,2c-1.9,0-3.1-0.6-3.9-1.9c-0.5-1-0.8-2.4-0.8-4.5
					c0-1.8,0.4-3.2,1.3-4.2c0.6-0.7,1.6-1.4,2.9-2c1.7-0.7,2.6-1.1,2.9-1.3c0.8-0.6,1.3-1.3,1.3-2.3c0-0.6-0.1-1-0.3-1.3
					c-0.2-0.3-0.5-0.5-1.1-0.5c-1,0-1.4,0.5-1.4,1.5v1.7h-5.3v-1.9c0-1.6,0.6-2.8,1.9-3.8c1.3-0.9,2.8-1.4,4.8-1.4
					c2.5,0,4.3,0.5,5.3,1.6c1,1,1.5,2.7,1.5,5.1V133.1z M319.1,105.7c0,0.7,0.2,1.2,0.7,1.5c0.4,0.3,1,0.5,1.8,0.5
					c0.8,0,1.3-0.1,1.7-0.4c0.4-0.3,0.6-0.8,0.7-1.6h2.5c0,1.5-0.4,2.6-1.3,3.4c-0.9,0.8-2.1,1.1-3.6,1.1c-1.6,0-2.8-0.4-3.6-1.1
					c-0.9-0.7-1.3-1.9-1.3-3.5H319.1z M322.8,122.5l-1.6,1.2c-0.7,0.5-1,1.1-1,1.9v2.8c0,1.1,0.4,1.7,1.2,1.7c0.4,0,0.7-0.2,1-0.5
					c0.2-0.4,0.3-0.8,0.3-1.3V122.5z"/>
				<path class="st1" d="M331.1,133.1v-21h5.5v2.6c0.6-0.9,1.2-1.7,1.8-2.2c0.7-0.5,1.6-0.8,2.7-0.8c1,0,1.8,0.2,2.5,0.7
					c0.7,0.5,1.2,1.3,1.4,2.3c0.6-1,1.1-1.8,1.7-2.2c0.7-0.5,1.6-0.8,2.8-0.8c1.3,0,2.4,0.4,3.1,1.3c0.7,0.8,1.1,1.9,1.1,3.3v16.9
					h-5.7V119c0-0.7-0.1-1.2-0.2-1.4c-0.2-0.6-0.6-0.9-1.2-0.9c-0.6,0-1,0.3-1.2,0.9c-0.1,0.2-0.1,0.4-0.1,0.5c0,0.2,0,0.4,0,0.8
					v14.1h-5.7V119c0-0.7-0.1-1.2-0.2-1.4c-0.2-0.6-0.6-0.9-1.2-0.9c-0.6,0-1,0.3-1.2,0.9c-0.1,0.2-0.1,0.4-0.1,0.5
					c0,0.2,0,0.4,0,0.8v14.1H331.1z"/>
			</g>
			<line class="st4" x1="286" y1="95.5" x2="365.8" y2="95.5"/>
			<g class="st3">
				<path class="st1" d="M520.4,67.9v-4.9h15.1v4.4l-0.7,1.3l-0.7,1.3c-0.6,1.1-1.2,2.4-1.7,3.7c-0.2,0.7-0.5,1.5-0.9,2.5
					c-0.2,0.5-0.3,1-0.5,1.6c-0.8,3.1-1.3,5.9-1.3,8.3l-0.2,2.9h-6.2l0.1-1.6l0.1-1.1c0.1-1.5,0.3-2.8,0.7-4
					c0.3-1.4,0.7-2.8,1.2-4.1c0.7-2.3,1.8-4.9,3.2-7.7l1.2-2.4H520.4z"/>
				<path class="st1" d="M537.5,82.8V69.2c0-2,0.6-3.6,1.9-4.8c1.3-1.2,3-1.8,5.4-1.8c2.3,0,4.1,0.6,5.4,1.8
					c1.2,1.2,1.9,2.8,1.9,4.8v13.6c0,2-0.6,3.6-1.9,4.8c-1.3,1.2-3.1,1.8-5.3,1.8c-2.3,0-4.1-0.6-5.4-1.8
					C538.1,86.4,537.5,84.8,537.5,82.8z M543.3,68.8v14.4c0,0.6,0.1,1.1,0.4,1.3c0.2,0.2,0.6,0.4,1,0.4c0.4,0,0.7-0.1,0.9-0.3
					c0.3-0.3,0.4-0.7,0.4-1.4V68.8c0-0.6-0.1-1.1-0.4-1.3c-0.2-0.2-0.6-0.4-1-0.4c-0.5,0-0.8,0.1-1,0.3
					C543.5,67.7,543.3,68.1,543.3,68.8z"/>
				<path class="st1" d="M562.8,85.6V72.2h-1.4v-4.1h1.4v-4.6h5.7v4.6h1.4v4.1h-1.4v11.3l0.1,1.2c0.1,0.3,0.3,0.4,0.7,0.4h0.7v4.3
					h-2.7c-1.4,0-2.5-0.2-3.1-0.7C563.2,88.1,562.8,87.1,562.8,85.6z"/>
				<path class="st1" d="M572,66.5v-3.9h5.7v3.9H572z M572,88.9v-21h5.7v21H572z"/>
				<path class="st1" d="M580.7,73.5c0-1.6,0.4-2.9,1.3-4c1.2-1.4,3.1-2.1,5.6-2.1c2.4,0,4.3,0.7,5.6,2.1c0.9,1,1.3,2.4,1.3,4v5.8
					h-8.2v4.5c0,0.5,0,0.9,0.1,1.1c0.2,0.4,0.6,0.6,1.1,0.6c0.5,0,0.9-0.2,1.1-0.6c0.1-0.3,0.2-0.7,0.2-1.2v-2.6h5.7v2.2
					c0,1.6-0.5,2.9-1.3,3.9c-1.2,1.4-3,2.1-5.6,2.1c-2.4,0-4.3-0.7-5.6-2.1c-0.9-1-1.3-2.3-1.3-3.9V73.5z M582.7,66.3l2.7-4.5h4.6
					l2.4,4.5h-3.4l-1.4-2.5l-1.6,2.5H582.7z M586.3,75.4h2.6v-2.3c0-0.6,0-0.9-0.1-1.1c-0.2-0.4-0.6-0.6-1.2-0.6
					c-0.5,0-0.9,0.2-1,0.5c-0.2,0.4-0.2,0.8-0.2,1.3V75.4z M598.7,57.2l-4.1,5.6h-3.1l1.8-5.6H598.7z"/>
				<path class="st1" d="M597.5,85.6V72.2h-1.4v-4.1h1.4v-4.6h5.7v4.6h1.4v4.1h-1.4v11.3l0.1,1.2c0.1,0.3,0.3,0.4,0.7,0.4h0.7v4.3
					H602c-1.4,0-2.5-0.2-3.1-0.7C598,88.1,597.5,87.1,597.5,85.6z"/>
			</g>
			<g class="st3">
				<path class="st1" d="M534.5,133.1v-21h5.5v2.3c0.5-0.8,1.1-1.5,1.8-2c0.8-0.5,1.6-0.7,2.6-0.7c1.3,0,2.3,0.4,3,1.3
					c0.7,0.8,1,1.9,1,3.3v16.9h-5.7v-14.4c0-0.7,0-1.1-0.1-1.3c-0.2-0.5-0.6-0.7-1.2-0.7c-0.5,0-0.9,0.3-1.1,0.8
					c-0.1,0.4-0.2,0.8-0.2,1.2v14.4H534.5z"/>
				<path class="st1" d="M564.9,133.1h-5.2v-1.6c-1,1.4-2.3,2-4.1,2c-1.9,0-3.1-0.6-3.9-1.9c-0.5-1-0.8-2.4-0.8-4.5
					c0-1.8,0.5-3.2,1.3-4.2c0.6-0.7,1.6-1.4,2.9-2c1.7-0.7,2.6-1.1,2.9-1.3c0.8-0.6,1.3-1.3,1.3-2.3c0-0.6-0.1-1-0.3-1.3
					c-0.2-0.3-0.5-0.5-1.1-0.5c-1,0-1.4,0.5-1.4,1.5v1.7h-5.3v-1.9c0-1.6,0.6-2.8,1.9-3.8c1.3-0.9,2.8-1.4,4.8-1.4
					c2.5,0,4.3,0.5,5.3,1.6c1,1,1.5,2.7,1.5,5.1V133.1z M555.7,105.7c0,0.7,0.2,1.2,0.7,1.5c0.4,0.3,1,0.5,1.8,0.5
					c0.8,0,1.3-0.1,1.7-0.4c0.4-0.3,0.6-0.8,0.7-1.6h2.5c0,1.5-0.5,2.6-1.3,3.4s-2.1,1.1-3.6,1.1c-1.6,0-2.8-0.4-3.6-1.1
					c-0.9-0.7-1.3-1.9-1.3-3.5H555.7z M559.4,122.5l-1.6,1.2c-0.7,0.5-1,1.1-1,1.9v2.8c0,1.1,0.4,1.7,1.2,1.7c0.4,0,0.7-0.2,1-0.5
					c0.2-0.4,0.3-0.8,0.3-1.3V122.5z"/>
				<path class="st1" d="M567.7,133.1v-21h5.5v2.6c0.6-0.9,1.2-1.7,1.8-2.2c0.7-0.5,1.6-0.8,2.7-0.8c1,0,1.8,0.2,2.5,0.7
					c0.7,0.5,1.2,1.3,1.4,2.3c0.6-1,1.1-1.8,1.7-2.2c0.7-0.5,1.6-0.8,2.8-0.8c1.3,0,2.4,0.4,3.1,1.3c0.7,0.8,1.1,1.9,1.1,3.3v16.9
					h-5.7V119c0-0.7-0.1-1.2-0.2-1.4c-0.2-0.6-0.6-0.9-1.2-0.9c-0.6,0-1,0.3-1.2,0.9c-0.1,0.2-0.1,0.4-0.1,0.5c0,0.2,0,0.4,0,0.8
					v14.1h-5.7V119c0-0.7-0.1-1.2-0.2-1.4c-0.2-0.6-0.6-0.9-1.2-0.9c-0.6,0-1,0.3-1.2,0.9c-0.1,0.2-0.1,0.4-0.1,0.5
					c0,0.2,0,0.4,0,0.8v14.1H567.7z"/>
			</g>
			<line class="st4" x1="522.6" y1="95.5" x2="602.4" y2="95.5"/>
			<path class="st5" d="M729.6,43.2h456.9c7.1,0,12.8,5.7,12.8,12.8v87.7c0,7.1-5.7,12.8-12.8,12.8H729.6c-7.1,0-12.8-5.7-12.8-12.8
				V56C716.8,49,722.6,43.2,729.6,43.2z"/>
			<path class="st6" d="M741,52.8h434.1c8.1,0,14.6,6.5,14.6,14.6v64.8c0,8.1-6.5,14.6-14.6,14.6H741c-8.1,0-14.6-6.5-14.6-14.6
				V67.4C726.4,59.4,733,52.8,741,52.8z"/>
			<g class="st3">
				<path class="st1" d="M870.8,78.7v-4.9h13.3v4.9h-3.8v20.4h-5.8V78.7H870.8z"/>
			</g>
			<g class="st3">
				<path class="st1" d="M896.5,78.9v20.2h-5.2v-2.3c-0.5,0.9-1.1,1.6-1.8,2c-0.7,0.4-1.5,0.6-2.4,0.6c-1.3,0-2.2-0.4-2.9-1.2
					c-0.7-0.8-1-1.9-1-3.1V78.9h5.4v13.8c0,0.7,0,1.1,0.1,1.2c0.2,0.5,0.5,0.7,1.1,0.7c0.5,0,0.9-0.3,1.1-0.8
					c0.1-0.4,0.2-0.7,0.2-1.1V78.9H896.5z"/>
				<path class="st1" d="M912.3,99.1h-5v-1.6c-0.9,1.3-2.3,2-3.9,2c-1.8,0-3-0.6-3.7-1.8c-0.5-0.9-0.7-2.3-0.7-4.3
					c0-1.7,0.4-3.1,1.3-4c0.6-0.7,1.5-1.4,2.8-1.9c1.6-0.6,2.5-1,2.8-1.3c0.8-0.5,1.2-1.3,1.2-2.2c0-0.5-0.1-1-0.2-1.3
					c-0.2-0.3-0.5-0.4-1-0.4c-0.9,0-1.4,0.5-1.4,1.4v1.6h-5v-1.8c0-1.5,0.6-2.7,1.8-3.6c1.2-0.9,2.7-1.4,4.6-1.4
					c2.4,0,4.1,0.5,5.1,1.5c1,1,1.5,2.6,1.5,4.9V99.1z M900.9,77.4l2.6-4.3h4.5l2.3,4.3H907l-1.4-2.4l-1.6,2.4H900.9z M907,88.9
					l-1.5,1.1c-0.6,0.5-0.9,1.1-0.9,1.8v2.7c0,1.1,0.4,1.6,1.2,1.6c0.4,0,0.7-0.2,1-0.5c0.2-0.4,0.3-0.8,0.3-1.3V88.9z M910.1,68.9
					l2.5,5.2h-2.9l-4.5-5.2H910.1z"/>
				<path class="st1" d="M914.7,99.1V78.9h5.2v2.2c0.5-0.8,1.1-1.4,1.7-1.9c0.7-0.5,1.6-0.7,2.5-0.7c1.3,0,2.2,0.4,2.9,1.2
					c0.6,0.8,1,1.8,1,3.1v16.3h-5.4V85.3c0-0.7,0-1.1-0.1-1.2c-0.2-0.5-0.6-0.7-1.1-0.7c-0.5,0-0.9,0.3-1.1,0.8
					c-0.1,0.4-0.2,0.7-0.2,1.1v13.8H914.7z"/>
				<path class="st1" d="M938.7,80.4v-3.5c1,0,2-0.2,2.9-0.6c0.9-0.4,1.5-1.1,1.8-2h4.7v24.8h-5.4V80.4H938.7z"/>
				<path class="st1" d="M953.2,78.9v-4.7h14.5v4.2l-0.7,1.2l-0.7,1.2c-0.6,1.1-1.1,2.3-1.6,3.5c-0.2,0.7-0.5,1.5-0.8,2.4
					c-0.2,0.4-0.3,1-0.5,1.5c-0.8,3-1.2,5.6-1.2,7.9l-0.2,2.8h-6l0.1-1.6l0.1-1.1c0.1-1.4,0.3-2.7,0.6-3.9c0.3-1.3,0.6-2.6,1.1-3.9
					c0.7-2.2,1.7-4.7,3.1-7.4l1.2-2.3H953.2z"/>
				<path class="st1" d="M980.3,99.1l-3.7-20.2h5.6l1.3,12.9l1.4-12.9h5.4l-3.7,20.2H980.3z"/>
				<path class="st1" d="M1005,99.1h-5v-1.6c-0.9,1.3-2.3,2-3.9,2c-1.8,0-3-0.6-3.7-1.8c-0.5-0.9-0.7-2.3-0.7-4.3
					c0-1.7,0.4-3.1,1.3-4c0.6-0.7,1.5-1.4,2.8-1.9c1.6-0.6,2.5-1,2.8-1.3c0.8-0.5,1.2-1.3,1.2-2.2c0-0.5-0.1-1-0.2-1.3
					c-0.2-0.3-0.5-0.4-1-0.4c-0.9,0-1.4,0.5-1.4,1.4v1.6h-5v-1.8c0-1.5,0.6-2.7,1.8-3.6c1.2-0.9,2.7-1.4,4.6-1.4
					c2.4,0,4.1,0.5,5.1,1.5c1,1,1.5,2.6,1.5,4.9V99.1z M999.1,73.1l1.4,4.3h-2.9l-3.4-4.3H999.1z M999.8,88.9l-1.5,1.1
					c-0.6,0.5-0.9,1.1-0.9,1.8v2.7c0,1.1,0.4,1.6,1.2,1.6c0.4,0,0.7-0.2,1-0.5c0.2-0.4,0.3-0.8,0.3-1.3V88.9z"/>
				<path class="st1" d="M1014.9,93.1v-2.4h5.4v2.6c0,0.6,0.1,1,0.3,1.4c0.2,0.4,0.6,0.5,1.2,0.5c0.5,0,0.9-0.2,1.1-0.5
					c0.2-0.3,0.4-0.8,0.4-1.4v-1.8c0-1.4-0.2-2.4-0.7-2.9c-0.2-0.2-0.5-0.4-1-0.5c-0.5-0.1-1.2-0.2-1.9-0.2v-4.1h1
					c0.6,0,1.2-0.2,1.7-0.5c0.5-0.3,0.7-0.8,0.7-1.4v-2c0-0.3,0-0.6,0-0.7c0-0.1-0.1-0.3-0.2-0.6c-0.2-0.3-0.5-0.4-1-0.4
					c-0.9,0-1.4,0.6-1.4,1.8v1.6h-5.4c0-2.6,0.5-4.5,1.4-5.6c1-1.4,2.9-2.1,5.5-2.1c2.2,0,3.8,0.5,5,1.4c1.3,1,1.9,2.7,1.9,4.9
					c0,1.4-0.2,2.5-0.5,3.2c-0.4,1-1.2,1.7-2.3,2.3c1.1,0.4,1.9,1.1,2.4,2.3c0.4,0.9,0.5,2.1,0.5,3.6c0,2.7-0.5,4.7-1.4,6
					c-1.1,1.4-3,2.1-5.6,2.1c-2.2,0-3.9-0.5-5.2-1.6S1014.9,95.2,1014.9,93.1z"/>
				<path class="st1" d="M1031.2,87.9V74.3h12.7v4.7h-8.1v3.7c0.4-0.3,0.9-0.5,1.5-0.7c0.7-0.2,1.2-0.3,1.5-0.3c2,0,3.5,0.6,4.5,1.7
					c0.9,1,1.4,2.5,1.4,4.4v3.5c0,2.7-0.5,4.8-1.5,6.1c-1.1,1.4-3,2.2-5.6,2.2c-2.2,0-3.9-0.5-5.2-1.6s-1.9-2.7-1.9-4.8v-2.2h5.4
					v2.4c0,0.6,0.1,1,0.3,1.4c0.2,0.4,0.6,0.5,1.2,0.5c0.5,0,0.9-0.2,1.1-0.5c0.2-0.3,0.4-0.8,0.4-1.4v-5.4c0-0.3,0-0.5-0.1-0.7
					c0-0.2-0.1-0.5-0.3-0.8c-0.2-0.3-0.6-0.4-1.1-0.4c-0.5,0-0.9,0.2-1.2,0.5c-0.2,0.3-0.3,0.8-0.3,1.4H1031.2z"/>
			</g>
			<g class="st3">
				<path class="st1" d="M776.3,127.8v-1.6c-0.8,1.3-2,1.9-3.6,1.9c-1,0-1.9-0.3-2.8-0.8c-0.9-0.6-1.5-1.3-2-2.3
					c-0.5-1-0.7-2.2-0.7-3.5c0-1.3,0.2-2.4,0.6-3.5c0.4-1,1.1-1.8,1.9-2.4c0.8-0.6,1.8-0.8,2.8-0.8c0.8,0,1.5,0.2,2,0.5
					c0.6,0.3,1.1,0.7,1.5,1.3v-6.3h2.1v17.6H776.3z M769.5,121.5c0,1.6,0.3,2.8,1,3.7c0.7,0.8,1.5,1.2,2.4,1.2
					c0.9,0,1.7-0.4,2.4-1.2c0.7-0.8,1-1.9,1-3.5c0-1.7-0.3-3-1-3.8c-0.7-0.8-1.5-1.2-2.5-1.2c-1,0-1.8,0.4-2.4,1.2
					C769.8,118.6,769.5,119.8,769.5,121.5z"/>
				<path class="st1" d="M790,126.3c-0.8,0.7-1.6,1.2-2.3,1.4c-0.7,0.3-1.5,0.4-2.4,0.4c-1.4,0-2.5-0.3-3.2-1
					c-0.8-0.7-1.1-1.6-1.1-2.6c0-0.6,0.1-1.2,0.4-1.7c0.3-0.5,0.7-0.9,1.1-1.2c0.5-0.3,1-0.5,1.6-0.7c0.4-0.1,1.1-0.2,1.9-0.3
					c1.7-0.2,3-0.5,3.8-0.7c0-0.3,0-0.5,0-0.6c0-0.9-0.2-1.5-0.6-1.9c-0.6-0.5-1.4-0.7-2.5-0.7c-1,0-1.8,0.2-2.2,0.5s-0.8,1-1.1,1.9
					l-2.1-0.3c0.2-0.9,0.5-1.6,0.9-2.2c0.4-0.6,1.1-1,1.9-1.3c0.8-0.3,1.8-0.4,2.9-0.4c1.1,0,2,0.1,2.6,0.4c0.7,0.3,1.2,0.6,1.5,1
					s0.5,0.9,0.7,1.5c0.1,0.4,0.1,1,0.1,2v2.9c0,2,0,3.3,0.1,3.8c0.1,0.5,0.3,1,0.5,1.5h-2.3C790.2,127.4,790.1,126.9,790,126.3z
					 M789.8,121.5c-0.8,0.3-2,0.6-3.5,0.8c-0.9,0.1-1.5,0.3-1.9,0.4c-0.4,0.2-0.7,0.4-0.9,0.7c-0.2,0.3-0.3,0.6-0.3,1
					c0,0.6,0.2,1.1,0.7,1.4c0.4,0.4,1.1,0.6,1.9,0.6c0.8,0,1.6-0.2,2.2-0.5c0.6-0.4,1.1-0.9,1.4-1.5c0.2-0.5,0.3-1.2,0.3-2.2V121.5z
					 M788.6,113.5h-1.7l-2.8-3.4h2.9L788.6,113.5z"/>
				<path class="st1" d="M795.3,127.8v-12.7h1.9v1.8c0.9-1.4,2.3-2.1,4.1-2.1c0.8,0,1.5,0.1,2.1,0.4c0.6,0.3,1.1,0.6,1.4,1.1
					s0.5,1,0.7,1.6c0.1,0.4,0.1,1.1,0.1,2.1v7.8h-2.2v-7.7c0-0.9-0.1-1.5-0.3-2c-0.2-0.4-0.5-0.8-0.9-1c-0.4-0.3-0.9-0.4-1.5-0.4
					c-0.9,0-1.7,0.3-2.4,0.9s-1,1.7-1,3.3v7H795.3z"/>
				<path class="st1" d="M809,127.8v-17.6h2.2v6.3c1-1.2,2.3-1.7,3.8-1.7c0.9,0,1.8,0.2,2.5,0.6c0.7,0.4,1.2,0.9,1.5,1.5
					c0.3,0.7,0.4,1.6,0.4,2.9v8.1h-2.2v-8.1c0-1.1-0.2-1.9-0.7-2.4c-0.5-0.5-1.1-0.7-2-0.7c-0.6,0-1.2,0.2-1.8,0.5
					c-0.6,0.3-1,0.8-1.2,1.3s-0.4,1.4-0.4,2.3v7H809z"/>
				<path class="st1" d="M837.8,123.2l2.1,0.3c-0.2,1.5-0.8,2.6-1.8,3.4c-1,0.8-2.1,1.2-3.5,1.2c-1.7,0-3.1-0.6-4.2-1.7
					c-1.1-1.1-1.6-2.8-1.6-4.9c0-1.4,0.2-2.6,0.7-3.6c0.5-1,1.1-1.8,2.1-2.3c0.9-0.5,1.9-0.8,3-0.8c1.4,0,2.5,0.3,3.4,1
					c0.9,0.7,1.4,1.7,1.7,3l-2.1,0.3c-0.2-0.9-0.6-1.5-1.1-1.9c-0.5-0.4-1.1-0.6-1.8-0.6c-1.1,0-2,0.4-2.6,1.2c-0.7,0.8-1,2-1,3.7
					c0,1.7,0.3,3,1,3.7c0.7,0.8,1.5,1.2,2.6,1.2c0.8,0,1.6-0.3,2.1-0.8C837.2,125.1,837.6,124.3,837.8,123.2z"/>
				<path class="st1" d="M841.7,127.8v-17.6h2.2v6.3c1-1.2,2.3-1.7,3.8-1.7c0.9,0,1.8,0.2,2.5,0.6c0.7,0.4,1.2,0.9,1.5,1.5
					c0.3,0.7,0.4,1.6,0.4,2.9v8.1h-2.2v-8.1c0-1.1-0.2-1.9-0.7-2.4c-0.5-0.5-1.1-0.7-2-0.7c-0.6,0-1.2,0.2-1.8,0.5
					c-0.6,0.3-1,0.8-1.2,1.3s-0.4,1.4-0.4,2.3v7H841.7z"/>
				<path class="st1" d="M854.6,121.5c0-2.4,0.7-4.1,2-5.2c1.1-0.9,2.4-1.4,4-1.4c1.7,0,3.2,0.6,4.3,1.7c1.1,1.1,1.7,2.7,1.7,4.8
					c0,1.6-0.2,2.9-0.7,3.9s-1.2,1.7-2.1,2.2s-2,0.8-3.1,0.8c-1.8,0-3.2-0.6-4.3-1.7C855.1,125.3,854.6,123.6,854.6,121.5z
					 M856.8,121.5c0,1.6,0.4,2.8,1.1,3.7c0.7,0.8,1.6,1.2,2.7,1.2c1.1,0,2-0.4,2.7-1.2s1.1-2.1,1.1-3.7c0-1.6-0.4-2.8-1.1-3.6
					c-0.7-0.8-1.6-1.2-2.7-1.2c-1.1,0-2,0.4-2.7,1.2C857.1,118.6,856.8,119.8,856.8,121.5z"/>
				<path class="st1" d="M875.4,119.3c0-2.9,0.8-5.2,2.3-6.8s3.6-2.5,6.1-2.5c1.6,0,3.1,0.4,4.4,1.2c1.3,0.8,2.3,1.9,3,3.2
					c0.7,1.4,1,3,1,4.7c0,1.8-0.4,3.4-1.1,4.8c-0.7,1.4-1.7,2.5-3.1,3.2c-1.3,0.7-2.7,1.1-4.3,1.1c-1.7,0-3.1-0.4-4.4-1.2
					c-1.3-0.8-2.3-1.9-3-3.3S875.4,120.8,875.4,119.3z M877.8,119.3c0,2.1,0.6,3.8,1.7,5c1.1,1.2,2.6,1.8,4.3,1.8
					c1.7,0,3.2-0.6,4.3-1.8c1.1-1.2,1.7-3,1.7-5.2c0-1.4-0.2-2.7-0.7-3.7s-1.2-1.9-2.1-2.5s-2-0.9-3.1-0.9c-1.6,0-3.1,0.6-4.2,1.7
					C878.4,114.8,877.8,116.7,877.8,119.3z M883.8,107.2l-1.4,2H880l2.6-3.4h2.3l2.7,3.4h-2.4L883.8,107.2z"/>
				<path class="st1" d="M894.9,127.8v-12.7h1.9v1.8c0.9-1.4,2.3-2.1,4.1-2.1c0.8,0,1.5,0.1,2.1,0.4c0.6,0.3,1.1,0.6,1.4,1.1
					s0.5,1,0.7,1.6c0.1,0.4,0.1,1.1,0.1,2.1v7.8h-2.2v-7.7c0-0.9-0.1-1.5-0.3-2c-0.2-0.4-0.5-0.8-0.9-1c-0.4-0.3-0.9-0.4-1.5-0.4
					c-0.9,0-1.7,0.3-2.4,0.9s-1,1.7-1,3.3v7H894.9z"/>
				<path class="st1" d="M920.1,125.9l0.3,1.9c-0.6,0.1-1.2,0.2-1.6,0.2c-0.8,0-1.4-0.1-1.8-0.4c-0.4-0.2-0.7-0.6-0.9-1
					c-0.2-0.4-0.3-1.3-0.3-2.5v-7.3h-1.6v-1.7h1.6V112l2.1-1.3v4.4h2.2v1.7h-2.2v7.4c0,0.6,0,1,0.1,1.2c0.1,0.2,0.2,0.3,0.4,0.4
					s0.4,0.2,0.7,0.2C919.4,126,919.7,126,920.1,125.9z"/>
				<path class="st1" d="M930.5,126.3c-0.8,0.7-1.6,1.2-2.3,1.4c-0.7,0.3-1.5,0.4-2.4,0.4c-1.4,0-2.5-0.3-3.2-1
					c-0.8-0.7-1.1-1.6-1.1-2.6c0-0.6,0.1-1.2,0.4-1.7c0.3-0.5,0.7-0.9,1.1-1.2c0.5-0.3,1-0.5,1.6-0.7c0.4-0.1,1.1-0.2,1.9-0.3
					c1.7-0.2,3-0.5,3.8-0.7c0-0.3,0-0.5,0-0.6c0-0.9-0.2-1.5-0.6-1.9c-0.6-0.5-1.4-0.7-2.5-0.7c-1,0-1.8,0.2-2.2,0.5s-0.8,1-1.1,1.9
					l-2.1-0.3c0.2-0.9,0.5-1.6,0.9-2.2c0.4-0.6,1.1-1,1.9-1.3s1.8-0.4,2.9-0.4c1.1,0,2,0.1,2.6,0.4c0.7,0.3,1.2,0.6,1.5,1
					s0.5,0.9,0.7,1.5c0.1,0.4,0.1,1,0.1,2v2.9c0,2,0,3.3,0.1,3.8s0.3,1,0.5,1.5h-2.3C930.7,127.4,930.6,126.9,930.5,126.3z
					 M927.4,111.5l-1.4,2h-2.5l2.6-3.4h2.3l2.7,3.4h-2.4L927.4,111.5z M930.3,121.5c-0.8,0.3-2,0.6-3.5,0.8
					c-0.9,0.1-1.5,0.3-1.9,0.4c-0.4,0.2-0.7,0.4-0.9,0.7c-0.2,0.3-0.3,0.6-0.3,1c0,0.6,0.2,1.1,0.7,1.4c0.4,0.4,1.1,0.6,1.9,0.6
					c0.8,0,1.6-0.2,2.2-0.5c0.6-0.4,1.1-0.9,1.4-1.5c0.2-0.5,0.3-1.2,0.3-2.2V121.5z M926.1,131.7v-2.5h2.5v2.5H926.1z"/>
				<path class="st1" d="M935.9,132.7v-17.6h2v1.7c0.5-0.6,1-1.1,1.6-1.5c0.6-0.3,1.3-0.5,2.1-0.5c1.1,0,2,0.3,2.9,0.8
					c0.8,0.6,1.5,1.3,1.9,2.4c0.4,1,0.6,2.1,0.6,3.3c0,1.3-0.2,2.5-0.7,3.5c-0.5,1-1.1,1.8-2,2.4c-0.9,0.6-1.8,0.8-2.8,0.8
					c-0.7,0-1.4-0.2-1.9-0.5c-0.6-0.3-1-0.7-1.4-1.2v6.2H935.9z M937.8,121.5c0,1.6,0.3,2.8,1,3.6c0.7,0.8,1.5,1.2,2.4,1.2
					c1,0,1.8-0.4,2.5-1.2c0.7-0.8,1-2.1,1-3.8c0-1.6-0.3-2.8-1-3.6s-1.5-1.2-2.4-1.2c-0.9,0-1.7,0.4-2.4,1.3
					S937.8,119.9,937.8,121.5z"/>
				<path class="st1" d="M959.9,127.8l-4.8-12.7h2.3l2.7,7.6c0.3,0.8,0.6,1.7,0.8,2.6c0.2-0.7,0.5-1.5,0.8-2.4l2.8-7.8h2.2
					l-4.8,12.7H959.9z"/>
				<path class="st1" d="M976.9,126.3c-0.8,0.7-1.6,1.2-2.3,1.4c-0.7,0.3-1.5,0.4-2.4,0.4c-1.4,0-2.5-0.3-3.2-1
					c-0.8-0.7-1.1-1.6-1.1-2.6c0-0.6,0.1-1.2,0.4-1.7c0.3-0.5,0.7-0.9,1.1-1.2c0.5-0.3,1-0.5,1.6-0.7c0.4-0.1,1.1-0.2,1.9-0.3
					c1.7-0.2,3-0.5,3.8-0.7c0-0.3,0-0.5,0-0.6c0-0.9-0.2-1.5-0.6-1.9c-0.6-0.5-1.4-0.7-2.5-0.7c-1,0-1.8,0.2-2.2,0.5s-0.8,1-1.1,1.9
					l-2.1-0.3c0.2-0.9,0.5-1.6,0.9-2.2c0.4-0.6,1.1-1,1.9-1.3s1.8-0.4,2.9-0.4c1.1,0,2,0.1,2.6,0.4c0.7,0.3,1.2,0.6,1.5,1
					s0.5,0.9,0.7,1.5c0.1,0.4,0.1,1,0.1,2v2.9c0,2,0,3.3,0.1,3.8s0.3,1,0.5,1.5h-2.3C977.1,127.4,977,126.9,976.9,126.3z
					 M976.7,121.5c-0.8,0.3-2,0.6-3.5,0.8c-0.9,0.1-1.5,0.3-1.9,0.4c-0.4,0.2-0.7,0.4-0.9,0.7c-0.2,0.3-0.3,0.6-0.3,1
					c0,0.6,0.2,1.1,0.7,1.4c0.4,0.4,1.1,0.6,1.9,0.6c0.8,0,1.6-0.2,2.2-0.5c0.6-0.4,1.1-0.9,1.4-1.5c0.2-0.5,0.3-1.2,0.3-2.2V121.5z
					 M975.5,113.5h-1.7l-2.8-3.4h2.9L975.5,113.5z"/>
				<path class="st1" d="M989.2,127.8v-17.6h2.3v8.7l8.7-8.7h3.2l-7.4,7.1l7.7,10.4h-3.1l-6.3-8.9l-2.9,2.8v6.1H989.2z"/>
				<path class="st1" d="M1005.4,112.8v-2.5h2.2v2.5H1005.4z M1005.4,127.8v-12.7h2.2v12.7H1005.4z"/>
				<path class="st1" d="M1019.6,123.7l2.2,0.3c-0.4,1.3-1,2.3-2,3c-1,0.7-2.2,1.1-3.6,1.1c-1.9,0-3.3-0.6-4.4-1.7
					c-1.1-1.1-1.6-2.8-1.6-4.8c0-2.1,0.6-3.8,1.7-5c1.1-1.2,2.5-1.8,4.3-1.8c1.7,0,3.1,0.6,4.2,1.7c1.1,1.2,1.6,2.8,1.6,4.9
					c0,0.1,0,0.3,0,0.6h-9.5c0.1,1.4,0.5,2.5,1.2,3.2c0.7,0.7,1.6,1.1,2.7,1.1c0.8,0,1.5-0.2,2-0.6
					C1018.8,125.3,1019.3,124.7,1019.6,123.7z M1016.1,111.5l-1.4,2h-2.5l2.6-3.4h2.3l2.7,3.4h-2.4L1016.1,111.5z M1012.5,120.3h7.1
					c-0.1-1.1-0.4-1.9-0.8-2.4c-0.7-0.8-1.6-1.2-2.7-1.2c-1,0-1.8,0.3-2.5,1C1013,118.3,1012.6,119.1,1012.5,120.3z M1016.2,108.2
					c0.4-0.1,0.6-0.3,0.6-0.5c0-0.2-0.1-0.3-0.3-0.5c-0.3-0.2-0.9-0.3-1.6-0.3c-0.2,0-0.6,0-1.1,0l-0.1-1.1c0.3-0.1,0.9-0.1,1.7-0.1
					c1,0,1.8,0.2,2.4,0.5c0.7,0.3,1,0.8,1.1,1.3c0,0.8-0.7,1.3-2.2,1.5v0.6h-1.3v-1.3C1015.8,108.3,1016.1,108.3,1016.2,108.2z"/>
				<path class="st1" d="M1024.5,127.8v-12.7h1.9v1.8c0.4-0.6,0.9-1.1,1.6-1.5c0.7-0.4,1.4-0.6,2.3-0.6c0.9,0,1.7,0.2,2.3,0.6
					c0.6,0.4,1,0.9,1.3,1.6c1-1.5,2.3-2.2,3.9-2.2c1.3,0,2.2,0.3,2.9,1c0.7,0.7,1,1.8,1,3.2v8.7h-2.1v-8c0-0.9-0.1-1.5-0.2-1.9
					c-0.1-0.4-0.4-0.7-0.8-0.9c-0.4-0.2-0.8-0.3-1.3-0.3c-0.9,0-1.6,0.3-2.2,0.9s-0.9,1.5-0.9,2.9v7.4h-2.2v-8.3
					c0-1-0.2-1.7-0.5-2.2s-0.9-0.7-1.7-0.7c-0.6,0-1.2,0.2-1.7,0.5c-0.5,0.3-0.9,0.8-1.1,1.4c-0.2,0.6-0.3,1.5-0.3,2.7v6.6H1024.5z"
					/>
				<path class="st1" d="M1056.5,125.9l0.3,1.9c-0.6,0.1-1.2,0.2-1.6,0.2c-0.8,0-1.4-0.1-1.8-0.4c-0.4-0.2-0.7-0.6-0.9-1
					c-0.2-0.4-0.3-1.3-0.3-2.5v-7.3h-1.6v-1.7h1.6V112l2.1-1.3v4.4h2.2v1.7h-2.2v7.4c0,0.6,0,1,0.1,1.2c0.1,0.2,0.2,0.3,0.4,0.4
					s0.4,0.2,0.7,0.2C1055.8,126,1056.1,126,1056.5,125.9z"/>
				<path class="st1" d="M1058.6,127.8v-12.7h1.9v1.9c0.5-0.9,1-1.5,1.4-1.8c0.4-0.3,0.9-0.4,1.4-0.4c0.7,0,1.5,0.2,2.2,0.7l-0.7,2
					c-0.5-0.3-1.1-0.5-1.6-0.5c-0.5,0-0.9,0.1-1.3,0.4c-0.4,0.3-0.6,0.7-0.8,1.2c-0.2,0.8-0.4,1.6-0.4,2.5v6.7H1058.6z"/>
				<path class="st1" d="M1075.1,126.3c-0.8,0.7-1.6,1.2-2.3,1.4c-0.7,0.3-1.5,0.4-2.4,0.4c-1.4,0-2.5-0.3-3.2-1
					c-0.8-0.7-1.1-1.6-1.1-2.6c0-0.6,0.1-1.2,0.4-1.7c0.3-0.5,0.7-0.9,1.1-1.2c0.5-0.3,1-0.5,1.6-0.7c0.4-0.1,1.1-0.2,1.9-0.3
					c1.7-0.2,3-0.5,3.8-0.7c0-0.3,0-0.5,0-0.6c0-0.9-0.2-1.5-0.6-1.9c-0.6-0.5-1.4-0.7-2.5-0.7c-1,0-1.8,0.2-2.2,0.5s-0.8,1-1.1,1.9
					l-2.1-0.3c0.2-0.9,0.5-1.6,0.9-2.2c0.4-0.6,1.1-1,1.9-1.3c0.8-0.3,1.8-0.4,2.9-0.4c1.1,0,2,0.1,2.6,0.4c0.7,0.3,1.2,0.6,1.5,1
					s0.5,0.9,0.7,1.5c0.1,0.4,0.1,1,0.1,2v2.9c0,2,0,3.3,0.1,3.8c0.1,0.5,0.3,1,0.5,1.5h-2.3
					C1075.3,127.4,1075.1,126.9,1075.1,126.3z M1074.9,121.5c-0.8,0.3-2,0.6-3.5,0.8c-0.9,0.1-1.5,0.3-1.9,0.4
					c-0.4,0.2-0.7,0.4-0.9,0.7c-0.2,0.3-0.3,0.6-0.3,1c0,0.6,0.2,1.1,0.7,1.4c0.4,0.4,1.1,0.6,1.9,0.6c0.8,0,1.6-0.2,2.2-0.5
					c0.6-0.4,1.1-0.9,1.4-1.5c0.2-0.5,0.3-1.2,0.3-2.2V121.5z"/>
				<path class="st1" d="M1095.5,123.2l2.1,0.3c-0.2,1.5-0.8,2.6-1.8,3.4c-1,0.8-2.1,1.2-3.5,1.2c-1.7,0-3.1-0.6-4.2-1.7
					s-1.6-2.8-1.6-4.9c0-1.4,0.2-2.6,0.7-3.6c0.5-1,1.1-1.8,2.1-2.3c0.9-0.5,1.9-0.8,3-0.8c1.4,0,2.5,0.3,3.4,1
					c0.9,0.7,1.4,1.7,1.7,3l-2.1,0.3c-0.2-0.9-0.6-1.5-1.1-1.9c-0.5-0.4-1.1-0.6-1.8-0.6c-1.1,0-2,0.4-2.6,1.2c-0.7,0.8-1,2-1,3.7
					c0,1.7,0.3,3,1,3.7c0.7,0.8,1.5,1.2,2.6,1.2c0.8,0,1.6-0.3,2.1-0.8S1095.4,124.3,1095.5,123.2z"/>
				<path class="st1" d="M1107.9,127.8V126c-1,1.4-2.3,2.2-4,2.2c-0.8,0-1.5-0.1-2.1-0.4c-0.7-0.3-1.1-0.6-1.4-1.1
					c-0.3-0.4-0.5-1-0.7-1.6c-0.1-0.4-0.1-1.1-0.1-2v-7.9h2.2v7.1c0,1.1,0,1.9,0.1,2.3c0.1,0.6,0.4,1,0.9,1.3c0.4,0.3,1,0.5,1.6,0.5
					c0.6,0,1.3-0.2,1.8-0.5c0.6-0.3,1-0.8,1.2-1.4c0.2-0.6,0.4-1.4,0.4-2.5v-6.8h2.2v12.7H1107.9z"/>
				<path class="st1" d="M1112.4,121.5c0-2.4,0.7-4.1,2-5.2c1.1-0.9,2.4-1.4,4-1.4c1.7,0,3.2,0.6,4.3,1.7c1.1,1.1,1.7,2.7,1.7,4.8
					c0,1.6-0.2,2.9-0.7,3.9s-1.2,1.7-2.1,2.2s-2,0.8-3.1,0.8c-1.8,0-3.2-0.6-4.3-1.7S1112.4,123.6,1112.4,121.5z M1118.4,111.5
					l-1.4,2h-2.5l2.6-3.4h2.3l2.7,3.4h-2.4L1118.4,111.5z M1114.6,121.5c0,1.6,0.4,2.8,1.1,3.7s1.6,1.2,2.7,1.2c1.1,0,2-0.4,2.7-1.2
					s1.1-2.1,1.1-3.7c0-1.6-0.4-2.8-1.1-3.6c-0.7-0.8-1.6-1.2-2.7-1.2c-1.1,0-2,0.4-2.7,1.2C1114.9,118.6,1114.6,119.8,1114.6,121.5
					z M1118.7,105.9h2.9l-2.8,3.4h-1.7L1118.7,105.9z"/>
				<path class="st1" d="M1126.8,112.8v-2.5h2.2v2.5H1126.8z M1126.8,127.8v-12.7h2.2v12.7H1126.8z"/>
				<path class="st1" d="M1139.1,127.8v-17.6h2.2v10l5.1-5.2h2.8l-4.9,4.7l5.4,8h-2.7l-4.2-6.5l-1.5,1.5v5H1139.1z"/>
				<path class="st1" d="M1154.7,113.5h-1.7l-2.8-3.4h2.9L1154.7,113.5z M1152.1,127.8v-12.7h2.2v12.7H1152.1z"/>
			</g>
		</g>
	</g>
</g>
</svg>
