<svg id="Capa_1" enable-background="new 0 0 512 512" height="512" viewBox="0 0 512 512" width="512" xmlns="http://www.w3.org/2000/svg"><g><g><path d="m107.739 111.714h-48.523c-22.064 0-39.384 18.045-37.446 39.014l8.166 88.358h77.804v-127.372z" fill="#d77f4a"/><path d="m205.065 359.514c-6.609 0-155.507 0-162.163 0h-1.09c-19.01 0-34.421 15.411-34.421 34.421v71.247h233.453v-71.247c-.001-17.781-13.713-34.421-35.779-34.421z" fill="#0ab69f"/><path d="m88.201 359.514c.236 19.639 16.221 35.488 35.916 35.488s35.679-15.849 35.916-35.488z" fill="#82aee3"/><path d="m124.117 370.715-35.927-24.095-21.744 10.476c-2.419 1.165-2.915 4.395-.958 6.233l29.407 27.619c1.415 1.329 3.601 1.387 5.085.135z" fill="#c0d6f2"/><path d="m124.117 370.715 35.927-24.095 21.744 10.476c2.419 1.165 2.915 4.395.958 6.233l-29.407 27.619c-1.415 1.329-3.601 1.387-5.085.135z" fill="#c0d6f2"/><path d="m160.044 273.062h-71.854v73.558l35.927 24.094 35.927-24.094z" fill="#ffb09e"/><path d="m205.065 359.514c-1.741 0-13.366 0-29.659 0 22.066 0 35.778 16.64 35.778 34.421v71.247h29.659v-71.247c0-17.781-13.712-34.421-35.778-34.421z" fill="#01998d"/><path d="m181.787 357.095-21.744-10.476-11.272 7.56 6.053 2.916c2.419 1.165 2.915 4.395.958 6.233l-19.129 17.966 11.599 9.789c1.484 1.252 3.67 1.194 5.085-.135l29.407-27.619c1.958-1.838 1.462-5.068-.957-6.234z" fill="#b2caec"/><path d="m88.19 340.468c10.755 4.831 22.68 7.521 35.234 7.521h1.128c12.654 0 24.67-2.732 35.491-7.636v-69.987h-71.853z" fill="#ffa78f"/><path d="m81.66 203.378v58.826" fill="#ffcebf"/><path d="m166.308 262.204v-58.826" fill="#ffcebf"/><path d="m81.66 262.204h-44.417c-16.244 0-29.413-13.169-29.413-29.413s13.169-29.413 29.413-29.413h44.417z" fill="#ffb09e"/><path d="m166.308 203.378h44.364c16.244 0 29.413 13.169 29.413 29.413s-13.169 29.413-29.413 29.413h-44.364z" fill="#ffa78f"/><path d="m124.552 334.508h-1.128c-47.536 0-86.072-38.536-86.072-86.072v-31.291c0-47.536 38.536-86.072 86.072-86.072h1.128c47.536 0 86.072 38.536 86.072 86.072v31.291c0 47.536-38.536 86.072-86.072 86.072z" fill="#ffcebf"/><path d="m124.552 131.074h-1.128c-3.459 0-6.869.21-10.221.607 42.718 5.055 75.851 41.388 75.851 85.465v31.291c0 44.077-33.133 80.41-75.851 85.465 3.352.397 6.762.607 10.221.607h1.128c47.536 0 86.072-38.536 86.072-86.072v-31.291c0-47.537-38.536-86.072-86.072-86.072z" fill="#ffb09e"/><g><g><path d="m186.869 278.793h-15.026c-3.94 0-7.134-3.193-7.134-7.134s3.194-7.134 7.134-7.134h15.026c3.94 0 7.134 3.193 7.134 7.134s-3.194 7.134-7.134 7.134z" fill="#fe8f83"/></g><g><path d="m76.391 278.793h-15.026c-3.94 0-7.134-3.193-7.134-7.134s3.194-7.134 7.134-7.134h15.026c3.94 0 7.134 3.193 7.134 7.134s-3.194 7.134-7.134 7.134z" fill="#fe8f83"/></g></g><path d="m207.26 113.73c-6.893-16.842-23.437-28.712-42.761-28.712h-70.024c-28.483 0-51.573 23.09-51.573 51.573 0 36.231 28.856 65.703 64.837 66.738v.049h119.207l4.88-52.803c1.539-16.657-9.078-31.457-24.566-36.845z" fill="#d77f4a"/><path d="m207.26 113.73c-6.893-16.842-23.437-28.712-42.761-28.712h-29.659c19.324 0 35.868 11.87 42.761 28.712 15.488 5.388 26.105 20.189 24.566 36.845l-4.88 52.803h29.659l4.88-52.803c1.539-16.657-9.078-31.457-24.566-36.845z" fill="#c86d36"/><g><g><path d="m80.901 254.204c-3.94 0-7.134-3.193-7.134-7.134v-15.967c0-3.94 3.194-7.134 7.134-7.134s7.134 3.193 7.134 7.134v15.967c0 3.94-3.194 7.134-7.134 7.134z" fill="#5a5a5a"/></g><g><path d="m165.549 254.204c-3.94 0-7.134-3.193-7.134-7.134v-15.967c0-3.94 3.194-7.134 7.134-7.134s7.134 3.193 7.134 7.134v15.967c0 3.94-3.194 7.134-7.134 7.134z" fill="#5a5a5a"/></g></g><path d="m150.292 272.557c0 14.527-11.777 26.304-26.304 26.304s-26.304-11.777-26.304-26.304z" fill="#ffb09e"/></g><g><g><path d="m502.109 465.182h-235.336v-71.575c0-20.439 16.569-37.008 37.008-37.008h118.524l19.809 3.461 22.985-3.461c20.439 0 37.008 16.569 37.008 37.008v71.575z" fill="#c0d6f2"/><path d="m436.003 365.737c-27.954 0-50.615-22.661-50.615-50.615s22.661-50.615 50.615-50.615 50.615 22.661 50.615 50.615-22.661 50.615-50.615 50.615z" fill="#5a5a5a"/><path d="m436.003 264.507c-4.659 0-9.165.642-13.449 1.821 21.423 5.892 37.166 25.499 37.166 48.794s-15.743 42.902-37.166 48.794c4.284 1.178 8.791 1.821 13.449 1.821 27.954 0 50.615-22.661 50.615-50.615s-22.661-50.615-50.615-50.615z" fill="#444"/><path d="m465.101 356.598h-24.209c20.439 0 37.008 16.569 37.008 37.008v71.575h24.209v-71.575c0-20.438-16.569-37.008-37.008-37.008z" fill="#b2caec"/><path d="m304.314 356.598h160.255v108.584h-160.255z" fill="#528fd8"/><path d="m385.388 393.524c-20.389 0-36.918-16.529-36.918-36.918v-88.845h73.836v88.845c0 20.389-16.529 36.918-36.918 36.918z" fill="#ffb09e"/><path d="m348.47 352.107c11.218 5.106 23.682 7.952 36.811 7.952 13.213 0 25.751-2.884 37.025-8.052v-84.246h-73.836z" fill="#ffa78f"/><path d="m341.76 266.962h-45.626c-16.701 0-30.24-13.539-30.24-30.24s13.539-30.24 30.24-30.24h45.626z" fill="#ffb09e"/><path d="m428.743 206.482h45.626c16.701 0 30.24 13.539 30.24 30.24s-13.539 30.24-30.24 30.24h-45.626z" fill="#ffa78f"/><path d="m385.281 341.23c-49.133 0-88.963-39.83-88.963-88.962v-31.054c0-49.133 39.83-88.962 88.962-88.962 49.133 0 88.962 39.83 88.962 88.962v31.054c.002 49.132-39.828 88.962-88.961 88.962z" fill="#ffcebf"/><path d="m385.281 132.252c-4.107 0-8.146.284-12.105.823 43.406 5.906 76.858 43.113 76.858 88.14v31.053c0 45.026-33.452 82.234-76.858 88.139 3.959.539 7.998.823 12.104.823 49.133 0 88.962-39.83 88.962-88.963v-31.053c.002-49.133-39.828-88.962-88.961-88.962z" fill="#ffb09e"/><path d="m385.281 341.23c-49.133 0-88.963-39.83-88.963-88.962v-31.054c0-49.133 39.83-88.962 88.962-88.962 49.133 0 88.962 39.83 88.962 88.962v31.054c.002 49.132-39.828 88.962-88.961 88.962z" fill="#ffcebf"/><g><path d="m428.743 258.497c-3.931 0-7.117-3.186-7.117-7.117v-16.408c0-3.931 3.186-7.117 7.117-7.117h7.054c3.931 0 7.117 3.186 7.117 7.117 0 3.91-3.153 7.083-7.054 7.117v9.291c0 3.931-3.186 7.117-7.117 7.117z" fill="#5a5a5a"/></g><g><path d="m341.76 258.497c-3.931 0-7.117-3.186-7.117-7.117v-9.291c-3.902-.034-7.054-3.207-7.054-7.117 0-3.931 3.186-7.117 7.117-7.117h7.054c3.931 0 7.117 3.186 7.117 7.117v16.408c0 3.931-3.187 7.117-7.117 7.117z" fill="#5a5a5a"/></g><path d="m385.281 132.252c-3.643 0-7.232.224-10.76.649 44.058 5.312 78.203 42.823 78.203 88.313v31.053c0 45.49-34.145 83.001-78.203 88.313 3.528.425 7.117.65 10.759.65 49.133 0 88.962-39.83 88.962-88.963v-31.053c.002-49.133-39.828-88.962-88.961-88.962z" fill="#ffb09e"/><path d="m304.483 206.482h-24.029v-17.02c0-51.485 41.737-93.222 93.222-93.222h.258c9.542 0 17.278 7.735 17.278 17.278v6.236c0 47.898-38.83 86.728-86.729 86.728z" fill="#5a5a5a"/><path d="m486.618 206.482h-98.569c-35.402 0-64.102-28.699-64.102-64.102 0-25.483 20.658-46.141 46.141-46.141h27.568c49.133 0 88.963 39.83 88.963 88.963v21.28z" fill="#5a5a5a"/><path d="m397.656 96.239h-26.899c49.133 0 88.963 39.83 88.963 88.963v21.28h26.899v-21.28c-.001-49.133-39.831-88.963-88.963-88.963z" fill="#444"/><g><g><path d="m447.093 279.231h-14.991c-3.931 0-7.117-3.186-7.117-7.117s3.186-7.117 7.117-7.117h14.991c3.931 0 7.117 3.186 7.117 7.117s-3.187 7.117-7.117 7.117z" fill="#fe8f83"/></g><g><path d="m336.875 279.231h-14.991c-3.931 0-7.117-3.186-7.117-7.117s3.186-7.117 7.117-7.117h14.991c3.931 0 7.117 3.186 7.117 7.117s-3.187 7.117-7.117 7.117z" fill="#fe8f83"/></g></g></g><path d="m411.509 279.231c0 14.527-11.777 26.304-26.304 26.304s-26.304-11.777-26.304-26.304z" fill="#ffb09e"/></g><path d="m251.395 108.682c3.253 2.618 7.891 2.616 11.142-.004l39.993-32.222c10.184-8.205 17.655-19.292 21.436-31.811 3.275-10.842 1.041-22.6-5.981-31.485-9.722-12.302-26.497-16.537-40.893-10.323-7.838 3.255-14.192 7.506-20.155 12.88-5.939-5.353-12.293-9.615-20.155-12.88-14.396-6.214-31.171-1.979-40.893 10.323-7.022 8.886-9.256 20.644-5.981 31.485 3.781 12.519 11.252 23.606 21.436 31.811z" fill="#eb5569"/><g><path d="m317.985 13.16c-9.722-12.302-26.497-16.537-40.893-10.323-.307.127-.597.267-.9.397 4.796 2.227 9.128 5.567 12.572 9.926 7.022 8.886 9.256 20.644 5.981 31.485-3.781 12.519-11.252 23.606-21.436 31.811l-30.962 24.946 9.048 7.28c3.253 2.618 7.891 2.616 11.142-.004l39.993-32.222c10.184-8.205 17.655-19.292 21.436-31.811 3.275-10.841 1.042-22.599-5.981-31.485z" fill="#e53950"/></g><g><path d="m211.989 430.108h-3.156c-17.14 0-31.035 13.895-31.035 31.035v50.857h158.278v-50.857c0-17.14-13.895-31.035-31.035-31.035z" fill="#f07281"/><path d="m305.041 430.108h-25.419c17.14 0 31.035 13.895 31.035 31.035v50.857h25.419v-50.857c0-17.14-13.895-31.035-31.035-31.035z" fill="#eb5569"/><path d="m256.834 462.794c-14.929 0-27.032-12.102-27.032-27.032v-65.052h54.063v65.053c0 14.929-12.102 27.031-27.031 27.031z" fill="#ffb09e"/><path d="m229.802 431.913c8.231 3.711 17.372 5.794 27.01 5.794 9.655 0 18.811-2.091 27.053-5.813v-61.184h-54.063z" fill="#ffa78f"/><path d="m353.074 438.4h13.509v-37.197c0-21.724-17.611-39.335-39.335-39.335h-13.509v37.197c0 21.724 17.611 39.335 39.335 39.335z" fill="#5a5a5a"/><path d="m327.248 361.867h-13.509v1.131c17.2 4.204 29.968 19.709 29.968 38.204v36.066c3.003.734 6.138 1.132 9.368 1.132h13.509v-37.198c0-21.724-17.611-39.335-39.336-39.335z" fill="#444"/><path d="m160.393 438.4h-13.509v-37.197c0-21.724 17.611-39.335 39.335-39.335h13.509v37.197c0 21.724-17.611 39.335-39.335 39.335z" fill="#5a5a5a"/><path d="m224.991 370.71h-33.504c-12.232 0-22.148-9.916-22.148-22.148s9.916-22.148 22.148-22.148h33.504z" fill="#ffb09e"/><path d="m288.476 326.413h33.504c12.232 0 22.148 9.916 22.148 22.148s-9.916 22.148-22.148 22.148h-33.504z" fill="#ffa78f"/><path d="m256.812 272.064c-35.978 0-65.143 28.806-65.143 64.34v4.349 20.007c0 35.534 29.166 64.34 65.143 64.34 35.978 0 65.143-28.806 65.143-64.34v-24.356c.001-35.534-29.165-64.34-65.143-64.34z" fill="#ffcebf"/><path d="m256.813 272.064c-3.431 0-6.799.266-10.087.771 31.187 4.789 55.057 31.424 55.057 63.569v24.356c0 32.145-23.869 58.78-55.057 63.569 3.288.505 6.655.771 10.087.771 35.978 0 65.144-28.806 65.144-64.339v-24.356c-.001-35.535-29.167-64.341-65.144-64.341z" fill="#ffb09e"/><g><path d="m222.619 383.999h-11.16c-3.342 0-6.051-2.709-6.051-6.051s2.709-6.051 6.051-6.051h11.16c3.342 0 6.051 2.709 6.051 6.051s-2.709 6.051-6.051 6.051z" fill="#fe8f83"/></g><g><path d="m302.415 383.999h-11.16c-3.342 0-6.051-2.709-6.051-6.051s2.709-6.051 6.051-6.051h11.16c3.342 0 6.051 2.709 6.051 6.051s-2.709 6.051-6.051 6.051z" fill="#fe8f83"/></g><path d="m263.64 234.498c-3.814 0-6.906 3.092-6.906 6.906 0-3.814-3.092-6.906-6.906-6.906-41.16 0-74.527 33.367-74.527 74.527v17.389h43.489c20.956 0 37.944-16.988 37.945-37.943.001 20.956 16.989 37.943 37.945 37.943h43.489v-17.389c-.002-41.16-33.369-74.527-74.529-74.527z" fill="#5a5a5a"/><g><path d="m263.64 234.498c-1.979 0-3.758.836-5.017 2.17 32.532 8.004 56.667 37.355 56.667 72.357v17.389h22.877v-17.389c0-41.16-33.367-74.527-74.527-74.527z" fill="#444"/></g><g><path d="m256.937 405.51c-13.014 0-23.601-10.889-23.601-24.273 0-4.271 3.462-7.733 7.733-7.733s7.733 3.462 7.733 7.733c0 4.856 3.649 8.807 8.134 8.807s8.134-3.95 8.134-8.807c0-4.271 3.462-7.733 7.733-7.733s7.733 3.462 7.733 7.733c.002 13.384-10.585 24.273-23.599 24.273z" fill="#ffa799"/></g><g><path d="m287.457 367.248c-4.271 0-7.733-3.462-7.733-7.733v-9.51c0-4.271 3.462-7.733 7.733-7.733h5.099c4.271 0 7.733 3.462 7.733 7.733 0 3.346-2.125 6.196-5.099 7.273v2.236c.001 4.272-3.461 7.734-7.733 7.734z" fill="#5a5a5a"/></g><g><path d="m226.417 367.248c-4.271 0-7.733-3.462-7.733-7.733v-2.236c-2.975-1.077-5.099-3.927-5.099-7.273 0-4.271 3.462-7.733 7.733-7.733h5.099c4.271 0 7.733 3.462 7.733 7.733v9.51c0 4.27-3.462 7.732-7.733 7.732z" fill="#5a5a5a"/></g></g><path d="m418.979 374.001-36.077 8.965 2.087-5.344c1.166-2.985.216-6.381-2.329-8.327-3.398-2.599-8.3-1.674-10.517 1.985l-13.939 23.001c-1.139 1.618-2.06 3.407-2.702 5.335l-37.388 112.384h46.187l16.915-86.635 42.181-43.707c.827-.857 1.29-2.002 1.29-3.193 0-2.99-2.807-5.185-5.708-4.464z" fill="#ffcebf"/><g><path d="m418.979 374.001-12.067 2.999c.154.458.242.948.242 1.464 0 1.191-.462 2.336-1.29 3.193l-42.181 43.707-16.914 86.636h17.533l16.915-86.635 42.181-43.707c.827-.857 1.29-2.002 1.29-3.193-.001-2.99-2.808-5.185-5.709-4.464z" fill="#ffb09e"/></g><path d="m152.174 394.281-13.939-23.001c-2.217-3.659-7.119-4.584-10.517-1.985-2.545 1.947-3.495 5.342-2.33 8.327l2.087 5.344-36.077-8.965c-2.901-.721-5.708 1.474-5.708 4.463 0 1.191.462 2.336 1.29 3.193l42.181 43.707 16.915 86.636h46.187l-37.388-112.384c-.641-1.928-1.562-3.717-2.701-5.335z" fill="#ffcebf"/></g></svg>