<svg height="480pt" viewBox="0 -4 480 480" width="480pt" xmlns="http://www.w3.org/2000/svg"><path d="m336 312h-48v-48h72v-40c0-17.679688 14.320312-32 32-32h48c17.679688 0 32 14.320312 32 32v104c0 17.679688-14.320312 32-32 32h-88v104h-48v-120c0-17.679688 14.320312-32 32-32zm0 0" fill="#ee964b"/><path d="m424 0v48h-48v24l-24-24h-40v-48zm0 0" fill="#dedee6"/><path d="m464 144c0 26.507812-21.492188 48-48 48s-48-21.492188-48-48 21.492188-48 48-48 48 21.492188 48 48zm0 0" fill="#ee964b"/><path d="m256 232c-13.28125 0-24-10.71875-24-24 0-6.160156 2.398438-11.761719 6.238281-16h-30.238281v-112h30.238281c-3.839843-4.238281-6.238281-9.839844-6.238281-16 0-13.28125 10.71875-24 24-24s24 10.71875 24 24c0 6.160156-2.398438 11.761719-6.238281 16h30.238281v38.238281c-4.238281-3.839843-9.839844-6.238281-16-6.238281-13.28125 0-24 10.71875-24 24s10.71875 24 24 24c6.160156 0 11.761719-2.398438 16-6.238281v38.238281h-30.238281c3.839843 4.238281 6.238281 9.839844 6.238281 16 0 13.28125-10.71875 24-24 24zm0 0" fill="#ffca55"/><path d="m8 64v-64h176v64h-24l-24 24v-24zm0 0" fill="#dedee6"/><path d="m136 144c0 26.507812-21.492188 48-48 48s-48-21.492188-48-48 21.492188-48 48-48 48 21.492188 48 48zm0 0" fill="#5dbcd9"/><path d="m66.71875 192h85.28125l56-56 32 32-72 72h-48l-16 72h40c17.679688 0 32 14.320312 32 32v120h-48v-104h-81.679688c-19.921874 0-35.039062-18.078125-31.441406-37.761719l20.320313-104c2.800781-15.199219 16.082031-26.238281 31.519531-26.238281zm0 0" fill="#5dbcd9"/><path d="m376 320h-32v-16h32c13.230469 0 24-10.769531 24-24v-32h16v32c0 22.054688-17.945312 40-40 40zm0 0" fill="#e38a40"/><path d="m128 352h-88c-13.230469 0-24-10.769531-24-24v-120h-16v120c0 22.054688 17.945312 40 40 40v104h16v-104h72zm0 0" fill="#45639c"/><path d="m464 208v120c0 13.230469-10.769531 24-24 24h-88v16h72v104h16v-104c22.054688 0 40-17.945312 40-40v-120zm0 0" fill="#45639c"/><path d="m32 24h32v16h-32zm0 0" fill="#45639c"/><path d="m208 304h-64v-16h58.457031l22.046875-58.808594 14.984375 5.617188-24 64c-1.167969 3.121094-4.152343 5.191406-7.488281 5.191406zm0 0" fill="#dedee6"/><g fill="#45639c"><path d="m344 320v-16h-208v16h96v136h-32v16h80v-16h-32v-136zm0 0"/><path d="m80 24h16v16h-16zm0 0"/><path d="m112 24h16v16h-16zm0 0"/><path d="m144 24h16v16h-16zm0 0"/></g></svg>