<svg id="Capa_1" enable-background="new 0 0 512.016 512.016" height="512" viewBox="0 0 512.016 512.016" width="512" xmlns="http://www.w3.org/2000/svg"><g><path d="m451.008 269.388 60.41 222.95c2.77 9.58-4.42 19.17-14.41 19.17h-146.54l-94.46-20-94.15 20h-146.85c-9.97 0-17.18-9.57-14.41-19.17l60.41-222.95 195-10z" fill="#edeff3"/><path d="m497.008 511.508h-146.54l-94.46-20v-232.12l195 10 60.41 222.95c2.77 9.58-4.421 19.17-14.41 19.17z" fill="#dae0e7"/><path d="m61.008 269.388v-253.88c0-8.28 6.72-15 15-15h360c8.28 0 15 6.72 15 15v253.88z" fill="#738b95"/><path d="m451.008 15.508v253.88h-195v-268.88h180c8.28 0 15 6.72 15 15z" fill="#607881"/><path d="m91.008 30.508h330v209h-330z" fill="#ff7149"/><path d="m256.008 30.508h165v209h-165z" fill="#ff4e51"/><path d="m350.468 511.508h-188.61l20.583-83.396c1.102-4.466 5.109-7.604 9.709-7.604h127.76c4.589 0 8.589 3.123 9.701 7.575z" fill="#dae0e7"/><path d="m350.468 511.508h-94.46v-91h63.9c4.59 0 8.59 3.12 9.7 7.57z" fill="#c0c8d2"/><path d="m218.512 181.011v-92c0-7.778 8.617-12.667 15.311-8.474l74.999 47c6.321 3.96 6.218 13.219-.166 17.048l-74.999 45c-6.689 4.012-15.145-.86-15.145-8.574z" fill="#edeff3"/><path d="m308.658 144.588-52.65 31.59v-81.73l52.81 33.09c6.32 3.96 6.22 13.22-.16 17.05z" fill="#dae0e7"/><path d="m440.769 390.078h-369.523c-3.264 0-5.652-3.076-4.844-6.238l19.376-75.812c1.13-4.42 5.12-7.52 9.69-7.52h321.08c4.57 0 8.56 3.1 9.69 7.52l19.376 75.812c.807 3.162-1.581 6.238-4.845 6.238z" fill="#dae0e7"/><path d="m440.768 390.078h-184.76v-89.57h160.54c4.57 0 8.56 3.1 9.69 7.52l19.38 75.81c.799 3.16-1.58 6.24-4.85 6.24z" fill="#c0c8d2"/></g></svg>