<svg xmlns="http://www.w3.org/2000/svg" width="326.686" height="393.796" viewBox="0 0 326.686 393.796">
  <g id="Group_1673" data-name="Group 1673" transform="translate(-427.153 -331.601)">
    <path id="Path_3311" data-name="Path 3311" d="M735.18,477.488C735.131,558.5,669.6,623.677,588.337,623.7c-80.372.018-147.078-65.868-146.233-147.662.814-78.845,65.528-145,147.691-144.428C670.75,332.167,735.307,398.176,735.18,477.488Z" fill="#ffc050"/>
    <path id="Path_3312" data-name="Path 3312" d="M503.3,628.482c17,.014,29.711.087,42.425.363,17.585.382,31.892,7.4,43.558,20.249,1.07,1.178,1.461.916,2.373-.081,8.95-9.786,19.606-16.765,32.849-19.083,7.715-1.35,15.567-1.306,23.38-1.4,22.03-.278,44.052.168,66.072.79a2.342,2.342,0,0,1,2.312,1.5Q734.7,666.127,753.2,701.4c1.016,1.94.978,2.02-1.326,2.093-10.379.33-20.6-1.019-30.764-2.952-16.638-3.164-32.6-8.784-48.816-13.477a145.694,145.694,0,0,0-22.194-5.1,61.529,61.529,0,0,0-25.37,2.366c-9.57,2.822-18.742,6.451-26.861,12.393a41.286,41.286,0,0,0-6.517,5.841c-.617.692-1.019.86-1.76.074-8.728-9.263-19.923-14.136-31.794-17.813-8.051-2.493-16.228-3.877-24.686-3.1-7.815.718-15.358,2.716-22.867,4.857-14.151,4.035-28.062,8.9-42.414,12.231-12.4,2.874-24.915,4.9-37.7,4.726-3.565-.047-3.555-.061-1.949-3.126q18.2-34.742,36.375-69.5a2.466,2.466,0,0,1,2.453-1.6C480.541,629.039,494.065,628.7,503.3,628.482Z" fill="#fefefe"/>
    <path id="Path_3313" data-name="Path 3313" d="M695.788,703.472c-18.348-.449-36.7-.87-55.043-1.36-6.785-.181-13.474-.005-19.557,3.562a59.194,59.194,0,0,0-9.83,7.9c-4.212,3.871-8.578,7.5-13.786,10.04a15.179,15.179,0,0,1-14.07.1c-5.342-2.584-9.785-6.335-14.132-10.254-.4-.364-.818-.718-1.191-1.112-7.414-7.816-16.5-10.809-27.214-10.343-16.026.7-32.074.87-48.113,1.244-2.579.061-5.161.009-7.7.009a109.446,109.446,0,0,1,11.127-3.686c9.709-2.832,19.466-5.5,29.52-6.825a75.365,75.365,0,0,1,21.333-.054c8.689,1.329,15.687,5.764,21.9,11.731,3.184,3.059,6.206,6.294,9.681,9.043,7.633,6.041,15.97,6.149,23.459-.057,4.389-3.636,8.41-7.714,12.62-11.567,6.978-6.386,15.335-9.263,24.668-9.762,12.664-.677,24.844,1.967,36.951,5.189A175.567,175.567,0,0,1,695.788,703.472Z" fill="#fefefe"/>
    <path id="Path_3314" data-name="Path 3314" d="M709.389,483.88c-.86,33.383-15.5,64.785-44.893,89.022a115.72,115.72,0,0,1-55.757,25.271c-31.057,5.076-60.118-.693-86.445-18.011-29.1-19.142-47.15-46.1-53.028-80.46-5.981-34.959,2.412-66.657,23.934-94.926,2.042-2.682,3.786-3.344,6.993-2.763,18.081,3.28,35.454,8.616,51.819,17.061a152.854,152.854,0,0,1,35.395,24.834c1.343,1.273,2.008,1.053,3.278.041,20.526-16.358,42.981-29.208,68.081-37.2a194.466,194.466,0,0,1,20.538-5.124,2.088,2.088,0,0,1,2.442.777c9.691,12.342,17.422,25.732,22.094,40.788C707.488,454.948,709.341,466.979,709.389,483.88Z" fill="#169e4f"/>
    <path id="Path_3315" data-name="Path 3315" d="M600.34,565.348c0-3.264.037-6.528-.017-9.79-.018-1.078.307-1.517,1.427-1.717A75.713,75.713,0,0,0,660.7,455.9c-.516-1.62-1.04-1.8-2.541-1.115-19.931,9.065-37.809,21.06-53.145,36.775-5.5,5.637-11.234,11.046-16.775,16.644-1.3,1.317-1.774.329-2.5-.463-8.544-9.308-16.914-18.783-25.687-27.87-11.4-11.809-25.1-20.268-40.362-26.215-2.508-.977-2.516-.955-3.349,1.551a75.8,75.8,0,0,0,53.992,97.68c4.48,1.095,4.481,1.095,4.481,5.771,0,5.371-.028,10.743.02,16.114.012,1.3-.38,1.609-1.678,1.4a97.137,97.137,0,0,1-45.425-19.828c-19.585-15.542-31.88-35.593-36.157-60.254-4.1-23.646.089-45.933,12.178-66.7,1.882-3.233,1.881-3.266,5.475-2.361,28.852,7.262,53.483,21.548,73.2,44.014,1.387,1.582,2.941,3.025,4.248,4.668.957,1.2,1.6,1,2.555.056A189.278,189.278,0,0,1,604.1,462.147c19.583-15.573,40.925-27.856,65.054-34.988,1.676-.495,2.432-.2,3.344,1.32a95.924,95.924,0,0,1,13.662,40.984c2.652,29.3-5.906,54.953-25.831,76.523-15.7,16.993-35.277,27.029-58.234,30.388-1.631.238-1.815-.281-1.784-1.644C600.388,571.6,600.338,568.476,600.34,565.348Z" fill="#fcbc35"/>
  </g>
</svg>
