<?xml version="1.0"?>
<svg xmlns="http://www.w3.org/2000/svg" xmlns:xlink="http://www.w3.org/1999/xlink" xmlns:svgjs="http://svgjs.com/svgjs" version="1.1" width="512" height="512" x="0" y="0" viewBox="0 0 140 140" style="enable-background:new 0 0 512 512" xml:space="preserve" class=""><g><circle xmlns="http://www.w3.org/2000/svg" cx="70" cy="70" fill="#2a629f" r="64" data-original="#4abba4" style=""/><path xmlns="http://www.w3.org/2000/svg" d="m111.8851013 36.8666992h-30.7440185l-5.5769043-5.5769043c-.3132935-.4528809-.8702393-.7189941-1.4591064-.6130371l-29.049984 5.3900146c-.4700317.0899658-.8300171.4000244-1.0300293.7999268h-15.9099732v2.9200439l7.4699707 7.4699707h-7.4699707v2.9200439l7.4699707 7.4699707h-7.4699707v2.9200439l5.2671509 5.2670898c-.6575317.6514893-1.1854858 1.3883057-1.5071411 2.2028809h-3.7600098v2.9200439l7.4699707 7.4699707h-7.4699707v2.9199219l7.4700928 7.4700928h-7.4700928v2.9200439l7.4699707 7.4699707h-7.4699707v2.9199219l30.9179688 30.9179688c3.5653686.6159669 7.225521.9553224 10.9669151.9553224 35.3463135 0 64-28.6538086 64-64 0-4.1710205-.4123535-8.2441406-1.1742554-12.192627z" opacity=".1" fill="#000000" data-original="#000000" style=""/><g xmlns="http://www.w3.org/2000/svg" fill="#ededed"><path d="m28.112993 36.86882h83.774017v2.922218h-83.774017z" fill="#ededed" data-original="#ededed" style=""/><path d="m28.112993 47.25893h83.774017v2.922218h-83.774017z" fill="#ededed" data-original="#ededed" style=""/><path d="m28.112993 57.64904h83.774017v2.922218h-83.774017z" fill="#ededed" data-original="#ededed" style=""/><path d="m28.112993 68.039146h83.774017v2.922218h-83.774017z" fill="#ededed" data-original="#ededed" style=""/><path d="m28.112993 78.42926h83.774017v2.922218h-83.774017z" fill="#ededed" data-original="#ededed" style=""/><path d="m28.112993 88.819367h83.774017v2.922218h-83.774017z" fill="#ededed" data-original="#ededed" style=""/><path d="m28.112993 99.20948h83.774017v2.922218h-83.774017z" fill="#ededed" data-original="#ededed" style=""/></g><path xmlns="http://www.w3.org/2000/svg" d="m74.1083069 30.6787338-29.0560875 5.3912086c-.6872368.1275253-1.1857071.7270355-1.1857071 1.4259758v7.1841812 19.3069726c-1.1497078-.4553757-2.4415016-.7180367-3.8133392-.7180367-4.7350693 0-8.5737228 3.0524292-8.5737228 6.8177719s3.8386536 6.8177719 8.5737228 6.8177719c4.5255241 0 8.2231178-2.789917 8.5425529-6.323761h.0313148v-26.8135184l22.4356422-4.1038055v18.3942451c-1.1497879-.455452-2.4415817-.7181129-3.8133469-.7181129-4.7351379 0-8.5737915 3.0524292-8.5737915 6.8177757 0 3.7653427 3.8386536 6.8177719 8.5737915 6.8177719 4.5254517 0 8.2230453-2.789917 8.5424118-6.3237686h.0313873v-25.9007111-6.6459808c.0000002-.9069501-.8231047-1.5914059-1.7148283-1.4259797z" fill="#feda6f" data-original="#feda6f" style=""/><path xmlns="http://www.w3.org/2000/svg" d="m100.2834244 73.71698c-3.1663589-4.2930374-8.3083344-6.6764297-13.6427307-6.6764297h-1.458168c-.5172043 0-.9365234.4192429-.9365234.9365311v30.7603531c-1.3159103-.5211411-2.7942581-.8217316-4.3640366-.8217316-5.4190445 0-9.8120575 3.4932404-9.8120575 7.8023529 0 4.3091049 4.393013 7.8023453 9.8120575 7.8023453 5.1789017 0 9.4104767-3.192894 9.7760468-7.2370834h.0358353v-31.305359c12.1777725-.2312622 14.2405624 15.3025208 14.2405624 15.3025208.7294616-7.8593751-1.0907594-13.0923691-3.6509858-16.5634995z" fill="#de594e" data-original="#de594e" style=""/></g></svg>
