<?xml version="1.0" encoding="iso-8859-1"?>
<!-- Generator: Adobe Illustrator 19.0.0, SVG Export Plug-In . SVG Version: 6.00 Build 0)  -->
<svg version="1.1" id="Layer_1" xmlns="http://www.w3.org/2000/svg" xmlns:xlink="http://www.w3.org/1999/xlink" x="0px" y="0px"
	 viewBox="0 0 512 512" style="enable-background:new 0 0 512 512;" xml:space="preserve">
<path style="fill:#FF9B4B;" d="M329.759,157.677v73.416h107.79V63.943c0-5.929-4.85-10.778-10.779-10.778H107.25
	c-5.929,0-10.779,4.85-10.779,10.778v82.957H318.98C324.909,146.899,329.759,151.749,329.759,157.677z"/>
<path style="fill:#E86436;" d="M407.081,78.335H126.94c-2.963,0-5.39,2.425-5.39,5.39v63.175H318.98
	c5.929,0,10.779,4.85,10.779,10.778v73.416h82.71V83.725C412.47,80.76,410.045,78.335,407.081,78.335z"/>
<path style="opacity:0.1;enable-background:new    ;" d="M126.94,78.335c-2.963,0-5.39,2.425-5.39,5.39v63.175h28.815V78.335H126.94
	z"/>
<path style="fill:#91CFE5;" d="M178.892,241.872c0-5.929,4.85-10.778,10.778-10.778h151.407v-84.884
	c0-5.929-4.85-10.778-10.779-10.778H10.779C4.85,135.429,0,140.28,0,146.208v213.658c0,5.929,4.85,10.778,10.779,10.778h168.113
	V241.872z"/>
<path style="fill:#0184B8;" d="M178.892,241.872c0-5.929,4.85-10.778,10.778-10.778h125.919c0.261-0.631,0.41-1.319,0.41-2.04
	v-63.062c0-2.964-2.425-5.39-5.39-5.39H30.469c-2.964,0-5.39,2.425-5.39,5.39v174.089c0,2.964,2.425,5.39,5.39,5.39h146.382
	c0.721,0,1.41-0.149,2.041-0.409V241.872z"/>
<path style="fill:#FFFFFF;" d="M178.892,241.872c0-0.737,0.075-1.456,0.217-2.151c-5.887-3.402-12.71-5.354-19.991-5.354
	c-21.295,0-38.709,16.642-40.063,37.674c-5.272-3.802-11.733-6.044-18.721-6.044c-15.314,0-28.118,10.751-31.347,25.141
	c-6.333-2.349-13.181-3.638-20.33-3.638c-8.389,0-16.362,1.783-23.577,4.971v47.612c0,2.964,2.425,5.39,5.39,5.39h146.382
	c0.721,0,1.41-0.149,2.041-0.409L178.892,241.872L178.892,241.872z"/>
<path style="opacity:0.1;enable-background:new    ;" d="M30.469,160.602c-2.964,0-5.39,2.425-5.39,5.39v174.089
	c0,2.964,2.425,5.39,5.39,5.39h28.276V160.602H30.469z"/>
<path style="fill:#FBD33B;" d="M512,448.057c0,5.929-4.85,10.778-10.779,10.778H181.701c-5.929,0-10.779-4.85-10.779-10.778V234.402
	c0-5.929,4.85-10.779,10.779-10.779h319.519c5.929,0,10.779,4.851,10.779,10.779V448.057z"/>
<path style="fill:#91CFE5;" d="M201.392,433.665c-2.964,0-5.39-2.425-5.39-5.39V254.181c0-2.964,2.425-5.389,5.39-5.389h280.139
	c2.964,0,5.39,2.424,5.39,5.389v174.095c0,2.964-2.425,5.39-5.39,5.39L201.392,433.665L201.392,433.665z"/>
<path style="fill:#A0C663;" d="M306.737,429.847c-2.092,2.1-1.378,3.818,1.586,3.818h173.209c2.964,0,5.39-2.425,5.39-5.39v-27.188
	c0-2.963-1.712-7.107-3.804-9.207l-65.475-65.714c-2.092-2.1-5.515-2.1-7.607,0L306.737,429.847z"/>
<ellipse style="fill:#FBD33B;" cx="287.545" cy="300.951" rx="23.26" ry="23.348"/>
<path style="opacity:0.1;enable-background:new    ;" d="M282.777,300.954c0-9.595,5.768-17.832,14.012-21.423
	c-2.835-1.234-5.96-1.923-9.247-1.923c-12.847,0-23.26,10.451-23.26,23.345c0,12.895,10.413,23.348,23.26,23.348
	c3.287,0,6.413-0.689,9.247-1.923C288.544,318.788,282.777,310.549,282.777,300.954z"/>
<path style="fill:#648C3A;" d="M312.657,365.173c-2.092-2.1-5.515-2.1-7.607,0l-26.25,26.347c-2.092,2.1-5.515,2.1-7.607,0
	l-41.288-41.44c-2.092-2.1-5.515-2.1-7.607,0l-22.492,22.575c-2.092,2.1-3.803,6.244-3.803,9.209v46.412
	c0,2.964,2.425,5.39,5.39,5.39h174.114c2.964,0,3.678-1.719,1.586-3.818L312.657,365.173z"/>
<path style="opacity:0.1;enable-background:new    ;" d="M201.392,248.792c-2.964,0-5.39,2.424-5.39,5.389v174.095
	c0,2.964,2.425,5.39,5.39,5.39h28.739V248.791h-28.739V248.792z"/>
<g>
</g>
<g>
</g>
<g>
</g>
<g>
</g>
<g>
</g>
<g>
</g>
<g>
</g>
<g>
</g>
<g>
</g>
<g>
</g>
<g>
</g>
<g>
</g>
<g>
</g>
<g>
</g>
<g>
</g>
</svg>
