<svg id="Capa_1" enable-background="new 0 0 512 512" height="512" viewBox="0 0 512 512" width="512" xmlns="http://www.w3.org/2000/svg"><g><path d="m424.69 274.514h-337.381c-5.69 0-10.302-4.612-10.302-10.302v-253.91c.001-5.69 4.613-10.302 10.302-10.302h337.381c5.69 0 10.302 4.612 10.302 10.302v253.91c0 5.689-4.612 10.302-10.302 10.302z" fill="#fee2ca"/><circle cx="77.008" cy="169.607" fill="#ffcebf" r="47.561"/><path d="m129.326 375.557h-104.637v-106.071c0-28.895 23.424-52.318 52.318-52.318 28.895 0 52.318 23.424 52.318 52.318v106.071z" fill="#5f99d7"/><circle cx="256" cy="370.969" fill="#ffcebf" r="52.318"/><path d="m313.055 512h-114.11v-31.658c0-31.51 25.544-57.055 57.055-57.055 31.51 0 57.055 25.544 57.055 57.055z" fill="#e94444"/><circle cx="77.008" cy="370.969" fill="#ffcebf" r="52.318"/><path d="m134.062 512h-114.109v-31.658c0-31.51 25.544-57.055 57.055-57.055 31.51 0 57.055 25.544 57.055 57.055v31.658z" fill="#e94444"/><circle cx="434.992" cy="370.969" fill="#ffcebf" r="52.318"/><path d="m492.047 512h-114.109v-31.658c0-31.51 25.544-57.055 57.055-57.055 31.51 0 57.055 25.544 57.055 57.055v31.658z" fill="#e94444"/><path d="m191.23 0c-36.465 0-66.026 26.355-66.026 58.865 0 19.049 10.152 35.982 25.893 46.741l-7.124 24.01 40.963-12.154c2.072.175 4.17.268 6.293.268 36.465 0 66.026-26.355 66.026-58.865.001-32.51-29.56-58.865-66.025-58.865z" fill="#b3dafe"/><g fill="#015a9a"><circle cx="191.23" cy="61.677" r="8.653"/><circle cx="159.285" cy="61.677" r="8.653"/><circle cx="223.175" cy="61.677" r="8.653"/></g><path d="m332.677 178.751c36.465 0 66.026 26.355 66.026 58.865 0 19.049-10.152 35.982-25.893 46.741l7.124 24.01-40.963-12.154c-2.072.175-4.17.268-6.293.268-36.465 0-66.026-26.355-66.026-58.865s29.559-58.865 66.025-58.865z" fill="#f9c6c6"/><g fill="#ca2c2c"><circle cx="332.677" cy="240.428" r="8.653"/><circle cx="364.622" cy="240.428" r="8.653"/><circle cx="300.732" cy="240.428" r="8.653"/></g><path d="m424.69 0h-26.282c5.69 0 10.302 4.612 10.302 10.302v253.91c0 5.69-4.612 10.302-10.302 10.302h26.282c5.69 0 10.302-4.612 10.302-10.302v-253.91c0-5.69-4.612-10.302-10.302-10.302z" fill="#fed5b0"/><path d="m191.23 0c-3.477 0-6.889.243-10.221.705 31.611 4.38 55.806 28.75 55.806 58.16 0 32.51-29.561 58.865-66.026 58.865-2.123 0-4.222-.093-6.293-.268l-18.549 5.504-1.973 6.65 40.963-12.154c2.072.175 4.17.268 6.293.268 36.465 0 66.026-26.355 66.026-58.865s-29.561-58.865-66.026-58.865z" fill="#8ac9fe"/><path d="m398.703 237.616c0-32.51-29.561-58.865-66.026-58.865-3.477 0-6.889.243-10.221.704 31.611 4.38 55.806 28.75 55.806 58.16 0 19.049-10.152 35.982-25.893 46.741l5.151 17.36 22.415 6.65-7.124-24.01c15.74-10.758 25.892-27.69 25.892-46.74z" fill="#f9b1b1"/><path d="m77.008 122.046c-4.031 0-7.943.506-11.681 1.45 20.619 5.207 35.88 23.875 35.88 46.111s-15.262 40.904-35.88 46.111c3.738.944 7.65 1.45 11.681 1.45 26.267 0 47.561-21.294 47.561-47.561 0-26.268-21.294-47.561-47.561-47.561z" fill="#ffbfb1"/><path d="m77.008 217.168c-4.017 0-7.923.468-11.681 1.325 23.269 5.309 40.637 26.116 40.637 50.993v106.071h23.362v-106.071c0-28.895-23.424-52.318-52.318-52.318z" fill="#3c87d0"/><path d="m256 318.65c-4.017 0-7.923.468-11.681 1.325 23.269 5.309 40.637 26.116 40.637 50.993s-17.369 45.684-40.637 50.993c3.758.857 7.663 1.325 11.681 1.325 28.895 0 52.318-23.424 52.318-52.318s-23.423-52.318-52.318-52.318z" fill="#ffbfb1"/><path d="m256 423.287c-4.004 0-7.91.417-11.681 1.201 25.907 5.391 45.374 28.347 45.374 55.854v31.658h23.362v-31.658c0-31.511-25.545-57.055-57.055-57.055z" fill="#d83131"/><path d="m77.008 318.65c-4.017 0-7.923.468-11.681 1.325 23.269 5.309 40.637 26.116 40.637 50.993s-17.369 45.684-40.637 50.993c3.758.857 7.663 1.325 11.681 1.325 28.895 0 52.318-23.424 52.318-52.318s-23.424-52.318-52.318-52.318z" fill="#ffbfb1"/><path d="m77.008 423.287c-4.004 0-7.91.417-11.681 1.201 25.907 5.391 45.374 28.347 45.374 55.854v31.658h23.362v-31.658c-.001-31.511-25.545-57.055-57.055-57.055z" fill="#d83131"/><path d="m434.992 318.65c-4.017 0-7.923.468-11.681 1.325 23.269 5.309 40.637 26.116 40.637 50.993s-17.369 45.684-40.637 50.993c3.758.857 7.663 1.325 11.681 1.325 28.895 0 52.318-23.424 52.318-52.318.001-28.894-23.423-52.318-52.318-52.318z" fill="#ffbfb1"/><path d="m434.992 423.287c-4.004 0-7.91.417-11.681 1.201 25.907 5.391 45.374 28.347 45.374 55.854v31.658h23.362v-31.658c0-31.511-25.544-57.055-57.055-57.055z" fill="#d83131"/></g></svg>