<svg xmlns="http://www.w3.org/2000/svg" viewBox="0 0 276.94 200"><defs><style>.cls-1{fill:#fff;}.cls-2{fill:#0b304f;}.cls-3{fill:#f5ab09;}</style></defs><title>Asset 79</title><g id="Layer_2" data-name="Layer 2"><g id="Layer_1-2" data-name="Layer 1"><rect class="cls-1" width="276.94" height="200"/><path class="cls-2" d="M97.84,90.62l34.78-20.08c4.38-2.53,8-.46,8,4.6v98.75c0,5.07-3.59,7.14-8,4.61L97.84,158.41Z"/><path class="cls-2" d="M136.16,180.86a8.42,8.42,0,0,1-4.18-1.25L97.19,159.53a1.31,1.31,0,0,1-.64-1.12V90.62a1.28,1.28,0,0,1,.64-1.11L132,69.42a8.42,8.42,0,0,1,4.18-1.25c3.42,0,5.72,2.8,5.72,7v98.75C141.88,178.06,139.58,180.86,136.16,180.86Zm-37-23.19,34.14,19.71a5.9,5.9,0,0,0,2.89.91c2,0,3.15-1.65,3.15-4.4V75.14c0-2.75-1.18-4.39-3.15-4.39a6,6,0,0,0-2.89.9L99.13,91.36Z"/><rect class="cls-1" x="89.79" y="97.48" width="8.05" height="54.07"/><path d="M97.84,152.84h-8a1.28,1.28,0,0,1-1.29-1.29V97.48a1.29,1.29,0,0,1,1.29-1.29h8a1.29,1.29,0,0,1,1.29,1.29v54.07A1.29,1.29,0,0,1,97.84,152.84Zm-6.77-2.57h5.48V98.77H91.07Z"/><path class="cls-3" d="M71,101.61H89.79v45.81H71a22.91,22.91,0,1,1,0-45.81Z"/><path class="cls-3" d="M89.79,148.71H71a24.2,24.2,0,0,1,0-48.39H89.79a1.28,1.28,0,0,1,1.28,1.29v45.81A1.28,1.28,0,0,1,89.79,148.71ZM71,102.9a21.62,21.62,0,0,0,0,43.24H88.5V102.9Z"/><path class="cls-1" d="M140.59,103.42h4a5.76,5.76,0,0,1,5.75,5.76v30.68a5.75,5.75,0,0,1-5.75,5.75h-4Z"/><path d="M144.55,146.9h-4a1.28,1.28,0,0,1-1.28-1.29V103.42a1.28,1.28,0,0,1,1.28-1.29h4a7.05,7.05,0,0,1,7,7.05v30.68A7.05,7.05,0,0,1,144.55,146.9Zm-2.67-2.58h2.67a4.47,4.47,0,0,0,4.47-4.46V109.18a4.47,4.47,0,0,0-4.47-4.47h-2.67Z"/><line class="cls-1" x1="89.79" y1="139.1" x2="68.96" y2="139.1"/><path d="M89.79,140.39H69a1.29,1.29,0,0,1,0-2.58H89.79a1.29,1.29,0,0,1,0,2.58Z"/><line class="cls-1" x1="105.33" y1="152.88" x2="129.85" y2="167.04"/><path d="M129.85,168.33a1.4,1.4,0,0,1-.65-.17L104.69,154a1.28,1.28,0,0,1-.47-1.76,1.3,1.3,0,0,1,1.76-.47l24.51,14.16a1.29,1.29,0,0,1-.64,2.4Z"/><path class="cls-3" d="M229,52.8a32.52,32.52,0,1,1-32.52-32.52A32.52,32.52,0,0,1,229,52.8Z"/><path d="M196.43,86.47A33.67,33.67,0,1,1,230.1,52.8,33.71,33.71,0,0,1,196.43,86.47Zm0-65A31.37,31.37,0,1,0,227.8,52.8,31.4,31.4,0,0,0,196.43,21.43Z"/><path class="cls-1" d="M212.88,71.58a5.68,5.68,0,1,1-5.68-5.67A5.68,5.68,0,0,1,212.88,71.58Z"/><path d="M207.2,78.41A6.83,6.83,0,1,1,214,71.58,6.83,6.83,0,0,1,207.2,78.41Zm0-11.35a4.53,4.53,0,1,0,4.53,4.52A4.53,4.53,0,0,0,207.2,67.06Z"/><path d="M179.35,92.8a1.14,1.14,0,0,1-1.15-1.15V51a1.13,1.13,0,0,1,.67-1l33.53-15.3a1.16,1.16,0,0,1,1.1.08,1.18,1.18,0,0,1,.52,1V71.58a1.15,1.15,0,1,1-2.29,0V37.44L180.49,51.69v40A1.14,1.14,0,0,1,179.35,92.8Z"/><path d="M179.35,107.8a1.16,1.16,0,0,1-1-.58l-8.65-15a1.16,1.16,0,0,1,1-1.73H188a1.16,1.16,0,0,1,1,.58,1.18,1.18,0,0,1,0,1.15l-8.66,15A1.13,1.13,0,0,1,179.35,107.8Zm-6.67-15,6.67,11.55L186,92.8Z"/></g></g></svg>