<svg xmlns="http://www.w3.org/2000/svg" viewBox="0 0 276.94 200"><defs><style>.cls-1{fill:#fff;}.cls-2{fill:#f5ab09;}.cls-3{fill:#d56b00;}.cls-4{fill:#a3acb1;}.cls-5{fill:#a21b00;}.cls-6{fill:#0b304f;}.cls-7{fill:#56afc9;}.cls-8{fill:#9ee3f2;}</style></defs><title>Asset 80</title><g id="Layer_2" data-name="Layer 2"><g id="Layer_1-2" data-name="Layer 1"><rect class="cls-1" width="276.94" height="200"/><path class="cls-2" d="M236.5,35.53l-86.41,7.65L150,44.26c-.05.44-1.33,10.65-11.49,10.65S127,44.7,127,44.26l-.12-1.08L40.33,35.52A1.33,1.33,0,0,0,39,36.75V149.33a1.33,1.33,0,0,0,1.22,1.44l84.26,7.48.1.45c1.29,5.54,5.61,11.47,13.87,11.47s12.58-5.93,13.87-11.47l.11-.45,84.25-7.48a1.34,1.34,0,0,0,1.23-1.44V36.75A1.36,1.36,0,0,0,236.5,35.53Z"/><path class="cls-3" d="M138.47,170.17c-8.26,0-12.58-5.93-13.87-11.47l-.1-.45-84.26-7.48A1.33,1.33,0,0,1,39,149.33a1.32,1.32,0,0,1,1.31-1.22l86.53,7.65.12,1.09c.06.44,1.42,10.65,11.49,10.65s11.44-10.22,11.49-10.65l.13-1.09,86.41-7.65a1.37,1.37,0,0,1,1.43,1.22,1.34,1.34,0,0,1-1.23,1.44l-84.25,7.48-.11.45C151.05,164.24,146.73,170.17,138.47,170.17Z"/><path class="cls-4" d="M233.35,31.78c-7.45.59-14.6.87-21.87.87-13.38,0-24.26-1-33-1.79-6.07-.55-11.32-1-15.79-1-8.9,0-15.87,1.75-21,10.28l-.29.48H135.5l-.29-.48c-5.1-8.53-12.07-10.28-21-10.28-4.47,0-9.71.48-15.78,1-8.74.8-19.62,1.79-33,1.79-7.27,0-14.42-.28-21.87-.87l-2.18-.17v113l1.87.15c7.44.58,14.91.87,22.18.87,13.57,0,24.54-1,33.36-1.8,6-.54,11.13-1,15.42-1,9.26,0,13.83,2.17,17.5,8.31l.93,1.55a1.52,1.52,0,0,0,1.71.69l.08,0h8l.08,0a1.54,1.54,0,0,0,1.72-.69l.92-1.55c3.67-6.14,8.25-8.31,17.5-8.31,4.29,0,9.45.47,15.42,1,8.82.81,19.79,1.8,33.36,1.8,7.28,0,14.74-.29,22.18-.87l1.87-.15v-113Z"/><path class="cls-1" d="M43.44,33.8V142.73c58.38,4.56,79-11.21,90,7.35V41.15C122.39,22.59,101.82,38.36,43.44,33.8Z"/><path class="cls-4" d="M125.74,50.52c-2.8-1.54-6.37-2.22-11.56-2.22-4.29,0-9.44.46-15.41,1-6.6.6-14.41,1.3-23.61,1.62l.25-6.07c8.86-.32,16.43-1,22.85-1.6,6.14-.55,11.42-1,16-1,5.7,0,9.81.74,13.34,2.39l1.16.55v7Z"/><path class="cls-4" d="M125.74,70.53c-2.8-1.54-6.37-2.22-11.56-2.22-4.29,0-9.44.46-15.41,1C90,70.11,79,71.1,65.49,71.1h0c-4.55,0-9.19-.12-13.78-.34l-1.92-.1V64.58l2.12.11c4.74.23,9.17.35,13.55.35,13.28,0,24.1-1,32.8-1.78,6.14-.56,11.42-1,16-1,5.7,0,9.81.75,13.34,2.4l1.16.55v7Z"/><path class="cls-4" d="M125.74,90.53c-2.8-1.53-6.37-2.22-11.56-2.22-4.29,0-9.44.47-15.41,1C90,90.11,79,91.11,65.49,91.11h0c-4.55,0-9.19-.12-13.78-.34l-1.92-.1V84.59l2.12.11c4.74.23,9.17.35,13.55.35,13.28,0,24.1-1,32.8-1.78,6.14-.56,11.42-1,16-1,5.7,0,9.81.74,13.34,2.4l1.16.55v7Z"/><path class="cls-4" d="M125.74,110.54c-2.8-1.53-6.37-2.22-11.56-2.22-4.29,0-9.44.47-15.41,1-8.8.79-19.76,1.78-33.28,1.78h0c-4.55,0-9.19-.11-13.78-.34l-1.92-.09V104.6l2.12.11c4.74.23,9.17.35,13.55.35,13.28,0,24.1-1,32.8-1.78,6.14-.56,11.42-1,16-1,5.7,0,9.81.74,13.34,2.4l1.16.55v7Z"/><path class="cls-4" d="M125.74,130.55c-2.8-1.53-6.37-2.22-11.56-2.22-4.29,0-9.44.47-15.41,1-8.8.79-19.76,1.78-33.28,1.78h0c-4.55,0-9.19-.11-13.78-.34l-1.92-.09v-6.08l2.12.11c4.74.23,9.17.35,13.55.35,13.28,0,24.1-1,32.8-1.78,6.14-.56,11.42-1,16-1,5.7,0,9.81.74,13.34,2.4l1.16.55v7Z"/><path class="cls-1" d="M143.47,41.15V150.08c11.08-18.56,31.66-2.79,90-7.35V33.8C175.13,38.36,154.55,22.59,143.47,41.15Z"/><path class="cls-4" d="M151.2,50.52c2.8-1.54,6.37-2.22,11.56-2.22,4.29,0,9.44.46,15.41,1,8.8.8,19.76,1.79,33.28,1.79h0c4.56,0,9.19-.12,13.78-.34l1.92-.1V44.57l-2.12.11c-4.74.23-9.17.35-13.55.35-13.28,0-24.1-1-32.79-1.78-6.15-.55-11.43-1-16-1-5.7,0-9.81.74-13.33,2.39l-1.17.55v7Z"/><path class="cls-4" d="M151.2,70.53c2.8-1.54,6.37-2.22,11.56-2.22,4.29,0,9.44.46,15.41,1,8.8.8,19.76,1.79,33.28,1.79h0c4.56,0,9.19-.12,13.78-.34l1.92-.1V64.58l-2.12.11c-4.74.23-9.17.35-13.55.35-13.28,0-24.1-1-32.79-1.78-6.15-.56-11.43-1-16-1-5.7,0-9.81.75-13.33,2.4l-1.17.55v7Z"/><path class="cls-4" d="M151.2,90.53c2.8-1.53,6.37-2.22,11.56-2.22,4.29,0,9.44.47,15.41,1,8.8.79,19.76,1.79,33.28,1.79h0c4.56,0,9.19-.12,13.78-.34l1.92-.1V84.59L225,84.7c-4.74.23-9.17.35-13.55.35-13.28,0-24.1-1-32.79-1.78-6.15-.56-11.43-1-16-1-5.7,0-9.81.74-13.33,2.4l-1.17.55v7Z"/><path class="cls-4" d="M151.2,110.54c2.8-1.53,6.37-2.22,11.56-2.22,4.29,0,9.44.47,15.41,1,8.8.79,19.76,1.78,33.28,1.78h0c4.56,0,9.19-.11,13.78-.34l1.92-.09V104.6l-2.12.11c-4.74.23-9.17.35-13.55.35-13.28,0-24.1-1-32.79-1.78-6.15-.56-11.43-1-16-1-5.7,0-9.81.74-13.33,2.4l-1.17.55v7Z"/><path class="cls-4" d="M151.2,130.55c2.8-1.53,6.37-2.22,11.56-2.22,4.29,0,9.44.47,15.41,1,8.8.79,19.76,1.78,33.28,1.78h0c4.56,0,9.19-.11,13.78-.34l1.92-.09v-6.08l-2.12.11c-4.74.23-9.17.35-13.55.35-13.28,0-24.1-1-32.79-1.78-6.15-.56-11.43-1-16-1-5.7,0-9.81.74-13.33,2.4l-1.17.55v7Z"/><path class="cls-5" d="M57.73,56.29l-1.86,6.05h-3l7.66-23.65h3.78l7.63,23.65H68.76l-1.82-6.05Zm4.6-15.12L58.45,53.85h7.73Z"/><path class="cls-6" d="M187.07,134.26a46.44,46.44,0,1,1,46.44-46.44A46.49,46.49,0,0,1,187.07,134.26Zm0-57a10.56,10.56,0,1,0,10.56,10.56A10.57,10.57,0,0,0,187.07,77.26Z"/><path class="cls-7" d="M232.67,87.82a45.6,45.6,0,1,1-45.6-45.6A45.6,45.6,0,0,1,232.67,87.82Zm-45.6-11.4a11.4,11.4,0,1,0,11.4,11.4A11.39,11.39,0,0,0,187.07,76.42Z"/><path class="cls-8" d="M147.75,68.21A43.92,43.92,0,0,1,167.46,48.5l12.8,28.17a12.87,12.87,0,0,0-2.43,1.91A13.2,13.2,0,0,0,175.92,81Z"/><path class="cls-8" d="M206.68,127.14a44.05,44.05,0,0,0,19.71-19.71l-28.17-12.8a13.2,13.2,0,0,1-1.91,2.43A12.94,12.94,0,0,1,193.87,99Z"/><path class="cls-6" d="M204.86,87.82A17.8,17.8,0,1,1,187.07,70,17.78,17.78,0,0,1,204.86,87.82Zm-17.79-11.4a11.4,11.4,0,1,0,11.4,11.4A11.39,11.39,0,0,0,187.07,76.42Z"/></g></g></svg>