<svg xmlns="http://www.w3.org/2000/svg" viewBox="0 0 276.94 200"><defs><style>.cls-1{fill:#fff;}.cls-2{fill:#0b304f;}.cls-3{fill:#9ee3f2;}.cls-4{fill:#56afc9;}.cls-5{fill:#acbbc7;}.cls-6{fill:#f5ab09;}.cls-7{fill:#d56b00;}.cls-8{fill:#a3acb1;}</style></defs><title>Asset 81</title><g id="Layer_2" data-name="Layer 2"><g id="Layer_1-2" data-name="Layer 1"><rect class="cls-1" width="276.94" height="200"/><rect class="cls-2" x="46.75" y="24.73" width="183.45" height="150.54" rx="2.24" transform="translate(276.94 200) rotate(180)"/><rect class="cls-3" x="60.14" y="39.04" width="156.67" height="122.13" transform="translate(276.94 200.22) rotate(180)"/><polygon class="cls-4" points="60.14 161.18 216.81 161.18 216.81 39.04 60.14 161.18"/><path class="cls-5" d="M143.52,172.84a4.34,4.34,0,0,0,0-8.67H133.43a4.34,4.34,0,1,0,0,8.67Z"/><path class="cls-5" d="M141.46,31.85a3,3,0,1,1-3-3A3,3,0,0,1,141.46,31.85Z"/><path class="cls-6" d="M203,59.43l-56.88,5-.08.72c0,.29-.88,7-7.57,7s-7.53-6.72-7.56-7l-.08-.72-57-5a.88.88,0,0,0-.87.8v74.12a.87.87,0,0,0,.81.94l55.46,4.92.07.3c.85,3.65,3.69,7.55,9.13,7.55s8.28-3.9,9.13-7.55l.07-.3,55.47-4.92a.87.87,0,0,0,.8-.94V60.23A.89.89,0,0,0,203,59.43Z"/><path class="cls-7" d="M138.47,148.06c-5.44,0-8.28-3.9-9.13-7.55l-.07-.3-55.46-4.92a.87.87,0,0,1-.81-.94.88.88,0,0,1,.87-.81l57,5,.08.71c0,.29.93,7,7.56,7s7.53-6.72,7.57-7l.08-.71,56.88-5a.89.89,0,0,1,.94.81.87.87,0,0,1-.8.94l-55.47,4.92-.07.3C146.75,144.16,143.91,148.06,138.47,148.06Z"/><path class="cls-8" d="M200.93,57c-4.9.38-9.61.56-14.4.56-8.81,0-16-.65-21.72-1.17-4-.36-7.44-.68-10.39-.68-5.86,0-10.45,1.15-13.8,6.77l-.19.31h-3.92l-.18-.31c-3.36-5.62-8-6.77-13.81-6.77-2.94,0-6.39.32-10.39.68-5.75.52-12.91,1.17-21.72,1.17-4.79,0-9.5-.18-14.4-.56l-1.43-.12v74.38l1.23.1c4.9.38,9.81.58,14.6.58,8.93,0,16.16-.66,22-1.19,3.93-.36,7.33-.67,10.15-.67,6.09,0,9.11,1.43,11.52,5.47l.61,1a1,1,0,0,0,1.13.46l.05,0h5.28l0,0a1,1,0,0,0,1.13-.46l.61-1c2.42-4,5.43-5.47,11.52-5.47,2.83,0,6.22.31,10.15.67,5.81.53,13,1.19,22,1.19,4.79,0,9.71-.2,14.61-.58l1.22-.1V56.85Z"/><path class="cls-1" d="M75.91,58.29V130c38.43,3,52-7.38,59.27,4.84V63.13C127.88,50.92,114.34,61.29,75.91,58.29Z"/><path class="cls-8" d="M130.09,69.3c-1.84-1-4.19-1.46-7.61-1.46-2.82,0-6.22.3-10.14.66-5.8.52-13,1.17-21.91,1.17h0l0-4c8.74,0,15.87-.64,21.59-1.16,4-.37,7.52-.69,10.52-.69a20.05,20.05,0,0,1,8.78,1.58l.76.36v4.6Z"/><path class="cls-8" d="M130.09,82.47c-1.84-1-4.19-1.46-7.61-1.46-2.82,0-6.22.3-10.14.66-5.8.52-13,1.17-21.91,1.17h0c-3,0-6.05-.07-9.07-.22l-1.27-.06v-4l1.4.07c3.12.15,6,.23,8.92.23,8.74,0,15.87-.65,21.59-1.17,4-.37,7.52-.69,10.52-.69a20.05,20.05,0,0,1,8.78,1.58l.76.36v4.61Z"/><path class="cls-8" d="M130.09,95.64c-1.84-1-4.19-1.46-7.61-1.46-2.82,0-6.22.31-10.14.66-5.8.52-13,1.18-21.91,1.18h0c-3,0-6.05-.08-9.07-.23l-1.27-.06v-4l1.4.07c3.12.15,6,.23,8.92.23,8.74,0,15.87-.65,21.59-1.17,4-.37,7.52-.68,10.52-.68a19.91,19.91,0,0,1,8.78,1.58l.76.36v4.6Z"/><path class="cls-8" d="M130.09,108.81c-1.84-1-4.19-1.46-7.61-1.46-2.82,0-6.22.31-10.14.66-5.8.53-13,1.18-21.91,1.18h0c-3,0-6.05-.08-9.07-.23l-1.27-.06v-4l1.4.07c3.12.15,6,.23,8.92.23,8.74,0,15.87-.65,21.59-1.17,4-.37,7.52-.68,10.52-.68a20.05,20.05,0,0,1,8.78,1.58l.76.36v4.6Z"/><path class="cls-8" d="M130.09,122c-1.84-1-4.19-1.46-7.61-1.46-2.82,0-6.22.31-10.14.66-5.8.53-13,1.18-21.91,1.18h0c-3,0-6.05-.08-9.07-.22l-1.27-.07v-4l1.4.07c3.12.16,6,.23,8.92.23,8.74,0,15.87-.65,21.59-1.17,4-.36,7.52-.68,10.52-.68a20.05,20.05,0,0,1,8.78,1.58l.76.36v4.6Z"/><path class="cls-1" d="M141.76,63.13v71.71C149.06,122.62,162.6,133,201,130V58.29C162.6,61.29,149.06,50.92,141.76,63.13Z"/><path class="cls-8" d="M146.85,69.3c1.85-1,4.19-1.46,7.61-1.46,2.82,0,6.22.3,10.15.66,5.79.52,13,1.17,21.9,1.17h0c3,0,6-.07,9.06-.22l1.27-.06v-4l-1.4.07c-3.12.16-6,.23-8.92.23-8.74,0-15.86-.64-21.59-1.16-4-.37-7.51-.69-10.52-.69a20.05,20.05,0,0,0-8.78,1.58l-.76.36v4.6Z"/><path class="cls-8" d="M146.85,82.47c1.85-1,4.19-1.46,7.61-1.46,2.82,0,6.22.3,10.15.66,5.79.52,13,1.17,21.9,1.17h0c3,0,6-.07,9.06-.22l1.27-.06v-4l-1.4.07c-3.12.15-6,.23-8.92.23-8.74,0-15.86-.65-21.59-1.17-4-.37-7.51-.69-10.52-.69a20.05,20.05,0,0,0-8.78,1.58l-.76.36v4.61Z"/><path class="cls-8" d="M146.85,95.64c1.85-1,4.19-1.46,7.61-1.46,2.82,0,6.22.31,10.15.66,5.79.52,13,1.18,21.9,1.18h0c3,0,6-.08,9.06-.23l1.27-.06v-4l-1.4.07c-3.12.15-6,.23-8.92.23-8.74,0-15.86-.65-21.59-1.17-4-.37-7.51-.68-10.52-.68a19.91,19.91,0,0,0-8.78,1.58l-.76.36v4.6Z"/><path class="cls-8" d="M146.85,108.81c1.85-1,4.19-1.46,7.61-1.46,2.82,0,6.22.31,10.15.66,5.79.53,13,1.18,21.9,1.18h0c3,0,6-.08,9.06-.23l1.27-.06v-4l-1.4.07c-3.12.15-6,.23-8.92.23-8.74,0-15.86-.65-21.59-1.17-4-.37-7.51-.68-10.52-.68a20.05,20.05,0,0,0-8.78,1.58l-.76.36v4.6Z"/><path class="cls-8" d="M146.85,122c1.85-1,4.19-1.46,7.61-1.46,2.82,0,6.22.31,10.15.66,5.79.53,13,1.18,21.9,1.18h0c3,0,6-.08,9.06-.22l1.27-.07v-4l-1.4.07c-3.12.16-6,.23-8.92.23-8.74,0-15.86-.65-21.59-1.17-4-.36-7.51-.68-10.52-.68a20.05,20.05,0,0,0-8.78,1.58l-.76.36v4.6Z"/></g></g></svg>