<svg xmlns="http://www.w3.org/2000/svg" viewBox="0 0 276.94 200"><defs><style>.cls-1{fill:#fff;}.cls-2{fill:#0b304f;}.cls-3{fill:#9ee3f2;}.cls-4{fill:#56afc9;}.cls-5{fill:#acbbc7;}.cls-6{fill:#ced7dc;}.cls-7{fill:#313131;}.cls-8{fill:#f5ab09;}.cls-9{fill:#d56b00;}.cls-10{fill:#a3acb1;}.cls-11{fill:#a21b00;}</style></defs><title>Asset 82</title><g id="Layer_2" data-name="Layer 2"><g id="Layer_1-2" data-name="Layer 1"><rect class="cls-1" width="276.94" height="200"/><rect class="cls-2" x="125.87" y="140" width="26.83" height="41.74" rx="1.26" transform="translate(278.56 321.74) rotate(-180)"/><rect class="cls-3" x="127.87" y="143.49" width="22.82" height="33.45" transform="translate(278.56 320.42) rotate(180)"/><polygon class="cls-4" points="127.87 176.94 150.69 176.94 150.69 143.49 127.87 176.94"/><path class="cls-5" d="M140.52,180.58a1.32,1.32,0,1,0,0-2.63h-3.05a1.32,1.32,0,1,0,0,2.63Z"/><circle class="cls-5" cx="129.73" cy="141.59" r="0.72"/><rect class="cls-5" x="133.07" y="141.25" width="12.43" height="1.06"/><rect class="cls-2" x="178.32" y="108.81" width="40.42" height="33.17" rx="0.58" transform="translate(397.06 250.78) rotate(180)"/><rect class="cls-3" x="181.27" y="111.96" width="34.52" height="26.91" transform="translate(397.06 250.83) rotate(180)"/><polygon class="cls-4" points="181.27 138.87 215.79 138.87 215.79 111.96 181.27 138.87"/><path class="cls-5" d="M199.64,141.44a1,1,0,1,0,0-1.91h-2.22a1,1,0,1,0,0,1.91Z"/><path class="cls-5" d="M199.19,110.38a.66.66,0,1,1-.66-.66A.66.66,0,0,1,199.19,110.38Z"/><path class="cls-2" d="M107.18,142.7H59.7c-.77,0-1.5-.14-1.5-.91v-1.37h50.41v1.5C108.61,142.7,108,142.7,107.18,142.7Z"/><path class="cls-2" d="M64.55,108.08h37.72a.3.3,0,0,1,.3.3v26a0,0,0,0,1,0,0H64.24a0,0,0,0,1,0,0v-26A.3.3,0,0,1,64.55,108.08Z"/><rect class="cls-3" x="71.91" y="103.83" width="22.99" height="34.75" transform="translate(204.61 37.8) rotate(90)"/><polygon class="cls-4" points="66.03 132.7 100.78 109.71 100.78 132.7 66.03 132.7"/><path class="cls-6" d="M64.25,134.33l-5.94,5.81c-.36.48.19.89,1.22.89h47.74c1,0,1.59-.41,1.22-.89l-5.93-5.81Z"/><path class="cls-2" d="M90.57,139.89s-.06,0-.16,0H74c-.1,0-.17,0-.16,0l1-2.06a.29.29,0,0,1,.18,0H89.43a.29.29,0,0,1,.18,0Z"/><polygon class="cls-2" points="67.24 135.14 64.8 135.14 65.12 134.89 67.52 134.89 67.24 135.14"/><polygon class="cls-2" points="72.23 135.14 69.79 135.14 70.02 134.89 72.42 134.89 72.23 135.14"/><polygon class="cls-2" points="75.23 135.14 72.78 135.14 72.96 134.89 75.36 134.89 75.23 135.14"/><polygon class="cls-2" points="78.22 135.14 75.78 135.14 75.9 134.89 78.3 134.89 78.22 135.14"/><polygon class="cls-2" points="81.22 135.14 78.78 135.14 78.84 134.89 81.24 134.89 81.22 135.14"/><polygon class="cls-2" points="84.22 135.14 81.77 135.14 81.78 134.89 84.18 134.89 84.22 135.14"/><polygon class="cls-2" points="87.21 135.14 84.77 135.14 84.72 134.89 87.12 134.89 87.21 135.14"/><polygon class="cls-2" points="90.21 135.14 87.77 135.14 87.66 134.89 90.06 134.89 90.21 135.14"/><polygon class="cls-2" points="71.89 135.58 69.37 135.58 69.61 135.32 72.09 135.32 71.89 135.58"/><polygon class="cls-2" points="74.99 135.58 72.47 135.58 72.65 135.32 75.13 135.32 74.99 135.58"/><polygon class="cls-2" points="78.09 135.58 75.56 135.58 75.69 135.32 78.17 135.32 78.09 135.58"/><polygon class="cls-2" points="81.19 135.58 78.66 135.58 78.73 135.32 81.2 135.32 81.19 135.58"/><polygon class="cls-2" points="84.28 135.58 81.76 135.58 81.77 135.32 84.24 135.32 84.28 135.58"/><polygon class="cls-2" points="88.39 135.58 84.86 135.58 84.81 135.32 88.27 135.32 88.39 135.58"/><polygon class="cls-2" points="90.64 135.84 88.06 135.84 87.84 135.32 90.32 135.32 90.64 135.84"/><polygon class="cls-2" points="71.53 136.06 68.92 136.06 69.18 135.78 71.74 135.78 71.53 136.06"/><polygon class="cls-2" points="74.74 136.06 72.12 136.06 72.33 135.78 74.89 135.78 74.74 136.06"/><polygon class="cls-2" points="77.94 136.06 75.33 136.06 75.47 135.78 78.03 135.78 77.94 136.06"/><polygon class="cls-2" points="81.15 136.06 78.54 136.06 78.61 135.78 81.17 135.78 81.15 136.06"/><polygon class="cls-2" points="84.36 136.06 81.74 136.06 81.75 135.78 84.31 135.78 84.36 136.06"/><polygon class="cls-2" points="87.56 136.06 84.95 136.06 84.89 135.78 87.45 135.78 87.56 136.06"/><polygon class="cls-2" points="90.77 136.06 88.15 136.06 88.04 135.78 90.6 135.78 90.77 136.06"/><polygon class="cls-2" points="71.14 136.57 68.43 136.57 68.72 136.27 71.37 136.27 71.14 136.57"/><polygon class="cls-2" points="74.47 136.57 71.76 136.57 71.97 136.27 74.63 136.27 74.47 136.57"/><polygon class="cls-2" points="77.79 136.57 75.08 136.57 75.23 136.27 77.88 136.27 77.79 136.57"/><polygon class="cls-2" points="81.11 136.57 78.4 136.57 78.48 136.27 81.13 136.27 81.11 136.57"/><polygon class="cls-2" points="84.43 136.57 81.73 136.57 81.74 136.27 84.39 136.27 84.43 136.57"/><polygon class="cls-2" points="87.76 136.57 85.05 136.57 84.99 136.27 87.64 136.27 87.76 136.57"/><polygon class="cls-2" points="91.08 136.57 88.37 136.57 88.24 136.27 90.9 136.27 91.08 136.57"/><polygon class="cls-2" points="95.13 135.14 92.69 135.14 92.5 134.89 94.89 134.89 95.13 135.14"/><polygon class="cls-2" points="98.13 135.14 95.69 135.14 95.44 134.89 97.83 134.89 98.13 135.14"/><polygon class="cls-2" points="101.13 135.14 98.68 135.14 98.38 134.89 100.77 134.89 101.13 135.14"/><polygon class="cls-2" points="95.57 135.58 93.05 135.58 92.84 135.32 95.31 135.32 95.57 135.58"/><polygon class="cls-2" points="98.67 135.58 96.14 135.58 95.88 135.32 98.35 135.32 98.67 135.58"/><polygon class="cls-2" points="101.77 135.58 99.24 135.58 98.91 135.32 101.39 135.32 101.77 135.58"/><polygon class="cls-2" points="95.93 135.94 93.33 135.94 93.11 135.67 95.66 135.67 95.93 135.94"/><polygon class="cls-2" points="99.11 135.94 96.51 135.94 96.23 135.67 98.77 135.67 99.11 135.94"/><polygon class="cls-2" points="102.28 135.94 99.69 135.94 99.35 135.67 101.89 135.67 102.28 135.94"/><polygon class="cls-2" points="100.43 137.04 97.64 137.04 97.31 136.72 100.04 136.72 100.43 137.04"/><polygon class="cls-2" points="97.44 137.49 94.56 137.49 94.29 137.15 97.1 137.15 97.44 137.49"/><polygon class="cls-2" points="85.92 137.38 70.49 137.38 70.87 136.88 85.8 136.88 85.92 137.38"/><polygon class="cls-2" points="91.56 137.38 86.91 137.38 86.75 136.88 91.26 136.88 91.56 137.38"/><polygon class="cls-2" points="69.36 137.38 64.69 137.38 65.26 136.88 69.77 136.88 69.36 137.38"/><polygon class="cls-2" points="100.97 137.49 98.09 137.49 97.74 137.15 100.56 137.15 100.97 137.49"/><polygon class="cls-2" points="104.5 137.49 101.62 137.49 101.19 137.15 104.01 137.15 104.5 137.49"/><path class="cls-7" d="M84,108.9a.5.5,0,0,1-.51.5.5.5,0,0,1-.5-.5.5.5,0,0,1,.5-.51A.51.51,0,0,1,84,108.9Z"/><polygon class="cls-2" points="123.44 99.01 123.44 119.99 112.19 119.99 112.19 116.73 106.02 121.06 112.19 125.39 112.19 122.13 123.44 122.13 125.06 122.13 125.58 122.13 125.58 99.01 123.44 99.01"/><polygon class="cls-2" points="172.55 121.06 166.38 116.73 166.38 119.99 155.13 119.99 155.13 99.01 152.99 99.01 152.99 122.13 153.51 122.13 155.13 122.13 166.38 122.13 166.38 125.39 172.55 121.06"/><polygon class="cls-2" points="140.35 125.39 140.35 99.01 138.21 99.01 138.21 125.39 134.95 125.39 139.28 131.56 143.61 125.39 140.35 125.39"/><path class="cls-8" d="M199.74,21.77l-53.29,4.72-.08.67c0,.27-.82,6.57-7.09,6.57s-7.05-6.3-7.08-6.57l-.08-.67L78.75,21.77a.82.82,0,0,0-.81.75V92a.83.83,0,0,0,.76.89l52,4.61.07.28c.79,3.42,3.46,7.07,8.55,7.07s7.76-3.65,8.56-7.07l.06-.28,52-4.61a.82.82,0,0,0,.75-.89V22.52A.83.83,0,0,0,199.74,21.77Z"/><path class="cls-9" d="M139.28,104.81c-5.09,0-7.76-3.65-8.55-7.07l-.07-.28-52-4.61a.82.82,0,0,1,0-1.64l53.37,4.72.08.67c0,.27.87,6.57,7.08,6.57s7.06-6.3,7.09-6.57l.08-.67,53.29-4.72a.83.83,0,0,1,.88.75.82.82,0,0,1-.75.89l-52,4.61-.06.28C147,101.16,144.38,104.81,139.28,104.81Z"/><path class="cls-10" d="M197.8,19.46c-4.59.36-9,.54-13.49.54-8.25,0-15-.62-20.35-1.1-3.74-.35-7-.64-9.73-.64-5.49,0-9.79,1.08-12.94,6.34l-.17.29h-3.67l-.18-.29c-3.14-5.26-7.44-6.34-12.93-6.34-2.76,0-6,.29-9.74.64-5.39.48-12.09,1.1-20.35,1.1-4.48,0-8.89-.18-13.48-.54l-1.35-.1V89.05l1.15.09c4.59.35,9.19.54,13.68.54,8.37,0,15.14-.62,20.58-1.11,3.68-.34,6.86-.63,9.51-.63,5.71,0,8.53,1.34,10.79,5.12l.57,1a.94.94,0,0,0,1.06.42l.05,0h4.94l.06,0a.92.92,0,0,0,1.05-.42l.57-1c2.26-3.78,5.09-5.12,10.8-5.12,2.64,0,5.82.29,9.51.63,5.43.49,12.2,1.11,20.57,1.11,4.49,0,9.09-.19,13.68-.54l1.15-.09V19.36Z"/><path class="cls-1" d="M80.67,20.71V87.89c36,2.81,48.69-6.91,55.53,4.53V25.24C129.36,13.79,116.67,23.52,80.67,20.71Z"/><path class="cls-10" d="M131.43,31c-1.73-.95-3.93-1.37-7.13-1.37-2.64,0-5.82.28-9.5.62-4.08.36-8.89.8-14.57,1l.16-3.74c5.46-.2,10.13-.62,14.09-1,3.79-.35,7-.64,9.86-.64a18.63,18.63,0,0,1,8.22,1.48l.72.33V32Z"/><path class="cls-10" d="M131.43,43.36c-1.73-1-3.93-1.37-7.13-1.37-2.64,0-5.82.29-9.5.62-5.43.49-12.19,1.1-20.53,1.1h0c-2.81,0-5.67-.07-8.5-.21l-1.18-.06V39.69l1.3.07c2.93.14,5.66.21,8.36.21,8.19,0,14.87-.6,20.23-1.09,3.79-.35,7-.64,9.86-.64a18.63,18.63,0,0,1,8.22,1.48l.72.34v4.31Z"/><path class="cls-10" d="M131.43,55.7c-1.73-1-3.93-1.37-7.13-1.37-2.64,0-5.82.29-9.5.62-5.43.49-12.19,1.1-20.53,1.1h0c-2.81,0-5.67-.07-8.5-.21l-1.18-.06V52l1.3.07c2.93.14,5.66.21,8.36.21,8.19,0,14.87-.6,20.23-1.09,3.79-.35,7-.64,9.86-.64a18.77,18.77,0,0,1,8.22,1.48l.72.34v4.31Z"/><path class="cls-10" d="M131.43,68c-1.73-1-3.93-1.37-7.13-1.37-2.64,0-5.82.29-9.5.62-5.43.49-12.19,1.1-20.53,1.1h0c-2.81,0-5.67-.07-8.5-.21l-1.18-.06V64.37l1.3.07c2.93.14,5.66.21,8.36.21,8.19,0,14.87-.6,20.23-1.09,3.79-.34,7-.64,9.86-.64a18.77,18.77,0,0,1,8.22,1.48l.72.34v4.31Z"/><path class="cls-10" d="M131.43,80.38C129.7,79.43,127.5,79,124.3,79c-2.64,0-5.82.29-9.5.62-5.43.49-12.19,1.1-20.53,1.1h0c-2.81,0-5.67-.07-8.5-.21l-1.18,0V76.72l1.3.06c2.93.15,5.66.22,8.36.22,8.19,0,14.87-.61,20.23-1.1,3.79-.34,7-.64,9.86-.64a18.77,18.77,0,0,1,8.22,1.48l.72.34v4.31Z"/><path class="cls-1" d="M142.36,25.24V92.42C149.2,81,161.89,90.7,197.9,87.89V20.71C161.89,23.52,149.2,13.79,142.36,25.24Z"/><path class="cls-10" d="M147.13,31c1.73-.95,3.93-1.37,7.13-1.37,2.65,0,5.83.28,9.51.62,5.43.49,12.18,1.1,20.52,1.1h0c2.8,0,5.66-.07,8.49-.21L194,31.1V27.35l-1.31.07c-2.92.14-5.66.21-8.36.21-8.19,0-14.86-.61-20.23-1.09-3.78-.35-7-.64-9.85-.64A18.65,18.65,0,0,0,146,27.38l-.72.33V32Z"/><path class="cls-10" d="M147.13,43.36c1.73-1,3.93-1.37,7.13-1.37,2.65,0,5.83.29,9.51.62,5.43.49,12.18,1.1,20.52,1.1h0c2.8,0,5.66-.07,8.49-.21l1.19-.06V39.69l-1.31.07c-2.92.14-5.66.21-8.36.21-8.19,0-14.86-.6-20.23-1.09-3.78-.35-7-.64-9.85-.64A18.65,18.65,0,0,0,146,39.72l-.72.34v4.31Z"/><path class="cls-10" d="M147.13,55.7c1.73-1,3.93-1.37,7.13-1.37,2.65,0,5.83.29,9.51.62,5.43.49,12.18,1.1,20.52,1.1h0c2.8,0,5.66-.07,8.49-.21l1.19-.06V52l-1.31.07c-2.92.14-5.66.21-8.36.21-8.19,0-14.86-.6-20.23-1.09-3.78-.35-7-.64-9.85-.64A18.79,18.79,0,0,0,146,52.06l-.72.34v4.31Z"/><path class="cls-10" d="M147.13,68c1.73-1,3.93-1.37,7.13-1.37,2.65,0,5.83.29,9.51.62,5.43.49,12.18,1.1,20.52,1.1h0c2.8,0,5.66-.07,8.49-.21l1.19-.06V64.37l-1.31.07c-2.92.14-5.66.21-8.36.21-8.19,0-14.86-.6-20.23-1.09-3.78-.34-7-.64-9.85-.64A18.79,18.79,0,0,0,146,64.4l-.72.34v4.31Z"/><path class="cls-10" d="M147.13,80.38c1.73-.95,3.93-1.37,7.13-1.37,2.65,0,5.83.29,9.51.62,5.43.49,12.18,1.1,20.52,1.1h0c2.8,0,5.66-.07,8.49-.21l1.19,0V76.72l-1.31.06c-2.92.15-5.66.22-8.36.22-8.19,0-14.86-.61-20.23-1.1-3.78-.34-7-.64-9.85-.64A18.79,18.79,0,0,0,146,76.74l-.72.34v4.31Z"/><path class="cls-11" d="M89.48,34.58l-1.14,3.73H86.47L91.2,23.72h2.34l4.7,14.59H96.29l-1.12-3.73Zm2.85-9.33-2.4,7.82H94.7Z"/></g></g></svg>