<svg xmlns="http://www.w3.org/2000/svg" viewBox="0 0 276.94 200"><defs><style>.cls-1{fill:#fff;}.cls-2{fill:#0b304f;}.cls-3{fill:#9ee3f2;}.cls-4{fill:#56afc9;}.cls-5{fill:#ced7dc;}.cls-6{fill:#313131;}.cls-7{fill:#f5ab09;}.cls-8{fill:#f0beb4;}.cls-9{fill:#754c24;}</style></defs><title>Asset 84</title><g id="Layer_2" data-name="Layer 2"><g id="Layer_1-2" data-name="Layer 1"><rect class="cls-1" width="276.94" height="200"/><path class="cls-2" d="M241.48,175H35.79c-3.35,0-6.49-.62-6.49-4V165.1H247.65v6.51C247.65,175,244.83,175,241.48,175Z"/><path class="cls-2" d="M56.5,25H220.45a1,1,0,0,1,1,1v112.7a0,0,0,0,1,0,0h-166a0,0,0,0,1,0,0V26A1,1,0,0,1,56.5,25Z"/><rect class="cls-3" x="88.67" y="6.6" width="99.6" height="150.54" transform="translate(220.34 -56.6) rotate(90)"/><polygon class="cls-4" points="63.2 131.67 213.74 32.07 213.74 131.67 63.2 131.67"/><path class="cls-5" d="M55.51,138.74,29.78,163.87c-1.57,2.11.79,3.86,5.29,3.86H241.88c4.5,0,6.85-1.75,5.28-3.86l-25.72-25.13Z"/><path class="cls-2" d="M169.51,162.81c.05.1-.26.18-.69.18h-71c-.43,0-.74-.08-.69-.18l4.16-8.94c0-.08.38-.14.75-.14h62.58c.39,0,.72.06.76.14Z"/><polygon class="cls-2" points="68.44 142.21 57.86 142.21 59.27 141.15 69.65 141.15 68.44 142.21"/><polygon class="cls-2" points="90.07 142.21 79.49 142.21 80.49 141.15 90.88 141.15 90.07 142.21"/><polygon class="cls-2" points="103.05 142.21 92.47 142.21 93.23 141.15 103.62 141.15 103.05 142.21"/><polygon class="cls-2" points="116.03 142.21 105.45 142.21 105.97 141.15 116.35 141.15 116.03 142.21"/><polygon class="cls-2" points="129.01 142.21 118.43 142.21 118.7 141.15 129.09 141.15 129.01 142.21"/><polygon class="cls-2" points="141.99 142.21 131.41 142.21 131.44 141.15 141.82 141.15 141.99 142.21"/><polygon class="cls-2" points="154.97 142.21 144.38 142.21 144.18 141.15 154.56 141.15 154.97 142.21"/><polygon class="cls-2" points="167.94 142.21 157.36 142.21 156.91 141.15 167.3 141.15 167.94 142.21"/><polygon class="cls-2" points="88.61 144.15 77.67 144.15 78.74 143.01 89.46 143.01 88.61 144.15"/><polygon class="cls-2" points="102.03 144.15 91.09 144.15 91.9 143.01 102.63 143.01 102.03 144.15"/><polygon class="cls-2" points="115.44 144.15 104.51 144.15 105.06 143.01 115.79 143.01 115.44 144.15"/><polygon class="cls-2" points="128.86 144.15 117.92 144.15 118.22 143.01 128.94 143.01 128.86 144.15"/><polygon class="cls-2" points="142.28 144.15 131.34 144.15 131.38 143.01 142.11 143.01 142.28 144.15"/><polygon class="cls-2" points="160.07 144.15 144.76 144.15 144.54 143.01 159.56 143.01 160.07 144.15"/><polygon class="cls-2" points="169.8 145.28 158.65 145.28 157.7 143.01 168.43 143.01 169.8 145.28"/><polygon class="cls-2" points="87.04 146.22 75.72 146.22 76.86 145 87.96 145 87.04 146.22"/><polygon class="cls-2" points="100.93 146.22 89.6 146.22 90.47 145 101.57 145 100.93 146.22"/><polygon class="cls-2" points="114.82 146.22 103.5 146.22 104.09 145 115.19 145 114.82 146.22"/><polygon class="cls-2" points="128.7 146.22 117.38 146.22 117.7 145 128.8 145 128.7 146.22"/><polygon class="cls-2" points="142.59 146.22 131.28 146.22 131.31 145 142.41 145 142.59 146.22"/><polygon class="cls-2" points="156.48 146.22 145.16 146.22 144.93 145 156.02 145 156.48 146.22"/><polygon class="cls-2" points="170.38 146.22 159.05 146.22 158.54 145 169.64 145 170.38 146.22"/><polygon class="cls-2" points="85.35 148.44 73.62 148.44 74.85 147.14 86.34 147.14 85.35 148.44"/><polygon class="cls-2" points="99.75 148.44 88.02 148.44 88.95 147.14 100.44 147.14 99.75 148.44"/><polygon class="cls-2" points="114.15 148.44 102.41 148.44 103.05 147.14 114.54 147.14 114.15 148.44"/><polygon class="cls-2" points="128.54 148.44 116.81 148.44 117.14 147.14 128.63 147.14 128.54 148.44"/><polygon class="cls-2" points="142.93 148.44 131.2 148.44 131.24 147.14 142.73 147.14 142.93 148.44"/><polygon class="cls-2" points="157.33 148.44 145.59 148.44 145.34 147.14 156.83 147.14 157.33 148.44"/><polygon class="cls-2" points="171.72 148.44 159.99 148.44 159.44 147.14 170.93 147.14 171.72 148.44"/><polygon class="cls-2" points="189.29 142.21 178.71 142.21 177.86 141.15 188.24 141.15 189.29 142.21"/><polygon class="cls-2" points="202.27 142.21 191.69 142.21 190.6 141.15 200.98 141.15 202.27 142.21"/><polygon class="cls-2" points="215.24 142.21 204.66 142.21 203.34 141.15 213.72 141.15 215.24 142.21"/><polygon class="cls-2" points="191.18 144.15 180.25 144.15 179.34 143.01 190.07 143.01 191.18 144.15"/><polygon class="cls-2" points="204.6 144.15 193.66 144.15 192.5 143.01 203.23 143.01 204.6 144.15"/><polygon class="cls-2" points="218.02 144.15 207.08 144.15 205.66 143.01 216.39 143.01 218.02 144.15"/><polygon class="cls-2" points="192.72 145.72 181.49 145.72 180.54 144.52 191.55 144.52 192.72 145.72"/><polygon class="cls-2" points="206.5 145.72 195.27 145.72 194.04 144.52 205.05 144.52 206.5 145.72"/><polygon class="cls-2" points="220.27 145.72 209.04 145.72 207.55 144.52 218.55 144.52 220.27 145.72"/><polygon class="cls-2" points="212.23 150.47 200.12 150.47 198.7 149.08 210.55 149.08 212.23 150.47"/><polygon class="cls-2" points="199.26 152.4 186.8 152.4 185.63 150.92 197.82 150.92 199.26 152.4"/><polygon class="cls-2" points="149.37 151.92 82.55 151.92 84.18 149.76 148.85 149.76 149.37 151.92"/><polygon class="cls-2" points="173.83 151.92 153.64 151.92 152.99 149.76 172.52 149.76 173.83 151.92"/><polygon class="cls-2" points="77.61 151.92 57.42 151.92 59.87 149.76 79.4 149.76 77.61 151.92"/><polygon class="cls-2" points="214.56 152.4 202.09 152.4 200.59 150.92 212.78 150.92 214.56 152.4"/><polygon class="cls-2" points="229.84 152.4 217.38 152.4 215.54 150.92 227.73 150.92 229.84 152.4"/><circle class="cls-6" cx="138.64" cy="28.54" r="2.19"/><path class="cls-7" d="M138.49,34.74c-13.71,0-22.73,4.76-22.73,8.29v9.19c0,.62,1.51.62,1.51-.11V42.85s5.67-5.74,21.22-5.74,21.22,5.74,21.22,5.74v9.26c0,.73,1.51.73,1.51.11V43C161.22,39.5,152.21,34.74,138.49,34.74Z"/><path class="cls-8" d="M140.76,80h-5c-.73,3-2.42,4.83-4.94,8.24,0,3.27,5.5,4.91,7.43,4.89s7.48-1.81,7.48-4.91C143.22,84.77,141.48,83,140.76,80Z"/><path class="cls-9" d="M138.29,42.09c-11.08-5-24.66,10.32-19.13,17,0,0,8.84.61,19.13.61s19.12-.61,19.12-.61C163.93,53.53,149.81,37.38,138.29,42.09Z"/><path class="cls-8" d="M157.72,63.3c0,9.86-8.7,17.85-19.43,17.85s-19.44-8-19.44-17.85,8.7-17.84,19.44-17.84S157.72,53.45,157.72,63.3Z"/><path class="cls-8" d="M122.27,63.21a3,3,0,1,1-3-3.51A3.29,3.29,0,0,1,122.27,63.21Z"/><path class="cls-8" d="M154.3,63.21a3,3,0,1,0,3-3.51A3.29,3.29,0,0,0,154.3,63.21Z"/><path class="cls-8" d="M109.4,126c0,3.7.94,5.68,2.89,5.69,1.77,0,2.79-2.59,2.89-5.69Z"/><path class="cls-8" d="M168.12,126c0,3.7-.94,5.68-2.89,5.69-1.77,0-2.79-2.59-2.88-5.69Z"/><path class="cls-2" d="M146.7,88.21a10.78,10.78,0,0,1-15.88,0c-18.38,5.93-22.76,19.14-22.76,37.77h8.62c0-17,2.59-17.82,3.38-18.06v23.75h37.4V107.92c.8.24,3.38,1,3.38,18.06h8.62C169.46,107.35,165.09,94.14,146.7,88.21Z"/><rect class="cls-2" x="157.32" y="53.04" width="5.29" height="20.89" rx="0.34" transform="translate(319.92 126.98) rotate(180)"/><path class="cls-7" d="M169.09,63.49c0,7.79-6.48,9.57-6.48,9.57V53.92S169.09,55.7,169.09,63.49Z"/><rect class="cls-2" x="113.96" y="53.04" width="5.29" height="20.89" rx="0.34"/><path class="cls-7" d="M107.48,63.49c0,7.79,6.48,9.57,6.48,9.57V53.92S107.48,55.7,107.48,63.49Z"/></g></g></svg>