<svg xmlns="http://www.w3.org/2000/svg" viewBox="0 0 276.94 200"><defs><style>.cls-1{fill:#fff;}.cls-2{fill:#d56b00;}.cls-3{fill:#f5ab09;}.cls-4{fill:#a21b00;}.cls-5{fill:#e03c00;}.cls-6{fill:#0b304f;}</style></defs><title>Asset 85</title><g id="Layer_2" data-name="Layer 2"><g id="Layer_1-2" data-name="Layer 1"><rect class="cls-1" width="276.94" height="200"/><path class="cls-2" d="M69.17,25c-8.42,0-14.74,6.39-14.74,15.85s7.93,15.84,14.74,15.84h21V25Z"/><path class="cls-3" d="M69.17,56.69c11,0,13.89-15.64,3.12-18.95h27.84V56.69Z"/><path class="cls-2" d="M207.18,148V44.87c0-14-7.73-19.87-19.35-19.87H68.58c11.76,0,16.87,5.7,16.87,13.84V148C85.44,164.08,99,175,110.61,175H220.74s3.86-1.15.21-3.26A27.42,27.42,0,0,1,207.18,148Z"/><path class="cls-3" d="M110.61,173.79c-11.33,0-24-10.61-24-25.84V38.84c0-5.84-2.46-10.16-7-12.63H187.84c12,0,18.14,6.27,18.14,18.66V148a28.77,28.77,0,0,0,14.36,24.83,3.79,3.79,0,0,1,.89.65,2.77,2.77,0,0,1-.69.36Z"/><polygon class="cls-1" points="132.3 137.82 117.55 137.82 117.55 158.35 124.92 154.99 132.3 158.35 132.3 137.82"/><polygon class="cls-4" points="124.92 111.77 127.69 114.68 131.31 112.97 132.84 116.67 136.84 116.39 136.92 120.39 140.75 121.57 139.38 125.34 142.53 127.82 139.89 130.84 141.93 134.29 138.38 136.15 139.03 140.1 135.05 140.56 134.23 144.48 130.35 143.46 128.17 146.83 124.92 144.48 121.68 146.83 119.5 143.46 115.62 144.48 114.8 140.56 110.82 140.1 111.47 136.15 107.92 134.29 109.96 130.84 107.32 127.82 110.47 125.34 109.1 121.57 112.93 120.39 113.02 116.39 117.01 116.67 118.54 112.97 122.16 114.68 124.92 111.77"/><path class="cls-5" d="M137.23,129.3A12.31,12.31,0,1,1,124.93,117,12.31,12.31,0,0,1,137.23,129.3Z"/><path class="cls-4" d="M136,129.3a11,11,0,1,1-11-11.05A11,11,0,0,1,136,129.3Z"/><path class="cls-5" d="M130.86,126.81c-1.16-2.51-3.45-1.82-5.37-1.67a3.21,3.21,0,0,1,.18-.37,4.69,4.69,0,0,1,.77-1c.13-.13.56-.25.56-.38s-.58-.35-.66-.27a6.47,6.47,0,0,0-.92,1.32c-.12.22-.23.46-.33.68h-.17c-2,0-4.65-1.11-5.93,1.65-1,2.25-.61,4.59.7,6.92,1.5,2.65,3.34,2.86,3.73,2.86s.78-.19,1.51-.19,1.1.19,1.5.19,2.23-.21,3.73-2.86C131.47,131.4,131.91,129.06,130.86,126.81Z"/><path class="cls-5" d="M122,124.3c1.15.77,2.88,1,3.3.38a1.37,1.37,0,0,0-.29-1.63c-1-1-3.34-1.45-4.55-.59A5,5,0,0,0,122,124.3Z"/><polygon class="cls-6" points="195.68 138.1 173.08 129.18 180.59 148.57 185.08 145.46 193.65 154.03 200.44 152.27 190.13 141.96 195.68 138.1"/><rect class="cls-1" x="118.42" y="45.61" width="54.25" height="5.49"/><rect class="cls-1" x="100.24" y="63.69" width="90.62" height="5.49"/><rect class="cls-1" x="100.24" y="81.18" width="90.62" height="5.49"/><rect class="cls-1" x="100.24" y="98.66" width="90.62" height="5.49"/><rect class="cls-1" x="153.1" y="125.04" width="43.97" height="2.27"/></g></g></svg>