<svg xmlns="http://www.w3.org/2000/svg" viewBox="0 0 276.94 200"><defs><style>.cls-1{fill:#fff;}.cls-2{fill:#0b304f;}.cls-3{fill:#9ee3f2;}.cls-4{fill:#56afc9;}.cls-5{fill:#acbbc7;}.cls-6{fill:#a21b00;}.cls-7{fill:#f0beb4;}.cls-8{fill:#ffffe2;}.cls-9{fill:#754c24;}.cls-10{fill:#34373d;}.cls-11{fill:#90a8bb;}</style></defs><title>Asset 86</title><g id="Layer_2" data-name="Layer 2"><g id="Layer_1-2" data-name="Layer 1"><rect class="cls-1" width="276.94" height="200"/><rect class="cls-2" x="47.07" y="25" width="182.8" height="150" rx="2.24" transform="translate(276.94 200) rotate(180)"/><rect class="cls-3" x="60.41" y="39.26" width="156.11" height="121.7" transform="translate(276.94 200.22) rotate(180)"/><polygon class="cls-4" points="60.41 160.96 216.53 160.96 216.53 39.26 60.41 160.96"/><path class="cls-5" d="M143.5,172.58a4.32,4.32,0,0,0,0-8.64H133.44a4.32,4.32,0,1,0,0,8.64Z"/><circle class="cls-5" cx="138.47" cy="32.09" r="2.98"/><rect class="cls-1" x="146.3" y="114.21" width="63.68" height="4.06"/><rect class="cls-1" x="146.3" y="98.17" width="63.68" height="4.05"/><rect class="cls-1" x="146.3" y="82.13" width="63.68" height="4.05"/><rect class="cls-1" x="174.7" y="66.09" width="35.27" height="4.06"/><path class="cls-6" d="M153.2,70.4l-1.89,6.17h-3.09L156,52.44h3.86l7.79,24.13h-3.22l-1.86-6.17ZM157.91,55l-4,12.95h7.89Z"/><path class="cls-7" d="M114.9,95.91h-5.85c-.85,3.56-2.84,5.67-5.81,9.68,2.85,1.72,6.46,3,8.73,2.94s5.93-1.25,8.78-3C117.79,101.55,115.75,99.47,114.9,95.91Z"/><path class="cls-2" d="M154.75,132.88h-3.64c-14.25,0-9.24-21.68-30.36-27.32,0,0-1.86,4.13-8.19,4.13a11.77,11.77,0,0,1-9.32-4.1c-21.58,7-26.71,22.46-26.71,44.33H86.64c0-20,3-20.92,4-21.2V161h42.77V128.72c4.12,8.4,6.54,12.89,15.89,12.89h5.48Z"/><polygon class="cls-8" points="111.97 107.63 103.2 105.5 111.97 127.25 120.73 105.5 111.97 107.63"/><path class="cls-6" d="M115,114.93a18.11,18.11,0,0,0-1.79-4.54,3.87,3.87,0,0,0,2.1-2.53c0-.38-1.63-.57-3.26-.57s-3.27.19-3.27.57a3.89,3.89,0,0,0,2.11,2.53,18.11,18.11,0,0,0-1.79,4.54,31.21,31.21,0,0,0-.56,6.15l3.54,6.26,3.48-6.26A32.06,32.06,0,0,0,115,114.93Z"/><polygon class="cls-5" points="110.75 160.96 109.96 160.96 109.96 132.28 110.75 131.22 110.75 160.96"/><circle class="cls-5" cx="113.39" cy="136.91" r="1.75"/><circle class="cls-5" cx="113.39" cy="150.83" r="1.75"/><path class="cls-5" d="M128.56,109a25.15,25.15,0,0,0-7.81-3.44L110,132.33l13-14.15-3.24-2.82,5-1Z"/><path class="cls-5" d="M112,127.34l-8.76-21.75h0a34,34,0,0,0-6.51,2.6L100,112.7l4,.86-2.64,2.28,10.12,12.59Z"/><path class="cls-9" d="M112,51.46C99,45.65,83.07,63.57,89.56,71.41c0,0,10.37.72,22.44.72s22.44-.72,22.44-.72C142.1,64.89,125.52,45.93,112,51.46Z"/><path class="cls-7" d="M134.81,76.35c0,11.57-10.21,20.94-22.81,20.94S89.19,87.92,89.19,76.35,99.41,55.41,112,55.41,134.81,64.79,134.81,76.35Z"/><path class="cls-7" d="M93.2,76.25a3.58,3.58,0,1,1-3.53-4.12C91.62,72.13,93.2,74,93.2,76.25Z"/><path class="cls-7" d="M130.8,76.25a3.58,3.58,0,1,0,7.07,0c0-2.27-1.58-4.12-3.53-4.12A3.86,3.86,0,0,0,130.8,76.25Z"/><path class="cls-7" d="M154.75,139.86c4.33-.33,7.43-1.43,7-3.67s-3.36-2.85-7-2.66Z"/><path class="cls-7" d="M78.1,149.92c0,4.33,1.1,6.66,3.39,6.67,2.08,0,3.28-3,3.39-6.67Z"/><path class="cls-10" d="M114.82,78.87a2.37,2.37,0,0,0,2.34,1.94h8.34a2,2,0,0,0,2-2v-7a.39.39,0,0,0-.38-.39H113.91a.37.37,0,0,0-.29.14.38.38,0,0,0-.09.32Z"/><path class="cls-11" d="M125.5,80.06a1.22,1.22,0,0,0,1.22-1.22v-6.6H114.36l1.2,6.49a1.64,1.64,0,0,0,1.6,1.33Z"/><path class="cls-10" d="M109.18,78.87a2.37,2.37,0,0,1-2.34,1.94H98.5a2,2,0,0,1-2-2v-7a.39.39,0,0,1,.38-.39h13.18a.37.37,0,0,1,.29.14.41.41,0,0,1,.08.32Z"/><path class="cls-11" d="M106.84,80.06a1.62,1.62,0,0,0,1.59-1.33l1.21-6.49H97.28v6.6a1.22,1.22,0,0,0,1.22,1.22Z"/><rect class="cls-10" x="109.79" y="72" width="4.42" height="1.83" transform="translate(224 145.84) rotate(180)"/><polygon class="cls-10" points="88.58 71.94 96.81 73.83 96.81 72 88.58 71.03 88.58 71.94"/><polygon class="cls-10" points="135.42 71.94 127.19 73.83 127.19 72 135.42 71.03 135.42 71.94"/><path class="cls-2" d="M187.5,113.35l-.08-.08c.1,0,.2,0,.28-.09a.91.91,0,1,0-1.19-1.37c-.08.07-.08.18-.13.27l-.07-.09-27.45,22.83a1.72,1.72,0,1,0,2.26,2.59Z"/></g></g></svg>