<svg xmlns="http://www.w3.org/2000/svg" viewBox="0 0 276.94 200"><defs><style>.cls-1{fill:#fff;}.cls-2{fill:#f3a909;}.cls-3{fill:#29a8e1;}.cls-4{fill:#004d68;}.cls-5{fill:#0096bf;}.cls-6{fill:#2380a1;}.cls-7{fill:#7cc8e3;}.cls-8{fill:#196c8f;}.cls-9{fill:#3abeed;}.cls-10{fill:#a8cbbf;}.cls-11{fill:#dedede;}.cls-12{fill:#baf8ff;}.cls-13{fill:#ebf1f5;}</style></defs><title>Asset 87</title><g id="Layer_2" data-name="Layer 2"><g id="Layer_1-2" data-name="Layer 1"><rect class="cls-1" width="276.94" height="200"/><path class="cls-2" d="M132.24,159.37h-.07c-1.73,0-3.48-.06-5.2-.19l.2-2.61c1.65.13,3.33.2,5,.2Zm5.27-.21-.21-2.6c1.67-.13,3.36-.33,5-.59l.41,2.57C141,158.82,139.24,159,137.51,159.16Zm-15.78-.59c-1.73-.27-3.48-.61-5.17-1l.6-2.54c1.63.39,3.3.72,5,1Zm26.18-1L147.3,155c1.65-.4,3.29-.86,4.88-1.38l.81,2.48C151.33,156.62,149.62,157.11,147.91,157.52Zm-36.43-1.39c-1.66-.54-3.32-1.15-5-1.82l1-2.41c1.57.64,3.17,1.23,4.77,1.75Zm46.45-1.87-1-2.41c1.55-.65,3.09-1.36,4.59-2.13l1.19,2.33C161.15,152.84,159.54,153.58,157.93,154.26Zm-56.19-2.16c-1.56-.79-3.11-1.66-4.61-2.57l1.36-2.23c1.45.88,2.93,1.72,4.43,2.48Zm65.56-2.63-1.36-2.23c1.43-.87,2.84-1.82,4.21-2.82l1.53,2.11C170.26,147.57,168.79,148.55,167.3,149.47ZM92.74,146.6c-1.42-1-2.81-2.13-4.14-3.26l1.69-2c1.28,1.09,2.62,2.15,4,3.14Zm83.08-3.34-1.7-2c1.28-1.09,2.53-2.25,3.72-3.45l1.85,1.85C178.45,140.92,177.15,142.13,175.82,143.26Zm-91.1-3.5c-1.23-1.22-2.43-2.52-3.58-3.86l2-1.7c1.1,1.28,2.26,2.54,3.44,3.72Zm98.55-3.95-2-1.7c1.1-1.29,2.16-2.63,3.14-4l2.11,1.54C185.52,133.07,184.42,134.47,183.27,135.81Zm-105.4-4c-1-1.41-2-2.89-2.94-4.38L77.15,126c.88,1.44,1.84,2.85,2.82,4.2Zm111.6-4.49-2.23-1.36c.89-1.44,1.72-2.93,2.48-4.42l2.33,1.18C191.26,124.23,190.39,125.78,189.47,127.28ZM72.34,122.8c-.8-1.55-1.54-3.16-2.22-4.78l2.41-1c.65,1.56,1.37,3.11,2.13,4.6Zm121.92-4.91-2.41-1c.65-1.56,1.24-3.17,1.75-4.76l2.49.81C195.55,114.59,194.94,116.26,194.26,117.89Zm-126-4.81c-.54-1.66-1-3.36-1.44-5.08l2.54-.61c.39,1.65.86,3.29,1.38,4.88Zm129.22-5.22-2.53-.61c.39-1.63.72-3.3,1-5l2.58.41C198.26,104.42,197.92,106.16,197.51,107.86Zm-131.69-5c-.28-1.72-.49-3.48-.63-5.24l2.6-.21c.14,1.69.34,3.39.6,5Zm133.33-5.39-2.6-.2c.13-1.68.19-3.39.19-5.06V91.9h2.61v.29C199.35,93.93,199.28,95.7,199.15,97.45ZM65,92.33v-.14c0-1.72.06-3.44.19-5.12l2.6.19c-.12,1.62-.18,3.28-.18,4.93Zm131.55-5.49c-.14-1.67-.35-3.37-.62-5l2.58-.41c.28,1.72.49,3.48.64,5.23ZM68.35,82.23l-2.58-.4c.27-1.72.61-3.46,1-5.18l2.54.6C68.93,78.9,68.61,80.58,68.35,82.23Zm126.56-5.38c-.39-1.63-.87-3.27-1.39-4.88l2.47-.81c.56,1.67,1,3.37,1.46,5.07ZM70.68,72.37l-2.48-.8c.54-1.66,1.15-3.33,1.81-4.95l2.41,1C71.79,69.17,71.2,70.77,70.68,72.37Zm121.06-5.14c-.64-1.54-1.36-3.09-2.14-4.59l2.32-1.19c.81,1.56,1.56,3.16,2.23,4.77ZM74.54,63l-2.32-1.18c.79-1.57,1.66-3.12,2.57-4.61L77,58.58C76.14,60,75.31,61.49,74.54,63Zm112.57-4.76c-.89-1.44-1.85-2.85-2.83-4.21l2.1-1.54c1,1.41,2,2.88,3,4.37ZM79.82,54.35l-2.11-1.53c1-1.4,2.11-2.8,3.26-4.14l2,1.69C81.85,51.66,80.8,53,79.82,54.35Zm101.3-4.28c-1.11-1.29-2.28-2.54-3.46-3.71l1.84-1.85c1.23,1.22,2.44,2.51,3.6,3.85ZM86.39,46.64,84.54,44.8c1.24-1.25,2.54-2.46,3.86-3.59l1.7,2C88.83,44.28,87.58,45.44,86.39,46.64Zm87.54-3.71c-1.28-1.08-2.62-2.14-4-3.13l1.53-2.11c1.42,1,2.82,2.12,4.15,3.25ZM94.07,40l-1.54-2.11c1.42-1,2.9-2,4.37-2.94l1.37,2.22C96.85,38.08,95.44,39,94.07,40Zm71.65-3c-1.45-.88-2.94-1.71-4.43-2.47l1.18-2.33c1.55.79,3.1,1.65,4.61,2.57Zm-63-2.28-1.19-2.32c1.55-.8,3.16-1.55,4.78-2.23l1,2.41C105.72,33.23,104.18,34,102.68,34.72Zm54-2.3c-1.55-.64-3.16-1.22-4.77-1.74l.8-2.48c1.67.54,3.34,1.15,5,1.81ZM112,30.81l-.82-2.48c1.67-.54,3.37-1,5.08-1.44l.61,2.53C115.25,29.82,113.62,30.29,112,30.81Zm35-1.48c-1.63-.39-3.31-.71-5-1l.4-2.58c1.74.27,3.48.61,5.18,1Zm-25.17-.91-.41-2.57c1.72-.28,3.48-.49,5.23-.63l.21,2.6C125.21,28,123.52,28.16,121.86,28.42ZM137,27.79c-1.62-.12-3.25-.18-4.85-.18L132,25h.22c1.66,0,3.36.06,5,.19Z"/><path class="cls-3" d="M131.48,77.74A41.55,41.55,0,1,1,89.94,36.2,41.54,41.54,0,0,1,131.48,77.74Z"/><path class="cls-4" d="M89.94,120.53a42.79,42.79,0,1,1,42.78-42.79A42.84,42.84,0,0,1,89.94,120.53Zm0-83.09a40.31,40.31,0,1,0,40.31,40.3A40.35,40.35,0,0,0,89.94,37.44Z"/><path class="cls-5" d="M89.94,36.2a41.55,41.55,0,0,1,0,83.09Z"/><path class="cls-4" d="M89.94,120.53a1.24,1.24,0,1,1,0-2.48,40.31,40.31,0,1,0,0-80.61,1.24,1.24,0,0,1,0-2.48,42.79,42.79,0,0,1,0,85.57Z"/><ellipse class="cls-3" cx="89.94" cy="77.74" rx="22.91" ry="41.39"/><path class="cls-4" d="M89.94,120.37c-13.32,0-24.15-19.12-24.15-42.63S76.62,35.12,89.94,35.12s24.14,19.12,24.14,42.62S103.25,120.37,89.94,120.37Zm0-82.78c-12,0-21.67,18-21.67,40.15S78,117.9,89.94,117.9s21.67-18,21.67-40.16S101.88,37.59,89.94,37.59Z"/><path class="cls-5" d="M89.94,36.35c12.65,0,22.9,18.54,22.9,41.39s-10.25,41.4-22.9,41.4Z"/><path class="cls-4" d="M89.94,120.37a1.24,1.24,0,1,1,0-2.47c11.94,0,21.67-18,21.67-40.16s-9.73-40.15-21.67-40.15a1.24,1.24,0,1,1,0-2.47c13.31,0,24.14,19.12,24.14,42.62S103.25,120.37,89.94,120.37Z"/><path class="cls-3" d="M48.39,77.74h0Z"/><path class="cls-4" d="M131.48,79H48.39a1.24,1.24,0,1,1,0-2.47h83.09a1.24,1.24,0,1,1,0,2.47Z"/><path class="cls-3" d="M55.6,54.36h0Z"/><path class="cls-4" d="M124.28,55.6H55.6a1.24,1.24,0,0,1,0-2.48h68.68a1.24,1.24,0,0,1,0,2.48Z"/><path class="cls-3" d="M55.6,100.78h0Z"/><path class="cls-4" d="M124.28,102H55.6a1.24,1.24,0,1,1,0-2.47h68.68a1.24,1.24,0,0,1,0,2.47Z"/><path class="cls-3" d="M89.94,36.2v0Z"/><path class="cls-4" d="M89.94,120.53a1.24,1.24,0,0,1-1.24-1.24V36.2a1.24,1.24,0,1,1,2.47,0v83.09A1.24,1.24,0,0,1,89.94,120.53Z"/><rect class="cls-6" x="88.54" y="94.37" width="96.24" height="60.79"/><rect class="cls-7" x="94.45" y="100.28" width="84.41" height="48.97"/><polygon class="cls-8" points="201.84 175 71.46 175 88.53 155.16 184.77 155.16 201.84 175"/><polygon class="cls-4" points="182.69 158.19 90.62 158.19 86.71 165.08 186.6 165.08 182.69 158.19"/><polygon class="cls-4" points="127.87 167.32 127.12 171.98 146.19 171.98 145.43 167.32 127.87 167.32"/><rect class="cls-8" x="142.71" y="58.83" width="43.54" height="58.78"/><rect class="cls-9" x="146.51" y="61.24" width="39.74" height="54.16"/><rect class="cls-4" x="186.25" y="58.83" width="43.54" height="58.78"/><rect class="cls-3" x="186.25" y="61.24" width="39.74" height="54.16"/><path class="cls-10" d="M186.25,112.14c11.35-6.7,23.64.11,35,0V58c-11.35.1-23.64-6.7-35,0Z"/><path class="cls-11" d="M186.25,112.14c11.35-6.7,23.64.11,35,0V58c-11.35.1-23.64-6.7-35,0Z"/><path class="cls-4" d="M190,115.4h-7.76v0a3.22,3.22,0,0,1,3.22-3.22h1.32a3.22,3.22,0,0,1,3.22,3.22Z"/><rect class="cls-8" x="182.25" y="115.25" width="7.76" height="2.36"/><polygon class="cls-6" points="225.99 115.3 221.24 112.14 221.24 57.99 225.99 61.14 225.99 115.3"/><polygon class="cls-12" points="146.51 115.3 151.25 112.14 151.25 57.99 146.51 61.14 146.51 115.3"/><path class="cls-13" d="M186.25,112.14c-11.35-6.7-23.65.11-35,0V58c11.35.1,23.65-6.7,35,0Z"/><path class="cls-8" d="M155.28,108.5l-.13-1.1c2.22-.26,4.51-.69,6.93-1.15a67.45,67.45,0,0,1,12.67-1.58,28.64,28.64,0,0,1,7.68,1l-.29,1.07a27.35,27.35,0,0,0-7.39-1,66.67,66.67,0,0,0-12.46,1.56C159.85,107.8,157.54,108.24,155.28,108.5Z"/><path class="cls-8" d="M155.28,104.65l-.12-1.1c2.26-.26,4.59-.7,7-1.16a67.31,67.31,0,0,1,12.55-1.57,27.87,27.87,0,0,1,7.69,1l-.31,1.07a26.39,26.39,0,0,0-7.38-1,66.33,66.33,0,0,0-12.33,1.55C159.93,104,157.59,104.39,155.28,104.65Z"/><path class="cls-8" d="M155.28,100.8l-.12-1.1c2.33-.26,4.68-.71,7.17-1.18A67.18,67.18,0,0,1,174.75,97,26.23,26.23,0,0,1,182.44,98l-.31,1.06a25.56,25.56,0,0,0-7.38-1,66.21,66.21,0,0,0-12.21,1.54C160.14,100.07,157.65,100.54,155.28,100.8Z"/><path class="cls-8" d="M155.28,97l-.12-1.1c2.36-.26,4.73-.71,7.26-1.19a66.87,66.87,0,0,1,12.33-1.55,25.28,25.28,0,0,1,7.7,1.11l-.33,1.06a24.35,24.35,0,0,0-7.37-1.06,66.2,66.2,0,0,0-12.09,1.52C160.08,96.24,157.68,96.69,155.28,97Z"/><path class="cls-8" d="M155.28,93.1l-.12-1.1c2.41-.26,4.83-.72,7.4-1.21a66.31,66.31,0,0,1,12.19-1.53,24.6,24.6,0,0,1,7.71,1.14l-.35,1.06a23.54,23.54,0,0,0-7.36-1.09,65,65,0,0,0-12,1.51C160.29,92.36,157.74,92.84,155.28,93.1Z"/><path class="cls-8" d="M155.28,89.25l-.12-1.1c2.47-.26,5-.75,7.52-1.22a65.45,65.45,0,0,1,12.07-1.52,23.62,23.62,0,0,1,7.71,1.18l-.35,1a22.91,22.91,0,0,0-7.36-1.12A64.15,64.15,0,0,0,162.91,88C160.38,88.5,157.79,89,155.28,89.25Z"/><path class="cls-8" d="M155.28,85.41l-.12-1.1c2.52-.27,5.13-.77,7.66-1.25a64.9,64.9,0,0,1,11.93-1.5,22.86,22.86,0,0,1,7.72,1.22l-.37,1a21.93,21.93,0,0,0-7.35-1.15A64.14,64.14,0,0,0,163,84.15C160.48,84.64,157.84,85.14,155.28,85.41Z"/><path class="cls-8" d="M155.28,81.56l-.12-1.11c2.57-.26,5.21-.76,7.76-1.25a64,64,0,0,1,11.83-1.5A22,22,0,0,1,182.47,79l-.37,1a21.11,21.11,0,0,0-7.35-1.2,62.26,62.26,0,0,0-11.58,1.48C160.55,80.78,157.89,81.29,155.28,81.56Z"/><path class="cls-8" d="M155.27,77.71l-.11-1.11c2.62-.26,5.31-.77,7.9-1.26a62.59,62.59,0,0,1,11.69-1.49,21.76,21.76,0,0,1,7.73,1.3l-.39,1A20.51,20.51,0,0,0,174.75,75a62.12,62.12,0,0,0-11.46,1.46C160.65,76.92,157.94,77.44,155.27,77.71Z"/><path class="cls-8" d="M155.27,73.86l-.11-1.1c2.68-.27,5.4-.79,8-1.29A62.34,62.34,0,0,1,174.75,70a21.13,21.13,0,0,1,7.74,1.34l-.41,1a20,20,0,0,0-7.33-1.26,61.16,61.16,0,0,0-11.34,1.45C160.74,73.06,158,73.59,155.27,73.86Z"/><path class="cls-8" d="M155.27,70l-.11-1.1c2.73-.27,5.49-.8,8.16-1.3a61.21,61.21,0,0,1,11.43-1.47,20.41,20.41,0,0,1,7.74,1.39l-.41,1a19.47,19.47,0,0,0-7.33-1.3,61.22,61.22,0,0,0-11.22,1.45C160.83,69.21,158.05,69.73,155.27,70Z"/><path class="cls-8" d="M155.27,66.16l-.11-1.1c2.78-.27,5.57-.8,8.28-1.32a61.93,61.93,0,0,1,11.31-1.45,20,20,0,0,1,7.75,1.42l-.43,1a18.74,18.74,0,0,0-7.32-1.34,61,61,0,0,0-11.1,1.43C160.92,65.35,158.1,65.88,155.27,66.16Z"/><path class="cls-8" d="M155.27,62.31l-.1-1.1c2.82-.28,5.66-.81,8.4-1.33a60.76,60.76,0,0,1,11.18-1.44,19.37,19.37,0,0,1,7.75,1.46l-.43,1a18.34,18.34,0,0,0-7.32-1.37,60.24,60.24,0,0,0-11,1.42C161,61.49,158.15,62,155.27,62.31Z"/><path class="cls-8" d="M217.21,108.5c-2.25-.26-4.56-.7-7-1.16a66.46,66.46,0,0,0-12.45-1.56,27.35,27.35,0,0,0-7.39,1l-.3-1.07a28.77,28.77,0,0,1,7.69-1,67.34,67.34,0,0,1,12.66,1.58c2.42.46,4.71.89,6.93,1.15Z"/><path class="cls-8" d="M217.22,104.65c-2.31-.26-4.65-.7-7.12-1.17a66.76,66.76,0,0,0-12.35-1.55,26.46,26.46,0,0,0-7.39,1l-.3-1.07a27.82,27.82,0,0,1,7.69-1,68.16,68.16,0,0,1,12.54,1.56c2.47.47,4.79.91,7.05,1.17Z"/><path class="cls-8" d="M217.22,100.8c-2.37-.26-4.75-.71-7.26-1.19a66.32,66.32,0,0,0-12.21-1.54,25.51,25.51,0,0,0-7.38,1L190.05,98a26.35,26.35,0,0,1,7.7-1.06,67,67,0,0,1,12.41,1.55c2.5.47,4.86.92,7.18,1.18Z"/><path class="cls-8" d="M217.22,97c-2.4-.26-4.81-.71-7.35-1.2a66,66,0,0,0-12.12-1.53,24.35,24.35,0,0,0-7.37,1.06l-.33-1.06a25.18,25.18,0,0,1,7.7-1.11A66,66,0,0,1,210,94.66c2.56.48,4.94.93,7.3,1.19Z"/><path class="cls-8" d="M217.22,93.1c-2.46-.26-5-.74-7.49-1.22a65.55,65.55,0,0,0-12-1.51,23.65,23.65,0,0,0-7.37,1.09L190,90.4a24.6,24.6,0,0,1,7.71-1.14,66,66,0,0,1,12.17,1.53c2.58.49,5,.95,7.42,1.21Z"/><path class="cls-8" d="M217.22,89.25c-2.51-.26-5.1-.75-7.61-1.23a64.58,64.58,0,0,0-11.86-1.5,22.87,22.87,0,0,0-7.36,1.12l-.36-1a23.73,23.73,0,0,1,7.72-1.18,64.81,64.81,0,0,1,12,1.52c2.63.5,5.08,1,7.55,1.22Z"/><path class="cls-8" d="M217.22,85.41c-2.57-.27-5.2-.77-7.75-1.26a64.14,64.14,0,0,0-11.72-1.48,22,22,0,0,0-7.36,1.15l-.36-1a22.82,22.82,0,0,1,7.72-1.22,64.79,64.79,0,0,1,11.92,1.5c2.53.48,5.15,1,7.67,1.25Z"/><path class="cls-8" d="M217.22,81.56c-2.61-.27-5.28-.78-7.86-1.27a62.89,62.89,0,0,0-11.61-1.48A21.11,21.11,0,0,0,190.4,80L190,79a22.07,22.07,0,0,1,7.73-1.27,63.23,63.23,0,0,1,11.79,1.5c2.58.49,5.22,1,7.8,1.25Z"/><path class="cls-8" d="M217.22,77.71c-2.67-.27-5.37-.79-8-1.28A61.83,61.83,0,0,0,197.75,75a20.48,20.48,0,0,0-7.34,1.23l-.39-1a21.54,21.54,0,0,1,7.73-1.3,62.87,62.87,0,0,1,11.66,1.48c2.62.5,5.3,1,7.92,1.27Z"/><path class="cls-8" d="M217.22,73.86c-2.72-.27-5.46-.79-8.11-1.3a61.58,61.58,0,0,0-11.36-1.45,20,20,0,0,0-7.34,1.26l-.4-1A21.05,21.05,0,0,1,197.75,70a62.13,62.13,0,0,1,11.55,1.47c2.64.5,5.36,1,8,1.29Z"/><path class="cls-8" d="M217.22,70c-2.77-.28-5.56-.8-8.25-1.31a61.33,61.33,0,0,0-11.22-1.45,19.47,19.47,0,0,0-7.33,1.3l-.42-1a20.46,20.46,0,0,1,7.75-1.39,61.92,61.92,0,0,1,11.42,1.46c2.67.51,5.43,1,8.16,1.31Z"/><path class="cls-8" d="M217.22,66.16c-2.82-.28-5.64-.81-8.37-1.33a61.2,61.2,0,0,0-11.1-1.43,18.82,18.82,0,0,0-7.33,1.34l-.42-1a20,20,0,0,1,7.75-1.42,61.83,61.83,0,0,1,11.3,1.45c2.71.52,5.51,1.05,8.28,1.32Z"/><path class="cls-8" d="M217.23,62.31c-2.88-.28-5.74-.82-8.5-1.34a60.24,60.24,0,0,0-11-1.42,18.31,18.31,0,0,0-7.32,1.37l-.44-1a19.45,19.45,0,0,1,7.76-1.46,61,61,0,0,1,11.18,1.44c2.74.52,5.58,1,8.4,1.33Z"/></g></g></svg>