<svg xmlns="http://www.w3.org/2000/svg" viewBox="0 0 276.94 200"><defs><style>.cls-1{fill:#fff;}.cls-2{fill:#f3a909;}.cls-3{fill:#004d68;}.cls-4{fill:#29a8e1;}.cls-5{fill:#f7c278;}.cls-6{fill:#f9b042;}.cls-7{fill:#baf8ff;}.cls-8{fill:#995107;}.cls-9{fill:#d93923;}.cls-10{fill:#ed503f;}.cls-11{fill:#3abeed;}.cls-12{fill:#2a5973;}.cls-13{fill:#196c8f;}</style></defs><title>Asset 88</title><g id="Layer_2" data-name="Layer 2"><g id="Layer_1-2" data-name="Layer 1"><rect class="cls-1" width="276.94" height="200"/><path class="cls-2" d="M204.33,81.43q1.81,1.39,3.68,2.93c.61.51,1.26,1,1.85,1.57l1.73,1.69-3.08.67.11.51c0,.22.11.5.17.82.15.8.41,1.7.54,2.74a73.09,73.09,0,0,1,.62,17.23,71.25,71.25,0,0,1-46.76,60.57,74,74,0,0,1-24.19,4.4,76.52,76.52,0,0,1-17.33-2c-2-.46-3.62-1-4.71-1.31l-1.67-.49,1.43-4.12,1.55.45c1,.27,2.5.8,4.43,1.23A71.92,71.92,0,0,0,139,170.19a69.27,69.27,0,0,0,22.71-4.12,67.56,67.56,0,0,0,22.51-13.65,66.12,66.12,0,0,0,21.36-43.2A68.94,68.94,0,0,0,205,93.05c-.13-1-.37-1.82-.51-2.56-.06-.31-.12-.57-.17-.78s-.1-.48-.1-.48l-3.08.67.94-2c.29-.69.53-1.38.79-2.08C203.36,84.38,203.86,82.93,204.33,81.43Z"/><path class="cls-2" d="M72.64,126.06c-1.22-.92-2.44-1.9-3.69-2.92l-1.86-1.56-1.73-1.68,3.08-.68s-.32-1.48-.85-4.08a72.61,72.61,0,0,1-.68-17.3A71.26,71.26,0,0,1,113.79,37a74.54,74.54,0,0,1,24.3-4.36,77,77,0,0,1,17.4,2c2.07.48,3.64,1,4.73,1.34l1.66.5-1.44,4.12-1.56-.47c-1-.28-2.5-.81-4.44-1.25A72.23,72.23,0,0,0,138.11,37a70,70,0,0,0-22.81,4.09,67.57,67.57,0,0,0-22.62,13.7A66.09,66.09,0,0,0,71.3,98.19a68.32,68.32,0,0,0,.64,16.24c.51,2.43.79,3.83.79,3.83l3.09-.7-.94,2c-.27.69-.52,1.38-.77,2.09C73.61,123.11,73.11,124.56,72.64,126.06Z"/><path class="cls-3" d="M138.47,139.53a35.94,35.94,0,1,1,35.94-35.94A36,36,0,0,1,138.47,139.53Zm0-69.8a33.87,33.87,0,1,0,33.86,33.86A33.9,33.9,0,0,0,138.47,69.73Z"/><path class="cls-3" d="M138.47,139.4c-11.18,0-20.28-16.06-20.28-35.81s9.1-35.81,20.28-35.81,20.29,16.07,20.29,35.81S149.66,139.4,138.47,139.4Zm0-69.54c-10,0-18.2,15.13-18.2,33.73s8.16,33.74,18.2,33.74,18.21-15.14,18.21-33.74S148.51,69.86,138.47,69.86Z"/><path class="cls-4" d="M103.57,103.59h0Z"/><path class="cls-3" d="M173.37,104.63h-69.8a1,1,0,0,1,0-2.08h69.8a1,1,0,0,1,0,2.08Z"/><path class="cls-4" d="M109.62,84h0Z"/><path class="cls-3" d="M167.32,85h-57.7a1,1,0,1,1,0-2.07h57.7a1,1,0,1,1,0,2.07Z"/><path class="cls-4" d="M109.62,122.94h0Z"/><path class="cls-3" d="M167.32,124h-57.7a1,1,0,1,1,0-2.08h57.7a1,1,0,1,1,0,2.08Z"/><path class="cls-4" d="M138.47,68.69v0Z"/><path class="cls-3" d="M138.47,139.53a1,1,0,0,1-1-1V68.69a1,1,0,0,1,2.08,0V138.5A1,1,0,0,1,138.47,139.53Z"/><polygon class="cls-5" points="83.45 151.08 83.45 159.41 91.13 159.41 91.13 155.98 89.74 157.37 83.45 151.08"/><path class="cls-6" d="M87.45,152.72a5.75,5.75,0,0,1-4-1.65h0l6.29,6.29L91.13,156v-4.64A5.71,5.71,0,0,1,87.45,152.72Z"/><polygon class="cls-7" points="82.9 152.72 87.39 155.19 91.74 152.72 95.57 155.36 87.29 165.97 79.47 155.03 82.9 152.72"/><path class="cls-5" d="M93.82,147.06a.23.23,0,0,1-.13,0l-.11-.09,0,.13c-.66,3.33-3.17,5.65-6.1,5.65s-5.44-2.32-6.1-5.65l0-.13-.1.09a.27.27,0,0,1-.12,0h0c-.52,0-1.44-1.39-1.55-2.87-.12-1.69-.09-2.64.1-2.84h0c.18,0,.44.2.7.56l.29.39-.14-.47a5,5,0,0,1-.24-1.48,7.17,7.17,0,1,1,14.31,0,5,5,0,0,1-.25,1.48l-.13.47.29-.4c.25-.35.51-.55.69-.55h0c.19.2.22,1.15.1,2.84C95.25,145.67,94.32,147.06,93.82,147.06Z"/><path class="cls-8" d="M87.29,137.26c1.35.08,2.4-.47,3.43-.52s1.74,1,2.25,2.19c.87,2,.23,4.3,1.26,3.36s0-5.55,0-5.55-1.14-3.93-4.72-4.33-7.39.47-8.65,4.05-.59,5.38-.18,5.83.61-.58,1.15-2.83,1.28-3.12,2.2-3A12.85,12.85,0,0,0,87.29,137.26Z"/><polygon class="cls-9" points="89.41 155.03 87.4 154.89 87.4 167.64 87.41 167.66 89.41 164.72 88.24 157.42 89.41 155.03"/><polygon class="cls-10" points="87.36 154.88 87.34 154.9 87.31 154.88 85.39 155.03 86.57 157.42 85.39 164.72 87.4 167.66 87.4 167.64 87.4 154.89 87.36 154.88"/><polygon class="cls-4" points="87.29 175 87.29 165.97 94.03 154.32 105.19 158.84 108.38 175 87.29 175"/><polygon class="cls-11" points="87.29 175 87.29 165.97 80.55 154.32 69.39 158.84 66.2 175 87.29 175"/><polygon class="cls-11" points="96.59 155.33 94.03 154.32 87.29 165.97 92.38 162.03 92.34 160.15 94.29 160.15 96.59 155.33"/><polygon class="cls-4" points="77.99 155.33 80.55 154.32 87.29 165.97 82.2 162.03 82.24 160.15 80.29 160.15 77.99 155.33"/><path class="cls-12" d="M94.09,136.34a19.62,19.62,0,0,1-13.2-.07l0-6.35c4.4,0,8.8.05,13.2.06C94.11,132.09,94.1,134.22,94.09,136.34Z"/><path class="cls-13" d="M99.69,130.46l-12.07,3.16a.49.49,0,0,1-.24,0l-12-3.27a.48.48,0,0,1,0-.92l12.07-3.16a.49.49,0,0,1,.24,0l12,3.27A.48.48,0,0,1,99.69,130.46Z"/><path class="cls-6" d="M94.39,136.42h0a.21.21,0,0,1-.21-.21l0-4.2-6.68-1.81a.21.21,0,0,1-.15-.26.21.21,0,0,1,.26-.15l7,1.91,0,4.51A.21.21,0,0,1,94.39,136.42Z"/><path class="cls-6" d="M95.6,137.4a4,4,0,0,1-2.55,0V135.5a1.3,1.3,0,0,1,1.27-1.26h0a1.28,1.28,0,0,1,1.26,1.27C95.6,136.14,95.6,136.77,95.6,137.4Z"/><polygon class="cls-5" points="184.26 49.83 184.26 58.16 191.93 58.16 191.93 54.72 190.54 56.12 184.26 49.83"/><path class="cls-6" d="M188.26,51.47a5.72,5.72,0,0,1-4-1.66v0l6.28,6.29,1.39-1.4V50.09A5.7,5.7,0,0,1,188.26,51.47Z"/><polygon class="cls-7" points="183.7 51.47 188.19 53.94 192.54 51.47 196.37 54.11 188.09 64.71 180.28 53.78 183.7 51.47"/><path class="cls-5" d="M194.62,45.81a.23.23,0,0,1-.13,0l-.11-.09,0,.13c-.66,3.32-3.16,5.65-6.09,5.65s-5.44-2.33-6.1-5.65l0-.13-.11.09a.24.24,0,0,1-.12,0h0c-.51,0-1.44-1.39-1.55-2.87-.12-1.7-.09-2.65.1-2.84a.06.06,0,0,1,0,0c.18,0,.45.21.7.56l.29.4-.14-.47a5.4,5.4,0,0,1-.24-1.48,7.17,7.17,0,1,1,14.31,0,5.4,5.4,0,0,1-.24,1.48L195,41l.29-.4c.26-.35.52-.56.7-.56l0,0c.19.19.22,1.14.1,2.84C196.05,44.42,195.12,45.81,194.62,45.81Z"/><path class="cls-8" d="M188.1,36c1.35.08,2.39-.47,3.43-.52s1.73,1,2.25,2.19c.86,2,.22,4.29,1.25,3.36s0-5.55,0-5.55-1.13-3.93-4.71-4.33-7.39.46-8.66,4-.59,5.38-.18,5.84.61-.59,1.16-2.84,1.27-3.11,2.2-2.94A12.85,12.85,0,0,0,188.1,36Z"/><polygon class="cls-9" points="190.22 53.78 188.21 53.63 188.21 66.39 188.21 66.4 190.22 63.47 189.04 56.17 190.22 53.78"/><polygon class="cls-10" points="188.17 53.63 188.14 53.64 188.12 53.63 186.2 53.78 187.37 56.17 186.2 63.47 188.2 66.4 188.21 66.39 188.21 53.63 188.17 53.63"/><polygon class="cls-4" points="188.09 73.75 188.09 64.71 194.84 53.07 206 57.59 209.19 73.75 188.09 73.75"/><polygon class="cls-11" points="188.09 73.75 188.09 64.71 181.35 53.07 170.19 57.59 167 73.75 188.09 73.75"/><polygon class="cls-11" points="197.39 54.08 194.84 53.07 188.09 64.71 193.19 60.78 193.14 58.89 195.09 58.89 197.39 54.08"/><polygon class="cls-4" points="178.8 54.08 181.35 53.07 188.09 64.71 183 60.78 183.04 58.89 181.1 58.89 178.8 54.08"/><path class="cls-12" d="M194.9,35.09A19.64,19.64,0,0,1,181.69,35c0-2.12,0-4.23,0-6.36,4.4,0,8.81.06,13.2.06Q194.92,31.9,194.9,35.09Z"/><path class="cls-13" d="M200.5,29.21l-12.07,3.16a.53.53,0,0,1-.25,0l-12-3.27a.48.48,0,0,1,0-.92L188.22,25a.33.33,0,0,1,.24,0l12,3.27A.48.48,0,0,1,200.5,29.21Z"/><path class="cls-6" d="M195.19,35.17h0A.22.22,0,0,1,195,35l0-4.2L188.32,29a.22.22,0,0,1-.15-.26.22.22,0,0,1,.26-.15l7,1.9,0,4.52A.21.21,0,0,1,195.19,35.17Z"/><path class="cls-6" d="M196.4,36.15a3.91,3.91,0,0,1-2.55,0V34.24A1.27,1.27,0,0,1,195.13,33h0a1.27,1.27,0,0,1,1.26,1.26C196.41,34.89,196.41,35.52,196.4,36.15Z"/></g></g></svg>