<svg xmlns="http://www.w3.org/2000/svg" viewBox="0 0 148.1 200"><defs><style>.cls-1{fill:#fff;}.cls-2{fill:#fcda83;}.cls-12,.cls-3{fill:#c5c6c8;}.cls-10,.cls-12,.cls-17,.cls-19,.cls-23,.cls-25,.cls-34,.cls-35,.cls-36,.cls-4,.cls-41,.cls-6{opacity:0.5;}.cls-5,.cls-6{fill:#5b5b5b;}.cls-10,.cls-12,.cls-17,.cls-19,.cls-23,.cls-25,.cls-34,.cls-35,.cls-36,.cls-41,.cls-6,.cls-9{isolation:isolate;}.cls-17,.cls-7{fill:#6d96a7;}.cls-36,.cls-8,.cls-9{fill:#fab888;}.cls-9{opacity:0.25;}.cls-10,.cls-14{fill:#38323c;}.cls-11{fill:#99d1c8;}.cls-13{fill:#ec7779;}.cls-15{fill:#e2e2e2;}.cls-16,.cls-34{fill:#e05a5a;}.cls-18,.cls-19{fill:#291808;}.cls-20,.cls-35{fill:none;stroke-miterlimit:10;}.cls-20{stroke:#fcda83;stroke-width:7.39px;}.cls-21{fill:#374858;}.cls-22,.cls-23{fill:#594e36;}.cls-24,.cls-25{fill:#c72828;}.cls-26{fill:#64884a;}.cls-27{fill:#433927;}.cls-28{fill:#50703b;}.cls-29{fill:#545454;}.cls-30{fill:#eee7dd;}.cls-31{fill:#cbc4ba;}.cls-32{fill:#694d35;}.cls-33{fill:#b2ada6;}.cls-35{stroke:#fab888;stroke-width:3.99px;}.cls-37,.cls-41{fill:#2d3b44;}.cls-38{fill:#ebead8;}.cls-39{fill:#ea9473;}.cls-40{fill:#223e49;}</style></defs><title>tn4</title><g id="Layer_2" data-name="Layer 2"><g id="Layer_1-2" data-name="Layer 1"><rect class="cls-1" width="148.1" height="200"/><g id="_1" data-name="1"><path class="cls-2" d="M112.33,136.91a.34.34,0,0,0-.33-.34H90a.34.34,0,0,0-.33.34h0a.33.33,0,0,0,.33.33h22a.33.33,0,0,0,.33-.33Z"/><path class="cls-3" d="M111.72,158.25h-.9V143.48a2.24,2.24,0,0,0-2.24-2.24H93.44a2.24,2.24,0,0,0-2.24,2.24v14.77h-.9V143.48a3.15,3.15,0,0,1,3.14-3.14h15.14a3.15,3.15,0,0,1,3.14,3.14v14.77Z"/><g class="cls-4"><path class="cls-3" d="M90.89,143.48v14.77h.31V143.48a2.24,2.24,0,0,1,2.24-2.24h-.3A2.24,2.24,0,0,0,90.89,143.48Z"/><path class="cls-3" d="M108.58,140.34h-.31a3.15,3.15,0,0,1,3.14,3.14v14.77h.31V143.48A3.15,3.15,0,0,0,108.58,140.34Z"/></g><path class="cls-5" d="M110.51,159.18a.78.78,0,0,1,1.55,0Z"/><path class="cls-5" d="M90,159.18a.77.77,0,0,1,1.54,0Z"/><path class="cls-6" d="M111.28,158.41h-.12a.77.77,0,0,1,.65.76h.25A.77.77,0,0,0,111.28,158.41Z"/><path class="cls-6" d="M90.75,158.41h-.13a.77.77,0,0,1,.65.76h.25A.77.77,0,0,0,90.75,158.41Z"/><path class="cls-2" d="M112,139.25a.76.76,0,0,1-.76.76H90.83a.76.76,0,0,1-.76-.76V138a.76.76,0,0,1,.76-.76H111.2a.76.76,0,0,1,.76.76Z"/><path class="cls-2" d="M111.18,137.24H90.81a.75.75,0,0,0-.72.53.71.71,0,0,1,.51-.2H111a.76.76,0,0,1,.76.76v1.24a.64.64,0,0,1,0,.24.73.73,0,0,0,.25-.56V138A.76.76,0,0,0,111.18,137.24Z"/><path class="cls-2" d="M112.16,136.64a.31.31,0,0,1,.06.19.33.33,0,0,1-.33.33h-22a.33.33,0,0,1-.19-.06.35.35,0,0,0,.27.14h22a.33.33,0,0,0,.19-.6Z"/><path class="cls-7" d="M106,144.4a.8.8,0,0,1-.77.82H96.82a.8.8,0,0,1-.77-.82v-.81a.8.8,0,0,1,.77-.83h8.38a.8.8,0,0,1,.77.83Z"/><polygon class="cls-8" points="102.18 129.35 100.05 129.35 100.4 125.07 101.83 125.07 102.18 129.35"/><path class="cls-9" d="M101.11,125.55a4.49,4.49,0,0,1-.73-.06l0,.55a1.08,1.08,0,0,0,.76.23,1.39,1.39,0,0,0,.77-.23l0-.55A4.52,4.52,0,0,1,101.11,125.55Z"/><path class="cls-2" d="M95.85,120.07a5.5,5.5,0,1,1,5.5,5.49A5.5,5.5,0,0,1,95.85,120.07Z"/><path class="cls-2" d="M96.27,120.46a5.08,5.08,0,1,1,5.08,5.07A5.07,5.07,0,0,1,96.27,120.46Z"/><path class="cls-2" d="M96.69,120.85a4.66,4.66,0,1,1,4.66,4.66A4.66,4.66,0,0,1,96.69,120.85Z"/><path class="cls-2" d="M97.11,121.24a4.24,4.24,0,1,1,4.24,4.24A4.24,4.24,0,0,1,97.11,121.24Z"/><path class="cls-2" d="M97.54,121.64a3.81,3.81,0,1,1,3.81,3.81A3.8,3.8,0,0,1,97.54,121.64Z"/><path class="cls-2" d="M98,122a3.39,3.39,0,1,1,3.39,3.39A3.39,3.39,0,0,1,98,122Z"/><circle class="cls-2" cx="101.35" cy="122.42" r="2.97"/><circle class="cls-2" cx="101.35" cy="122.82" r="2.54"/><circle class="cls-2" cx="101.35" cy="123.21" r="2.12"/><circle class="cls-2" cx="101.35" cy="123.6" r="1.7"/><path class="cls-2" d="M96.68,114.23c.09.28,1.63,1.28,1.75,1.54-3.07,3.5-2.5,5.26-2.5,5.26A5.1,5.1,0,0,1,96.68,114.23Z"/><path class="cls-2" d="M103.42,120.61a9.71,9.71,0,0,1-7.54-6,7.23,7.23,0,0,1,1.2-.85,7.51,7.51,0,0,1,11.17,5.36,6.22,6.22,0,0,1,.08,1A9.63,9.63,0,0,1,103.42,120.61Z"/><path class="cls-10" d="M98.3,122.87l-.78-.59a5.17,5.17,0,0,1-2.23-4.22,5.38,5.38,0,0,1,5.31-5.26h-.19a5.38,5.38,0,0,0-5.5,5.26,5.15,5.15,0,0,0,2.24,4.22A4.87,4.87,0,0,0,98.3,122.87Z"/><path class="cls-10" d="M106.55,118.4c0,.11,0,.89,0,1a5.5,5.5,0,0,1-9.53,4.12l.12.15a5.5,5.5,0,0,0,9.65-4A5,5,0,0,0,106.55,118.4Z"/><circle class="cls-2" cx="98.87" cy="123.66" r="2.96"/><path class="cls-10" d="M96.84,121.52a2.47,2.47,0,0,0-.68,1.89,3,3,0,0,0,3,3,2.51,2.51,0,0,0,1.9-.68,3,3,0,0,1-5.11-2A2.93,2.93,0,0,1,96.84,121.52Z"/><circle class="cls-2" cx="97.58" cy="121.37" r="2.24"/><path class="cls-10" d="M95.56,121.56a2.24,2.24,0,0,1,3.62-1.76,2.21,2.21,0,0,0-1.6-.67,2.24,2.24,0,0,0-1.38,4A2.28,2.28,0,0,1,95.56,121.56Z"/><path class="cls-2" d="M103.67,122a1.39,1.39,0,0,1,1,1.68c-.19.74-2.79,1.72-3.53,1.53a1.38,1.38,0,0,1-1-1.68C100.34,122.74,102.93,121.76,103.67,122Z"/><path class="cls-10" d="M101.68,122.58a1.38,1.38,0,0,1,1,1.68,1.4,1.4,0,0,1-.49.75,1.36,1.36,0,0,0,.64-.85,1.38,1.38,0,0,0-1-1.68,1.39,1.39,0,0,0-1.19.25A1.38,1.38,0,0,1,101.68,122.58Z"/><ellipse class="cls-8" cx="101.21" cy="129.11" rx="4.73" ry="0.45"/><path class="cls-11" d="M105.12,128.76h-.93s0,0,0,0c0,.45-1.37.81-3.06.81s-3-.36-3-.81v0h-1a2.41,2.41,0,0,0-2.29,2.51v9.41a2.4,2.4,0,0,0,2.29,2.51h8a2.4,2.4,0,0,0,2.29-2.51v-9.41A2.41,2.41,0,0,0,105.12,128.76Z"/><path class="cls-2" d="M107.93,133.8a.9.9,0,0,0-.9-.89H95a.89.89,0,0,0-.9.89v5.5a.9.9,0,0,0,.9.9h12a.91.91,0,0,0,.9-.9Z"/><path class="cls-2" d="M107.48,133a1.17,1.17,0,0,1,0,.27v5.49a.89.89,0,0,1-.89.9h-12a1,1,0,0,1-.45-.12.92.92,0,0,0,.86.63h12a.91.91,0,0,0,.9-.9v-5.5A.91.91,0,0,0,107.48,133Z"/><path class="cls-3" d="M108.53,158.32h-.9v-7.75a2.24,2.24,0,0,0-2.24-2.24H96.75a2.24,2.24,0,0,0-2.24,2.24v7.75h-.9v-7.75a3.15,3.15,0,0,1,3.14-3.14h8.64a3.15,3.15,0,0,1,3.14,3.14Z"/><g class="cls-4"><path class="cls-3" d="M94.2,150.57v7.75h.31v-7.75a2.24,2.24,0,0,1,2.24-2.24h-.31A2.24,2.24,0,0,0,94.2,150.57Z"/><path class="cls-3" d="M105.39,147.43h-.31a3.15,3.15,0,0,1,3.14,3.14v7.75h.31v-7.75A3.15,3.15,0,0,0,105.39,147.43Z"/></g><path class="cls-5" d="M107.33,159.24a.77.77,0,1,1,1.54,0Z"/><path class="cls-5" d="M93.28,159.24a.77.77,0,0,1,1.54,0Z"/><path class="cls-6" d="M108.1,158.47H108a.77.77,0,0,1,.65.76h.25A.78.78,0,0,0,108.1,158.47Z"/><path class="cls-6" d="M94.05,158.47h-.12a.77.77,0,0,1,.65.76h.24A.77.77,0,0,0,94.05,158.47Z"/><path class="cls-2" d="M108.48,145a.9.9,0,0,0-.9-.9H94.46a.9.9,0,0,0-.9.9v.73a.9.9,0,0,0,.9.89h13.12a.89.89,0,0,0,.9-.89V145Z"/><path class="cls-2" d="M107.58,146.08H94.46a.9.9,0,0,1-.9-.89v.56a.9.9,0,0,0,.9.89h13.12a.89.89,0,0,0,.9-.89v-.56A.89.89,0,0,1,107.58,146.08Z"/><path class="cls-3" d="M101,148.6a.34.34,0,0,1-.34-.34V138.12a.34.34,0,1,1,.67,0v10.14A.34.34,0,0,1,101,148.6Z"/><path class="cls-12" d="M101,137.78h-.1a.35.35,0,0,1,.24.33v10.14a.35.35,0,0,1-.24.33h.1a.34.34,0,0,0,.33-.34V138.12A.34.34,0,0,0,101,137.78Z"/><path class="cls-3" d="M104.92,138H97.07a.3.3,0,1,1,0-.59h7.85a.3.3,0,1,1,0,.59Z"/><path class="cls-12" d="M104.94,137.78H97.08a.3.3,0,0,1-.28-.21.29.29,0,0,0,0,.09.3.3,0,0,0,.3.3h7.86a.29.29,0,0,0,.29-.3.28.28,0,0,0,0-.09A.3.3,0,0,1,104.94,137.78Z"/><path class="cls-2" d="M91.77,136.91a.34.34,0,0,0-.34-.34h-22a.34.34,0,0,0-.33.34h0a.33.33,0,0,0,.33.33h22a.34.34,0,0,0,.34-.33Z"/><path class="cls-3" d="M91.15,158.25h-.9V143.48A2.24,2.24,0,0,0,88,141.24H72.88a2.24,2.24,0,0,0-2.24,2.24v14.77h-.9V143.48a3.15,3.15,0,0,1,3.14-3.14H88a3.15,3.15,0,0,1,3.14,3.14Z"/><g class="cls-4"><path class="cls-3" d="M70.33,143.48v14.77h.31V143.48a2.24,2.24,0,0,1,2.24-2.24h-.31A2.24,2.24,0,0,0,70.33,143.48Z"/><path class="cls-3" d="M88,140.34H87.7a3.14,3.14,0,0,1,3.14,3.14v14.77h.31V143.48A3.15,3.15,0,0,0,88,140.34Z"/></g><path class="cls-5" d="M90,159.18a.77.77,0,0,1,1.54,0Z"/><path class="cls-5" d="M69.41,159.18a.77.77,0,0,1,1.54,0Z"/><path class="cls-6" d="M90.72,158.41H90.6a.77.77,0,0,1,.64.76h.25A.76.76,0,0,0,90.72,158.41Z"/><path class="cls-6" d="M70.18,158.41h-.12a.77.77,0,0,1,.64.76H71A.76.76,0,0,0,70.18,158.41Z"/><path class="cls-2" d="M91.4,139.25a.76.76,0,0,1-.76.76H70.27a.76.76,0,0,1-.77-.76V138a.76.76,0,0,1,.77-.76H90.64a.76.76,0,0,1,.76.76v1.25Z"/><path class="cls-2" d="M90.62,137.24H70.25a.77.77,0,0,0-.73.53.75.75,0,0,1,.52-.2H90.41a.76.76,0,0,1,.76.76v1.24a.93.93,0,0,1,0,.24.77.77,0,0,0,.25-.56V138A.76.76,0,0,0,90.62,137.24Z"/><path class="cls-2" d="M91.59,136.64a.32.32,0,0,1,.07.19.34.34,0,0,1-.34.33h-22a.31.31,0,0,1-.19-.06.35.35,0,0,0,.27.14h22a.34.34,0,0,0,.34-.33A.32.32,0,0,0,91.59,136.64Z"/><path class="cls-13" d="M85.45,144.4a.79.79,0,0,1-.77.82H76.3a.8.8,0,0,1-.77-.82v-.81a.8.8,0,0,1,.77-.83h8.38a.8.8,0,0,1,.77.83Z"/><ellipse class="cls-8" cx="80.45" cy="128.94" rx="4.73" ry="0.45"/><polygon class="cls-8" points="81.51 129.35 79.39 129.35 79.74 125.07 81.17 125.07 81.51 129.35"/><path class="cls-14" d="M74.7,120.07a5.5,5.5,0,1,1,5.49,5.49A5.49,5.49,0,0,1,74.7,120.07Z"/><circle class="cls-14" cx="80.2" cy="120.46" r="5.08"/><circle class="cls-14" cx="80.2" cy="120.85" r="4.65"/><circle class="cls-14" cx="80.2" cy="121.24" r="4.23"/><circle class="cls-14" cx="80.19" cy="121.64" r="3.81"/><circle class="cls-14" cx="80.19" cy="122.03" r="3.39"/><circle class="cls-14" cx="80.19" cy="122.42" r="2.97"/><circle class="cls-14" cx="80.19" cy="122.82" r="2.54"/><circle class="cls-14" cx="80.19" cy="123.21" r="2.12"/><circle class="cls-14" cx="80.19" cy="123.6" r="1.7"/><path class="cls-14" d="M75.53,114.23c.09.28,1.63,1.28,1.75,1.54-3.07,3.5-2.5,5.26-2.5,5.26A5.08,5.08,0,0,1,75.53,114.23Z"/><path class="cls-14" d="M82.27,120.61a9.7,9.7,0,0,1-7.54-6,7.23,7.23,0,0,1,1.2-.85,7.51,7.51,0,0,1,11.17,5.36,7.77,7.77,0,0,1,.08,1A9.63,9.63,0,0,1,82.27,120.61Z"/><path class="cls-10" d="M77.15,122.87l-.78-.59a5.14,5.14,0,0,1-2.23-4.22,5.38,5.38,0,0,1,5.31-5.26h-.19a5.38,5.38,0,0,0-5.5,5.26A5.17,5.17,0,0,0,76,122.28,5,5,0,0,0,77.15,122.87Z"/><circle class="cls-14" cx="76.97" cy="113.56" r="2.96"/><path class="cls-10" d="M74.94,111.41a2.5,2.5,0,0,0-.67,1.89,3,3,0,0,0,3,3,2.5,2.5,0,0,0,1.89-.67,3,3,0,1,1-4.18-4.18Z"/><path class="cls-10" d="M85.39,118.4c0,.11,0,.89,0,1a5.5,5.5,0,0,1-9.53,4.12l.11.15a5.5,5.5,0,0,0,9.66-4A4.67,4.67,0,0,0,85.39,118.4Z"/><circle class="cls-14" cx="75.96" cy="112.44" r="2.24"/><path class="cls-10" d="M74.38,113.66c0,.14,0,.21,0,.35a2.28,2.28,0,0,1-.63-1.52,2.22,2.22,0,0,1,1.48-2.16,2.56,2.56,0,0,0-1.25,2A2.33,2.33,0,0,0,74.38,113.66Z"/><path class="cls-9" d="M80.45,125.58a5.85,5.85,0,0,1-.73,0l0,.36a1.57,1.57,0,0,0,.76.14,2,2,0,0,0,.76-.14l0-.36A5.85,5.85,0,0,1,80.45,125.58Z"/><path class="cls-15" d="M84.5,128.59h-.93v0c0,.45-1.36.82-3,.82s-3-.37-3-.82v0h-1a2.43,2.43,0,0,0-2.3,2.54v9.52a2.43,2.43,0,0,0,2.3,2.54h8a2.43,2.43,0,0,0,2.29-2.54v-9.52A2.43,2.43,0,0,0,84.5,128.59Z"/><path class="cls-2" d="M87.3,133.8a.89.89,0,0,0-.9-.89h-12a.89.89,0,0,0-.89.89v5.5a.9.9,0,0,0,.89.9h12a.9.9,0,0,0,.9-.9Z"/><path class="cls-2" d="M86.85,133a.81.81,0,0,1,.05.27v5.49a.9.9,0,0,1-.9.9H74a1,1,0,0,1-.45-.12.89.89,0,0,0,.85.63h12a.9.9,0,0,0,.9-.9v-5.5A.89.89,0,0,0,86.85,133Z"/><path class="cls-3" d="M87.91,158.32H87v-7.75a2.24,2.24,0,0,0-2.24-2.24H76.13a2.24,2.24,0,0,0-2.25,2.24v7.75H73v-7.75a3.14,3.14,0,0,1,3.14-3.14h8.64a3.15,3.15,0,0,1,3.14,3.14Z"/><g class="cls-4"><path class="cls-3" d="M73.58,150.57v7.75h.3v-7.75a2.24,2.24,0,0,1,2.25-2.24h-.31A2.24,2.24,0,0,0,73.58,150.57Z"/><path class="cls-3" d="M84.77,147.43h-.31a3.15,3.15,0,0,1,3.14,3.14v7.75h.31v-7.75A3.15,3.15,0,0,0,84.77,147.43Z"/></g><path class="cls-5" d="M86.7,159.24a.77.77,0,0,1,1.54,0Z"/><path class="cls-5" d="M72.66,159.24a.77.77,0,0,1,1.54,0Z"/><path class="cls-6" d="M87.47,158.47h-.12a.77.77,0,0,1,.65.76h.24A.77.77,0,0,0,87.47,158.47Z"/><path class="cls-6" d="M73.43,158.47H73.3a.77.77,0,0,1,.65.76h.25A.78.78,0,0,0,73.43,158.47Z"/><path class="cls-2" d="M87.86,145a.9.9,0,0,0-.9-.9H73.84a.9.9,0,0,0-.9.9v.73a.89.89,0,0,0,.9.89H87a.89.89,0,0,0,.9-.89V145Z"/><path class="cls-2" d="M87,146.08H73.84a.89.89,0,0,1-.9-.89v.56a.89.89,0,0,0,.9.89H87a.89.89,0,0,0,.9-.89v-.56A.89.89,0,0,1,87,146.08Z"/><path class="cls-3" d="M80.37,148.6a.34.34,0,0,1-.34-.34V138.12a.34.34,0,0,1,.34-.34.34.34,0,0,1,.34.34v10.14A.34.34,0,0,1,80.37,148.6Z"/><path class="cls-12" d="M80.37,137.78h-.09a.36.36,0,0,1,.24.33v10.14a.36.36,0,0,1-.24.33h.09a.34.34,0,0,0,.34-.34V138.12A.34.34,0,0,0,80.37,137.78Z"/><path class="cls-3" d="M84.3,138H76.44a.3.3,0,0,1,0-.59H84.3a.3.3,0,1,1,0,.59Z"/><path class="cls-12" d="M84.31,137.78H76.46a.28.28,0,0,1-.28-.21.28.28,0,0,0,.28.39h7.85a.28.28,0,0,0,.28-.39A.29.29,0,0,1,84.31,137.78Z"/><path class="cls-11" d="M53.75,133.07a.77.77,0,0,0,.76.77h.19a.77.77,0,0,0,.77-.77v-2a.76.76,0,0,0-.77-.77h-.19a.76.76,0,0,0-.76.77Z"/><path class="cls-2" d="M71.13,136.91a.34.34,0,0,0-.33-.34h-22a.34.34,0,0,0-.33.34h0a.33.33,0,0,0,.33.33h22a.33.33,0,0,0,.33-.33Z"/><path class="cls-3" d="M70.51,158.25h-.89V143.48a2.24,2.24,0,0,0-2.25-2.24H52.24A2.24,2.24,0,0,0,50,143.48v14.77h-.9V143.48a3.15,3.15,0,0,1,3.14-3.14H67.37a3.14,3.14,0,0,1,3.14,3.14Z"/><g class="cls-4"><path class="cls-3" d="M49.69,143.48v14.77H50V143.48a2.24,2.24,0,0,1,2.24-2.24h-.3A2.24,2.24,0,0,0,49.69,143.48Z"/><path class="cls-3" d="M67.37,140.34h-.3a3.15,3.15,0,0,1,3.14,3.14v14.77h.3V143.48A3.14,3.14,0,0,0,67.37,140.34Z"/></g><path class="cls-5" d="M69.31,159.18a.77.77,0,0,1,1.54,0Z"/><path class="cls-5" d="M48.77,159.18a.78.78,0,0,1,1.55,0Z"/><path class="cls-6" d="M70.08,158.41H70a.77.77,0,0,1,.64.76h.25A.76.76,0,0,0,70.08,158.41Z"/><path class="cls-6" d="M49.54,158.41h-.12a.77.77,0,0,1,.65.76h.25A.77.77,0,0,0,49.54,158.41Z"/><path class="cls-2" d="M70.76,139.25A.76.76,0,0,1,70,140H49.63a.77.77,0,0,1-.77-.76V138a.77.77,0,0,1,.77-.76H70a.76.76,0,0,1,.76.76v1.25Z"/><path class="cls-2" d="M70,137.24H49.61a.77.77,0,0,0-.73.53.75.75,0,0,1,.52-.2H69.77a.76.76,0,0,1,.76.76v1.24a.93.93,0,0,1,0,.24.77.77,0,0,0,.25-.56V138A.76.76,0,0,0,70,137.24Z"/><path class="cls-2" d="M71,136.64a.31.31,0,0,1,.06.19.33.33,0,0,1-.33.33h-22a.31.31,0,0,1-.19-.06.35.35,0,0,0,.27.14h22a.33.33,0,0,0,.19-.6Z"/><path class="cls-16" d="M64.75,144.4a.79.79,0,0,1-.77.82H55.61a.8.8,0,0,1-.78-.82v-.81a.81.81,0,0,1,.78-.83H64a.8.8,0,0,1,.77.83v.81Z"/><path class="cls-7" d="M65.08,131.61a.6.6,0,0,1-.61.6H55.29a.61.61,0,0,1-.61-.6v-1.05a.61.61,0,0,1,.61-.6h9.18a.6.6,0,0,1,.61.6v1.05Z"/><path class="cls-7" d="M65.08,133.84a.6.6,0,0,1-.61.6H55.29a.61.61,0,0,1-.61-.6v-1.05a.61.61,0,0,1,.61-.6h9.18a.6.6,0,0,1,.61.6v1.05Z"/><path class="cls-17" d="M55,133.84v-1a.6.6,0,0,1,.47-.6.59.59,0,0,1-.47-.59v-1a.6.6,0,0,1,.59-.61h-.33a.59.59,0,0,0-.58.61v1a.59.59,0,0,0,.46.59.61.61,0,0,0-.46.6v1a.59.59,0,0,0,.58.61h.33A.6.6,0,0,1,55,133.84Z"/><path class="cls-17" d="M65.06,131.61v-1a.6.6,0,0,0-.59-.61h-.32a.59.59,0,0,1,.58.61v1a.59.59,0,0,1-.46.59.61.61,0,0,1,.46.6v1a.59.59,0,0,1-.58.61h.32a.6.6,0,0,0,.59-.61v-1a.6.6,0,0,0-.47-.6A.59.59,0,0,0,65.06,131.61Z"/><path class="cls-7" d="M65.08,140.35a.61.61,0,0,1-.61.61H55.29a.61.61,0,0,1-.61-.61v-1a.61.61,0,0,1,.61-.61h9.18a.61.61,0,0,1,.61.61v1Z"/><path class="cls-7" d="M65.08,142.58a.61.61,0,0,1-.61.61H55.29a.61.61,0,0,1-.61-.61v-1a.61.61,0,0,1,.61-.61h9.18a.61.61,0,0,1,.61.61v1Z"/><path class="cls-17" d="M55,142.59v-1.05a.61.61,0,0,0,0-1.18v-1.05a.6.6,0,0,1,.59-.6h-.33a.59.59,0,0,0-.58.6v1.05a.61.61,0,0,1,0,1.18v1.05a.59.59,0,0,0,.58.6h.33A.6.6,0,0,1,55,142.59Z"/><path class="cls-17" d="M65.06,140.36v-1.05a.6.6,0,0,0-.59-.6h-.32a.59.59,0,0,1,.58.6v1.05a.61.61,0,0,0,0,1.18v1.05a.59.59,0,0,1-.58.6h.32a.6.6,0,0,0,.59-.6v-1.05a.61.61,0,0,1,0-1.18Z"/><path class="cls-7" d="M64.82,136.67a.58.58,0,0,1-.58.58H55.52a.57.57,0,0,1-.57-.58v-1a.56.56,0,0,1,.57-.57h8.72a.57.57,0,0,1,.58.57v1Z"/><path class="cls-7" d="M64.82,138.79a.58.58,0,0,1-.58.58H55.52a.57.57,0,0,1-.57-.58v-1a.57.57,0,0,1,.57-.58h8.72a.58.58,0,0,1,.58.58Z"/><path class="cls-17" d="M55.27,138.8v-1a.58.58,0,0,0,0-1.12v-1a.57.57,0,0,1,.55-.57h-.3a.57.57,0,0,0-.56.57v1a.58.58,0,0,1,0,1.12v1a.57.57,0,0,0,.56.57h.3A.57.57,0,0,1,55.27,138.8Z"/><path class="cls-17" d="M64.79,136.68v-1a.56.56,0,0,0-.55-.57h-.31a.57.57,0,0,1,.56.57v1a.58.58,0,0,0,0,1.12v1a.57.57,0,0,1-.56.57h.31a.56.56,0,0,0,.55-.57v-1a.58.58,0,0,1,0-1.12Z"/><path class="cls-2" d="M63,129.52a.78.78,0,0,1-.78.79h0a.79.79,0,0,1-.79-.79V127a.79.79,0,0,1,.79-.78h0A.78.78,0,0,1,63,127Z"/><path class="cls-2" d="M58.24,129.39a.78.78,0,0,1-.78.78h0a.78.78,0,0,1-.78-.78v-2.54a.78.78,0,0,1,.78-.78h0a.78.78,0,0,1,.78.78Z"/><polygon class="cls-8" points="59.07 129.79 61.04 129.79 60.72 125.81 59.39 125.81 59.07 129.79"/><path class="cls-7" d="M63.85,130.22a.46.46,0,0,1-.46.45h-6.9a.46.46,0,0,1-.46-.45v-.79a.46.46,0,0,1,.46-.45h6.9a.46.46,0,0,1,.46.45Z"/><g class="cls-4"><path class="cls-7" d="M56.28,130.22v-.79a.45.45,0,0,1,.44-.45h-.25a.45.45,0,0,0-.44.45v.79a.45.45,0,0,0,.44.45h.25A.45.45,0,0,1,56.28,130.22Z"/><path class="cls-7" d="M63.43,129h-.25a.45.45,0,0,1,.44.45v.79a.45.45,0,0,1-.44.45h.25a.45.45,0,0,0,.44-.45v-.79A.45.45,0,0,0,63.43,129Z"/></g><path class="cls-18" d="M58.42,112l1.52-1.12a1.64,1.64,0,0,0,.63-1.48l.14.19a1.59,1.59,0,0,1-.3,2.22l-1.58,1.17Z"/><path class="cls-18" d="M59.31,112.53l1.52-1.13a1.59,1.59,0,0,0,.63-1.47l.14.18a1.59,1.59,0,0,1-.3,2.22l-1.58,1.18Z"/><path class="cls-18" d="M60.46,112.47l1.61-1.19a1.72,1.72,0,0,0,.67-1.57l.15.2a1.68,1.68,0,0,1-.32,2.35l-1.68,1.25Z"/><path class="cls-18" d="M61.49,113,63,111.9a1.61,1.61,0,0,0,.62-1.48l.15.19a1.59,1.59,0,0,1-.31,2.22L61.9,114Z"/><path class="cls-18" d="M61.59,112.51l2.07-.12a1.78,1.78,0,0,0,1.46-1l0,.26a1.73,1.73,0,0,1-1.61,1.85l-2.15.13Z"/><path class="cls-18" d="M54.9,120a5.15,5.15,0,1,1,5.15,5.2A5.17,5.17,0,0,1,54.9,120Z"/><path class="cls-18" d="M55.29,120.46a4.76,4.76,0,1,1,4.76,4.8A4.78,4.78,0,0,1,55.29,120.46Z"/><path class="cls-18" d="M55.69,121a4.36,4.36,0,1,1,4.36,4.4A4.37,4.37,0,0,1,55.69,121Z"/><path class="cls-18" d="M56.09,121.46a4,4,0,1,1,4,4A4,4,0,0,1,56.09,121.46Z"/><path class="cls-18" d="M56.48,122a3.57,3.57,0,1,1,3.57,3.59A3.58,3.58,0,0,1,56.48,122Z"/><path class="cls-18" d="M56.88,122.46a3.17,3.17,0,1,1,3.17,3.18A3.18,3.18,0,0,1,56.88,122.46Z"/><path class="cls-18" d="M57.28,123a2.77,2.77,0,1,1,2.77,2.78A2.78,2.78,0,0,1,57.28,123Z"/><path class="cls-18" d="M57.68,123.45a2.37,2.37,0,1,1,2.37,2.39A2.38,2.38,0,0,1,57.68,123.45Z"/><path class="cls-18" d="M58.07,124a2,2,0,1,1,2,2A2,2,0,0,1,58.07,124Z"/><path class="cls-18" d="M58.47,124.45A1.58,1.58,0,1,1,60.05,126,1.57,1.57,0,0,1,58.47,124.45Z"/><path class="cls-18" d="M62.55,116.06a7.21,7.21,0,0,1-7.13-.36,5.21,5.21,0,0,1,.35-1,5.57,5.57,0,0,1,9.07-1.58,4.84,4.84,0,0,1,.46.54A7.21,7.21,0,0,1,62.55,116.06Z"/><path class="cls-18" d="M55.72,114.55c.08.26.86,1.57,1,1.81-2.25,3-1.67,4.49-1.67,4.49A4.71,4.71,0,0,1,55.72,114.55Z"/><path class="cls-18" d="M64.05,113.74c-.08.29-.91,1.8-1,2.08,2.79,3.32,2.07,5,2.07,5A5.31,5.31,0,0,0,64.05,113.74Z"/><path class="cls-18" d="M64.76,112.15l.14.12a1.27,1.27,0,0,1,.18,1.78s-1.53,1.61-2,1.68c-.32-.51.52-1.16.52-1.16l1-1.16a1,1,0,0,0,.18-.29c-.09,0-.18-.08-.19-.21a.2.2,0,0,1,0-.11.17.17,0,0,0,.16.09"/><path class="cls-19" d="M64.59,121.4A5.07,5.07,0,0,1,62.74,124l-.25.19a2.54,2.54,0,0,1-.24.2l-.24.19-.24.19-.26.2a1.5,1.5,0,0,1-.24.18l-.24.2a1.88,1.88,0,0,1-.24.18,1.58,1.58,0,0,1-.91.43h.18a1.55,1.55,0,0,0,1.08-.44,1.3,1.3,0,0,0,.23-.18,2.43,2.43,0,0,0,.25-.2l.24-.18.26-.2.24-.19.24-.19.24-.2a1.55,1.55,0,0,0,.24-.19,5.1,5.1,0,0,0,2-3.21A5.37,5.37,0,0,1,64.59,121.4Z"/><path class="cls-19" d="M66,117.86a5.11,5.11,0,0,0-5.1-5.11h-.18a5.1,5.1,0,0,1,4.93,5.1,5,5,0,0,1-.53,2.26,5.35,5.35,0,0,1-.07.7A5.07,5.07,0,0,0,66,117.86Z"/><path class="cls-19" d="M65.08,120.82a5.35,5.35,0,0,0,.07-.7,5,5,0,0,1-.42.7,3.77,3.77,0,0,1-.14.58A5.37,5.37,0,0,0,65.08,120.82Z"/><path class="cls-19" d="M65.08,120.82a5.35,5.35,0,0,0,.07-.7,5,5,0,0,1-.42.7,3.77,3.77,0,0,1-.14.58A5.37,5.37,0,0,0,65.08,120.82Z"/><path class="cls-20" d="M62.39,127.77a2.6,2.6,0,0,1-5.17,0"/><path class="cls-2" d="M66.72,133.8a.89.89,0,0,0-.89-.89h-12a.89.89,0,0,0-.89.89v5.5a.9.9,0,0,0,.89.9h12a.9.9,0,0,0,.89-.9Z"/><path class="cls-2" d="M66.28,133a1.17,1.17,0,0,1,0,.27v5.49a.9.9,0,0,1-.9.9h-12a1,1,0,0,1-.45-.12.9.9,0,0,0,.85.63h12a.9.9,0,0,0,.89-.9v-5.5A.9.9,0,0,0,66.28,133Z"/><path class="cls-3" d="M67.33,158.32h-.9v-7.75a2.24,2.24,0,0,0-2.24-2.24H55.55a2.24,2.24,0,0,0-2.24,2.24v7.75h-.9v-7.75a3.15,3.15,0,0,1,3.14-3.14h8.64a3.15,3.15,0,0,1,3.14,3.14Z"/><g class="cls-4"><path class="cls-3" d="M53,150.57v7.75h.31v-7.75a2.24,2.24,0,0,1,2.24-2.24h-.31A2.24,2.24,0,0,0,53,150.57Z"/><path class="cls-3" d="M64.19,147.43h-.31A3.15,3.15,0,0,1,67,150.57v7.75h.31v-7.75A3.15,3.15,0,0,0,64.19,147.43Z"/></g><path class="cls-5" d="M66.13,159.24a.77.77,0,0,1,1.54,0Z"/><path class="cls-5" d="M52.08,159.24a.77.77,0,0,1,1.54,0Z"/><path class="cls-6" d="M66.9,158.47h-.13a.77.77,0,0,1,.65.76h.25A.78.78,0,0,0,66.9,158.47Z"/><path class="cls-6" d="M52.85,158.47h-.12a.77.77,0,0,1,.64.76h.25A.77.77,0,0,0,52.85,158.47Z"/><path class="cls-2" d="M67.28,145a.9.9,0,0,0-.9-.9H53.26a.9.9,0,0,0-.9.9v.73a.89.89,0,0,0,.9.89H66.38a.89.89,0,0,0,.9-.89V145Z"/><path class="cls-2" d="M66.38,146.08H53.26a.89.89,0,0,1-.9-.89v.56a.89.89,0,0,0,.9.89H66.38a.89.89,0,0,0,.9-.89v-.56A.89.89,0,0,1,66.38,146.08Z"/><path class="cls-3" d="M59.79,148.6a.34.34,0,0,1-.33-.34V138.12a.34.34,0,1,1,.67,0v10.14A.34.34,0,0,1,59.79,148.6Z"/><path class="cls-12" d="M59.79,137.78H59.7a.35.35,0,0,1,.24.33v10.14a.35.35,0,0,1-.24.33h.09a.34.34,0,0,0,.34-.34V138.12A.34.34,0,0,0,59.79,137.78Z"/><path class="cls-3" d="M63.72,138H55.87a.3.3,0,1,1,0-.59h7.85a.3.3,0,1,1,0,.59Z"/><path class="cls-12" d="M63.74,137.78H55.88a.3.3,0,0,1-.28-.21.28.28,0,0,0,.28.39h7.86a.29.29,0,0,0,.29-.3.28.28,0,0,0,0-.09A.3.3,0,0,1,63.74,137.78Z"/><path class="cls-15" d="M32.41,133.07a.78.78,0,0,0,.77.77h.19a.77.77,0,0,0,.76-.77v-2a.76.76,0,0,0-.76-.77h-.19a.77.77,0,0,0-.77.77Z"/><path class="cls-2" d="M50,136.91a.34.34,0,0,0-.33-.34h-22a.34.34,0,0,0-.33.34h0a.33.33,0,0,0,.33.33h22a.33.33,0,0,0,.33-.33Z"/><path class="cls-3" d="M49.34,158.25h-.9V143.48a2.24,2.24,0,0,0-2.24-2.24H31.07a2.24,2.24,0,0,0-2.25,2.24v14.77h-.89V143.48a3.15,3.15,0,0,1,3.14-3.14H46.2a3.15,3.15,0,0,1,3.14,3.14v14.77Z"/><g class="cls-4"><path class="cls-3" d="M28.52,143.48v14.77h.3V143.48a2.24,2.24,0,0,1,2.25-2.24h-.31A2.24,2.24,0,0,0,28.52,143.48Z"/><path class="cls-3" d="M46.2,140.34h-.31A3.15,3.15,0,0,1,49,143.48v14.77h.31V143.48A3.15,3.15,0,0,0,46.2,140.34Z"/></g><path class="cls-5" d="M48.14,159.18a.77.77,0,1,1,1.54,0Z"/><path class="cls-5" d="M27.6,159.18a.77.77,0,0,1,1.54,0Z"/><path class="cls-6" d="M48.91,158.41h-.13a.77.77,0,0,1,.65.76h.25A.77.77,0,0,0,48.91,158.41Z"/><path class="cls-6" d="M28.37,158.41h-.13a.77.77,0,0,1,.65.76h.25A.77.77,0,0,0,28.37,158.41Z"/><path class="cls-2" d="M49.59,139.25a.77.77,0,0,1-.77.76H28.45a.76.76,0,0,1-.76-.76V138a.76.76,0,0,1,.76-.76H48.82a.77.77,0,0,1,.77.76v1.25Z"/><path class="cls-2" d="M48.8,137.24H28.43a.75.75,0,0,0-.72.53.71.71,0,0,1,.51-.2H48.59a.77.77,0,0,1,.77.76v1.24a.93.93,0,0,1,0,.24.77.77,0,0,0,.25-.56V138A.77.77,0,0,0,48.8,137.24Z"/><path class="cls-2" d="M49.78,136.64a.31.31,0,0,1,.06.19.33.33,0,0,1-.33.33h-22a.33.33,0,0,1-.19-.06.35.35,0,0,0,.27.14h22a.33.33,0,0,0,.33-.33A.31.31,0,0,0,49.78,136.64Z"/><path class="cls-21" d="M43.67,144.4a.79.79,0,0,1-.77.82H34.53a.79.79,0,0,1-.77-.82v-.81a.8.8,0,0,1,.77-.83H42.9a.8.8,0,0,1,.77.83Z"/><path class="cls-15" d="M44.18,142.19a.74.74,0,0,1-.76.72H33.85a.74.74,0,0,1-.76-.72v-11.3a.74.74,0,0,1,.76-.72h9.57a.74.74,0,0,1,.76.72v11.3Z"/><polygon class="cls-8" points="37.66 129.79 39.63 129.79 39.3 125.81 37.98 125.81 37.66 129.79"/><path class="cls-11" d="M41.25,130.08a.3.3,0,0,1-.3.31H36.38a.3.3,0,0,1-.3-.31v-.52a.3.3,0,0,1,.3-.3H41a.3.3,0,0,1,.3.3Z"/><g class="cls-4"><path class="cls-11" d="M36.24,130.08v-.52a.3.3,0,0,1,.29-.3h-.17a.3.3,0,0,0-.29.3v.52a.3.3,0,0,0,.29.31h.17A.3.3,0,0,1,36.24,130.08Z"/><path class="cls-11" d="M41,129.26H40.8a.3.3,0,0,1,.29.3v.52a.3.3,0,0,1-.29.31H41a.3.3,0,0,0,.29-.31v-.52A.3.3,0,0,0,41,129.26Z"/></g><path class="cls-22" d="M37,112l1.52-1.12a1.64,1.64,0,0,0,.63-1.48l.14.19a1.59,1.59,0,0,1-.3,2.22L37.42,113Z"/><path class="cls-22" d="M37.9,112.55l1.52-1.12a1.62,1.62,0,0,0,.63-1.48l.14.19a1.59,1.59,0,0,1-.3,2.22l-1.58,1.17Z"/><path class="cls-22" d="M39.05,112.48l1.61-1.2a1.73,1.73,0,0,0,.67-1.56l.15.2a1.68,1.68,0,0,1-.32,2.35l-1.68,1.24Z"/><path class="cls-22" d="M40.08,113l1.52-1.13a1.58,1.58,0,0,0,.62-1.47l.15.19a1.58,1.58,0,0,1-.31,2.21L40.49,114Z"/><path class="cls-22" d="M40.56,112.52l2.08-.12a1.8,1.8,0,0,0,1.46-1v.25a1.74,1.74,0,0,1-1.61,1.86l-2.15.13Z"/><ellipse class="cls-22" cx="38.64" cy="119.97" rx="5.15" ry="5.2"/><ellipse class="cls-22" cx="38.64" cy="120.47" rx="4.75" ry="4.8"/><ellipse class="cls-22" cx="38.64" cy="120.97" rx="4.36" ry="4.39"/><ellipse class="cls-22" cx="38.64" cy="121.46" rx="3.96" ry="3.99"/><ellipse class="cls-22" cx="38.64" cy="121.96" rx="3.56" ry="3.59"/><ellipse class="cls-22" cx="38.64" cy="122.46" rx="3.16" ry="3.19"/><ellipse class="cls-22" cx="38.64" cy="122.96" rx="2.77" ry="2.78"/><ellipse class="cls-22" cx="38.64" cy="123.46" rx="2.37" ry="2.38"/><ellipse class="cls-22" cx="38.64" cy="123.95" rx="1.97" ry="1.98"/><circle class="cls-22" cx="38.64" cy="124.45" r="1.58"/><path class="cls-22" d="M41.14,116.08a7.19,7.19,0,0,1-7.13-.36,5.53,5.53,0,0,1,2.31-3.34,5.58,5.58,0,0,1,7.11.73,6,6,0,0,1,.46.54A7.21,7.21,0,0,1,41.14,116.08Z"/><path class="cls-22" d="M34.31,114.55c.08.26.86,1.57,1,1.81-2.25,3-1.67,4.49-1.67,4.49A4.71,4.71,0,0,1,34.31,114.55Z"/><path class="cls-22" d="M42.64,113.74c-.08.3-.91,1.81-1,2.08,2.79,3.33,2.07,5,2.07,5A5.32,5.32,0,0,0,42.64,113.74Z"/><path class="cls-22" d="M43.35,112.16l.14.11a1.28,1.28,0,0,1,.18,1.79s-1.53,1.6-2,1.67c-.32-.5.52-1.15.52-1.15l1-1.16a1,1,0,0,0,.18-.29c-.09,0-.18-.08-.19-.21a.2.2,0,0,1,0-.11.17.17,0,0,0,.16.09"/><path class="cls-23" d="M43.26,114.45l-.24-.28a5.61,5.61,0,0,0,.93-.73A1.8,1.8,0,0,1,43.26,114.45Z"/><path class="cls-19" d="M39.5,112.75h-.18a5.1,5.1,0,0,1,4.93,5.1,5,5,0,0,1-.53,2.26,5,5,0,0,1-.42.7,3.77,3.77,0,0,1-.14.58A5.07,5.07,0,0,1,41.31,124l-.24.19-.25.2-.24.19-.24.19-.26.2a1.5,1.5,0,0,1-.24.18,2.31,2.31,0,0,1-.24.2,1.88,1.88,0,0,1-.24.18,1.58,1.58,0,0,1-.91.43h.18a1.55,1.55,0,0,0,1.08-.44,1.3,1.3,0,0,0,.23-.18,2.43,2.43,0,0,0,.25-.2l.24-.18.26-.2.24-.19.24-.19.24-.2a1.55,1.55,0,0,0,.24-.19,5.06,5.06,0,0,0,2-3.21,5.1,5.1,0,0,0-4.15-8.07Z"/><path class="cls-2" d="M45.55,133.8a.89.89,0,0,0-.9-.89h-12a.89.89,0,0,0-.9.89v5.5a.9.9,0,0,0,.9.9h12a.9.9,0,0,0,.9-.9Z"/><path class="cls-2" d="M45.1,133a.81.81,0,0,1,0,.27v5.49a.9.9,0,0,1-.9.9h-12a.94.94,0,0,1-.45-.12.89.89,0,0,0,.85.63h12a.9.9,0,0,0,.9-.9v-5.5A.89.89,0,0,0,45.1,133Z"/><path class="cls-3" d="M46.15,158.32h-.89v-7.75A2.24,2.24,0,0,0,43,148.33H34.37a2.24,2.24,0,0,0-2.24,2.24v7.75h-.9v-7.75a3.15,3.15,0,0,1,3.14-3.14H43a3.15,3.15,0,0,1,3.14,3.14Z"/><g class="cls-4"><path class="cls-3" d="M31.82,150.57v7.75h.31v-7.75a2.24,2.24,0,0,1,2.24-2.24h-.3A2.24,2.24,0,0,0,31.82,150.57Z"/><path class="cls-3" d="M43,147.43H42.7a3.14,3.14,0,0,1,3.14,3.14v7.75h.3v-7.75A3.15,3.15,0,0,0,43,147.43Z"/></g><path class="cls-5" d="M45,159.24a.77.77,0,1,1,1.54,0Z"/><path class="cls-5" d="M30.9,159.24a.78.78,0,0,1,1.55,0Z"/><path class="cls-6" d="M45.72,158.47H45.6a.77.77,0,0,1,.64.76h.25A.77.77,0,0,0,45.72,158.47Z"/><path class="cls-6" d="M31.68,158.47h-.13a.77.77,0,0,1,.65.76h.25A.78.78,0,0,0,31.68,158.47Z"/><path class="cls-2" d="M46.1,145a.89.89,0,0,0-.89-.9H32.08a.89.89,0,0,0-.89.9v.73a.89.89,0,0,0,.89.89H45.21a.89.89,0,0,0,.89-.89Z"/><path class="cls-2" d="M45.21,146.08H32.08a.89.89,0,0,1-.89-.89v.56a.89.89,0,0,0,.89.89H45.21a.89.89,0,0,0,.89-.89v-.56A.89.89,0,0,1,45.21,146.08Z"/><path class="cls-3" d="M38.62,148.6a.34.34,0,0,1-.34-.34V138.12a.34.34,0,1,1,.67,0v10.14A.34.34,0,0,1,38.62,148.6Z"/><path class="cls-12" d="M38.62,137.78h-.1a.35.35,0,0,1,.24.33v10.14a.35.35,0,0,1-.24.33h.1a.34.34,0,0,0,.33-.34V138.12A.34.34,0,0,0,38.62,137.78Z"/><path class="cls-3" d="M42.55,138H34.69a.3.3,0,1,1,0-.59h7.86a.3.3,0,0,1,0,.59Z"/><path class="cls-12" d="M42.56,137.78H34.7a.3.3,0,0,1-.28-.21.28.28,0,0,0,0,.09.29.29,0,0,0,.29.3h7.86a.3.3,0,0,0,.3-.3.29.29,0,0,0,0-.09A.3.3,0,0,1,42.56,137.78Z"/><path class="cls-2" d="M29.86,136.91a.34.34,0,0,0-.33-.34h-22a.34.34,0,0,0-.33.34h0a.33.33,0,0,0,.33.33h22a.33.33,0,0,0,.33-.33Z"/><path class="cls-3" d="M29.25,158.25h-.9V143.48a2.24,2.24,0,0,0-2.24-2.24H11a2.24,2.24,0,0,0-2.25,2.24v14.77H7.84V143.48A3.14,3.14,0,0,1,11,140.34H26.11a3.15,3.15,0,0,1,3.14,3.14Z"/><g class="cls-4"><path class="cls-3" d="M8.43,143.48v14.77h.3V143.48A2.24,2.24,0,0,1,11,141.24h-.31A2.24,2.24,0,0,0,8.43,143.48Z"/><path class="cls-3" d="M26.11,140.34H25.8a3.15,3.15,0,0,1,3.14,3.14v14.77h.31V143.48A3.15,3.15,0,0,0,26.11,140.34Z"/></g><path class="cls-5" d="M28,159.18a.78.78,0,0,1,1.55,0Z"/><path class="cls-5" d="M7.51,159.18a.77.77,0,0,1,1.54,0Z"/><path class="cls-6" d="M28.81,158.41h-.12a.77.77,0,0,1,.65.76h.25A.77.77,0,0,0,28.81,158.41Z"/><path class="cls-6" d="M8.28,158.41H8.15a.77.77,0,0,1,.65.76h.25A.77.77,0,0,0,8.28,158.41Z"/><path class="cls-2" d="M29.49,139.25a.76.76,0,0,1-.76.76H8.36a.76.76,0,0,1-.76-.76V138a.76.76,0,0,1,.76-.76H28.73a.76.76,0,0,1,.76.76v1.25Z"/><path class="cls-2" d="M28.71,137.24H8.34a.75.75,0,0,0-.72.53.71.71,0,0,1,.51-.2H28.5a.76.76,0,0,1,.76.76v1.24a.64.64,0,0,1,0,.24.73.73,0,0,0,.25-.56V138A.76.76,0,0,0,28.71,137.24Z"/><path class="cls-2" d="M29.69,136.64a.31.31,0,0,1,.06.19.33.33,0,0,1-.33.33h-22a.33.33,0,0,1-.19-.06.35.35,0,0,0,.27.14h22a.33.33,0,0,0,.19-.6Z"/><path class="cls-7" d="M23.5,144.4a.8.8,0,0,1-.77.82H14.35a.8.8,0,0,1-.77-.82v-.81a.8.8,0,0,1,.77-.83h8.38a.8.8,0,0,1,.77.83v.81Z"/><polygon class="cls-8" points="19.71 129.35 17.58 129.35 17.93 125.07 19.36 125.07 19.71 129.35"/><path class="cls-9" d="M18.64,125.55a4.49,4.49,0,0,1-.73-.06l0,.55a1.08,1.08,0,0,0,.76.23,1.39,1.39,0,0,0,.77-.23l0-.55A4.52,4.52,0,0,1,18.64,125.55Z"/><path class="cls-24" d="M13.41,119.52a5.5,5.5,0,1,1,5.5,5.5A5.5,5.5,0,0,1,13.41,119.52Z"/><path class="cls-24" d="M13.41,119.52a5.5,5.5,0,1,1,5.5,5.5A5.5,5.5,0,0,1,13.41,119.52Z"/><path class="cls-24" d="M13.41,119.52a5.5,5.5,0,1,1,5.5,5.5A5.5,5.5,0,0,1,13.41,119.52Z"/><path class="cls-24" d="M13.41,119.52a5.5,5.5,0,1,1,5.5,5.5A5.5,5.5,0,0,1,13.41,119.52Z"/><path class="cls-24" d="M13.41,119.52a5.5,5.5,0,1,1,5.5,5.5A5.5,5.5,0,0,1,13.41,119.52Z"/><path class="cls-24" d="M13.41,119.52a5.5,5.5,0,1,1,5.5,5.5A5.5,5.5,0,0,1,13.41,119.52Z"/><path class="cls-24" d="M13.41,119.52a5.5,5.5,0,1,1,5.5,5.5A5.5,5.5,0,0,1,13.41,119.52Z"/><path class="cls-24" d="M13.41,119.52a5.5,5.5,0,1,1,5.5,5.5A5.5,5.5,0,0,1,13.41,119.52Z"/><path class="cls-24" d="M13.41,119.52a5.5,5.5,0,1,1,5.5,5.5A5.5,5.5,0,0,1,13.41,119.52Z"/><path class="cls-24" d="M13.41,119.52a5.5,5.5,0,1,1,5.5,5.5A5.5,5.5,0,0,1,13.41,119.52Z"/><path class="cls-24" d="M13.41,119.52a5.5,5.5,0,1,1,5.5,5.5A5.5,5.5,0,0,1,13.41,119.52Z"/><path class="cls-24" d="M13.41,119.52a5.5,5.5,0,1,1,5.5,5.5A5.5,5.5,0,0,1,13.41,119.52Z"/><path class="cls-24" d="M13.41,119.52a5.5,5.5,0,1,1,5.5,5.5A5.5,5.5,0,0,1,13.41,119.52Z"/><path class="cls-24" d="M13.41,119.52a5.5,5.5,0,1,1,5.5,5.5A5.5,5.5,0,0,1,13.41,119.52Z"/><path class="cls-24" d="M13.41,119.52a5.5,5.5,0,1,1,5.5,5.5A5.5,5.5,0,0,1,13.41,119.52Z"/><path class="cls-24" d="M13.41,119.52a5.5,5.5,0,1,1,5.5,5.5A5.5,5.5,0,0,1,13.41,119.52Z"/><path class="cls-24" d="M13.41,119.52a5.5,5.5,0,1,1,5.5,5.5A5.5,5.5,0,0,1,13.41,119.52Z"/><path class="cls-24" d="M13.41,119.52a5.5,5.5,0,1,1,5.5,5.5A5.5,5.5,0,0,1,13.41,119.52Z"/><path class="cls-24" d="M13.41,119.52a5.5,5.5,0,1,1,5.5,5.5A5.5,5.5,0,0,1,13.41,119.52Z"/><path class="cls-24" d="M13.83,120a5.08,5.08,0,1,1,5.08,5.08A5.08,5.08,0,0,1,13.83,120Z"/><path class="cls-24" d="M14.25,120.43a4.66,4.66,0,1,1,4.66,4.65A4.66,4.66,0,0,1,14.25,120.43Z"/><path class="cls-24" d="M14.67,120.88a4.23,4.23,0,1,1,4.23,4.23A4.23,4.23,0,0,1,14.67,120.88Z"/><circle class="cls-24" cx="18.9" cy="121.33" r="3.81"/><circle class="cls-24" cx="18.89" cy="121.79" r="3.39"/><circle class="cls-24" cx="18.89" cy="122.24" r="2.97"/><circle class="cls-24" cx="18.89" cy="122.7" r="2.54"/><circle class="cls-24" cx="18.88" cy="123.15" r="2.12"/><circle class="cls-24" cx="18.88" cy="123.6" r="1.7"/><path class="cls-24" d="M14.21,114.23c.09.28,1.63,1.28,1.75,1.54-3.07,3.5-2.5,5.26-2.5,5.26A5.1,5.1,0,0,1,14.21,114.23Z"/><path class="cls-24" d="M21,120.61a9.68,9.68,0,0,1-7.53-6,6.76,6.76,0,0,1,1.19-.85,7.51,7.51,0,0,1,11.17,5.36,6.22,6.22,0,0,1,.08,1A9.63,9.63,0,0,1,21,120.61Z"/><path class="cls-24" d="M19.42,120.33l-.06-.16a7.34,7.34,0,0,0-.94-2.64,7.53,7.53,0,0,0-4.56-3.46,10.49,10.49,0,0,0-1.34,10.23,9.56,9.56,0,0,0,2.55,3.54,14.09,14.09,0,0,0,.83,1.41,4.78,4.78,0,0,0,.75-.27C19.34,127.75,20.57,124.15,19.42,120.33Z"/><g class="cls-4"><path class="cls-24" d="M19.42,120.33l-.06-.16a7.32,7.32,0,0,0-.4-1.51,7.28,7.28,0,0,1,.29,1.52l.05.17c.88,3.89-.61,7.4-3.37,8.43l-.28.09.25.38a4.78,4.78,0,0,0,.75-.27C19.34,127.75,20.57,124.15,19.42,120.33Z"/></g><ellipse class="cls-8" cx="18.74" cy="129.11" rx="4.73" ry="0.45"/><path class="cls-21" d="M22.65,128.76h-.93s0,0,0,0c0,.45-1.37.81-3.06.81s-3.05-.36-3.05-.81v0h-1a2.41,2.41,0,0,0-2.29,2.51v9.41a2.4,2.4,0,0,0,2.29,2.51h8a2.4,2.4,0,0,0,2.29-2.51v-9.41A2.41,2.41,0,0,0,22.65,128.76Z"/><path class="cls-2" d="M25.46,133.8a.9.9,0,0,0-.9-.89h-12a.89.89,0,0,0-.9.89v5.5a.9.9,0,0,0,.9.9h12a.91.91,0,0,0,.9-.9Z"/><path class="cls-2" d="M25,133a.8.8,0,0,1,0,.27v5.49a.89.89,0,0,1-.89.9h-12a.93.93,0,0,1-.44-.12.89.89,0,0,0,.85.63h12a.91.91,0,0,0,.9-.9v-5.5A.91.91,0,0,0,25,133Z"/><path class="cls-3" d="M26.06,158.32h-.9v-7.75a2.24,2.24,0,0,0-2.24-2.24H14.28A2.24,2.24,0,0,0,12,150.57v7.75h-.9v-7.75a3.15,3.15,0,0,1,3.14-3.14h8.64a3.15,3.15,0,0,1,3.14,3.14Z"/><g class="cls-4"><path class="cls-3" d="M11.73,150.57v7.75H12v-7.75a2.24,2.24,0,0,1,2.24-2.24H14A2.24,2.24,0,0,0,11.73,150.57Z"/><path class="cls-3" d="M22.92,147.43h-.31a3.15,3.15,0,0,1,3.14,3.14v7.75h.31v-7.75A3.15,3.15,0,0,0,22.92,147.43Z"/></g><path class="cls-5" d="M24.86,159.24a.77.77,0,0,1,1.54,0Z"/><path class="cls-5" d="M10.81,159.24a.78.78,0,0,1,1.55,0Z"/><path class="cls-6" d="M25.63,158.47H25.5a.77.77,0,0,1,.65.76h.25A.78.78,0,0,0,25.63,158.47Z"/><path class="cls-6" d="M11.58,158.47h-.12a.77.77,0,0,1,.65.76h.25A.78.78,0,0,0,11.58,158.47Z"/><path class="cls-2" d="M26,145a.89.89,0,0,0-.89-.9H12a.9.9,0,0,0-.9.9v.73a.9.9,0,0,0,.9.89H25.12a.89.89,0,0,0,.89-.89V145Z"/><path class="cls-2" d="M25.12,146.08H12a.9.9,0,0,1-.9-.89v.56a.9.9,0,0,0,.9.89H25.12a.89.89,0,0,0,.89-.89v-.56A.89.89,0,0,1,25.12,146.08Z"/><path class="cls-3" d="M18.53,148.6a.34.34,0,0,1-.34-.34V138.12a.34.34,0,1,1,.67,0v10.14A.34.34,0,0,1,18.53,148.6Z"/><path class="cls-12" d="M18.53,137.78h-.1a.35.35,0,0,1,.24.33v10.14a.35.35,0,0,1-.24.33h.1a.34.34,0,0,0,.33-.34V138.12A.34.34,0,0,0,18.53,137.78Z"/><path class="cls-3" d="M22.46,138H14.6a.3.3,0,1,1,0-.59h7.86a.3.3,0,0,1,0,.59Z"/><path class="cls-12" d="M22.47,137.78H14.61a.3.3,0,0,1-.28-.21.28.28,0,0,0,0,.09.29.29,0,0,0,.29.3h7.86a.29.29,0,0,0,.29-.3.28.28,0,0,0,0-.09A.3.3,0,0,1,22.47,137.78Z"/><path class="cls-25" d="M24.24,120.05c-.25,3.33-4.45,4.39-4.45,4.39l-.22.66s4.64-1.13,4.68-4.72C24.25,120.27,24.25,120.16,24.24,120.05Z"/><rect class="cls-26" x="55.16" y="52.47" width="61.29" height="37.97"/><path class="cls-27" d="M116.4,51.34H54.87a1.22,1.22,0,0,0-1.22,1.22V91a1.22,1.22,0,0,0,1.22,1.22H116.4A1.22,1.22,0,0,0,117.62,91V52.56A1.22,1.22,0,0,0,116.4,51.34Zm-1,12.42h0V90H55.84V72.54h0v-19h59.59V63.76Z"/><path class="cls-27" d="M111.12,91.88a2,2,0,0,1-2,2H54.33a2,2,0,0,1-2-2h0a2,2,0,0,1,2-2h54.8a2,2,0,0,1,2,2Z"/><path class="cls-28" d="M61.51,51.28V82.14a.92.92,0,0,0,.92.92h48.48a.92.92,0,0,0,.92-.92V51.28Z"/><path class="cls-29" d="M67.87,89.37a.6.6,0,0,1-.6.6H58a.6.6,0,0,1-.59-.6V87.08a.59.59,0,0,1,.59-.59h9.25a.59.59,0,0,1,.6.59Z"/><path class="cls-1" d="M71.68,89.27a.6.6,0,0,1-.6.6H65.47a.59.59,0,0,1-.59-.6v-.34a.59.59,0,0,1,.59-.6h5.61a.6.6,0,0,1,.6.6Z"/><rect class="cls-30" x="61.02" y="45.4" width="48.82" height="35.22"/><path class="cls-31" d="M109.15,47V54.2h0V80.37h-47V60.8h0V47H60.48v34.1a.92.92,0,0,0,.92.92h48.47a.92.92,0,0,0,.92-.92V47Z"/><rect class="cls-31" x="60.38" y="46.22" width="50.32" height="1.83"/><path class="cls-32" d="M115.2,45.15a2,2,0,0,1-2,2H58.4a2,2,0,0,1-2-2h0a2,2,0,0,1,2-2h54.81a2,2,0,0,1,2,2Z"/><path class="cls-32" d="M110.2,42.64a2,2,0,0,0-2-1.88H63a2,2,0,0,0-2,1.88Z"/><path class="cls-33" d="M76,62.68a.3.3,0,0,0,.27.21,2.83,2.83,0,0,0,.43,0,.33.33,0,0,0,.28-.1c0,.09.19.1.28.1a2.83,2.83,0,0,0,.43,0,.33.33,0,0,0,.27-.21c.15-.44-.7-1.41-.88-1.6a.08.08,0,0,0-.1,0,.08.08,0,0,0-.1,0C76.65,61.27,75.8,62.24,76,62.68Z"/><path class="cls-33" d="M76.88,64.56h.25A7.56,7.56,0,0,0,79,64.33a.22.22,0,0,0,.14-.18l0-.6.43-.42a.2.2,0,0,0-.28-.28l-.48.49a.17.17,0,0,0,0,.12l0,.53a8.13,8.13,0,0,1-1.79.19A9.69,9.69,0,0,1,75.08,64l0-.53a.17.17,0,0,0,0-.12l-.48-.49a.2.2,0,0,0-.28.28l.43.42,0,.6a.18.18,0,0,0,.14.18,9.61,9.61,0,0,0,2,.23Z"/><path class="cls-33" d="M85.8,73.69l-.26-2.78a.36.36,0,0,0-.13-.25l-.83-.73a.8.8,0,0,0,0-.31c-.08-.75-1.16-1.51-1.38-1.65a.37.37,0,0,0-.2-.07l-1.13,0,1.17-1.34a.19.19,0,0,0,0-.27.18.18,0,0,0-.27,0l-1.25,1.44a.19.19,0,0,0,0,.14l-2.88-.1-.23-.58a4.69,4.69,0,0,0,2.44-3.62v0a.47.47,0,0,1,.1-.1,2.42,2.42,0,0,0,.5-.67l2.16-1a.19.19,0,0,0,.1-.25.2.2,0,0,0-.26-.1l-1.86.86s0-.07,0-.1a21.38,21.38,0,0,0-.06-3l3-1.56a.19.19,0,0,0,.08-.26.17.17,0,0,0-.25-.08l-2.9,1.49a12.92,12.92,0,0,0-.37-2.16,2.06,2.06,0,0,0-.84-1.14l2.59-2.41a.19.19,0,0,0-.26-.28l-2.67,2.48a7.13,7.13,0,0,0-3-.67h0c-.33,0-3.29.09-4,1.74l-2.94-1.74a.18.18,0,0,0-.26.06.19.19,0,0,0,.07.27l3,1.78a12.5,12.5,0,0,0-.28,1.52l-2.36-1a.19.19,0,0,0-.25.09.2.2,0,0,0,.1.26l2.47,1.1c0,.49-.09,1-.11,1.45l-2.63-.51a.19.19,0,1,0-.07.38l2.68.52a16.88,16.88,0,0,0,0,1.7A1.89,1.89,0,0,0,73,63.41a.47.47,0,0,1,.1.1v0a4.69,4.69,0,0,0,2.44,3.62l-.23.58-4.43.15a.37.37,0,0,0-.2.07c-.22.14-1.3.9-1.38,1.65a.8.8,0,0,0,0,.31l-.83.73a.36.36,0,0,0-.13.25l-.25,2.79-.89,2.71a.4.4,0,0,0,.25.49l.12,0a.38.38,0,0,0,.36-.27l.9-2.76a.24.24,0,0,0,0-.08l.24-2.67.45-.4.07,0,.78,0,.27,1.52a.29.29,0,0,0-.1.12c-.73,1.52-1.94,4-2.13,4.31a.38.38,0,0,0,0,.48.38.38,0,0,0,.54.08c.08-.06.18-.14,1.74-3.38l.12.88a.46.46,0,0,0,.08.19,21.79,21.79,0,0,0,2.74,2.92.4.4,0,0,0,.22.08.42.42,0,0,0,.32-.16.39.39,0,0,0-.09-.54,9.53,9.53,0,0,1-1.24-1.2,10.55,10.55,0,0,0,2.93.87h0a.19.19,0,0,0,.19-.18.2.2,0,0,0-.18-.21,11,11,0,0,1-3.48-1.17.17.17,0,0,0-.14-.07l-.61-.74-.13-1a6.76,6.76,0,0,0,3.74,1.5h0a.19.19,0,0,0,.19-.16.19.19,0,0,0-.16-.22C71.93,74.2,71.43,73,71.42,73a.2.2,0,0,0-.11-.11l0-.36a.36.36,0,0,0-.24-.3l-.25-1.38h0l.53-.74c.15.62.91,2.63,4.24,2.93h0a.17.17,0,0,0,.16-.09c0,.8,0,1.62,0,2.32a.2.2,0,0,0,.2.2h0a.2.2,0,0,0,.19-.19c0-1.58,0-2.83,0-3.75a.19.19,0,0,0,0-.07.12.12,0,0,0,0-.1c0-.87,0-1.43,0-1.66l.35,0a.18.18,0,0,0,.17-.2.19.19,0,0,0-.2-.18l-5.17.35a.25.25,0,0,0-.14.08l-.5.71-.07,0-.61,0,.08-.07a.37.37,0,0,0,.13-.27.38.38,0,0,0-.1-.29s0,0,0,0c0-.26.55-.75,1-1l4.57-.16a.33.33,0,0,0,.23-.1,2.08,2.08,0,0,0,.82.44.19.19,0,0,0,.15.08l.18,0,.18,0a.16.16,0,0,0,.14-.08,2.06,2.06,0,0,0,.83-.44.33.33,0,0,0,.23.1l4.57.16c.41.29.93.78,1,1,0,0,0,0,0,0a.38.38,0,0,0-.1.29.37.37,0,0,0,.13.27l.08.07-.61,0-.07,0-.5-.71a.25.25,0,0,0-.14-.08l-5.17-.35a.2.2,0,0,0-.21.18.19.19,0,0,0,.18.2l.22,0c0,.3,0,3.48,0,5.58a.19.19,0,0,0,.19.2h0a.2.2,0,0,0,.19-.19c0-1.53,0-2.75,0-3.66A4.56,4.56,0,0,0,80.92,70l.06-.07,0,0,1.18.08c-.11.5-.73,2.37-3.92,2.66a.19.19,0,0,0-.17.21.19.19,0,0,0,.19.17h0c3.33-.3,4.09-2.31,4.24-2.93l.53.74h0l-.25,1.38a.36.36,0,0,0-.24.3l0,.36a.2.2,0,0,0-.11.11s-.49,1.19-3.79,1.74a.19.19,0,0,0,0,.38h0a6.76,6.76,0,0,0,3.74-1.5l-.13,1a21.4,21.4,0,0,1-2.52,2.7.39.39,0,0,0-.09.54.38.38,0,0,0,.54.08A21.79,21.79,0,0,0,83,75a.46.46,0,0,0,.08-.19l.12-.88c1.56,3.24,1.66,3.32,1.74,3.38a.38.38,0,0,0,.54-.08.38.38,0,0,0,0-.48c-.19-.29-1.4-2.79-2.13-4.31a.29.29,0,0,0-.1-.12l.27-1.52.78,0,.07,0,.45.4L85,73.81a.24.24,0,0,0,0,.08l.9,2.76a.38.38,0,0,0,.36.27l.12,0a.38.38,0,0,0,.25-.49Zm-10.22-1c-3.18-.29-3.8-2.16-3.91-2.66l1.18-.08,0,0,.06.07a4.46,4.46,0,0,0,2.8,1.58c0,.37,0,.76,0,1.16A.21.21,0,0,0,75.58,72.65Zm.16-1.44a4.13,4.13,0,0,1-2.39-1.33l2.37-.17C75.73,69.89,75.74,70.45,75.74,71.21ZM73.82,63.4a.66.66,0,0,1,0-.13.93.93,0,0,0-.3-.41,1.15,1.15,0,0,1-.43-.77,21.23,21.23,0,0,1,.44-5.29c.33-1.18,2.57-1.44,3.43-1.45s3.1.27,3.43,1.45a21.23,21.23,0,0,1,.44,5.29,1.19,1.19,0,0,1-.43.77.93.93,0,0,0-.3.41.66.66,0,0,1,0,.13c-.29,1.47-1.07,3.2-3.11,3.33C74.89,66.6,74.11,64.87,73.82,63.4Zm2.69,4.06a.35.35,0,0,0,.18.05h.48a.35.35,0,0,0,.18-.05l.27,0,.27.66a1.8,1.8,0,0,1-1,.46,1.85,1.85,0,0,1-1-.46l.26-.66ZM78,71.22c0-.78,0-1.28,0-1.51l2.49.17A4.12,4.12,0,0,1,78,71.22Z"/><path class="cls-33" d="M66,53.64h4.53a.2.2,0,0,0,.19-.2.2.2,0,0,0-.19-.19H66a.2.2,0,0,0-.19.19A.2.2,0,0,0,66,53.64Z"/><path class="cls-33" d="M69.78,56.38a.18.18,0,0,0-.19-.19H65.07a.19.19,0,1,0,0,.38h4.52A.18.18,0,0,0,69.78,56.38Z"/><path class="cls-33" d="M68.86,59a.18.18,0,0,0-.19-.19H65.4a.19.19,0,0,0-.2.19.2.2,0,0,0,.2.19h3.27A.19.19,0,0,0,68.86,59Z"/><path class="cls-33" d="M68.86,59.64a.18.18,0,0,0-.19-.19H65.4a.19.19,0,1,0,0,.38h3.27A.18.18,0,0,0,68.86,59.64Z"/><path class="cls-33" d="M68.86,60.37a.18.18,0,0,0-.19-.19H65.4a.19.19,0,1,0,0,.38h3.27A.18.18,0,0,0,68.86,60.37Z"/><path class="cls-33" d="M88.07,51.59H83.54a.2.2,0,0,0-.19.19.2.2,0,0,0,.19.2h4.53a.2.2,0,0,0,.19-.2A.2.2,0,0,0,88.07,51.59Z"/><path class="cls-33" d="M88.07,52.5H83.54a.2.2,0,0,0-.19.19.2.2,0,0,0,.19.2h4.53a.2.2,0,0,0,.19-.2A.2.2,0,0,0,88.07,52.5Z"/><path class="cls-33" d="M88.79,60.56H84.26a.2.2,0,0,0-.19.2.2.2,0,0,0,.19.19h4.53a.2.2,0,0,0,.19-.19A.2.2,0,0,0,88.79,60.56Z"/><path class="cls-33" d="M101.82,52.24h6.43a.19.19,0,0,0,.19-.19.19.19,0,0,0-.19-.2h-6.43a.2.2,0,0,0-.19.2A.2.2,0,0,0,101.82,52.24Z"/><path class="cls-33" d="M101.82,53.1h4.91a.2.2,0,1,0,0-.39h-4.91a.2.2,0,0,0-.19.19A.2.2,0,0,0,101.82,53.1Z"/><path class="cls-33" d="M108.19,74.23h-3.92a.19.19,0,0,0-.19.2.19.19,0,0,0,.19.19h3.92a.19.19,0,0,0,.19-.19A.19.19,0,0,0,108.19,74.23Z"/><path class="cls-33" d="M107.27,75.07h-3a.19.19,0,0,0-.19.2.19.19,0,0,0,.19.19h3a.2.2,0,0,0,.19-.19A.2.2,0,0,0,107.27,75.07Z"/><path class="cls-33" d="M88.51,57H85.24a.2.2,0,1,0,0,.39h3.27a.19.19,0,0,0,.19-.19A.19.19,0,0,0,88.51,57Z"/><path class="cls-33" d="M87.62,57.8H85.24a.19.19,0,1,0,0,.38h2.38a.19.19,0,0,0,0-.38Z"/><path class="cls-33" d="M67.45,56.85H65.07a.19.19,0,0,0-.19.19.19.19,0,0,0,.19.2h2.38a.19.19,0,0,0,.19-.2A.19.19,0,0,0,67.45,56.85Z"/><path class="cls-33" d="M65.88,65.53a.19.19,0,0,0,.19.19h4a.19.19,0,0,0,.19-.19.19.19,0,0,0-.19-.2h-4A.19.19,0,0,0,65.88,65.53Z"/><path class="cls-33" d="M71.36,64.7a.18.18,0,0,0-.19-.19h-5.1a.19.19,0,0,0,0,.38h5.1A.18.18,0,0,0,71.36,64.7Z"/><path class="cls-33" d="M83.4,65.81a.2.2,0,0,0,.19.2H88.7a.2.2,0,0,0,.19-.2.2.2,0,0,0-.19-.19H83.59A.2.2,0,0,0,83.4,65.81Z"/><ellipse class="cls-34" cx="126.32" cy="139.5" rx="11.63" ry="0.83"/><path class="cls-2" d="M119.19,88.58a31.43,31.43,0,0,1-14.78-5.32c-2.39-1.62-3.26-.6-1.16,1.56a24.31,24.31,0,0,0,15.94,7.64Z"/><path class="cls-2" d="M103.25,84.31a4.36,4.36,0,0,1-1.14-1.65c-.17.36.16,1.12,1.14,2.12a24.31,24.31,0,0,0,15.94,7.64V92A24.22,24.22,0,0,1,103.25,84.31Z"/><path class="cls-8" d="M104.12,83.28a1.57,1.57,0,1,0-1.57,1.56A1.56,1.56,0,0,0,104.12,83.28Z"/><path class="cls-35" d="M101.3,84.1a1.5,1.5,0,0,0,2.08.42,1.54,1.54,0,0,0,.42-2.08"/><path class="cls-8" d="M103.66,82.19l-1.39-1a1.47,1.47,0,0,1-.58-1.35l-.13.17a1.45,1.45,0,0,0,.28,2l1.45,1.08Z"/><path class="cls-2" d="M130.46,90.8A57.89,57.89,0,0,1,138.73,110c.77,3.53,2.24,3.92,2.11.42a41.88,41.88,0,0,0-7.51-21.81Z"/><path class="cls-2" d="M139.15,109.71a58.08,58.08,0,0,0-8.26-19.24l2.42-1.81,0,0-2.86,2.15A58.08,58.08,0,0,1,138.67,110c.53,2.45,1.41,3.38,1.85,2.55C140.08,112.42,139.53,111.44,139.15,109.71Z"/><path class="cls-8" d="M141.8,112.81a1.56,1.56,0,1,0-1.56,1.56A1.56,1.56,0,0,0,141.8,112.81Z"/><polygon class="cls-8" points="122.75 119.63 124.18 137.55 125.01 137.55 125.36 119.63 122.75 119.63"/><polygon class="cls-36" points="122.78 120.1 122.87 120.96 125.3 120.96 125.33 120.12 122.78 120.1"/><path class="cls-8" d="M125,137.51a.41.41,0,0,0-.41-.42.42.42,0,0,0,0,.84A.41.41,0,0,0,125,137.51Z"/><path class="cls-8" d="M121,137.81c-.17.07-.71.37-.74.57a.57.57,0,0,0,.48.64s3.74,0,3.77,0c.71.1.75-.17.81-.89s-.36-1-.62-1-.23-.1-.42,0Z"/><path class="cls-37" d="M120.32,138l.72-.23a.62.62,0,0,0,.06.6.6.6,0,0,0,.52.24l2.92-.53a1.87,1.87,0,0,0,.75-.19,1.4,1.4,0,0,1,0,.58c-.11.74-.33.66-.88.66-.34,0-3.52.18-3.84.13a.86.86,0,0,1-.64-.8A.62.62,0,0,1,120.32,138Z"/><g class="cls-4"><path class="cls-37" d="M121,137.81h0a.28.28,0,0,0,0,.13A.24.24,0,0,1,121,137.81Z"/><path class="cls-37" d="M120,138.45a.89.89,0,0,0,.65.68c.32,0,3.5-.16,3.84-.17.55,0,.77.08.87-.66v0a1.28,1.28,0,0,1,0,.19c-.1.74-.32.66-.87.67-.34,0-3.52.21-3.84.16a.83.83,0,0,1-.64-.79Z"/></g><polygon class="cls-8" points="129.1 119.63 127.68 137.55 126.85 137.55 126.49 119.63 129.1 119.63"/><polygon class="cls-36" points="129.04 120.1 128.95 120.96 126.52 120.96 126.49 120.12 129.04 120.1"/><path class="cls-8" d="M127.68,137.51a.42.42,0,1,0-.41.42A.41.41,0,0,0,127.68,137.51Z"/><path class="cls-8" d="M131.05,138.12c.16.09.68.42.7.62a.58.58,0,0,1-.52.61l-3.76-.27c-.72.06-.74-.22-.75-.93s.42-1,.68-1,.23-.08.42,0Z"/><path class="cls-37" d="M131.67,138.37l-.7-.28a.61.61,0,0,1-.1.59.62.62,0,0,1-.53.21l-2.89-.71a1.74,1.74,0,0,1-.73-.24,1.26,1.26,0,0,0-.08.58c.06.75.29.68.84.71.34,0,3.5.4,3.82.37a.84.84,0,0,0,.69-.76A.58.58,0,0,0,131.67,138.37Z"/><g class="cls-4"><path class="cls-37" d="M131,138.1h0l0,.13A.48.48,0,0,0,131,138.1Z"/><path class="cls-37" d="M132,138.79a.86.86,0,0,1-.68.65c-.32,0-3.48-.35-3.82-.37-.55,0-.78,0-.84-.71v.16c.06.75.29.68.84.71.34,0,3.5.4,3.82.37a.84.84,0,0,0,.69-.76S132,138.81,132,138.79Z"/></g><path class="cls-8" d="M141.78,113.05l-.46,1.68a2.89,2.89,0,0,0,.17,1.36,1.45,1.45,0,0,1-1-1.77l.59-2.19Z"/><path class="cls-36" d="M140.58,114.34a1.49,1.49,0,0,0,.9,1.72v0a1.45,1.45,0,0,1-1-1.73Z"/><circle class="cls-11" cx="121.42" cy="81.27" r="0.29"/><rect class="cls-38" x="124.75" y="87.26" width="2.49" height="0.91"/><polygon class="cls-39" points="133.95 102.66 117.98 102.66 117.71 107.98 134.25 107.98 133.95 102.66"/><polygon class="cls-8" points="126.92 89.63 125.11 89.63 125.41 85.99 126.63 85.99 126.92 89.63"/><path class="cls-36" d="M126.61,85.88A1.36,1.36,0,0,1,126,86a1.33,1.33,0,0,1-.6-.14l0,.48a1.38,1.38,0,0,0,.65.15,1.44,1.44,0,0,0,.62-.14Z"/><polygon class="cls-40" points="135.11 120.14 131.75 100.71 132.34 90.56 126.02 93.48 119.7 90.56 120.29 100.71 116.93 120.14 135.11 120.14"/><circle class="cls-8" cx="126.02" cy="80.62" r="4.68"/><circle class="cls-8" cx="126.02" cy="81.08" r="4.32"/><circle class="cls-8" cx="126.02" cy="81.54" r="3.96"/><circle class="cls-8" cx="126.02" cy="82" r="3.6"/><circle class="cls-8" cx="126.02" cy="82.45" r="3.24"/><circle class="cls-8" cx="126.02" cy="82.91" r="2.88"/><circle class="cls-8" cx="126.02" cy="83.37" r="2.52"/><circle class="cls-8" cx="126.02" cy="83.83" r="2.16"/><circle class="cls-8" cx="126.02" cy="84.28" r="1.81"/><circle class="cls-8" cx="126.02" cy="84.74" r="1.45"/><path class="cls-36" d="M126,75.94h-.16a4.68,4.68,0,0,1,2.62,8.44l-.22.17-.23.18a1.84,1.84,0,0,1-.22.17l-.22.18-.23.18-.22.17a1.81,1.81,0,0,1-.23.18,1.84,1.84,0,0,1-.22.17,1.46,1.46,0,0,1-.83.39H126a1.42,1.42,0,0,0,1-.4,1.84,1.84,0,0,0,.22-.17,1.81,1.81,0,0,0,.23-.18l.21-.17.24-.18.22-.18a1.84,1.84,0,0,0,.22-.17l.23-.18.22-.17A4.68,4.68,0,0,0,126,75.94Z"/><path class="cls-37" d="M131.89,73.64A1.91,1.91,0,0,0,130,71.73a1.86,1.86,0,0,0-1.09.35,2.52,2.52,0,1,0,2.74,2.51h0A1.89,1.89,0,0,0,131.89,73.64Z"/><path class="cls-41" d="M130.84,72.76a2.51,2.51,0,0,1-3.55,3.55,2.51,2.51,0,1,0,3.55-3.55Z"/><path class="cls-37" d="M130.56,76.26l.11-.26a7.29,7.29,0,0,0-1-.73,6.39,6.39,0,0,0-9.5,4.57,7.17,7.17,0,0,0-.08.81,8.26,8.26,0,0,0,9.35-2.53c1.57,2.21,1.21,3.32,1.21,3.32A4.37,4.37,0,0,0,130.56,76.26Z"/><path class="cls-36" d="M124.28,81.09a9.15,9.15,0,0,1-2.93-.06,4.59,4.59,0,0,0,.09.5,7.59,7.59,0,0,0,8.23-3.76A8.25,8.25,0,0,1,124.28,81.09Z"/><circle class="cls-8" cx="125.98" cy="91" r="3.46"/><polygon class="cls-38" points="119.56 104.96 118.88 108.84 133.15 108.84 132.47 104.96 119.56 104.96"/><polygon class="cls-38" points="132.34 100.73 132.3 100.5 132.3 89.15 125.98 91.75 119.66 89.15 119.66 100.5 119.62 100.73 132.34 100.73"/><polygon class="cls-38" points="134.48 116.53 133.82 112.65 118.22 112.65 117.55 116.53 134.48 116.53"/><polygon class="cls-38" points="125.88 95.39 123.96 95.76 125.88 96.12 127.8 95.76 125.88 95.39"/><polygon class="cls-2" points="128.58 104.42 134.25 107.98 133.3 88.61 128.94 88.08 128.58 104.42"/><polygon class="cls-2" points="123.02 88.08 118.66 88.61 117.71 107.98 123.38 104.42 123.02 88.08"/><polygon class="cls-38" points="129.12 91.04 127.24 90.35 127.24 87.27 129.12 87.96 129.12 91.04"/><polygon class="cls-38" points="122.88 91.04 124.75 90.35 124.75 87.27 122.88 87.96 122.88 91.04"/><path class="cls-41" d="M129.47,78.18a1.53,1.53,0,0,0,.22-.41,2.72,2.72,0,0,1-.26.35Z"/><path class="cls-41" d="M131.62,74.37a1.55,1.55,0,0,1,0,.22,1.93,1.93,0,0,0-.36-2.36,2,2,0,0,1,.54,1.33A1.86,1.86,0,0,1,131.62,74.37Z"/><circle class="cls-11" cx="130.75" cy="81.27" r="0.29"/></g></g></g></svg>