<svg height="512" viewBox="0 0 64 64" width="512" xmlns="http://www.w3.org/2000/svg"><path d="m59 17v36h-54v-36a4 4 0 0 1 4-4h46a4 4 0 0 1 4 4z" fill="#3d9ae2"/><path d="m9 17h46v32h-46z" fill="#ffdaaa"/><path d="m5 53h-2v4a4 4 0 0 0 4 4h50a4 4 0 0 0 4-4v-4z" fill="#58595b"/><path d="m28 57h8a2 2 0 0 0 2-2v-2h-12v2a2 2 0 0 0 2 2z" fill="#e6e7e8"/><path d="m13 25h10v8h-10z" fill="#d80027"/><path d="m27 25h10v8h-10z" fill="#ffcd00"/><circle cx="50" cy="14" fill="#7ed63e" r="11"/><path d="m41 33h10v-8h-1-9z" fill="#ff9811"/><path d="m5 57v-4h-2v4a4 4 0 0 0 4 4h2a4 4 0 0 1 -4-4z" fill="#414042"/><path d="m11 13h-2a4 4 0 0 0 -4 4v36h2v-36a4 4 0 0 1 4-4z" fill="#1a6fb0"/><path d="m43.05 15.464 4.243 4.243a1 1 0 0 0 1.414 0l8-8a1 1 0 0 0 -1.414-1.414l-7.293 7.293-3.536-3.536a1 1 0 0 0 -1.414 1.414z" fill="#f1f2f2"/><g fill="#ff5023"><path d="m12 20h2v2h-2z"/><path d="m16 20h2v2h-2z"/><path d="m20 20h2v2h-2z"/><path d="m24 20h14v2h-14z"/><path d="m14 36h8v2h-8z"/><path d="m14 40h8v2h-8z"/><path d="m14 44h8v2h-8z"/><path d="m32 36h4v2h-4z"/><path d="m32 40h4v2h-4z"/><path d="m32 44h4v2h-4z"/><path d="m42 36h8v2h-8z"/><path d="m42 40h8v2h-8z"/><path d="m42 44h8v2h-8z"/><path d="m28 36h2v2h-2z"/><path d="m28 40h2v2h-2z"/><path d="m28 44h2v2h-2z"/></g></svg>