<svg id="Layer_1" enable-background="new 0 0 512 512" height="512" viewBox="0 0 512 512" width="512" xmlns="http://www.w3.org/2000/svg"><g><g fill="#fec165"><path d="m289.373 314.772-16.636-9.099c-.902-.493-1.644-1.235-2.138-2.138l-9.099-16.636c-2.04-3.729-7.396-3.729-9.436 0l-9.099 16.636c-.493.902-1.235 1.644-2.138 2.138l-16.636 9.099c-3.729 2.04-3.729 7.396 0 9.436l16.636 9.099c.902.493 1.644 1.235 2.138 2.138l9.099 16.636c2.04 3.729 7.396 3.729 9.436 0l9.099-16.636c.493-.902 1.235-1.644 2.138-2.138l16.636-9.099c3.729-2.04 3.729-7.397 0-9.436z"/><path d="m479.313 58.133-17.233-9.425c-.935-.511-1.703-1.28-2.214-2.214l-9.426-17.234c-2.113-3.863-7.661-3.863-9.774 0l-9.425 17.233c-.511.935-1.28 1.703-2.214 2.214l-17.233 9.425c-3.863 2.113-3.863 7.661 0 9.774l17.233 9.425c.935.511 1.703 1.28 2.214 2.214l9.425 17.233c2.113 3.863 7.661 3.863 9.774 0l9.425-17.233c.511-.935 1.28-1.703 2.214-2.214l17.233-9.425c3.864-2.112 3.864-7.66.001-9.773z"/><path d="m97.073 183.802-16.647-9.104c-.903-.494-1.645-1.236-2.139-2.139l-9.104-16.647c-2.041-3.732-7.401-3.732-9.442 0l-9.104 16.647c-.494.903-1.236 1.645-2.139 2.139l-16.647 9.104c-3.732 2.041-3.732 7.401 0 9.442l16.647 9.105c.903.494 1.645 1.236 2.139 2.139l9.104 16.647c2.041 3.732 7.401 3.732 9.442 0l9.104-16.647c.494-.903 1.236-1.645 2.139-2.139l16.647-9.105c3.732-2.042 3.732-7.401 0-9.442z"/></g><path d="m21.023 415.015 13.474-47.097c.622-2.175 2.882-3.442 5.062-2.838l216.441 59.946-19.432 46.833z" fill="#f3f0f3"/><g><g><g><path d="m228.28 417.349-19.569 47.164 27.857 7.346 19.432-46.833z" fill="#e2dee2"/></g></g></g><path d="m490.977 415.015-13.474-47.097c-.622-2.175-2.882-3.442-5.062-2.838l-216.441 59.946 19.432 46.833z" fill="#f3f0f3"/><g><g><g><path d="m462.931 422.411 28.046-7.397-13.474-47.097c-.622-2.175-2.882-3.442-5.062-2.838l-24.648 6.827z" fill="#e2dee2"/></g></g></g><circle cx="256" cy="108.539" fill="#01d0fb" r="108.54"/><path d="m256 0c-5.247 0-10.405.38-15.453 1.1 52.624 7.502 93.087 52.742 93.087 107.439 0 54.698-40.463 99.937-93.087 107.439 5.048.72 10.206 1.1 15.453 1.1 59.945 0 108.54-48.595 108.54-108.539s-48.595-108.539-108.54-108.539z" fill="#01c0fa"/><path d="m239.28 60.222c1.544 4.617-.289 9.764-3.198 13.662-2.914 3.903-6.816 6.927-10.193 10.429s-6.348 7.8-6.619 12.663c-.246 4.404 1.746 8.572 3.112 12.769 4.129 11.742-2.759 19.281-14.805 15.688-16.474-5.789-21.607-24.723-24.848-40.203-1.833-8.051-3.816-16.204-7.892-23.382-3.353-5.446-6.575-9.725-8.543-14.429 17.217-25.22 44.781-42.803 76.581-46.634h.005c1.659.598 3.14 1.64 4.014 3.155 3.965 8.273-6.508 18.794-10.82 25.456-3.898 5.803-6.739 13.309-3.864 19.677 1.812 4.029 5.671 6.957 7.07 11.149z" fill="#00f2a6"/><path d="m305.156 156.919c-3.715 7.405-6.059 15.929-4.168 23.999 1.404 5.982 5.002 11.216 6.942 17.048.613 1.804.974 3.584 1.1 5.297-6.594 3.7-13.608 6.729-20.96 9.002-.878-1.042-1.79-2.094-3-2.933-6.435-4.443-15.316-4.983-20.598-11.177-6.146-7.197-4.361-19.566-11.901-25.292-3.42-2.595-8.196-3.237-11.081-6.421-2.851-3.14-3.025-7.81-3.044-12.055-.024-5.774-.043-11.602 1.172-17.246 2.861-13.025 10.063-18.119 22.33-21.713 10.54-3.44 21.081-6.874 31.626-10.309 7.328-2.499 16.189-4.94 23.136-.299 4.674 3.189 6.84 9.199 6.594 14.853-1.056 14.216-12.224 24.897-18.148 37.246z" fill="#00f2a6"/><path d="m288.07 212.265c7.352-2.272 14.366-5.302 20.96-9.002-.125-1.713-.487-3.493-1.1-5.297-1.501-4.513-3.985-8.671-5.687-13.092-7.861 7.943-16.939 14.68-26.934 19.904 3.38 1.31 6.824 2.526 9.759 4.553 1.212.84 2.124 1.892 3.002 2.934z" fill="#05e39c"/><path d="m349.436 53.276c-3.763 4.94-11.143 6.565-20.574 5.374-6.903-.627-14.732-1.066-19.812 3.652-1.225 1.138-2.311 2.59-3.927 3.034-3.84.883-6.213-3.16-7.019-6.382-2.769-9.199-2.827-19.359.796-28.259 2.542-6.257 6.976-11.751 12.629-15.432 15.591 9.3 28.65 22.397 37.907 38.013z" fill="#00f2a6"/><path d="m311.529 15.262c-5.282 3.439-9.477 8.471-12.082 14.218 8.798 8.276 16.216 18.002 21.868 28.799 2.523-.048 5.093.147 7.547.369 9.431 1.192 16.812-.434 20.574-5.374-9.257-15.614-22.316-28.711-37.907-38.012z" fill="#05e39c"/><path d="m511.509 412.299c-2.128-8.229-10.564-13.185-18.843-11.071l-214.723 54.849c-6.842 1.749-11.625 7.878-11.625 14.9 0 5.655-4.629 10.256-10.318 10.256-5.69 0-10.318-4.601-10.318-10.256 0-7.022-4.783-13.151-11.625-14.9l-214.723-54.849c-8.281-2.112-16.716 2.841-18.843 11.071-2.128 8.229 2.859 16.613 11.138 18.729l205.032 52.373c5.307 16.567 20.935 28.599 39.339 28.599s34.032-12.032 39.34-28.599l205.032-52.373c8.278-2.115 13.265-10.5 11.137-18.729z" fill="#fe646f"/><g><path d="m511.509 412.299c-2.128-8.229-10.564-13.185-18.843-11.071l-26.742 6.831c7.595-.493 15.633 4.617 17.533 11.966 1.781 6.888-1.433 13.87-7.38 17.208l24.295-6.206c8.278-2.115 13.265-10.499 11.137-18.728z" fill="#fd4755"/></g><g><g><path d="m256 431.935c-1.594 0-3.188-.507-4.527-1.521l-155.135-117.44c-3.302-2.5-3.953-7.204-1.453-10.506s7.203-3.954 10.507-1.453l150.608 114.013 150.608-114.014c3.303-2.501 8.007-1.851 10.507 1.453 2.5 3.302 1.849 8.006-1.453 10.506l-155.135 117.44c-1.339 1.015-2.933 1.522-4.527 1.522z" fill="#f3f0f3"/></g></g><g><g><path d="m256 432.526c-1.123 0-2.246-.252-3.282-.756l-195.708-95.236c-3.725-1.812-5.274-6.302-3.462-10.026 1.813-3.724 6.303-5.271 10.026-3.462l192.426 93.64 192.426-93.64c3.725-1.811 8.213-.261 10.026 3.462 1.812 3.725.262 8.214-3.462 10.026l-195.708 95.236c-1.036.504-2.159.756-3.282.756z" fill="#e2dee2"/></g></g></g></svg>