<svg id="Capa_1" enable-background="new 0 0 512.056 512.056" height="512" viewBox="0 0 512.056 512.056" width="512" xmlns="http://www.w3.org/2000/svg"><path d="m135.485 486.169h-123.485c-6.627 0-12-5.373-12-12v-423.098c0-6.627 5.373-12 12-12h123.485c6.627 0 12 5.373 12 12v423.098c0 6.628-5.373 12-12 12z" fill="#05e29a"/><path d="m135.06 39.071h-25.14v361.682c0 27.193-22.045 49.238-49.238 49.238h-60.682v23.754c0 6.862 5.563 12.425 12.425 12.425h122.635c6.862 0 12.425-5.563 12.425-12.425v-422.249c0-6.862-5.563-12.425-12.425-12.425z" fill="#1dd08d"/><path d="m90.93 431.735h-34.376c-13.618 0-24.658-11.04-24.658-24.658v-1.746c0-13.618 11.04-24.658 24.658-24.658h34.376c13.618 0 24.658 11.04 24.658 24.658v1.746c.001 13.618-11.039 24.658-24.658 24.658z" fill="#586b76"/><path d="m90.057 380.672h-7.513c.746 2.399 1.148 4.949 1.148 7.593 0 14.101-11.431 25.531-25.531 25.531h-25.117c3.233 10.393 12.927 17.938 24.383 17.938h32.63c14.101 0 25.531-11.431 25.531-25.531.001-14.1-11.43-25.531-25.531-25.531z" fill="#465961"/><path d="m111.959 317.838h-76.433c-3.72 0-6.736-3.016-6.736-6.736v-208.834c0-3.72 3.016-6.736 6.736-6.736h76.433c3.72 0 6.736 3.016 6.736 6.736v208.834c0 3.721-3.016 6.736-6.736 6.736z" fill="#fff0e1"/><path d="m111.721 95.532h-21.816v187.824c0 3.852-3.123 6.974-6.974 6.974h-54.141v20.533c0 3.852 3.123 6.974 6.974 6.974h75.956c3.852 0 6.974-3.123 6.974-6.974v-208.356c.001-3.852-3.122-6.975-6.973-6.975z" fill="#ffeccf"/><path d="m282.927 486.169h-123.485c-6.627 0-12-5.373-12-12v-423.098c0-6.627 5.373-12 12-12h123.485c6.627 0 12 5.373 12 12v423.098c0 6.628-5.372 12-12 12z" fill="#fcb143"/><path d="m282.502 39.071h-25.14v361.682c0 27.193-22.045 49.238-49.238 49.238h-60.682v23.754c0 6.862 5.563 12.425 12.425 12.425h122.635c6.862 0 12.425-5.563 12.425-12.425v-422.249c0-6.862-5.563-12.425-12.425-12.425z" fill="#fba615"/><path d="m238.373 431.735h-34.376c-13.618 0-24.658-11.04-24.658-24.658v-1.746c0-13.618 11.04-24.658 24.658-24.658h34.376c13.618 0 24.658 11.04 24.658 24.658v1.746c0 13.618-11.04 24.658-24.658 24.658z" fill="#586b76"/><path d="m237.5 380.672h-7.513c.746 2.399 1.148 4.949 1.148 7.593 0 14.101-11.431 25.531-25.531 25.531h-25.117c3.233 10.393 12.927 17.938 24.383 17.938h32.63c14.101 0 25.531-11.431 25.531-25.531 0-14.1-11.431-25.531-25.531-25.531z" fill="#465961"/><path d="m259.401 317.838h-76.433c-3.72 0-6.736-3.016-6.736-6.736v-208.834c0-3.72 3.016-6.736 6.736-6.736h76.433c3.72 0 6.736 3.016 6.736 6.736v208.834c0 3.721-3.016 6.736-6.736 6.736z" fill="#fff0e1"/><path d="m259.163 95.532h-21.815v187.824c0 3.852-3.123 6.974-6.974 6.974h-54.141v20.533c0 3.852 3.123 6.974 6.974 6.974h75.956c3.852 0 6.974-3.123 6.974-6.974v-208.356c0-3.852-3.122-6.975-6.974-6.975z" fill="#ffeccf"/><path d="m502.082 465.933-121.71 20.862c-6.532 1.12-12.735-3.268-13.855-9.8l-71.481-417.017c-1.12-6.532 3.268-12.735 9.8-13.855l121.71-20.862c6.532-1.12 12.735 3.268 13.855 9.8l71.481 417.017c1.119 6.532-3.268 12.735-9.8 13.855z" fill="#fc6b55"/><path d="m426.127 25.333-25.386 4.044 61.128 357.473c4.594 26.803-13.409 52.255-40.212 56.849l-59.202 10.455 3.99 22.422c1.159 6.763 7.582 11.306 14.345 10.147l120.872-20.719c6.763-1.159 11.306-7.582 10.147-14.345l-71.337-416.179c-1.159-6.763-7.581-11.306-14.345-10.147z" fill="#fc534e"/><path d="m448.971 419.809-33.882 5.808c-13.423 2.301-26.169-6.715-28.47-20.138l-.295-1.721c-2.301-13.423 6.715-26.169 20.138-28.47l33.882-5.808c13.423-2.301 26.169 6.715 28.47 20.138l.295 1.721c2.301 13.422-6.715 26.169-20.138 28.47z" fill="#586b76"/><path d="m439.484 369.627-7.405 1.269c1.141 2.238 1.968 4.684 2.414 7.29 2.382 13.898-6.953 27.096-20.851 29.478l-24.756 4.243c4.942 9.697 15.772 15.497 27.063 13.561l32.161-5.513c13.898-2.382 23.233-15.58 20.851-29.478-2.382-13.897-15.579-23.232-29.477-20.85z" fill="#465961"/><path d="m450.455 303.996-75.334 12.913c-3.667.629-7.149-1.834-7.777-5.501l-35.282-205.832c-.629-3.667 1.834-7.149 5.501-7.777l75.334-12.913c3.667-.629 7.149 1.834 7.777 5.501l35.282 205.832c.629 3.667-1.834 7.149-5.501 7.777z" fill="#fff0e1"/><path d="m412.662 84.926-21.502 3.686 31.898 186.411c.651 3.797-1.899 7.402-5.696 8.053l-53.362 9.146 3.303 18.951c.651 3.796 4.256 6.347 8.053 5.696l74.864-12.833c3.797-.651 6.347-4.256 5.696-8.052l-35.201-205.362c-.651-3.797-4.256-6.347-8.053-5.696z" fill="#ffeccf"/><path d="m90.057 372.907h-32.63c-18.36 0-33.297 14.937-33.297 33.297s14.937 33.297 33.297 33.297h32.63c18.36 0 33.297-14.937 33.297-33.297s-14.937-33.297-33.297-33.297zm0 51.063h-32.63c-9.796 0-17.766-7.97-17.766-17.766s7.97-17.766 17.766-17.766h32.63c9.796 0 17.766 7.97 17.766 17.766s-7.97 17.766-17.766 17.766z" fill="#e5ecf1"/><path d="m59.119 261.267c4.289 0 7.766-3.476 7.766-7.766v-96.024c0-4.289-3.477-7.766-7.766-7.766s-7.766 3.476-7.766 7.766v96.024c0 4.29 3.477 7.766 7.766 7.766z" fill="#fbbe66"/><path d="m88.366 261.267c4.289 0 7.766-3.476 7.766-7.766v-70.714c0-4.289-3.477-7.766-7.766-7.766s-7.766 3.476-7.766 7.766v70.714c0 4.29 3.477 7.766 7.766 7.766z" fill="#fbbe66"/><path d="m237.499 372.907h-32.63c-18.36 0-33.297 14.937-33.297 33.297s14.937 33.297 33.297 33.297h32.63c18.36 0 33.297-14.937 33.297-33.297s-14.937-33.297-33.297-33.297zm0 51.063h-32.63c-9.796 0-17.766-7.97-17.766-17.766s7.97-17.766 17.766-17.766h32.63c9.796 0 17.766 7.97 17.766 17.766s-7.97 17.766-17.766 17.766z" fill="#e5ecf1"/><path d="m206.561 261.267c4.289 0 7.766-3.476 7.766-7.766v-96.024c0-4.289-3.477-7.766-7.766-7.766s-7.766 3.476-7.766 7.766v96.024c.001 4.29 3.477 7.766 7.766 7.766z" fill="#fbbe66"/><path d="m235.808 261.268c4.289 0 7.766-3.476 7.766-7.766v-96.025c0-4.289-3.477-7.766-7.766-7.766s-7.766 3.476-7.766 7.766v96.025c.001 4.29 3.478 7.766 7.766 7.766z" fill="#fbbe66"/><path d="m438.172 361.973-32.161 5.513c-8.766 1.503-16.422 6.33-21.559 13.591-5.136 7.261-7.137 16.087-5.634 24.853 1.503 8.767 6.329 16.423 13.59 21.559 5.687 4.022 12.331 6.121 19.158 6.121 1.89 0 3.795-.161 5.696-.486l32.16-5.513c8.766-1.503 16.422-6.33 21.559-13.591 5.136-7.261 7.137-16.087 5.635-24.854-3.103-18.097-20.348-30.294-38.444-27.193zm20.129 43.077c-2.74 3.875-6.825 6.449-11.503 7.251l-32.16 5.513c-4.676.802-9.387-.266-13.261-3.006s-6.449-6.825-7.251-11.502c-.802-4.678.266-9.387 3.006-13.261 2.74-3.875 6.826-6.45 11.503-7.251l32.161-5.513c1.011-.174 2.018-.258 3.011-.258 8.489 0 16.02 6.122 17.501 14.766.802 4.678-.266 9.388-3.007 13.261z" fill="#e5ecf1"/><g fill="#fbbe66"><path d="m369.97 147.214c-4.227.725-7.066 4.739-6.342 8.967l16.223 94.644c.649 3.783 3.932 6.454 7.645 6.454.435 0 .877-.036 1.321-.112 4.227-.725 7.066-4.739 6.342-8.967l-16.223-94.644c-.725-4.227-4.738-7.063-8.966-6.342z"/><path d="m416.323 252.337c.435 0 .877-.036 1.321-.112 4.227-.725 7.066-4.739 6.342-8.967l-16.223-94.644c-.724-4.226-4.734-7.065-8.966-6.342-4.227.725-7.066 4.739-6.342 8.967l16.223 94.644c.649 3.782 3.932 6.454 7.645 6.454z"/></g></svg>